G04 Created by Delta Design Version 2.6.36104.0403*
G04 Date: 11.09.2020 14:45:25*
G04 Project: Programming the device ESP-07*
G04 File name: ASSEMBLY_TOP*
G04 File format: RS274X*

G04 Parameters*
%FSAN2X44Y44D3M2*%
%MIA0B0*%
%MOMM*%
%IOA0B0*%
%SFA1B1*%
%IJ*%
%IR0*%
G04 End parameters*
G04 Aperture macros*

G04 End Aperture macros*
G04 Apertures*
%ADD10C,.200000*%
G04 End apertures*
G04 Layers*
%LNASSEMBLY_TOP*%
%SRX1Y1I0J0*%
G36*
G01X00027994Y00029493D02*
G01X00027994Y00031240D01*
G01X00027979Y00031349D01*
G01X00027932Y00031427D01*
G01X00027854Y00031473D01*
G01X00027745Y00031489D01*
G01X00023254Y00031489D01*
G01X00023145Y00031473D01*
G01X00023067Y00031427D01*
G01X00023021Y00031349D01*
G01X00023005Y00031240D01*
G01X00023005Y00029493D01*
G01X00023023Y00029294D01*
G01X00023079Y00029110D01*
G01X00023170Y00028941D01*
G01X00023299Y00028788D01*
G01X00023453Y00028660D01*
G01X00023622Y00028569D01*
G01X00023805Y00028514D01*
G01X00024003Y00028495D01*
G01X00026996Y00028495D01*
G01X00027196Y00028514D01*
G01X00027380Y00028568D01*
G01X00027495Y00028630D01*
G01X00027495Y00029493D01*
G01X00027486Y00029389D01*
G01X00027459Y00029295D01*
G01X00027414Y00029210D01*
G01X00027351Y00029135D01*
G01X00027275Y00029074D01*
G01X00027190Y00029030D01*
G01X00027097Y00029003D01*
G01X00026996Y00028994D01*
G01X00024003Y00028994D01*
G01X00023898Y00029004D01*
G01X00023802Y00029031D01*
G01X00023718Y00029077D01*
G01X00023643Y00029141D01*
G01X00023582Y00029217D01*
G01X00023539Y00029302D01*
G01X00023513Y00029394D01*
G01X00023504Y00029493D01*
G01X00023504Y00030990D01*
G01X00027495Y00030990D01*
G01X00027495Y00029493D01*
G01X00027495Y00028630D01*
G01X00027548Y00028659D01*
G01X00027702Y00028786D01*
G01X00027830Y00028939D01*
G01X00027921Y00029108D01*
G01X00027976Y00029293D01*
G01X00027994Y00029493D01*
G37*
G36*
G01X00028044Y00025715D02*
G01X00028031Y00025790D01*
G01X00027991Y00025854D01*
G01X00027924Y00025908D01*
G01X00027830Y00025950D01*
G01X00023337Y00027451D01*
G01X00023248Y00027469D01*
G01X00023151Y00027448D01*
G01X00023076Y00027387D01*
G01X00023023Y00027306D01*
G01X00023005Y00027212D01*
G01X00023021Y00027135D01*
G01X00023048Y00027077D01*
G01X00023105Y00027021D01*
G01X00023177Y00026984D01*
G01X00024256Y00026624D01*
G01X00024256Y00024814D01*
G01X00023177Y00024454D01*
G01X00023079Y00024398D01*
G01X00023030Y00024338D01*
G01X00023005Y00024226D01*
G01X00023022Y00024134D01*
G01X00023073Y00024051D01*
G01X00023156Y00023989D01*
G01X00023248Y00023969D01*
G01X00023337Y00023987D01*
G01X00026964Y00025192D01*
G01X00026964Y00025715D01*
G01X00024766Y00024981D01*
G01X00024766Y00026453D01*
G01X00026964Y00025715D01*
G01X00026964Y00025192D01*
G01X00027830Y00025480D01*
G01X00027924Y00025523D01*
G01X00027991Y00025576D01*
G01X00028031Y00025640D01*
G01X00028044Y00025715D01*
G37*
G36*
G01X00023255Y00021510D02*
G01X00023148Y00021528D01*
G01X00023066Y00021582D01*
G01X00023020Y00021660D01*
G01X00023005Y00021760D01*
G01X00023021Y00021853D01*
G01X00023067Y00021934D01*
G01X00023145Y00021990D01*
G01X00023254Y00022009D01*
G01X00027146Y00022009D01*
G01X00026572Y00022583D01*
G01X00026516Y00022663D01*
G01X00026498Y00022754D01*
G01X00026516Y00022842D01*
G01X00026572Y00022929D01*
G01X00026656Y00022987D01*
G01X00026751Y00023007D01*
G01X00026836Y00022988D01*
G01X00026922Y00022932D01*
G01X00027920Y00021934D01*
G01X00028001Y00021831D01*
G01X00028023Y00021775D01*
G01X00028031Y00021713D01*
G01X00028012Y00021647D01*
G01X00027956Y00021571D01*
G01X00027864Y00021525D01*
G01X00027746Y00021510D01*
G01X00023255Y00021510D01*
G37*

G36*
G01X00013997Y00038756D02*
G01X00013997Y00040752D01*
G01X00014013Y00040861D01*
G01X00014059Y00040939D01*
G01X00014137Y00040985D01*
G01X00014246Y00041001D01*
G01X00018737Y00041001D01*
G01X00018833Y00040982D01*
G01X00018922Y00040926D01*
G01X00018970Y00040845D01*
G01X00018986Y00040752D01*
G01X00018971Y00040660D01*
G01X00018924Y00040579D01*
G01X00018846Y00040521D01*
G01X00018737Y00040502D01*
G01X00014496Y00040502D01*
G01X00014496Y00038756D01*
G01X00014477Y00038660D01*
G01X00014419Y00038579D01*
G01X00014338Y00038525D01*
G01X00014246Y00038506D01*
G01X00014162Y00038522D01*
G01X00014079Y00038569D01*
G01X00014017Y00038647D01*
G01X00013997Y00038756D01*
G37*
G36*
G01X00018986Y00035512D02*
G01X00018986Y00037259D01*
G01X00018971Y00037368D01*
G01X00018924Y00037446D01*
G01X00018846Y00037492D01*
G01X00018737Y00037508D01*
G01X00014246Y00037508D01*
G01X00014137Y00037492D01*
G01X00014059Y00037446D01*
G01X00014013Y00037368D01*
G01X00013997Y00037259D01*
G01X00013997Y00035512D01*
G01X00014015Y00035313D01*
G01X00014071Y00035129D01*
G01X00014162Y00034960D01*
G01X00014291Y00034807D01*
G01X00014445Y00034679D01*
G01X00014614Y00034588D01*
G01X00014797Y00034533D01*
G01X00014995Y00034514D01*
G01X00017988Y00034514D01*
G01X00018188Y00034533D01*
G01X00018372Y00034587D01*
G01X00018487Y00034649D01*
G01X00018487Y00035512D01*
G01X00018478Y00035408D01*
G01X00018451Y00035314D01*
G01X00018406Y00035229D01*
G01X00018343Y00035154D01*
G01X00018267Y00035093D01*
G01X00018182Y00035049D01*
G01X00018089Y00035022D01*
G01X00017988Y00035013D01*
G01X00014995Y00035013D01*
G01X00014890Y00035023D01*
G01X00014794Y00035050D01*
G01X00014710Y00035096D01*
G01X00014635Y00035160D01*
G01X00014574Y00035236D01*
G01X00014531Y00035321D01*
G01X00014505Y00035413D01*
G01X00014496Y00035512D01*
G01X00014496Y00037009D01*
G01X00018487Y00037009D01*
G01X00018487Y00035512D01*
G01X00018487Y00034649D01*
G01X00018540Y00034678D01*
G01X00018694Y00034805D01*
G01X00018822Y00034958D01*
G01X00018913Y00035127D01*
G01X00018968Y00035312D01*
G01X00018986Y00035512D01*
G37*
G36*
G01X00014247Y00032020D02*
G01X00014140Y00032038D01*
G01X00014058Y00032092D01*
G01X00014012Y00032170D01*
G01X00013997Y00032270D01*
G01X00014013Y00032363D01*
G01X00014059Y00032444D01*
G01X00014137Y00032500D01*
G01X00014246Y00032519D01*
G01X00018138Y00032519D01*
G01X00017564Y00033093D01*
G01X00017508Y00033173D01*
G01X00017490Y00033264D01*
G01X00017508Y00033352D01*
G01X00017564Y00033439D01*
G01X00017648Y00033497D01*
G01X00017743Y00033517D01*
G01X00017828Y00033498D01*
G01X00017914Y00033442D01*
G01X00018912Y00032444D01*
G01X00018993Y00032341D01*
G01X00019015Y00032285D01*
G01X00019023Y00032223D01*
G01X00019004Y00032157D01*
G01X00018948Y00032081D01*
G01X00018856Y00032035D01*
G01X00018738Y00032020D01*
G01X00014247Y00032020D01*
G37*
G36*
G01X00014247Y00029525D02*
G01X00014140Y00029543D01*
G01X00014058Y00029597D01*
G01X00014012Y00029675D01*
G01X00013997Y00029775D01*
G01X00014013Y00029868D01*
G01X00014059Y00029949D01*
G01X00014137Y00030005D01*
G01X00014246Y00030024D01*
G01X00018138Y00030024D01*
G01X00017564Y00030598D01*
G01X00017508Y00030678D01*
G01X00017490Y00030769D01*
G01X00017508Y00030857D01*
G01X00017564Y00030944D01*
G01X00017648Y00031002D01*
G01X00017743Y00031022D01*
G01X00017828Y00031003D01*
G01X00017914Y00030947D01*
G01X00018912Y00029949D01*
G01X00018993Y00029846D01*
G01X00019015Y00029790D01*
G01X00019023Y00029728D01*
G01X00019004Y00029662D01*
G01X00018948Y00029586D01*
G01X00018856Y00029540D01*
G01X00018738Y00029525D01*
G01X00014247Y00029525D01*
G37*
G36*
G01X00014247Y00027030D02*
G01X00014140Y00027048D01*
G01X00014058Y00027102D01*
G01X00014012Y00027180D01*
G01X00013997Y00027280D01*
G01X00014013Y00027373D01*
G01X00014059Y00027454D01*
G01X00014137Y00027510D01*
G01X00014246Y00027529D01*
G01X00018138Y00027529D01*
G01X00017564Y00028103D01*
G01X00017508Y00028183D01*
G01X00017490Y00028274D01*
G01X00017508Y00028362D01*
G01X00017564Y00028449D01*
G01X00017648Y00028507D01*
G01X00017743Y00028527D01*
G01X00017828Y00028508D01*
G01X00017914Y00028452D01*
G01X00018912Y00027454D01*
G01X00018993Y00027351D01*
G01X00019015Y00027295D01*
G01X00019023Y00027233D01*
G01X00019004Y00027167D01*
G01X00018948Y00027091D01*
G01X00018856Y00027045D01*
G01X00018738Y00027030D01*
G01X00014247Y00027030D01*
G37*
G36*
G01X00018487Y00025533D02*
G01X00018238Y00025533D01*
G01X00018132Y00025551D01*
G01X00018049Y00025604D01*
G01X00018004Y00025683D01*
G01X00017988Y00025783D01*
G01X00018004Y00025876D01*
G01X00018051Y00025957D01*
G01X00018129Y00026013D01*
G01X00018238Y00026032D01*
G01X00018737Y00026032D01*
G01X00018846Y00026016D01*
G01X00018924Y00025970D01*
G01X00018971Y00025892D01*
G01X00018986Y00025783D01*
G01X00018986Y00023787D01*
G01X00018973Y00023676D01*
G01X00018935Y00023597D01*
G01X00018870Y00023550D01*
G01X00018780Y00023534D01*
G01X00018673Y00023548D01*
G01X00014182Y00024795D01*
G01X00014112Y00024821D01*
G01X00014052Y00024877D01*
G01X00014011Y00024951D01*
G01X00013997Y00025031D01*
G01X00014013Y00025131D01*
G01X00014059Y00025212D01*
G01X00014135Y00025266D01*
G01X00014236Y00025284D01*
G01X00014281Y00025281D01*
G01X00014311Y00025273D01*
G01X00018487Y00024115D01*
G01X00018487Y00025533D01*
G37*
G36*
G01X00018986Y00020544D02*
G01X00018986Y00022291D01*
G01X00018971Y00022400D01*
G01X00018924Y00022478D01*
G01X00018846Y00022524D01*
G01X00018737Y00022540D01*
G01X00014246Y00022540D01*
G01X00014137Y00022524D01*
G01X00014059Y00022478D01*
G01X00014013Y00022400D01*
G01X00013997Y00022291D01*
G01X00013997Y00020544D01*
G01X00014015Y00020345D01*
G01X00014071Y00020161D01*
G01X00014162Y00019992D01*
G01X00014291Y00019839D01*
G01X00014445Y00019711D01*
G01X00014614Y00019620D01*
G01X00014797Y00019565D01*
G01X00014995Y00019546D01*
G01X00017988Y00019546D01*
G01X00018188Y00019565D01*
G01X00018372Y00019619D01*
G01X00018487Y00019681D01*
G01X00018487Y00020544D01*
G01X00018478Y00020440D01*
G01X00018451Y00020346D01*
G01X00018406Y00020261D01*
G01X00018343Y00020186D01*
G01X00018267Y00020125D01*
G01X00018182Y00020081D01*
G01X00018089Y00020054D01*
G01X00017988Y00020045D01*
G01X00014995Y00020045D01*
G01X00014890Y00020055D01*
G01X00014794Y00020082D01*
G01X00014710Y00020128D01*
G01X00014635Y00020192D01*
G01X00014574Y00020268D01*
G01X00014531Y00020353D01*
G01X00014505Y00020445D01*
G01X00014496Y00020544D01*
G01X00014496Y00022041D01*
G01X00018487Y00022041D01*
G01X00018487Y00020544D01*
G01X00018487Y00019681D01*
G01X00018540Y00019710D01*
G01X00018694Y00019837D01*
G01X00018822Y00019990D01*
G01X00018913Y00020159D01*
G01X00018968Y00020344D01*
G01X00018986Y00020544D01*
G37*
G36*
G01X00018487Y00017301D02*
G01X00018487Y00018299D01*
G01X00018504Y00018402D01*
G01X00018555Y00018484D01*
G01X00018642Y00018532D01*
G01X00018737Y00018548D01*
G01X00018821Y00018532D01*
G01X00018904Y00018486D01*
G01X00018966Y00018408D01*
G01X00018986Y00018299D01*
G01X00018986Y00015804D01*
G01X00018967Y00015708D01*
G01X00018910Y00015628D01*
G01X00018828Y00015573D01*
G01X00018737Y00015554D01*
G01X00018652Y00015570D01*
G01X00018569Y00015617D01*
G01X00018508Y00015695D01*
G01X00018487Y00015804D01*
G01X00018487Y00016802D01*
G01X00014246Y00016802D01*
G01X00014140Y00016820D01*
G01X00014058Y00016873D01*
G01X00014012Y00016951D01*
G01X00013997Y00017051D01*
G01X00014013Y00017145D01*
G01X00014059Y00017226D01*
G01X00014137Y00017282D01*
G01X00014246Y00017301D01*
G01X00018487Y00017301D01*
G37*
G36*
G01X00018480Y00013334D02*
G01X00018480Y00014332D01*
G01X00018498Y00014435D01*
G01X00018552Y00014517D01*
G01X00018633Y00014565D01*
G01X00018730Y00014581D01*
G01X00018817Y00014565D01*
G01X00018899Y00014515D01*
G01X00018959Y00014436D01*
G01X00018979Y00014332D01*
G01X00018979Y00013334D01*
G01X00018955Y00013056D01*
G01X00018884Y00012808D01*
G01X00018765Y00012589D01*
G01X00018598Y00012400D01*
G01X00018411Y00012263D01*
G01X00018205Y00012165D01*
G01X00017981Y00012106D01*
G01X00017739Y00012086D01*
G01X00017449Y00012116D01*
G01X00017183Y00012206D01*
G01X00017060Y00012273D01*
G01X00016942Y00012357D01*
G01X00016832Y00012456D01*
G01X00016727Y00012571D01*
G01X00016539Y00012381D01*
G01X00016302Y00012225D01*
G01X00016168Y00012165D01*
G01X00016031Y00012121D01*
G01X00015888Y00012095D01*
G01X00015741Y00012086D01*
G01X00015243Y00012086D01*
G01X00014997Y00012109D01*
G01X00014769Y00012178D01*
G01X00014558Y00012293D01*
G01X00014365Y00012453D01*
G01X00014204Y00012646D01*
G01X00014089Y00012857D01*
G01X00014020Y00013086D01*
G01X00013997Y00013334D01*
G01X00013997Y00014332D01*
G01X00014014Y00014435D01*
G01X00014065Y00014517D01*
G01X00014151Y00014565D01*
G01X00014246Y00014581D01*
G01X00014331Y00014565D01*
G01X00014414Y00014519D01*
G01X00014475Y00014441D01*
G01X00014496Y00014332D01*
G01X00014496Y00013334D01*
G01X00014510Y00013184D01*
G01X00014551Y00013046D01*
G01X00014619Y00012920D01*
G01X00014715Y00012804D01*
G01X00014830Y00012709D01*
G01X00014956Y00012640D01*
G01X00015094Y00012599D01*
G01X00015243Y00012585D01*
G01X00015741Y00012585D01*
G01X00015889Y00012599D01*
G01X00016026Y00012639D01*
G01X00016152Y00012707D01*
G01X00016268Y00012801D01*
G01X00016364Y00012915D01*
G01X00016433Y00013042D01*
G01X00016474Y00013181D01*
G01X00016488Y00013334D01*
G01X00016488Y00013833D01*
G01X00016505Y00013936D01*
G01X00016556Y00014018D01*
G01X00016642Y00014066D01*
G01X00016738Y00014082D01*
G01X00016822Y00014066D01*
G01X00016905Y00014020D01*
G01X00016967Y00013942D01*
G01X00016987Y00013833D01*
G01X00016987Y00013334D01*
G01X00017002Y00013175D01*
G01X00017047Y00013032D01*
G01X00017121Y00012903D01*
G01X00017226Y00012788D01*
G01X00017339Y00012709D01*
G01X00017464Y00012652D01*
G01X00017601Y00012618D01*
G01X00017750Y00012607D01*
G01X00017895Y00012618D01*
G01X00018027Y00012650D01*
G01X00018146Y00012705D01*
G01X00018252Y00012781D01*
G01X00018352Y00012891D01*
G01X00018423Y00013019D01*
G01X00018466Y00013167D01*
G01X00018480Y00013334D01*
G37*
G36*
G01X00018480Y00009842D02*
G01X00018480Y00010840D01*
G01X00018498Y00010943D01*
G01X00018552Y00011025D01*
G01X00018633Y00011073D01*
G01X00018730Y00011089D01*
G01X00018817Y00011073D01*
G01X00018899Y00011023D01*
G01X00018959Y00010944D01*
G01X00018979Y00010840D01*
G01X00018979Y00009842D01*
G01X00018955Y00009564D01*
G01X00018884Y00009316D01*
G01X00018765Y00009097D01*
G01X00018598Y00008908D01*
G01X00018411Y00008771D01*
G01X00018205Y00008673D01*
G01X00017981Y00008614D01*
G01X00017739Y00008594D01*
G01X00017449Y00008624D01*
G01X00017183Y00008714D01*
G01X00017060Y00008781D01*
G01X00016942Y00008865D01*
G01X00016832Y00008964D01*
G01X00016727Y00009079D01*
G01X00016539Y00008889D01*
G01X00016302Y00008733D01*
G01X00016168Y00008673D01*
G01X00016031Y00008629D01*
G01X00015888Y00008603D01*
G01X00015741Y00008594D01*
G01X00015243Y00008594D01*
G01X00014997Y00008617D01*
G01X00014769Y00008686D01*
G01X00014558Y00008801D01*
G01X00014365Y00008961D01*
G01X00014204Y00009154D01*
G01X00014089Y00009365D01*
G01X00014020Y00009594D01*
G01X00013997Y00009842D01*
G01X00013997Y00010840D01*
G01X00014014Y00010943D01*
G01X00014065Y00011025D01*
G01X00014151Y00011073D01*
G01X00014246Y00011089D01*
G01X00014331Y00011073D01*
G01X00014414Y00011027D01*
G01X00014475Y00010949D01*
G01X00014496Y00010840D01*
G01X00014496Y00009842D01*
G01X00014510Y00009692D01*
G01X00014551Y00009554D01*
G01X00014619Y00009428D01*
G01X00014715Y00009312D01*
G01X00014830Y00009217D01*
G01X00014956Y00009148D01*
G01X00015094Y00009107D01*
G01X00015243Y00009093D01*
G01X00015741Y00009093D01*
G01X00015889Y00009107D01*
G01X00016026Y00009147D01*
G01X00016152Y00009215D01*
G01X00016268Y00009309D01*
G01X00016364Y00009423D01*
G01X00016433Y00009550D01*
G01X00016474Y00009689D01*
G01X00016488Y00009842D01*
G01X00016488Y00010341D01*
G01X00016505Y00010444D01*
G01X00016556Y00010526D01*
G01X00016642Y00010574D01*
G01X00016738Y00010590D01*
G01X00016822Y00010574D01*
G01X00016905Y00010528D01*
G01X00016967Y00010450D01*
G01X00016987Y00010341D01*
G01X00016987Y00009842D01*
G01X00017002Y00009683D01*
G01X00017047Y00009540D01*
G01X00017121Y00009411D01*
G01X00017226Y00009296D01*
G01X00017339Y00009217D01*
G01X00017464Y00009160D01*
G01X00017601Y00009126D01*
G01X00017750Y00009115D01*
G01X00017895Y00009126D01*
G01X00018027Y00009158D01*
G01X00018146Y00009213D01*
G01X00018252Y00009289D01*
G01X00018352Y00009399D01*
G01X00018423Y00009527D01*
G01X00018466Y00009675D01*
G01X00018480Y00009842D01*
G37*
G36*
G01X00013997Y00005326D02*
G01X00013997Y00006573D01*
G01X00014015Y00006769D01*
G01X00014070Y00006952D01*
G01X00014160Y00007120D01*
G01X00014287Y00007275D01*
G01X00014441Y00007405D01*
G01X00014610Y00007497D01*
G01X00014794Y00007553D01*
G01X00014995Y00007571D01*
G01X00017988Y00007571D01*
G01X00018189Y00007553D01*
G01X00018374Y00007498D01*
G01X00018543Y00007408D01*
G01X00018696Y00007281D01*
G01X00018823Y00007127D01*
G01X00018914Y00006959D01*
G01X00018968Y00006774D01*
G01X00018986Y00006573D01*
G01X00018986Y00005326D01*
G01X00018967Y00005230D01*
G01X00018910Y00005149D01*
G01X00018828Y00005095D01*
G01X00018737Y00005076D01*
G01X00018652Y00005092D01*
G01X00018569Y00005139D01*
G01X00018508Y00005217D01*
G01X00018487Y00005326D01*
G01X00018487Y00006573D01*
G01X00018478Y00006674D01*
G01X00018452Y00006767D01*
G01X00018407Y00006853D01*
G01X00018345Y00006930D01*
G01X00018269Y00006992D01*
G01X00018183Y00007037D01*
G01X00018089Y00007063D01*
G01X00017988Y00007072D01*
G01X00014995Y00007072D01*
G01X00014894Y00007063D01*
G01X00014801Y00007037D01*
G01X00014716Y00006992D01*
G01X00014638Y00006930D01*
G01X00014532Y00006769D01*
G01X00014505Y00006667D01*
G01X00014496Y00006573D01*
G01X00014496Y00005326D01*
G01X00014477Y00005230D01*
G01X00014419Y00005149D01*
G01X00014338Y00005095D01*
G01X00014246Y00005076D01*
G01X00014162Y00005092D01*
G01X00014079Y00005139D01*
G01X00014017Y00005217D01*
G01X00013997Y00005326D01*
G37*
G36*
G01X00018487Y00002831D02*
G01X00018487Y00003829D01*
G01X00018504Y00003932D01*
G01X00018555Y00004014D01*
G01X00018642Y00004062D01*
G01X00018737Y00004078D01*
G01X00018821Y00004062D01*
G01X00018904Y00004016D01*
G01X00018966Y00003938D01*
G01X00018986Y00003829D01*
G01X00018986Y00001334D01*
G01X00018967Y00001238D01*
G01X00018910Y00001158D01*
G01X00018828Y00001103D01*
G01X00018737Y00001084D01*
G01X00018652Y00001100D01*
G01X00018569Y00001147D01*
G01X00018508Y00001225D01*
G01X00018487Y00001334D01*
G01X00018487Y00002332D01*
G01X00014246Y00002332D01*
G01X00014140Y00002350D01*
G01X00014058Y00002403D01*
G01X00014012Y00002481D01*
G01X00013997Y00002581D01*
G01X00014013Y00002675D01*
G01X00014059Y00002756D01*
G01X00014137Y00002812D01*
G01X00014246Y00002831D01*
G01X00018487Y00002831D01*
G37*
G36*
G01X00018986Y-00001909D02*
G01X00018986Y-00000162D01*
G01X00018971Y-00000053D01*
G01X00018924Y00000025D01*
G01X00018846Y00000071D01*
G01X00018737Y00000087D01*
G01X00014246Y00000087D01*
G01X00014137Y00000068D01*
G01X00014059Y00000012D01*
G01X00014013Y-00000069D01*
G01X00013997Y-00000162D01*
G01X00014012Y-00000262D01*
G01X00014058Y-00000341D01*
G01X00014140Y-00000394D01*
G01X00014246Y-00000412D01*
G01X00015993Y-00000412D01*
G01X00015993Y-00001271D01*
G01X00014111Y-00002447D01*
G01X00014052Y-00002496D01*
G01X00014018Y-00002543D01*
G01X00013997Y-00002646D01*
G01X00014015Y-00002742D01*
G01X00014068Y-00002828D01*
G01X00014151Y-00002887D01*
G01X00014243Y-00002907D01*
G01X00014325Y-00002885D01*
G01X00014382Y-00002867D01*
G01X00015993Y-00001859D01*
G01X00015993Y-00001909D01*
G01X00016011Y-00002108D01*
G01X00016066Y-00002292D01*
G01X00016158Y-00002461D01*
G01X00016287Y-00002614D01*
G01X00016441Y-00002742D01*
G01X00016610Y-00002833D01*
G01X00016793Y-00002888D01*
G01X00016991Y-00002907D01*
G01X00017988Y-00002907D01*
G01X00018188Y-00002888D01*
G01X00018372Y-00002834D01*
G01X00018487Y-00002772D01*
G01X00018487Y-00001909D01*
G01X00018478Y-00002013D01*
G01X00018451Y-00002107D01*
G01X00018406Y-00002192D01*
G01X00018343Y-00002267D01*
G01X00018267Y-00002328D01*
G01X00018182Y-00002372D01*
G01X00018089Y-00002399D01*
G01X00017988Y-00002408D01*
G01X00016991Y-00002408D01*
G01X00016885Y-00002398D01*
G01X00016790Y-00002371D01*
G01X00016705Y-00002325D01*
G01X00016631Y-00002261D01*
G01X00016570Y-00002185D01*
G01X00016526Y-00002100D01*
G01X00016500Y-00002008D01*
G01X00016492Y-00001909D01*
G01X00016492Y-00000412D01*
G01X00018487Y-00000412D01*
G01X00018487Y-00001909D01*
G01X00018487Y-00002772D01*
G01X00018540Y-00002743D01*
G01X00018694Y-00002616D01*
G01X00018822Y-00002463D01*
G01X00018913Y-00002294D01*
G01X00018968Y-00002109D01*
G01X00018986Y-00001909D01*
G37*

G36*
G01X-00110004Y00063252D02*
G01X-00110004Y00062005D01*
G01X-00110022Y00061809D01*
G01X-00110077Y00061626D01*
G01X-00110167Y00061458D01*
G01X-00110294Y00061303D01*
G01X-00110448Y00061173D01*
G01X-00110617Y00061081D01*
G01X-00110801Y00061025D01*
G01X-00111002Y00061007D01*
G01X-00113995Y00061007D01*
G01X-00114196Y00061025D01*
G01X-00114381Y00061080D01*
G01X-00114550Y00061170D01*
G01X-00114703Y00061297D01*
G01X-00114830Y00061451D01*
G01X-00114921Y00061619D01*
G01X-00114975Y00061804D01*
G01X-00114993Y00062005D01*
G01X-00114993Y00063252D01*
G01X-00114974Y00063348D01*
G01X-00114917Y00063429D01*
G01X-00114835Y00063483D01*
G01X-00114744Y00063502D01*
G01X-00114659Y00063486D01*
G01X-00114576Y00063439D01*
G01X-00114515Y00063361D01*
G01X-00114494Y00063252D01*
G01X-00114494Y00062005D01*
G01X-00114485Y00061904D01*
G01X-00114459Y00061811D01*
G01X-00114414Y00061725D01*
G01X-00114352Y00061648D01*
G01X-00114276Y00061586D01*
G01X-00114190Y00061541D01*
G01X-00114096Y00061515D01*
G01X-00113995Y00061506D01*
G01X-00111002Y00061506D01*
G01X-00110901Y00061515D01*
G01X-00110808Y00061541D01*
G01X-00110723Y00061586D01*
G01X-00110645Y00061648D01*
G01X-00110539Y00061809D01*
G01X-00110512Y00061911D01*
G01X-00110503Y00062005D01*
G01X-00110503Y00063252D01*
G01X-00110484Y00063348D01*
G01X-00110426Y00063429D01*
G01X-00110345Y00063483D01*
G01X-00110253Y00063502D01*
G01X-00110169Y00063486D01*
G01X-00110086Y00063439D01*
G01X-00110024Y00063361D01*
G01X-00110004Y00063252D01*
G37*
G36*
G01X-00113072Y00066809D02*
G01X-00110503Y00065198D01*
G01X-00110503Y00066745D01*
G01X-00110484Y00066841D01*
G01X-00110426Y00066922D01*
G01X-00110345Y00066976D01*
G01X-00110253Y00066995D01*
G01X-00110169Y00066979D01*
G01X-00110086Y00066932D01*
G01X-00110024Y00066854D01*
G01X-00110004Y00066745D01*
G01X-00110004Y00064749D01*
G01X-00110016Y00064631D01*
G01X-00110054Y00064546D01*
G01X-00110116Y00064495D01*
G01X-00110204Y00064479D01*
G01X-00110289Y00064494D01*
G01X-00110389Y00064539D01*
G01X-00113325Y00066378D01*
G01X-00113517Y00066448D01*
G01X-00113700Y00066471D01*
G01X-00113855Y00066455D01*
G01X-00113999Y00066408D01*
G01X-00114133Y00066331D01*
G01X-00114256Y00066222D01*
G01X-00114354Y00066095D01*
G01X-00114430Y00065948D01*
G01X-00114478Y00065785D01*
G01X-00114494Y00065610D01*
G01X-00114469Y00065425D01*
G01X-00114395Y00065247D01*
G01X-00114268Y00065088D01*
G01X-00114109Y00064959D01*
G01X-00114064Y00064921D01*
G01X-00114020Y00064863D01*
G01X-00113995Y00064753D01*
G01X-00114013Y00064660D01*
G01X-00114065Y00064576D01*
G01X-00114143Y00064516D01*
G01X-00114238Y00064496D01*
G01X-00114298Y00064507D01*
G01X-00114380Y00064539D01*
G01X-00114508Y00064632D01*
G01X-00114624Y00064740D01*
G01X-00114727Y00064864D01*
G01X-00114819Y00065002D01*
G01X-00114892Y00065146D01*
G01X-00114947Y00065291D01*
G01X-00114982Y00065435D01*
G01X-00114993Y00065576D01*
G01X-00114969Y00065857D01*
G01X-00114897Y00066116D01*
G01X-00114776Y00066352D01*
G01X-00114607Y00066565D01*
G01X-00114404Y00066742D01*
G01X-00114183Y00066869D01*
G01X-00113943Y00066944D01*
G01X-00113685Y00066970D01*
G01X-00113532Y00066960D01*
G01X-00113379Y00066930D01*
G01X-00113226Y00066879D01*
G01X-00113072Y00066809D01*
G37*

G36*
G01X-00121143Y00055352D02*
G01X-00121036Y00055334D01*
G01X-00120954Y00055280D01*
G01X-00120908Y00055202D01*
G01X-00120893Y00055102D01*
G01X-00120909Y00055009D01*
G01X-00120955Y00054928D01*
G01X-00121033Y00054872D01*
G01X-00121142Y00054853D01*
G01X-00125034Y00054853D01*
G01X-00124460Y00054279D01*
G01X-00124404Y00054199D01*
G01X-00124386Y00054108D01*
G01X-00124404Y00054020D01*
G01X-00124460Y00053933D01*
G01X-00124544Y00053875D01*
G01X-00124639Y00053855D01*
G01X-00124724Y00053874D01*
G01X-00124810Y00053930D01*
G01X-00125808Y00054928D01*
G01X-00125889Y00055031D01*
G01X-00125911Y00055087D01*
G01X-00125919Y00055149D01*
G01X-00125900Y00055215D01*
G01X-00125844Y00055291D01*
G01X-00125752Y00055337D01*
G01X-00125634Y00055352D01*
G01X-00121143Y00055352D01*
G37*
G36*
G01X-00120893Y00057448D02*
G01X-00120893Y00057747D01*
G01X-00120913Y00057968D01*
G01X-00120975Y00058171D01*
G01X-00121076Y00058357D01*
G01X-00121219Y00058526D01*
G01X-00121390Y00058665D01*
G01X-00121575Y00058765D01*
G01X-00121775Y00058825D01*
G01X-00121991Y00058845D01*
G01X-00124785Y00058845D01*
G01X-00125006Y00058824D01*
G01X-00125209Y00058763D01*
G01X-00125395Y00058661D01*
G01X-00125563Y00058518D01*
G01X-00125703Y00058348D01*
G01X-00125803Y00058163D01*
G01X-00125862Y00057962D01*
G01X-00125882Y00057747D01*
G01X-00125882Y00057448D01*
G01X-00125862Y00057228D01*
G01X-00125800Y00057025D01*
G01X-00125697Y00056840D01*
G01X-00125553Y00056671D01*
G01X-00125381Y00056530D01*
G01X-00125196Y00056430D01*
G01X-00124997Y00056370D01*
G01X-00124785Y00056350D01*
G01X-00121991Y00056350D01*
G01X-00121768Y00056370D01*
G01X-00121564Y00056431D01*
G01X-00121392Y00056525D01*
G01X-00121392Y00057448D01*
G01X-00121403Y00057328D01*
G01X-00121436Y00057217D01*
G01X-00121491Y00057115D01*
G01X-00121568Y00057023D01*
G01X-00121661Y00056947D01*
G01X-00121762Y00056893D01*
G01X-00121872Y00056860D01*
G01X-00121991Y00056849D01*
G01X-00124785Y00056849D01*
G01X-00124905Y00056860D01*
G01X-00125015Y00056893D01*
G01X-00125117Y00056948D01*
G01X-00125209Y00057025D01*
G01X-00125285Y00057118D01*
G01X-00125340Y00057219D01*
G01X-00125372Y00057329D01*
G01X-00125383Y00057448D01*
G01X-00125383Y00057747D01*
G01X-00125372Y00057868D01*
G01X-00125339Y00057980D01*
G01X-00125284Y00058081D01*
G01X-00125207Y00058173D01*
G01X-00125114Y00058248D01*
G01X-00125013Y00058302D01*
G01X-00124903Y00058335D01*
G01X-00124785Y00058346D01*
G01X-00121991Y00058346D01*
G01X-00121868Y00058335D01*
G01X-00121755Y00058301D01*
G01X-00121654Y00058245D01*
G01X-00121563Y00058167D01*
G01X-00121488Y00058074D01*
G01X-00121435Y00057973D01*
G01X-00121403Y00057864D01*
G01X-00121392Y00057747D01*
G01X-00121392Y00057448D01*
G01X-00121392Y00056525D01*
G01X-00121378Y00056533D01*
G01X-00121210Y00056676D01*
G01X-00121071Y00056847D01*
G01X-00120972Y00057032D01*
G01X-00120913Y00057232D01*
G01X-00120893Y00057448D01*
G37*
G36*
G01X-00120893Y00060940D02*
G01X-00120893Y00061239D01*
G01X-00120913Y00061460D01*
G01X-00120975Y00061663D01*
G01X-00121076Y00061849D01*
G01X-00121219Y00062018D01*
G01X-00121390Y00062157D01*
G01X-00121575Y00062257D01*
G01X-00121775Y00062317D01*
G01X-00121991Y00062337D01*
G01X-00124785Y00062337D01*
G01X-00125006Y00062316D01*
G01X-00125209Y00062255D01*
G01X-00125395Y00062153D01*
G01X-00125563Y00062010D01*
G01X-00125703Y00061840D01*
G01X-00125803Y00061655D01*
G01X-00125862Y00061454D01*
G01X-00125882Y00061239D01*
G01X-00125882Y00060940D01*
G01X-00125862Y00060720D01*
G01X-00125800Y00060517D01*
G01X-00125697Y00060332D01*
G01X-00125553Y00060163D01*
G01X-00125381Y00060022D01*
G01X-00125196Y00059922D01*
G01X-00124997Y00059862D01*
G01X-00124785Y00059842D01*
G01X-00121991Y00059842D01*
G01X-00121768Y00059862D01*
G01X-00121564Y00059923D01*
G01X-00121392Y00060017D01*
G01X-00121392Y00060940D01*
G01X-00121403Y00060820D01*
G01X-00121436Y00060709D01*
G01X-00121491Y00060607D01*
G01X-00121568Y00060515D01*
G01X-00121661Y00060439D01*
G01X-00121762Y00060385D01*
G01X-00121872Y00060352D01*
G01X-00121991Y00060341D01*
G01X-00124785Y00060341D01*
G01X-00124905Y00060352D01*
G01X-00125015Y00060385D01*
G01X-00125117Y00060440D01*
G01X-00125209Y00060517D01*
G01X-00125285Y00060610D01*
G01X-00125340Y00060711D01*
G01X-00125372Y00060821D01*
G01X-00125383Y00060940D01*
G01X-00125383Y00061239D01*
G01X-00125372Y00061360D01*
G01X-00125339Y00061472D01*
G01X-00125284Y00061573D01*
G01X-00125207Y00061665D01*
G01X-00125114Y00061740D01*
G01X-00125013Y00061794D01*
G01X-00124903Y00061827D01*
G01X-00124785Y00061838D01*
G01X-00121991Y00061838D01*
G01X-00121868Y00061827D01*
G01X-00121755Y00061793D01*
G01X-00121654Y00061737D01*
G01X-00121563Y00061659D01*
G01X-00121488Y00061566D01*
G01X-00121435Y00061465D01*
G01X-00121403Y00061356D01*
G01X-00121392Y00061239D01*
G01X-00121392Y00060940D01*
G01X-00121392Y00060017D01*
G01X-00121378Y00060025D01*
G01X-00121210Y00060168D01*
G01X-00121071Y00060339D01*
G01X-00120972Y00060524D01*
G01X-00120913Y00060724D01*
G01X-00120893Y00060940D01*
G37*
G36*
G01X-00122889Y00068325D02*
G01X-00124136Y00068325D01*
G01X-00124232Y00068343D01*
G01X-00124321Y00068399D01*
G01X-00124369Y00068481D01*
G01X-00124386Y00068574D01*
G01X-00124370Y00068665D01*
G01X-00124323Y00068747D01*
G01X-00124245Y00068804D01*
G01X-00124136Y00068824D01*
G01X-00121142Y00068824D01*
G01X-00121036Y00068806D01*
G01X-00120954Y00068752D01*
G01X-00120908Y00068674D01*
G01X-00120893Y00068574D01*
G01X-00120909Y00068481D01*
G01X-00120955Y00068399D01*
G01X-00121033Y00068343D01*
G01X-00121142Y00068325D01*
G01X-00122390Y00068325D01*
G01X-00122390Y00066828D01*
G01X-00121142Y00066828D01*
G01X-00121036Y00066810D01*
G01X-00120954Y00066757D01*
G01X-00120908Y00066678D01*
G01X-00120893Y00066578D01*
G01X-00120909Y00066485D01*
G01X-00120955Y00066404D01*
G01X-00121033Y00066348D01*
G01X-00121142Y00066329D01*
G01X-00124136Y00066329D01*
G01X-00124232Y00066348D01*
G01X-00124321Y00066404D01*
G01X-00124369Y00066485D01*
G01X-00124386Y00066578D01*
G01X-00124370Y00066670D01*
G01X-00124323Y00066751D01*
G01X-00124245Y00066809D01*
G01X-00124136Y00066828D01*
G01X-00122889Y00066828D01*
G01X-00122889Y00068325D01*
G37*
G36*
G01X-00120893Y00071818D02*
G01X-00120908Y00071917D01*
G01X-00120953Y00071996D01*
G01X-00121036Y00072049D01*
G01X-00121142Y00072067D01*
G01X-00121887Y00072067D01*
G01X-00121887Y00072317D01*
G01X-00121915Y00072617D01*
G01X-00121999Y00072893D01*
G01X-00122138Y00073147D01*
G01X-00122333Y00073377D01*
G01X-00122566Y00073568D01*
G01X-00122819Y00073704D01*
G01X-00123093Y00073786D01*
G01X-00123386Y00073813D01*
G01X-00123635Y00073813D01*
G01X-00123937Y00073784D01*
G01X-00124215Y00073696D01*
G01X-00124468Y00073557D01*
G01X-00124695Y00073375D01*
G01X-00124887Y00073144D01*
G01X-00125024Y00072891D01*
G01X-00125106Y00072615D01*
G01X-00125134Y00072317D01*
G01X-00125134Y00072067D01*
G01X-00125633Y00072067D01*
G01X-00125742Y00072048D01*
G01X-00125820Y00071990D01*
G01X-00125867Y00071909D01*
G01X-00125882Y00071818D01*
G01X-00125866Y00071724D01*
G01X-00125818Y00071643D01*
G01X-00125729Y00071587D01*
G01X-00125633Y00071568D01*
G01X-00125134Y00071568D01*
G01X-00125134Y00071319D01*
G01X-00125106Y00071020D01*
G01X-00125023Y00070744D01*
G01X-00124884Y00070491D01*
G01X-00124690Y00070260D01*
G01X-00124457Y00070068D01*
G01X-00124204Y00069932D01*
G01X-00123930Y00069849D01*
G01X-00123635Y00069822D01*
G01X-00123386Y00069822D01*
G01X-00123084Y00069849D01*
G01X-00122806Y00069931D01*
G01X-00122552Y00070067D01*
G01X-00122386Y00070205D01*
G01X-00122386Y00071319D01*
G01X-00122405Y00071120D01*
G01X-00122460Y00070936D01*
G01X-00122552Y00070767D01*
G01X-00122681Y00070613D01*
G01X-00122835Y00070485D01*
G01X-00123004Y00070394D01*
G01X-00123188Y00070339D01*
G01X-00123386Y00070321D01*
G01X-00123636Y00070321D01*
G01X-00123836Y00070339D01*
G01X-00124021Y00070395D01*
G01X-00124191Y00070487D01*
G01X-00124344Y00070617D01*
G01X-00124471Y00070771D01*
G01X-00124562Y00070940D01*
G01X-00124617Y00071122D01*
G01X-00124635Y00071319D01*
G01X-00124635Y00071568D01*
G01X-00122386Y00071568D01*
G01X-00122386Y00072067D01*
G01X-00124635Y00072067D01*
G01X-00124635Y00072317D01*
G01X-00124616Y00072519D01*
G01X-00124560Y00072704D01*
G01X-00124466Y00072873D01*
G01X-00124335Y00073026D01*
G01X-00124179Y00073152D01*
G01X-00124010Y00073242D01*
G01X-00123829Y00073296D01*
G01X-00123636Y00073314D01*
G01X-00123386Y00073314D01*
G01X-00123186Y00073296D01*
G01X-00123002Y00073241D01*
G01X-00122833Y00073150D01*
G01X-00122679Y00073022D01*
G01X-00122551Y00072869D01*
G01X-00122459Y00072700D01*
G01X-00122405Y00072516D01*
G01X-00122386Y00072317D01*
G01X-00122386Y00072067D01*
G01X-00122386Y00071568D01*
G01X-00122386Y00071319D01*
G01X-00122386Y00070205D01*
G01X-00122323Y00070258D01*
G01X-00122132Y00070488D01*
G01X-00121996Y00070742D01*
G01X-00121915Y00071019D01*
G01X-00121887Y00071319D01*
G01X-00121887Y00071568D01*
G01X-00121142Y00071568D01*
G01X-00121033Y00071587D01*
G01X-00120955Y00071643D01*
G01X-00120909Y00071724D01*
G01X-00120893Y00071818D01*
G37*

G36*
G01X00117505Y00082748D02*
G01X00117505Y00083995D01*
G01X00117523Y00084191D01*
G01X00117578Y00084374D01*
G01X00117668Y00084542D01*
G01X00117795Y00084697D01*
G01X00117949Y00084827D01*
G01X00118118Y00084919D01*
G01X00118302Y00084975D01*
G01X00118503Y00084993D01*
G01X00121496Y00084993D01*
G01X00121697Y00084975D01*
G01X00121882Y00084920D01*
G01X00122051Y00084830D01*
G01X00122204Y00084703D01*
G01X00122331Y00084549D01*
G01X00122422Y00084381D01*
G01X00122476Y00084196D01*
G01X00122494Y00083995D01*
G01X00122494Y00082748D01*
G01X00122475Y00082652D01*
G01X00122418Y00082571D01*
G01X00122336Y00082517D01*
G01X00122245Y00082498D01*
G01X00122160Y00082514D01*
G01X00122077Y00082561D01*
G01X00122016Y00082639D01*
G01X00121995Y00082748D01*
G01X00121995Y00083995D01*
G01X00121986Y00084096D01*
G01X00121960Y00084189D01*
G01X00121915Y00084275D01*
G01X00121853Y00084352D01*
G01X00121777Y00084414D01*
G01X00121691Y00084459D01*
G01X00121597Y00084485D01*
G01X00121496Y00084494D01*
G01X00118503Y00084494D01*
G01X00118402Y00084485D01*
G01X00118309Y00084459D01*
G01X00118224Y00084414D01*
G01X00118146Y00084352D01*
G01X00118040Y00084191D01*
G01X00118013Y00084089D01*
G01X00118004Y00083995D01*
G01X00118004Y00082748D01*
G01X00117985Y00082652D01*
G01X00117927Y00082571D01*
G01X00117846Y00082517D01*
G01X00117754Y00082498D01*
G01X00117670Y00082514D01*
G01X00117587Y00082561D01*
G01X00117525Y00082639D01*
G01X00117505Y00082748D01*
G37*
G36*
G01X00121988Y00080278D02*
G01X00121988Y00081276D01*
G01X00122006Y00081379D01*
G01X00122060Y00081461D01*
G01X00122141Y00081509D01*
G01X00122238Y00081525D01*
G01X00122325Y00081509D01*
G01X00122407Y00081459D01*
G01X00122467Y00081380D01*
G01X00122487Y00081276D01*
G01X00122487Y00080278D01*
G01X00122463Y00080000D01*
G01X00122392Y00079752D01*
G01X00122273Y00079533D01*
G01X00122106Y00079344D01*
G01X00121919Y00079207D01*
G01X00121713Y00079109D01*
G01X00121489Y00079050D01*
G01X00121247Y00079030D01*
G01X00120957Y00079060D01*
G01X00120691Y00079150D01*
G01X00120568Y00079217D01*
G01X00120450Y00079301D01*
G01X00120340Y00079400D01*
G01X00120235Y00079515D01*
G01X00120047Y00079325D01*
G01X00119810Y00079169D01*
G01X00119676Y00079109D01*
G01X00119539Y00079065D01*
G01X00119396Y00079039D01*
G01X00119249Y00079030D01*
G01X00118751Y00079030D01*
G01X00118505Y00079053D01*
G01X00118277Y00079122D01*
G01X00118066Y00079237D01*
G01X00117873Y00079397D01*
G01X00117712Y00079590D01*
G01X00117597Y00079801D01*
G01X00117528Y00080030D01*
G01X00117505Y00080278D01*
G01X00117505Y00081276D01*
G01X00117522Y00081379D01*
G01X00117573Y00081461D01*
G01X00117659Y00081509D01*
G01X00117754Y00081525D01*
G01X00117839Y00081509D01*
G01X00117922Y00081463D01*
G01X00117983Y00081385D01*
G01X00118004Y00081276D01*
G01X00118004Y00080278D01*
G01X00118018Y00080128D01*
G01X00118059Y00079990D01*
G01X00118127Y00079864D01*
G01X00118223Y00079748D01*
G01X00118338Y00079653D01*
G01X00118464Y00079584D01*
G01X00118602Y00079543D01*
G01X00118751Y00079529D01*
G01X00119249Y00079529D01*
G01X00119397Y00079543D01*
G01X00119534Y00079583D01*
G01X00119660Y00079651D01*
G01X00119776Y00079745D01*
G01X00119872Y00079859D01*
G01X00119941Y00079986D01*
G01X00119982Y00080125D01*
G01X00119996Y00080278D01*
G01X00119996Y00080777D01*
G01X00120013Y00080880D01*
G01X00120064Y00080962D01*
G01X00120150Y00081010D01*
G01X00120246Y00081026D01*
G01X00120330Y00081010D01*
G01X00120413Y00080964D01*
G01X00120475Y00080886D01*
G01X00120495Y00080777D01*
G01X00120495Y00080278D01*
G01X00120510Y00080119D01*
G01X00120555Y00079976D01*
G01X00120629Y00079847D01*
G01X00120734Y00079732D01*
G01X00120847Y00079653D01*
G01X00120972Y00079596D01*
G01X00121109Y00079562D01*
G01X00121258Y00079551D01*
G01X00121403Y00079562D01*
G01X00121535Y00079594D01*
G01X00121654Y00079649D01*
G01X00121760Y00079725D01*
G01X00121860Y00079835D01*
G01X00121931Y00079963D01*
G01X00121974Y00080111D01*
G01X00121988Y00080278D01*
G37*

G36*
G01X00117505Y00082748D02*
G01X00117505Y00083995D01*
G01X00117523Y00084191D01*
G01X00117578Y00084374D01*
G01X00117668Y00084542D01*
G01X00117795Y00084697D01*
G01X00117949Y00084827D01*
G01X00118118Y00084919D01*
G01X00118302Y00084975D01*
G01X00118503Y00084993D01*
G01X00121496Y00084993D01*
G01X00121697Y00084975D01*
G01X00121882Y00084920D01*
G01X00122051Y00084830D01*
G01X00122204Y00084703D01*
G01X00122331Y00084549D01*
G01X00122422Y00084381D01*
G01X00122476Y00084196D01*
G01X00122494Y00083995D01*
G01X00122494Y00082748D01*
G01X00122475Y00082652D01*
G01X00122418Y00082571D01*
G01X00122336Y00082517D01*
G01X00122245Y00082498D01*
G01X00122160Y00082514D01*
G01X00122077Y00082561D01*
G01X00122016Y00082639D01*
G01X00121995Y00082748D01*
G01X00121995Y00083995D01*
G01X00121986Y00084096D01*
G01X00121960Y00084189D01*
G01X00121915Y00084275D01*
G01X00121853Y00084352D01*
G01X00121777Y00084414D01*
G01X00121691Y00084459D01*
G01X00121597Y00084485D01*
G01X00121496Y00084494D01*
G01X00118503Y00084494D01*
G01X00118402Y00084485D01*
G01X00118309Y00084459D01*
G01X00118224Y00084414D01*
G01X00118146Y00084352D01*
G01X00118040Y00084191D01*
G01X00118013Y00084089D01*
G01X00118004Y00083995D01*
G01X00118004Y00082748D01*
G01X00117985Y00082652D01*
G01X00117927Y00082571D01*
G01X00117846Y00082517D01*
G01X00117754Y00082498D01*
G01X00117670Y00082514D01*
G01X00117587Y00082561D01*
G01X00117525Y00082639D01*
G01X00117505Y00082748D01*
G37*
G36*
G01X00121988Y00080278D02*
G01X00121988Y00081276D01*
G01X00122006Y00081379D01*
G01X00122060Y00081461D01*
G01X00122141Y00081509D01*
G01X00122238Y00081525D01*
G01X00122325Y00081509D01*
G01X00122407Y00081459D01*
G01X00122467Y00081380D01*
G01X00122487Y00081276D01*
G01X00122487Y00080278D01*
G01X00122463Y00080000D01*
G01X00122392Y00079752D01*
G01X00122273Y00079533D01*
G01X00122106Y00079344D01*
G01X00121919Y00079207D01*
G01X00121713Y00079109D01*
G01X00121489Y00079050D01*
G01X00121247Y00079030D01*
G01X00120957Y00079060D01*
G01X00120691Y00079150D01*
G01X00120568Y00079217D01*
G01X00120450Y00079301D01*
G01X00120340Y00079400D01*
G01X00120235Y00079515D01*
G01X00120047Y00079325D01*
G01X00119810Y00079169D01*
G01X00119676Y00079109D01*
G01X00119539Y00079065D01*
G01X00119396Y00079039D01*
G01X00119249Y00079030D01*
G01X00118751Y00079030D01*
G01X00118505Y00079053D01*
G01X00118277Y00079122D01*
G01X00118066Y00079237D01*
G01X00117873Y00079397D01*
G01X00117712Y00079590D01*
G01X00117597Y00079801D01*
G01X00117528Y00080030D01*
G01X00117505Y00080278D01*
G01X00117505Y00081276D01*
G01X00117522Y00081379D01*
G01X00117573Y00081461D01*
G01X00117659Y00081509D01*
G01X00117754Y00081525D01*
G01X00117839Y00081509D01*
G01X00117922Y00081463D01*
G01X00117983Y00081385D01*
G01X00118004Y00081276D01*
G01X00118004Y00080278D01*
G01X00118018Y00080128D01*
G01X00118059Y00079990D01*
G01X00118127Y00079864D01*
G01X00118223Y00079748D01*
G01X00118338Y00079653D01*
G01X00118464Y00079584D01*
G01X00118602Y00079543D01*
G01X00118751Y00079529D01*
G01X00119249Y00079529D01*
G01X00119397Y00079543D01*
G01X00119534Y00079583D01*
G01X00119660Y00079651D01*
G01X00119776Y00079745D01*
G01X00119872Y00079859D01*
G01X00119941Y00079986D01*
G01X00119982Y00080125D01*
G01X00119996Y00080278D01*
G01X00119996Y00080777D01*
G01X00120013Y00080880D01*
G01X00120064Y00080962D01*
G01X00120150Y00081010D01*
G01X00120246Y00081026D01*
G01X00120330Y00081010D01*
G01X00120413Y00080964D01*
G01X00120475Y00080886D01*
G01X00120495Y00080777D01*
G01X00120495Y00080278D01*
G01X00120510Y00080119D01*
G01X00120555Y00079976D01*
G01X00120629Y00079847D01*
G01X00120734Y00079732D01*
G01X00120847Y00079653D01*
G01X00120972Y00079596D01*
G01X00121109Y00079562D01*
G01X00121258Y00079551D01*
G01X00121403Y00079562D01*
G01X00121535Y00079594D01*
G01X00121654Y00079649D01*
G01X00121760Y00079725D01*
G01X00121860Y00079835D01*
G01X00121931Y00079963D01*
G01X00121974Y00080111D01*
G01X00121988Y00080278D01*
G37*

G36*
G01X00142980Y00114279D02*
G01X00142980Y00115277D01*
G01X00142998Y00115380D01*
G01X00143052Y00115462D01*
G01X00143133Y00115510D01*
G01X00143230Y00115526D01*
G01X00143317Y00115510D01*
G01X00143399Y00115460D01*
G01X00143459Y00115381D01*
G01X00143479Y00115277D01*
G01X00143479Y00114279D01*
G01X00143455Y00114001D01*
G01X00143384Y00113753D01*
G01X00143265Y00113534D01*
G01X00143098Y00113345D01*
G01X00142911Y00113208D01*
G01X00142705Y00113110D01*
G01X00142481Y00113051D01*
G01X00142239Y00113031D01*
G01X00141949Y00113061D01*
G01X00141683Y00113151D01*
G01X00141560Y00113218D01*
G01X00141442Y00113302D01*
G01X00141332Y00113401D01*
G01X00141227Y00113516D01*
G01X00141039Y00113326D01*
G01X00140802Y00113170D01*
G01X00140668Y00113110D01*
G01X00140531Y00113066D01*
G01X00140388Y00113040D01*
G01X00140241Y00113031D01*
G01X00139743Y00113031D01*
G01X00139497Y00113054D01*
G01X00139269Y00113123D01*
G01X00139058Y00113238D01*
G01X00138865Y00113398D01*
G01X00138704Y00113591D01*
G01X00138589Y00113802D01*
G01X00138520Y00114031D01*
G01X00138497Y00114279D01*
G01X00138497Y00115277D01*
G01X00138514Y00115380D01*
G01X00138565Y00115462D01*
G01X00138651Y00115510D01*
G01X00138746Y00115526D01*
G01X00138831Y00115510D01*
G01X00138914Y00115464D01*
G01X00138975Y00115386D01*
G01X00138996Y00115277D01*
G01X00138996Y00114279D01*
G01X00139010Y00114129D01*
G01X00139051Y00113991D01*
G01X00139119Y00113865D01*
G01X00139215Y00113749D01*
G01X00139330Y00113654D01*
G01X00139456Y00113585D01*
G01X00139594Y00113544D01*
G01X00139743Y00113530D01*
G01X00140241Y00113530D01*
G01X00140389Y00113544D01*
G01X00140526Y00113584D01*
G01X00140652Y00113652D01*
G01X00140768Y00113746D01*
G01X00140864Y00113860D01*
G01X00140933Y00113987D01*
G01X00140974Y00114126D01*
G01X00140988Y00114279D01*
G01X00140988Y00114778D01*
G01X00141005Y00114881D01*
G01X00141056Y00114963D01*
G01X00141142Y00115011D01*
G01X00141238Y00115027D01*
G01X00141322Y00115011D01*
G01X00141405Y00114965D01*
G01X00141467Y00114887D01*
G01X00141487Y00114778D01*
G01X00141487Y00114279D01*
G01X00141502Y00114120D01*
G01X00141547Y00113977D01*
G01X00141621Y00113848D01*
G01X00141726Y00113733D01*
G01X00141839Y00113654D01*
G01X00141964Y00113597D01*
G01X00142101Y00113563D01*
G01X00142250Y00113552D01*
G01X00142395Y00113563D01*
G01X00142527Y00113595D01*
G01X00142646Y00113650D01*
G01X00142752Y00113726D01*
G01X00142852Y00113836D01*
G01X00142923Y00113964D01*
G01X00142966Y00114112D01*
G01X00142980Y00114279D01*
G37*
G36*
G01X00142980Y00110786D02*
G01X00142980Y00111784D01*
G01X00142998Y00111887D01*
G01X00143052Y00111969D01*
G01X00143133Y00112017D01*
G01X00143230Y00112033D01*
G01X00143317Y00112017D01*
G01X00143399Y00111967D01*
G01X00143459Y00111888D01*
G01X00143479Y00111784D01*
G01X00143479Y00110786D01*
G01X00143455Y00110508D01*
G01X00143384Y00110260D01*
G01X00143265Y00110041D01*
G01X00143098Y00109852D01*
G01X00142911Y00109715D01*
G01X00142705Y00109617D01*
G01X00142481Y00109558D01*
G01X00142239Y00109538D01*
G01X00141949Y00109568D01*
G01X00141683Y00109658D01*
G01X00141560Y00109725D01*
G01X00141442Y00109809D01*
G01X00141332Y00109908D01*
G01X00141227Y00110023D01*
G01X00141039Y00109833D01*
G01X00140802Y00109677D01*
G01X00140668Y00109617D01*
G01X00140531Y00109573D01*
G01X00140388Y00109547D01*
G01X00140241Y00109538D01*
G01X00139743Y00109538D01*
G01X00139497Y00109561D01*
G01X00139269Y00109630D01*
G01X00139058Y00109745D01*
G01X00138865Y00109905D01*
G01X00138704Y00110098D01*
G01X00138589Y00110309D01*
G01X00138520Y00110538D01*
G01X00138497Y00110786D01*
G01X00138497Y00111784D01*
G01X00138514Y00111887D01*
G01X00138565Y00111969D01*
G01X00138651Y00112017D01*
G01X00138746Y00112033D01*
G01X00138831Y00112017D01*
G01X00138914Y00111971D01*
G01X00138975Y00111893D01*
G01X00138996Y00111784D01*
G01X00138996Y00110786D01*
G01X00139010Y00110636D01*
G01X00139051Y00110498D01*
G01X00139119Y00110372D01*
G01X00139215Y00110256D01*
G01X00139330Y00110161D01*
G01X00139456Y00110092D01*
G01X00139594Y00110051D01*
G01X00139743Y00110037D01*
G01X00140241Y00110037D01*
G01X00140389Y00110051D01*
G01X00140526Y00110091D01*
G01X00140652Y00110159D01*
G01X00140768Y00110253D01*
G01X00140864Y00110367D01*
G01X00140933Y00110494D01*
G01X00140974Y00110633D01*
G01X00140988Y00110786D01*
G01X00140988Y00111285D01*
G01X00141005Y00111388D01*
G01X00141056Y00111470D01*
G01X00141142Y00111518D01*
G01X00141238Y00111534D01*
G01X00141322Y00111518D01*
G01X00141405Y00111472D01*
G01X00141467Y00111394D01*
G01X00141487Y00111285D01*
G01X00141487Y00110786D01*
G01X00141502Y00110627D01*
G01X00141547Y00110484D01*
G01X00141621Y00110355D01*
G01X00141726Y00110240D01*
G01X00141839Y00110161D01*
G01X00141964Y00110104D01*
G01X00142101Y00110070D01*
G01X00142250Y00110059D01*
G01X00142395Y00110070D01*
G01X00142527Y00110102D01*
G01X00142646Y00110157D01*
G01X00142752Y00110233D01*
G01X00142852Y00110343D01*
G01X00142923Y00110471D01*
G01X00142966Y00110619D01*
G01X00142980Y00110786D01*
G37*
G36*
G01X00138746Y00102528D02*
G01X00141740Y00102528D01*
G01X00141863Y00102545D01*
G01X00141954Y00102593D01*
G01X00142010Y00102664D01*
G01X00142029Y00102749D01*
G01X00142020Y00102805D01*
G01X00141993Y00102863D01*
G01X00141949Y00102921D01*
G01X00141886Y00102981D01*
G01X00140421Y00104025D01*
G01X00141886Y00105069D01*
G01X00141949Y00105121D01*
G01X00141993Y00105177D01*
G01X00142020Y00105237D01*
G01X00142029Y00105301D01*
G01X00142009Y00105384D01*
G01X00141950Y00105461D01*
G01X00141859Y00105507D01*
G01X00141740Y00105522D01*
G01X00138746Y00105522D01*
G01X00138640Y00105504D01*
G01X00138558Y00105451D01*
G01X00138512Y00105372D01*
G01X00138497Y00105273D01*
G01X00138513Y00105186D01*
G01X00138563Y00105103D01*
G01X00138642Y00105043D01*
G01X00138746Y00105023D01*
G01X00140963Y00105023D01*
G01X00139848Y00104228D01*
G01X00139790Y00104178D01*
G01X00139749Y00104128D01*
G01X00139724Y00104077D01*
G01X00139716Y00104025D01*
G01X00139724Y00103976D01*
G01X00139749Y00103926D01*
G01X00139790Y00103875D01*
G01X00139848Y00103822D01*
G01X00140963Y00103027D01*
G01X00138746Y00103027D01*
G01X00138640Y00103010D01*
G01X00138558Y00102956D01*
G01X00138512Y00102878D01*
G01X00138497Y00102778D01*
G01X00138513Y00102691D01*
G01X00138563Y00102609D01*
G01X00138642Y00102549D01*
G01X00138746Y00102528D01*
G37*
G36*
G01X00140129Y00100522D02*
G01X00139545Y00101081D01*
G01X00138746Y00101081D01*
G01X00138640Y00101099D01*
G01X00138558Y00101152D01*
G01X00138512Y00101231D01*
G01X00138497Y00101330D01*
G01X00138513Y00101424D01*
G01X00138559Y00101505D01*
G01X00138637Y00101561D01*
G01X00138746Y00101580D01*
G01X00141740Y00101580D01*
G01X00141836Y00101561D01*
G01X00141925Y00101505D01*
G01X00141973Y00101424D01*
G01X00141990Y00101330D01*
G01X00141974Y00101239D01*
G01X00141927Y00101158D01*
G01X00141849Y00101100D01*
G01X00141740Y00101081D01*
G01X00140268Y00101081D01*
G01X00141929Y00099499D01*
G01X00141985Y00099427D01*
G01X00142004Y00099338D01*
G01X00141985Y00099255D01*
G01X00141929Y00099164D01*
G01X00141844Y00099108D01*
G01X00141740Y00099089D01*
G01X00141641Y00099109D01*
G01X00141551Y00099171D01*
G01X00140496Y00100172D01*
G01X00138907Y00099146D01*
G01X00138812Y00099103D01*
G01X00138736Y00099089D01*
G01X00138640Y00099109D01*
G01X00138561Y00099171D01*
G01X00138505Y00099252D01*
G01X00138486Y00099345D01*
G01X00138511Y00099440D01*
G01X00138586Y00099524D01*
G01X00140129Y00100522D01*
G37*
G36*
G01X00143486Y00096042D02*
G01X00143470Y00096136D01*
G01X00143422Y00096217D01*
G01X00143333Y00096273D01*
G01X00143237Y00096292D01*
G01X00142738Y00096292D01*
G01X00142738Y00096541D01*
G01X00142710Y00096840D01*
G01X00142627Y00097116D01*
G01X00142488Y00097369D01*
G01X00142294Y00097600D01*
G01X00142061Y00097791D01*
G01X00141808Y00097928D01*
G01X00141534Y00098011D01*
G01X00141239Y00098038D01*
G01X00140990Y00098038D01*
G01X00140688Y00098011D01*
G01X00140410Y00097929D01*
G01X00140156Y00097793D01*
G01X00139927Y00097602D01*
G01X00139736Y00097372D01*
G01X00139600Y00097118D01*
G01X00139519Y00096841D01*
G01X00139491Y00096541D01*
G01X00139491Y00096292D01*
G01X00138746Y00096292D01*
G01X00138637Y00096273D01*
G01X00138559Y00096217D01*
G01X00138513Y00096136D01*
G01X00138497Y00096042D01*
G01X00138512Y00095943D01*
G01X00138557Y00095864D01*
G01X00138640Y00095811D01*
G01X00138746Y00095793D01*
G01X00139491Y00095793D01*
G01X00139491Y00095543D01*
G01X00139519Y00095243D01*
G01X00139603Y00094967D01*
G01X00139742Y00094713D01*
G01X00139937Y00094483D01*
G01X00140170Y00094292D01*
G01X00140423Y00094156D01*
G01X00140697Y00094074D01*
G01X00140990Y00094047D01*
G01X00141239Y00094047D01*
G01X00141541Y00094076D01*
G01X00141819Y00094164D01*
G01X00142072Y00094303D01*
G01X00142239Y00094437D01*
G01X00142239Y00095543D01*
G01X00142220Y00095341D01*
G01X00142164Y00095156D01*
G01X00142070Y00094987D01*
G01X00141939Y00094834D01*
G01X00141783Y00094708D01*
G01X00141614Y00094618D01*
G01X00141433Y00094564D01*
G01X00141240Y00094546D01*
G01X00140990Y00094546D01*
G01X00140790Y00094564D01*
G01X00140606Y00094619D01*
G01X00140437Y00094710D01*
G01X00140283Y00094838D01*
G01X00140155Y00094991D01*
G01X00140063Y00095160D01*
G01X00140009Y00095344D01*
G01X00139990Y00095543D01*
G01X00139990Y00095793D01*
G01X00142239Y00095793D01*
G01X00142239Y00096292D01*
G01X00139990Y00096292D01*
G01X00139990Y00096541D01*
G01X00140009Y00096740D01*
G01X00140064Y00096924D01*
G01X00140156Y00097093D01*
G01X00140285Y00097247D01*
G01X00140439Y00097375D01*
G01X00140608Y00097466D01*
G01X00140792Y00097521D01*
G01X00140990Y00097539D01*
G01X00141240Y00097539D01*
G01X00141440Y00097521D01*
G01X00141625Y00097465D01*
G01X00141795Y00097373D01*
G01X00141948Y00097243D01*
G01X00142075Y00097089D01*
G01X00142166Y00096920D01*
G01X00142221Y00096738D01*
G01X00142239Y00096541D01*
G01X00142239Y00096292D01*
G01X00142239Y00095793D01*
G01X00142239Y00095543D01*
G01X00142239Y00094437D01*
G01X00142299Y00094485D01*
G01X00142491Y00094716D01*
G01X00142628Y00094969D01*
G01X00142710Y00095245D01*
G01X00142738Y00095543D01*
G01X00142738Y00095793D01*
G01X00143237Y00095793D01*
G01X00143346Y00095812D01*
G01X00143424Y00095870D01*
G01X00143471Y00095951D01*
G01X00143486Y00096042D01*
G37*

G36*
G01X00138747Y00091004D02*
G01X00138640Y00091022D01*
G01X00138558Y00091076D01*
G01X00138512Y00091154D01*
G01X00138497Y00091254D01*
G01X00138513Y00091347D01*
G01X00138559Y00091428D01*
G01X00138637Y00091484D01*
G01X00138746Y00091503D01*
G01X00142638Y00091503D01*
G01X00142064Y00092077D01*
G01X00142008Y00092157D01*
G01X00141990Y00092248D01*
G01X00142008Y00092336D01*
G01X00142064Y00092423D01*
G01X00142148Y00092481D01*
G01X00142243Y00092501D01*
G01X00142328Y00092482D01*
G01X00142414Y00092426D01*
G01X00143412Y00091428D01*
G01X00143493Y00091325D01*
G01X00143515Y00091269D01*
G01X00143523Y00091207D01*
G01X00143504Y00091141D01*
G01X00143448Y00091065D01*
G01X00143356Y00091019D01*
G01X00143238Y00091004D01*
G01X00138747Y00091004D01*
G37*
G36*
G01X00143486Y00088249D02*
G01X00143461Y00088356D01*
G01X00143348Y00088586D01*
G01X00143216Y00088802D01*
G01X00143063Y00089003D01*
G01X00142892Y00089190D01*
G01X00142705Y00089359D01*
G01X00142509Y00089506D01*
G01X00142303Y00089632D01*
G01X00142087Y00089735D01*
G01X00141764Y00089854D01*
G01X00141431Y00089938D01*
G01X00141090Y00089989D01*
G01X00140741Y00090006D01*
G01X00139494Y00090006D01*
G01X00139292Y00089987D01*
G01X00139107Y00089932D01*
G01X00138938Y00089839D01*
G01X00138785Y00089708D01*
G01X00138659Y00089553D01*
G01X00138569Y00089385D01*
G01X00138515Y00089203D01*
G01X00138497Y00089008D01*
G01X00138497Y00088509D01*
G01X00138515Y00088310D01*
G01X00138570Y00088126D01*
G01X00138662Y00087957D01*
G01X00138791Y00087804D01*
G01X00138945Y00087676D01*
G01X00139113Y00087584D01*
G01X00139296Y00087530D01*
G01X00139494Y00087511D01*
G01X00140490Y00087511D01*
G01X00140691Y00087530D01*
G01X00140875Y00087585D01*
G01X00140988Y00087647D01*
G01X00140988Y00088509D01*
G01X00140979Y00088405D01*
G01X00140952Y00088311D01*
G01X00140907Y00088226D01*
G01X00140844Y00088151D01*
G01X00140768Y00088090D01*
G01X00140683Y00088046D01*
G01X00140591Y00088019D01*
G01X00140490Y00088010D01*
G01X00139494Y00088010D01*
G01X00139389Y00088019D01*
G01X00139294Y00088047D01*
G01X00139209Y00088093D01*
G01X00139135Y00088156D01*
G01X00139074Y00088233D01*
G01X00139031Y00088318D01*
G01X00139005Y00088410D01*
G01X00138996Y00088509D01*
G01X00138996Y00089008D01*
G01X00139005Y00089102D01*
G01X00139032Y00089204D01*
G01X00139138Y00089365D01*
G01X00139215Y00089427D01*
G01X00139300Y00089472D01*
G01X00139393Y00089498D01*
G01X00139494Y00089507D01*
G01X00140739Y00089507D01*
G01X00140988Y00089496D01*
G01X00140988Y00088509D01*
G01X00140988Y00087647D01*
G01X00141044Y00087678D01*
G01X00141197Y00087807D01*
G01X00141324Y00087962D01*
G01X00141414Y00088131D01*
G01X00141469Y00088313D01*
G01X00141487Y00088509D01*
G01X00141487Y00089411D01*
G01X00141690Y00089354D01*
G01X00141890Y00089279D01*
G01X00142073Y00089192D01*
G01X00142246Y00089088D01*
G01X00142408Y00088968D01*
G01X00142560Y00088830D01*
G01X00142700Y00088671D01*
G01X00142816Y00088516D01*
G01X00142921Y00088344D01*
G01X00143002Y00088164D01*
G01X00143054Y00088089D01*
G01X00143105Y00088042D01*
G01X00143160Y00088018D01*
G01X00143226Y00088010D01*
G01X00143321Y00088026D01*
G01X00143408Y00088074D01*
G01X00143467Y00088157D01*
G01X00143486Y00088249D01*
G37*
G36*
G01X00143486Y00081774D02*
G01X00143486Y00083271D01*
G01X00143471Y00083380D01*
G01X00143424Y00083458D01*
G01X00143346Y00083504D01*
G01X00143237Y00083520D01*
G01X00138746Y00083520D01*
G01X00138637Y00083504D01*
G01X00138559Y00083458D01*
G01X00138513Y00083380D01*
G01X00138497Y00083271D01*
G01X00138497Y00081524D01*
G01X00138515Y00081325D01*
G01X00138571Y00081141D01*
G01X00138662Y00080972D01*
G01X00138791Y00080819D01*
G01X00138945Y00080691D01*
G01X00139114Y00080600D01*
G01X00139297Y00080545D01*
G01X00139495Y00080526D01*
G01X00140493Y00080526D01*
G01X00140621Y00080535D01*
G01X00140746Y00080559D01*
G01X00140867Y00080601D01*
G01X00140985Y00080658D01*
G01X00140995Y00080665D01*
G01X00140995Y00081524D01*
G01X00140986Y00081420D01*
G01X00140959Y00081326D01*
G01X00140914Y00081241D01*
G01X00140851Y00081166D01*
G01X00140774Y00081105D01*
G01X00140690Y00081061D01*
G01X00140597Y00081034D01*
G01X00140495Y00081025D01*
G01X00139496Y00081025D01*
G01X00139390Y00081035D01*
G01X00139295Y00081062D01*
G01X00139210Y00081108D01*
G01X00139135Y00081172D01*
G01X00139074Y00081248D01*
G01X00139031Y00081333D01*
G01X00139005Y00081425D01*
G01X00138996Y00081524D01*
G01X00138996Y00083021D01*
G01X00140995Y00083021D01*
G01X00140995Y00081524D01*
G01X00140995Y00080665D01*
G01X00141190Y00080811D01*
G01X00141344Y00081004D01*
G01X00141499Y00080900D01*
G01X00141658Y00080829D01*
G01X00141821Y00080789D01*
G01X00141990Y00080776D01*
G01X00142488Y00080776D01*
G01X00142688Y00080794D01*
G01X00142872Y00080849D01*
G01X00142987Y00080911D01*
G01X00142987Y00081774D01*
G01X00142978Y00081670D01*
G01X00142951Y00081576D01*
G01X00142906Y00081491D01*
G01X00142843Y00081416D01*
G01X00142767Y00081354D01*
G01X00142682Y00081310D01*
G01X00142589Y00081284D01*
G01X00142488Y00081275D01*
G01X00141990Y00081275D01*
G01X00141884Y00081284D01*
G01X00141789Y00081311D01*
G01X00141704Y00081357D01*
G01X00141630Y00081421D01*
G01X00141569Y00081498D01*
G01X00141525Y00081582D01*
G01X00141499Y00081674D01*
G01X00141491Y00081774D01*
G01X00141487Y00083021D01*
G01X00142987Y00083021D01*
G01X00142987Y00081774D01*
G01X00142987Y00080911D01*
G01X00143040Y00080939D01*
G01X00143194Y00081066D01*
G01X00143322Y00081220D01*
G01X00143413Y00081388D01*
G01X00143468Y00081573D01*
G01X00143486Y00081774D01*
G37*

G36*
G01X00026845Y00042256D02*
G01X00026845Y00041009D01*
G01X00026827Y00040813D01*
G01X00026772Y00040630D01*
G01X00026682Y00040462D01*
G01X00026555Y00040307D01*
G01X00026401Y00040177D01*
G01X00026232Y00040085D01*
G01X00026048Y00040029D01*
G01X00025847Y00040011D01*
G01X00022854Y00040011D01*
G01X00022653Y00040029D01*
G01X00022468Y00040084D01*
G01X00022299Y00040174D01*
G01X00022146Y00040301D01*
G01X00022019Y00040455D01*
G01X00021928Y00040623D01*
G01X00021874Y00040808D01*
G01X00021856Y00041009D01*
G01X00021856Y00042256D01*
G01X00021875Y00042352D01*
G01X00021932Y00042433D01*
G01X00022014Y00042487D01*
G01X00022105Y00042506D01*
G01X00022190Y00042490D01*
G01X00022273Y00042443D01*
G01X00022334Y00042365D01*
G01X00022355Y00042256D01*
G01X00022355Y00041009D01*
G01X00022364Y00040908D01*
G01X00022390Y00040815D01*
G01X00022435Y00040729D01*
G01X00022497Y00040652D01*
G01X00022573Y00040590D01*
G01X00022659Y00040545D01*
G01X00022753Y00040519D01*
G01X00022854Y00040510D01*
G01X00025847Y00040510D01*
G01X00025948Y00040519D01*
G01X00026041Y00040545D01*
G01X00026126Y00040590D01*
G01X00026204Y00040652D01*
G01X00026310Y00040813D01*
G01X00026337Y00040915D01*
G01X00026346Y00041009D01*
G01X00026346Y00042256D01*
G01X00026365Y00042352D01*
G01X00026423Y00042433D01*
G01X00026504Y00042487D01*
G01X00026596Y00042506D01*
G01X00026680Y00042490D01*
G01X00026763Y00042443D01*
G01X00026825Y00042365D01*
G01X00026845Y00042256D01*
G37*
G36*
G01X00025352Y00045749D02*
G01X00025352Y00046248D01*
G01X00025371Y00046344D01*
G01X00025428Y00046424D01*
G01X00025510Y00046479D01*
G01X00025601Y00046498D01*
G01X00025686Y00046482D01*
G01X00025769Y00046435D01*
G01X00025830Y00046357D01*
G01X00025851Y00046248D01*
G01X00025851Y00045749D01*
G01X00026596Y00045749D01*
G01X00026702Y00045731D01*
G01X00026785Y00045678D01*
G01X00026830Y00045599D01*
G01X00026845Y00045500D01*
G01X00026829Y00045406D01*
G01X00026783Y00045325D01*
G01X00026705Y00045269D01*
G01X00026596Y00045250D01*
G01X00025851Y00045250D01*
G01X00025851Y00043753D01*
G01X00025838Y00043640D01*
G01X00025800Y00043558D01*
G01X00025736Y00043509D01*
G01X00025648Y00043493D01*
G01X00025587Y00043500D01*
G01X00025530Y00043515D01*
G01X00022038Y00044512D01*
G01X00021966Y00044545D01*
G01X00021902Y00044598D01*
G01X00021877Y00044644D01*
G01X00021856Y00044741D01*
G01X00021874Y00044841D01*
G01X00021927Y00044922D01*
G01X00022005Y00044981D01*
G01X00022102Y00045001D01*
G01X00022177Y00044990D01*
G01X00025352Y00044081D01*
G01X00025352Y00045250D01*
G01X00024603Y00045250D01*
G01X00024507Y00045269D01*
G01X00024418Y00045325D01*
G01X00024370Y00045406D01*
G01X00024354Y00045500D01*
G01X00024370Y00045591D01*
G01X00024416Y00045672D01*
G01X00024494Y00045730D01*
G01X00024603Y00045749D01*
G01X00025352Y00045749D01*
G37*

G36*
G01X00015707Y00034606D02*
G01X00015814Y00034588D01*
G01X00015896Y00034534D01*
G01X00015942Y00034456D01*
G01X00015957Y00034356D01*
G01X00015941Y00034263D01*
G01X00015895Y00034182D01*
G01X00015817Y00034126D01*
G01X00015708Y00034107D01*
G01X00011816Y00034107D01*
G01X00012390Y00033533D01*
G01X00012446Y00033453D01*
G01X00012464Y00033362D01*
G01X00012446Y00033274D01*
G01X00012390Y00033187D01*
G01X00012306Y00033129D01*
G01X00012211Y00033109D01*
G01X00012126Y00033128D01*
G01X00012040Y00033184D01*
G01X00011042Y00034182D01*
G01X00010961Y00034285D01*
G01X00010939Y00034341D01*
G01X00010931Y00034403D01*
G01X00010950Y00034469D01*
G01X00011006Y00034545D01*
G01X00011098Y00034591D01*
G01X00011216Y00034606D01*
G01X00015707Y00034606D01*
G37*
G36*
G01X00015957Y00036702D02*
G01X00015957Y00037001D01*
G01X00015937Y00037222D01*
G01X00015875Y00037425D01*
G01X00015774Y00037611D01*
G01X00015631Y00037780D01*
G01X00015460Y00037919D01*
G01X00015275Y00038019D01*
G01X00015075Y00038079D01*
G01X00014859Y00038099D01*
G01X00012065Y00038099D01*
G01X00011844Y00038078D01*
G01X00011641Y00038017D01*
G01X00011455Y00037915D01*
G01X00011287Y00037772D01*
G01X00011147Y00037602D01*
G01X00011047Y00037417D01*
G01X00010988Y00037216D01*
G01X00010968Y00037001D01*
G01X00010968Y00036702D01*
G01X00010988Y00036482D01*
G01X00011050Y00036279D01*
G01X00011153Y00036094D01*
G01X00011297Y00035925D01*
G01X00011469Y00035784D01*
G01X00011654Y00035684D01*
G01X00011853Y00035624D01*
G01X00012065Y00035604D01*
G01X00014859Y00035604D01*
G01X00015082Y00035624D01*
G01X00015286Y00035685D01*
G01X00015458Y00035779D01*
G01X00015458Y00036702D01*
G01X00015447Y00036582D01*
G01X00015414Y00036471D01*
G01X00015359Y00036369D01*
G01X00015282Y00036277D01*
G01X00015189Y00036201D01*
G01X00015088Y00036147D01*
G01X00014978Y00036114D01*
G01X00014859Y00036103D01*
G01X00012065Y00036103D01*
G01X00011945Y00036114D01*
G01X00011835Y00036147D01*
G01X00011733Y00036202D01*
G01X00011641Y00036279D01*
G01X00011565Y00036372D01*
G01X00011510Y00036473D01*
G01X00011478Y00036583D01*
G01X00011467Y00036702D01*
G01X00011467Y00037001D01*
G01X00011478Y00037122D01*
G01X00011511Y00037234D01*
G01X00011566Y00037335D01*
G01X00011643Y00037427D01*
G01X00011736Y00037502D01*
G01X00011837Y00037556D01*
G01X00011947Y00037589D01*
G01X00012065Y00037600D01*
G01X00014859Y00037600D01*
G01X00014982Y00037589D01*
G01X00015095Y00037555D01*
G01X00015196Y00037499D01*
G01X00015287Y00037421D01*
G01X00015362Y00037328D01*
G01X00015415Y00037227D01*
G01X00015447Y00037118D01*
G01X00015458Y00037001D01*
G01X00015458Y00036702D01*
G01X00015458Y00035779D01*
G01X00015472Y00035787D01*
G01X00015640Y00035930D01*
G01X00015779Y00036101D01*
G01X00015878Y00036286D01*
G01X00015937Y00036486D01*
G01X00015957Y00036702D01*
G37*
G36*
G01X00015957Y00040194D02*
G01X00015957Y00040493D01*
G01X00015937Y00040714D01*
G01X00015875Y00040917D01*
G01X00015774Y00041103D01*
G01X00015631Y00041272D01*
G01X00015460Y00041411D01*
G01X00015275Y00041511D01*
G01X00015075Y00041571D01*
G01X00014859Y00041591D01*
G01X00012065Y00041591D01*
G01X00011844Y00041570D01*
G01X00011641Y00041509D01*
G01X00011455Y00041407D01*
G01X00011287Y00041264D01*
G01X00011147Y00041094D01*
G01X00011047Y00040909D01*
G01X00010988Y00040708D01*
G01X00010968Y00040493D01*
G01X00010968Y00040194D01*
G01X00010988Y00039974D01*
G01X00011050Y00039771D01*
G01X00011153Y00039586D01*
G01X00011297Y00039417D01*
G01X00011469Y00039276D01*
G01X00011654Y00039176D01*
G01X00011853Y00039116D01*
G01X00012065Y00039096D01*
G01X00014859Y00039096D01*
G01X00015082Y00039116D01*
G01X00015286Y00039177D01*
G01X00015458Y00039271D01*
G01X00015458Y00040194D01*
G01X00015447Y00040074D01*
G01X00015414Y00039963D01*
G01X00015359Y00039861D01*
G01X00015282Y00039769D01*
G01X00015189Y00039693D01*
G01X00015088Y00039639D01*
G01X00014978Y00039606D01*
G01X00014859Y00039595D01*
G01X00012065Y00039595D01*
G01X00011945Y00039606D01*
G01X00011835Y00039639D01*
G01X00011733Y00039694D01*
G01X00011641Y00039771D01*
G01X00011565Y00039864D01*
G01X00011510Y00039965D01*
G01X00011478Y00040075D01*
G01X00011467Y00040194D01*
G01X00011467Y00040493D01*
G01X00011478Y00040614D01*
G01X00011511Y00040726D01*
G01X00011566Y00040827D01*
G01X00011643Y00040919D01*
G01X00011736Y00040994D01*
G01X00011837Y00041048D01*
G01X00011947Y00041081D01*
G01X00012065Y00041092D01*
G01X00014859Y00041092D01*
G01X00014982Y00041081D01*
G01X00015095Y00041047D01*
G01X00015196Y00040991D01*
G01X00015287Y00040913D01*
G01X00015362Y00040820D01*
G01X00015415Y00040719D01*
G01X00015447Y00040610D01*
G01X00015458Y00040493D01*
G01X00015458Y00040194D01*
G01X00015458Y00039271D01*
G01X00015472Y00039279D01*
G01X00015640Y00039422D01*
G01X00015779Y00039593D01*
G01X00015878Y00039778D01*
G01X00015937Y00039978D01*
G01X00015957Y00040194D01*
G37*
G36*
G01X00013961Y00047579D02*
G01X00012714Y00047579D01*
G01X00012618Y00047597D01*
G01X00012529Y00047653D01*
G01X00012481Y00047735D01*
G01X00012464Y00047828D01*
G01X00012480Y00047919D01*
G01X00012527Y00048001D01*
G01X00012605Y00048058D01*
G01X00012714Y00048078D01*
G01X00015708Y00048078D01*
G01X00015814Y00048060D01*
G01X00015896Y00048006D01*
G01X00015942Y00047928D01*
G01X00015957Y00047828D01*
G01X00015941Y00047735D01*
G01X00015895Y00047653D01*
G01X00015817Y00047597D01*
G01X00015708Y00047579D01*
G01X00014460Y00047579D01*
G01X00014460Y00046082D01*
G01X00015708Y00046082D01*
G01X00015814Y00046064D01*
G01X00015896Y00046011D01*
G01X00015942Y00045932D01*
G01X00015957Y00045832D01*
G01X00015941Y00045739D01*
G01X00015895Y00045658D01*
G01X00015817Y00045602D01*
G01X00015708Y00045583D01*
G01X00012714Y00045583D01*
G01X00012618Y00045602D01*
G01X00012529Y00045658D01*
G01X00012481Y00045739D01*
G01X00012464Y00045832D01*
G01X00012480Y00045924D01*
G01X00012527Y00046005D01*
G01X00012605Y00046063D01*
G01X00012714Y00046082D01*
G01X00013961Y00046082D01*
G01X00013961Y00047579D01*
G37*
G36*
G01X00015957Y00051072D02*
G01X00015942Y00051171D01*
G01X00015897Y00051250D01*
G01X00015814Y00051303D01*
G01X00015708Y00051321D01*
G01X00014963Y00051321D01*
G01X00014963Y00051571D01*
G01X00014935Y00051871D01*
G01X00014851Y00052147D01*
G01X00014712Y00052401D01*
G01X00014517Y00052631D01*
G01X00014284Y00052822D01*
G01X00014031Y00052958D01*
G01X00013757Y00053040D01*
G01X00013464Y00053067D01*
G01X00013215Y00053067D01*
G01X00012913Y00053038D01*
G01X00012635Y00052950D01*
G01X00012382Y00052811D01*
G01X00012155Y00052629D01*
G01X00011963Y00052398D01*
G01X00011826Y00052145D01*
G01X00011744Y00051869D01*
G01X00011716Y00051571D01*
G01X00011716Y00051321D01*
G01X00011217Y00051321D01*
G01X00011108Y00051302D01*
G01X00011030Y00051244D01*
G01X00010983Y00051163D01*
G01X00010968Y00051072D01*
G01X00010984Y00050978D01*
G01X00011032Y00050897D01*
G01X00011121Y00050841D01*
G01X00011217Y00050822D01*
G01X00011716Y00050822D01*
G01X00011716Y00050573D01*
G01X00011744Y00050274D01*
G01X00011827Y00049998D01*
G01X00011966Y00049745D01*
G01X00012160Y00049514D01*
G01X00012393Y00049322D01*
G01X00012646Y00049186D01*
G01X00012920Y00049103D01*
G01X00013215Y00049076D01*
G01X00013464Y00049076D01*
G01X00013766Y00049103D01*
G01X00014044Y00049185D01*
G01X00014298Y00049321D01*
G01X00014464Y00049459D01*
G01X00014464Y00050573D01*
G01X00014445Y00050374D01*
G01X00014390Y00050190D01*
G01X00014298Y00050021D01*
G01X00014169Y00049867D01*
G01X00014015Y00049739D01*
G01X00013846Y00049648D01*
G01X00013662Y00049593D01*
G01X00013464Y00049575D01*
G01X00013214Y00049575D01*
G01X00013014Y00049593D01*
G01X00012829Y00049649D01*
G01X00012659Y00049741D01*
G01X00012506Y00049871D01*
G01X00012379Y00050025D01*
G01X00012288Y00050194D01*
G01X00012233Y00050376D01*
G01X00012215Y00050573D01*
G01X00012215Y00050822D01*
G01X00014464Y00050822D01*
G01X00014464Y00051321D01*
G01X00012215Y00051321D01*
G01X00012215Y00051571D01*
G01X00012234Y00051773D01*
G01X00012290Y00051958D01*
G01X00012384Y00052127D01*
G01X00012515Y00052280D01*
G01X00012671Y00052406D01*
G01X00012840Y00052496D01*
G01X00013021Y00052550D01*
G01X00013214Y00052568D01*
G01X00013464Y00052568D01*
G01X00013664Y00052550D01*
G01X00013848Y00052495D01*
G01X00014017Y00052404D01*
G01X00014171Y00052276D01*
G01X00014299Y00052123D01*
G01X00014391Y00051954D01*
G01X00014445Y00051770D01*
G01X00014464Y00051571D01*
G01X00014464Y00051321D01*
G01X00014464Y00050822D01*
G01X00014464Y00050573D01*
G01X00014464Y00049459D01*
G01X00014527Y00049512D01*
G01X00014718Y00049742D01*
G01X00014854Y00049996D01*
G01X00014935Y00050273D01*
G01X00014963Y00050573D01*
G01X00014963Y00050822D01*
G01X00015708Y00050822D01*
G01X00015817Y00050841D01*
G01X00015895Y00050897D01*
G01X00015941Y00050978D01*
G01X00015957Y00051072D01*
G37*

G36*
G01X-00024988Y00077004D02*
G01X-00026235Y00077004D01*
G01X-00026431Y00077022D01*
G01X-00026614Y00077077D01*
G01X-00026782Y00077167D01*
G01X-00026937Y00077294D01*
G01X-00027067Y00077448D01*
G01X-00027159Y00077617D01*
G01X-00027215Y00077801D01*
G01X-00027233Y00078002D01*
G01X-00027233Y00080995D01*
G01X-00027215Y00081196D01*
G01X-00027160Y00081381D01*
G01X-00027070Y00081550D01*
G01X-00026943Y00081703D01*
G01X-00026789Y00081830D01*
G01X-00026621Y00081921D01*
G01X-00026436Y00081975D01*
G01X-00026235Y00081993D01*
G01X-00024988Y00081993D01*
G01X-00024892Y00081974D01*
G01X-00024811Y00081917D01*
G01X-00024757Y00081835D01*
G01X-00024738Y00081744D01*
G01X-00024754Y00081659D01*
G01X-00024801Y00081576D01*
G01X-00024879Y00081515D01*
G01X-00024988Y00081494D01*
G01X-00026235Y00081494D01*
G01X-00026336Y00081485D01*
G01X-00026429Y00081459D01*
G01X-00026515Y00081414D01*
G01X-00026592Y00081352D01*
G01X-00026654Y00081276D01*
G01X-00026699Y00081190D01*
G01X-00026725Y00081096D01*
G01X-00026734Y00080995D01*
G01X-00026734Y00078002D01*
G01X-00026725Y00077901D01*
G01X-00026699Y00077808D01*
G01X-00026654Y00077723D01*
G01X-00026592Y00077645D01*
G01X-00026431Y00077539D01*
G01X-00026329Y00077512D01*
G01X-00026235Y00077503D01*
G01X-00024988Y00077503D01*
G01X-00024892Y00077484D01*
G01X-00024811Y00077426D01*
G01X-00024757Y00077345D01*
G01X-00024738Y00077253D01*
G01X-00024754Y00077169D01*
G01X-00024801Y00077086D01*
G01X-00024879Y00077024D01*
G01X-00024988Y00077004D01*
G37*
G36*
G01X-00023241Y00081494D02*
G01X-00023241Y00079994D01*
G01X-00022493Y00079994D01*
G01X-00022247Y00079971D01*
G01X-00022018Y00079903D01*
G01X-00021807Y00079789D01*
G01X-00021614Y00079629D01*
G01X-00021453Y00079437D01*
G01X-00021338Y00079227D01*
G01X-00021268Y00078997D01*
G01X-00021245Y00078748D01*
G01X-00021245Y00078250D01*
G01X-00021268Y00078004D01*
G01X-00021337Y00077776D01*
G01X-00021452Y00077565D01*
G01X-00021612Y00077372D01*
G01X-00021805Y00077211D01*
G01X-00022016Y00077096D01*
G01X-00022245Y00077027D01*
G01X-00022493Y00077004D01*
G01X-00023491Y00077004D01*
G01X-00023594Y00077022D01*
G01X-00023676Y00077075D01*
G01X-00023724Y00077157D01*
G01X-00023740Y00077253D01*
G01X-00023724Y00077340D01*
G01X-00023674Y00077423D01*
G01X-00023595Y00077483D01*
G01X-00023491Y00077503D01*
G01X-00022493Y00077503D01*
G01X-00022345Y00077516D01*
G01X-00022208Y00077556D01*
G01X-00022081Y00077623D01*
G01X-00021965Y00077716D01*
G01X-00021869Y00077830D01*
G01X-00021800Y00077956D01*
G01X-00021758Y00078097D01*
G01X-00021744Y00078250D01*
G01X-00021744Y00078748D01*
G01X-00021758Y00078897D01*
G01X-00021798Y00079035D01*
G01X-00021866Y00079161D01*
G01X-00021960Y00079276D01*
G01X-00022074Y00079372D01*
G01X-00022201Y00079440D01*
G01X-00022341Y00079481D01*
G01X-00022493Y00079495D01*
G01X-00023491Y00079495D01*
G01X-00023600Y00079511D01*
G01X-00023678Y00079558D01*
G01X-00023724Y00079636D01*
G01X-00023740Y00079745D01*
G01X-00023740Y00081744D01*
G01X-00023724Y00081853D01*
G01X-00023678Y00081931D01*
G01X-00023600Y00081978D01*
G01X-00023491Y00081993D01*
G01X-00021495Y00081993D01*
G01X-00021399Y00081974D01*
G01X-00021318Y00081917D01*
G01X-00021264Y00081835D01*
G01X-00021245Y00081744D01*
G01X-00021261Y00081659D01*
G01X-00021308Y00081576D01*
G01X-00021386Y00081515D01*
G01X-00021495Y00081494D01*
G01X-00023241Y00081494D01*
G37*

G36*
G01X-00032888Y00088143D02*
G01X-00032906Y00088036D01*
G01X-00032960Y00087954D01*
G01X-00033038Y00087908D01*
G01X-00033138Y00087893D01*
G01X-00033231Y00087909D01*
G01X-00033312Y00087955D01*
G01X-00033368Y00088033D01*
G01X-00033387Y00088142D01*
G01X-00033387Y00092034D01*
G01X-00033961Y00091460D01*
G01X-00034041Y00091404D01*
G01X-00034132Y00091386D01*
G01X-00034220Y00091404D01*
G01X-00034307Y00091460D01*
G01X-00034365Y00091544D01*
G01X-00034385Y00091639D01*
G01X-00034366Y00091724D01*
G01X-00034310Y00091810D01*
G01X-00033312Y00092808D01*
G01X-00033209Y00092889D01*
G01X-00033153Y00092911D01*
G01X-00033091Y00092919D01*
G01X-00033025Y00092900D01*
G01X-00032949Y00092844D01*
G01X-00032903Y00092752D01*
G01X-00032888Y00092634D01*
G01X-00032888Y00088143D01*
G37*
G36*
G01X-00029395Y00088991D02*
G01X-00029415Y00088775D01*
G01X-00029475Y00088575D01*
G01X-00029575Y00088390D01*
G01X-00029714Y00088219D01*
G01X-00029883Y00088076D01*
G01X-00029894Y00088070D01*
G01X-00029894Y00088991D01*
G01X-00029894Y00091785D01*
G01X-00029905Y00091903D01*
G01X-00029938Y00092013D01*
G01X-00029992Y00092114D01*
G01X-00030067Y00092207D01*
G01X-00030159Y00092284D01*
G01X-00030260Y00092339D01*
G01X-00030372Y00092372D01*
G01X-00030493Y00092383D01*
G01X-00030792Y00092383D01*
G01X-00030911Y00092372D01*
G01X-00031021Y00092340D01*
G01X-00031122Y00092285D01*
G01X-00031215Y00092209D01*
G01X-00031292Y00092117D01*
G01X-00031347Y00092015D01*
G01X-00031380Y00091905D01*
G01X-00031391Y00091785D01*
G01X-00031391Y00088991D01*
G01X-00031380Y00088872D01*
G01X-00031347Y00088762D01*
G01X-00031293Y00088661D01*
G01X-00031217Y00088568D01*
G01X-00031125Y00088491D01*
G01X-00031023Y00088436D01*
G01X-00030912Y00088403D01*
G01X-00030792Y00088392D01*
G01X-00030493Y00088392D01*
G01X-00030376Y00088403D01*
G01X-00030267Y00088435D01*
G01X-00030166Y00088488D01*
G01X-00030073Y00088563D01*
G01X-00029995Y00088654D01*
G01X-00029939Y00088755D01*
G01X-00029905Y00088868D01*
G01X-00029894Y00088991D01*
G01X-00029894Y00088070D01*
G01X-00030069Y00087975D01*
G01X-00030272Y00087913D01*
G01X-00030493Y00087893D01*
G01X-00030792Y00087893D01*
G01X-00031008Y00087913D01*
G01X-00031208Y00087972D01*
G01X-00031393Y00088071D01*
G01X-00031564Y00088210D01*
G01X-00031707Y00088378D01*
G01X-00031809Y00088564D01*
G01X-00031870Y00088768D01*
G01X-00031890Y00088991D01*
G01X-00031890Y00091785D01*
G01X-00031870Y00091997D01*
G01X-00031810Y00092196D01*
G01X-00031710Y00092381D01*
G01X-00031569Y00092553D01*
G01X-00031400Y00092697D01*
G01X-00031215Y00092800D01*
G01X-00031012Y00092862D01*
G01X-00030792Y00092882D01*
G01X-00030493Y00092882D01*
G01X-00030278Y00092862D01*
G01X-00030077Y00092803D01*
G01X-00029892Y00092703D01*
G01X-00029722Y00092563D01*
G01X-00029579Y00092395D01*
G01X-00029477Y00092209D01*
G01X-00029416Y00092006D01*
G01X-00029395Y00091785D01*
G01X-00029395Y00088991D01*
G37*
G36*
G01X-00025903Y00088991D02*
G01X-00025923Y00088775D01*
G01X-00025983Y00088575D01*
G01X-00026083Y00088390D01*
G01X-00026222Y00088219D01*
G01X-00026391Y00088076D01*
G01X-00026402Y00088070D01*
G01X-00026402Y00088991D01*
G01X-00026402Y00091785D01*
G01X-00026413Y00091903D01*
G01X-00026446Y00092013D01*
G01X-00026500Y00092114D01*
G01X-00026575Y00092207D01*
G01X-00026667Y00092284D01*
G01X-00026768Y00092339D01*
G01X-00026880Y00092372D01*
G01X-00027001Y00092383D01*
G01X-00027300Y00092383D01*
G01X-00027419Y00092372D01*
G01X-00027529Y00092340D01*
G01X-00027630Y00092285D01*
G01X-00027723Y00092209D01*
G01X-00027800Y00092117D01*
G01X-00027855Y00092015D01*
G01X-00027888Y00091905D01*
G01X-00027899Y00091785D01*
G01X-00027899Y00088991D01*
G01X-00027888Y00088872D01*
G01X-00027855Y00088762D01*
G01X-00027801Y00088661D01*
G01X-00027725Y00088568D01*
G01X-00027633Y00088491D01*
G01X-00027531Y00088436D01*
G01X-00027420Y00088403D01*
G01X-00027300Y00088392D01*
G01X-00027001Y00088392D01*
G01X-00026884Y00088403D01*
G01X-00026775Y00088435D01*
G01X-00026674Y00088488D01*
G01X-00026581Y00088563D01*
G01X-00026503Y00088654D01*
G01X-00026447Y00088755D01*
G01X-00026413Y00088868D01*
G01X-00026402Y00088991D01*
G01X-00026402Y00088070D01*
G01X-00026577Y00087975D01*
G01X-00026780Y00087913D01*
G01X-00027001Y00087893D01*
G01X-00027300Y00087893D01*
G01X-00027516Y00087913D01*
G01X-00027716Y00087972D01*
G01X-00027901Y00088071D01*
G01X-00028072Y00088210D01*
G01X-00028215Y00088378D01*
G01X-00028317Y00088564D01*
G01X-00028378Y00088768D01*
G01X-00028398Y00088991D01*
G01X-00028398Y00091785D01*
G01X-00028378Y00091997D01*
G01X-00028318Y00092196D01*
G01X-00028218Y00092381D01*
G01X-00028077Y00092553D01*
G01X-00027908Y00092697D01*
G01X-00027723Y00092800D01*
G01X-00027520Y00092862D01*
G01X-00027300Y00092882D01*
G01X-00027001Y00092882D01*
G01X-00026786Y00092862D01*
G01X-00026585Y00092803D01*
G01X-00026400Y00092703D01*
G01X-00026230Y00092563D01*
G01X-00026087Y00092395D01*
G01X-00025985Y00092209D01*
G01X-00025924Y00092006D01*
G01X-00025903Y00091785D01*
G01X-00025903Y00088991D01*
G37*
G36*
G01X-00019915Y00089889D02*
G01X-00019915Y00091136D01*
G01X-00019897Y00091232D01*
G01X-00019841Y00091321D01*
G01X-00019759Y00091369D01*
G01X-00019666Y00091386D01*
G01X-00019575Y00091370D01*
G01X-00019493Y00091323D01*
G01X-00019436Y00091245D01*
G01X-00019416Y00091136D01*
G01X-00019416Y00088142D01*
G01X-00019434Y00088036D01*
G01X-00019488Y00087954D01*
G01X-00019566Y00087908D01*
G01X-00019666Y00087893D01*
G01X-00019759Y00087909D01*
G01X-00019841Y00087955D01*
G01X-00019897Y00088033D01*
G01X-00019915Y00088142D01*
G01X-00019915Y00089390D01*
G01X-00021412Y00089390D01*
G01X-00021412Y00088142D01*
G01X-00021430Y00088036D01*
G01X-00021483Y00087954D01*
G01X-00021562Y00087908D01*
G01X-00021662Y00087893D01*
G01X-00021755Y00087909D01*
G01X-00021836Y00087955D01*
G01X-00021892Y00088033D01*
G01X-00021911Y00088142D01*
G01X-00021911Y00091136D01*
G01X-00021892Y00091232D01*
G01X-00021836Y00091321D01*
G01X-00021755Y00091369D01*
G01X-00021662Y00091386D01*
G01X-00021570Y00091370D01*
G01X-00021489Y00091323D01*
G01X-00021431Y00091245D01*
G01X-00021412Y00091136D01*
G01X-00021412Y00089889D01*
G01X-00019915Y00089889D01*
G37*
G36*
G01X-00014427Y00090386D02*
G01X-00014427Y00090635D01*
G01X-00014456Y00090937D01*
G01X-00014544Y00091215D01*
G01X-00014683Y00091468D01*
G01X-00014865Y00091695D01*
G01X-00015096Y00091887D01*
G01X-00015349Y00092024D01*
G01X-00015625Y00092106D01*
G01X-00015923Y00092134D01*
G01X-00016173Y00092134D01*
G01X-00016173Y00092633D01*
G01X-00016192Y00092742D01*
G01X-00016250Y00092820D01*
G01X-00016331Y00092867D01*
G01X-00016422Y00092882D01*
G01X-00016516Y00092866D01*
G01X-00016597Y00092818D01*
G01X-00016653Y00092729D01*
G01X-00016672Y00092633D01*
G01X-00016672Y00092134D01*
G01X-00016921Y00092134D01*
G01X-00017220Y00092106D01*
G01X-00017496Y00092023D01*
G01X-00017749Y00091884D01*
G01X-00017980Y00091690D01*
G01X-00018172Y00091457D01*
G01X-00018308Y00091204D01*
G01X-00018391Y00090930D01*
G01X-00018418Y00090635D01*
G01X-00018418Y00090386D01*
G01X-00018391Y00090084D01*
G01X-00018309Y00089806D01*
G01X-00018173Y00089552D01*
G01X-00017982Y00089323D01*
G01X-00017752Y00089132D01*
G01X-00017498Y00088996D01*
G01X-00017221Y00088915D01*
G01X-00016921Y00088887D01*
G01X-00016672Y00088887D01*
G01X-00016672Y00089386D01*
G01X-00016672Y00091635D01*
G01X-00016921Y00091635D01*
G01X-00017118Y00091617D01*
G01X-00017300Y00091562D01*
G01X-00017469Y00091471D01*
G01X-00017623Y00091344D01*
G01X-00017753Y00091191D01*
G01X-00017845Y00091021D01*
G01X-00017901Y00090836D01*
G01X-00017919Y00090636D01*
G01X-00017919Y00090386D01*
G01X-00017901Y00090188D01*
G01X-00017846Y00090004D01*
G01X-00017755Y00089835D01*
G01X-00017627Y00089681D01*
G01X-00017473Y00089552D01*
G01X-00017304Y00089460D01*
G01X-00017120Y00089405D01*
G01X-00016921Y00089386D01*
G01X-00016672Y00089386D01*
G01X-00016672Y00088887D01*
G01X-00016672Y00088142D01*
G01X-00016653Y00088033D01*
G01X-00016597Y00087955D01*
G01X-00016516Y00087909D01*
G01X-00016422Y00087893D01*
G01X-00016323Y00087908D01*
G01X-00016244Y00087953D01*
G01X-00016191Y00088036D01*
G01X-00016173Y00088142D01*
G01X-00016173Y00088887D01*
G01X-00015923Y00088887D01*
G01X-00015623Y00088915D01*
G01X-00015347Y00088999D01*
G01X-00015093Y00089138D01*
G01X-00014926Y00089280D01*
G01X-00014926Y00090386D01*
G01X-00014944Y00090186D01*
G01X-00014999Y00090002D01*
G01X-00015090Y00089833D01*
G01X-00015218Y00089679D01*
G01X-00015371Y00089551D01*
G01X-00015540Y00089459D01*
G01X-00015724Y00089405D01*
G01X-00015923Y00089386D01*
G01X-00016173Y00089386D01*
G01X-00016173Y00091635D01*
G01X-00015923Y00091635D01*
G01X-00015721Y00091616D01*
G01X-00015536Y00091560D01*
G01X-00015367Y00091466D01*
G01X-00015214Y00091335D01*
G01X-00015088Y00091179D01*
G01X-00014998Y00091010D01*
G01X-00014944Y00090829D01*
G01X-00014926Y00090636D01*
G01X-00014926Y00090386D01*
G01X-00014926Y00089280D01*
G01X-00014863Y00089333D01*
G01X-00014672Y00089566D01*
G01X-00014536Y00089819D01*
G01X-00014454Y00090093D01*
G01X-00014427Y00090386D01*
G37*

G36*
G01X00009752Y00112504D02*
G01X00008505Y00112504D01*
G01X00008309Y00112522D01*
G01X00008126Y00112577D01*
G01X00007958Y00112667D01*
G01X00007803Y00112794D01*
G01X00007673Y00112948D01*
G01X00007581Y00113117D01*
G01X00007525Y00113301D01*
G01X00007507Y00113502D01*
G01X00007507Y00116495D01*
G01X00007525Y00116696D01*
G01X00007580Y00116881D01*
G01X00007670Y00117050D01*
G01X00007797Y00117203D01*
G01X00007951Y00117330D01*
G01X00008119Y00117421D01*
G01X00008304Y00117475D01*
G01X00008505Y00117493D01*
G01X00009752Y00117493D01*
G01X00009848Y00117474D01*
G01X00009929Y00117417D01*
G01X00009983Y00117335D01*
G01X00010002Y00117244D01*
G01X00009986Y00117159D01*
G01X00009939Y00117076D01*
G01X00009861Y00117015D01*
G01X00009752Y00116994D01*
G01X00008505Y00116994D01*
G01X00008404Y00116985D01*
G01X00008311Y00116959D01*
G01X00008225Y00116914D01*
G01X00008148Y00116852D01*
G01X00008086Y00116776D01*
G01X00008041Y00116690D01*
G01X00008015Y00116596D01*
G01X00008006Y00116495D01*
G01X00008006Y00113502D01*
G01X00008015Y00113401D01*
G01X00008041Y00113308D01*
G01X00008086Y00113223D01*
G01X00008148Y00113145D01*
G01X00008309Y00113039D01*
G01X00008411Y00113012D01*
G01X00008505Y00113003D01*
G01X00009752Y00113003D01*
G01X00009848Y00112984D01*
G01X00009929Y00112926D01*
G01X00009983Y00112845D01*
G01X00010002Y00112753D01*
G01X00009986Y00112669D01*
G01X00009939Y00112586D01*
G01X00009861Y00112524D01*
G01X00009752Y00112504D01*
G37*
G36*
G01X00013495Y00113501D02*
G01X00013495Y00114497D01*
G01X00013476Y00114698D01*
G01X00013421Y00114882D01*
G01X00013328Y00115051D01*
G01X00013199Y00115204D01*
G01X00013044Y00115331D01*
G01X00012875Y00115421D01*
G01X00012693Y00115476D01*
G01X00012497Y00115494D01*
G01X00011595Y00115494D01*
G01X00011652Y00115697D01*
G01X00011727Y00115897D01*
G01X00011814Y00116080D01*
G01X00011918Y00116253D01*
G01X00012038Y00116415D01*
G01X00012176Y00116567D01*
G01X00012335Y00116707D01*
G01X00012490Y00116823D01*
G01X00012662Y00116928D01*
G01X00012842Y00117009D01*
G01X00012917Y00117061D01*
G01X00012964Y00117112D01*
G01X00012988Y00117167D01*
G01X00012996Y00117233D01*
G01X00012980Y00117328D01*
G01X00012932Y00117415D01*
G01X00012849Y00117474D01*
G01X00012757Y00117493D01*
G01X00012650Y00117468D01*
G01X00012420Y00117355D01*
G01X00012204Y00117223D01*
G01X00012003Y00117070D01*
G01X00011816Y00116899D01*
G01X00011647Y00116712D01*
G01X00011500Y00116516D01*
G01X00011374Y00116310D01*
G01X00011271Y00116094D01*
G01X00011152Y00115771D01*
G01X00011068Y00115438D01*
G01X00011017Y00115097D01*
G01X00011000Y00114748D01*
G01X00011000Y00113501D01*
G01X00011019Y00113299D01*
G01X00011074Y00113114D01*
G01X00011167Y00112945D01*
G01X00011298Y00112792D01*
G01X00011453Y00112666D01*
G01X00011621Y00112576D01*
G01X00011803Y00112522D01*
G01X00011998Y00112504D01*
G01X00012497Y00112504D01*
G01X00012696Y00112522D01*
G01X00012880Y00112577D01*
G01X00012996Y00112640D01*
G01X00012996Y00113501D01*
G01X00012987Y00113396D01*
G01X00012959Y00113301D01*
G01X00012913Y00113216D01*
G01X00012850Y00113142D01*
G01X00012773Y00113081D01*
G01X00012688Y00113038D01*
G01X00012596Y00113012D01*
G01X00012497Y00113003D01*
G01X00011998Y00113003D01*
G01X00011904Y00113012D01*
G01X00011802Y00113039D01*
G01X00011641Y00113145D01*
G01X00011579Y00113222D01*
G01X00011534Y00113307D01*
G01X00011508Y00113400D01*
G01X00011499Y00113501D01*
G01X00011499Y00114746D01*
G01X00011510Y00114995D01*
G01X00012497Y00114995D01*
G01X00012601Y00114986D01*
G01X00012695Y00114959D01*
G01X00012780Y00114914D01*
G01X00012855Y00114851D01*
G01X00012916Y00114775D01*
G01X00012960Y00114690D01*
G01X00012987Y00114598D01*
G01X00012996Y00114497D01*
G01X00012996Y00113501D01*
G01X00012996Y00112640D01*
G01X00013049Y00112669D01*
G01X00013202Y00112798D01*
G01X00013330Y00112952D01*
G01X00013422Y00113120D01*
G01X00013476Y00113303D01*
G01X00013495Y00113501D01*
G37*

G36*
G01X00009752Y00112504D02*
G01X00008505Y00112504D01*
G01X00008309Y00112522D01*
G01X00008126Y00112577D01*
G01X00007958Y00112667D01*
G01X00007803Y00112794D01*
G01X00007673Y00112948D01*
G01X00007581Y00113117D01*
G01X00007525Y00113301D01*
G01X00007507Y00113502D01*
G01X00007507Y00116495D01*
G01X00007525Y00116696D01*
G01X00007580Y00116881D01*
G01X00007670Y00117050D01*
G01X00007797Y00117203D01*
G01X00007951Y00117330D01*
G01X00008119Y00117421D01*
G01X00008304Y00117475D01*
G01X00008505Y00117493D01*
G01X00009752Y00117493D01*
G01X00009848Y00117474D01*
G01X00009929Y00117417D01*
G01X00009983Y00117335D01*
G01X00010002Y00117244D01*
G01X00009986Y00117159D01*
G01X00009939Y00117076D01*
G01X00009861Y00117015D01*
G01X00009752Y00116994D01*
G01X00008505Y00116994D01*
G01X00008404Y00116985D01*
G01X00008311Y00116959D01*
G01X00008225Y00116914D01*
G01X00008148Y00116852D01*
G01X00008086Y00116776D01*
G01X00008041Y00116690D01*
G01X00008015Y00116596D01*
G01X00008006Y00116495D01*
G01X00008006Y00113502D01*
G01X00008015Y00113401D01*
G01X00008041Y00113308D01*
G01X00008086Y00113223D01*
G01X00008148Y00113145D01*
G01X00008309Y00113039D01*
G01X00008411Y00113012D01*
G01X00008505Y00113003D01*
G01X00009752Y00113003D01*
G01X00009848Y00112984D01*
G01X00009929Y00112926D01*
G01X00009983Y00112845D01*
G01X00010002Y00112753D01*
G01X00009986Y00112669D01*
G01X00009939Y00112586D01*
G01X00009861Y00112524D01*
G01X00009752Y00112504D01*
G37*
G36*
G01X00013495Y00113501D02*
G01X00013495Y00114497D01*
G01X00013476Y00114698D01*
G01X00013421Y00114882D01*
G01X00013328Y00115051D01*
G01X00013199Y00115204D01*
G01X00013044Y00115331D01*
G01X00012875Y00115421D01*
G01X00012693Y00115476D01*
G01X00012497Y00115494D01*
G01X00011595Y00115494D01*
G01X00011652Y00115697D01*
G01X00011727Y00115897D01*
G01X00011814Y00116080D01*
G01X00011918Y00116253D01*
G01X00012038Y00116415D01*
G01X00012176Y00116567D01*
G01X00012335Y00116707D01*
G01X00012490Y00116823D01*
G01X00012662Y00116928D01*
G01X00012842Y00117009D01*
G01X00012917Y00117061D01*
G01X00012964Y00117112D01*
G01X00012988Y00117167D01*
G01X00012996Y00117233D01*
G01X00012980Y00117328D01*
G01X00012932Y00117415D01*
G01X00012849Y00117474D01*
G01X00012757Y00117493D01*
G01X00012650Y00117468D01*
G01X00012420Y00117355D01*
G01X00012204Y00117223D01*
G01X00012003Y00117070D01*
G01X00011816Y00116899D01*
G01X00011647Y00116712D01*
G01X00011500Y00116516D01*
G01X00011374Y00116310D01*
G01X00011271Y00116094D01*
G01X00011152Y00115771D01*
G01X00011068Y00115438D01*
G01X00011017Y00115097D01*
G01X00011000Y00114748D01*
G01X00011000Y00113501D01*
G01X00011019Y00113299D01*
G01X00011074Y00113114D01*
G01X00011167Y00112945D01*
G01X00011298Y00112792D01*
G01X00011453Y00112666D01*
G01X00011621Y00112576D01*
G01X00011803Y00112522D01*
G01X00011998Y00112504D01*
G01X00012497Y00112504D01*
G01X00012696Y00112522D01*
G01X00012880Y00112577D01*
G01X00012996Y00112640D01*
G01X00012996Y00113501D01*
G01X00012987Y00113396D01*
G01X00012959Y00113301D01*
G01X00012913Y00113216D01*
G01X00012850Y00113142D01*
G01X00012773Y00113081D01*
G01X00012688Y00113038D01*
G01X00012596Y00113012D01*
G01X00012497Y00113003D01*
G01X00011998Y00113003D01*
G01X00011904Y00113012D01*
G01X00011802Y00113039D01*
G01X00011641Y00113145D01*
G01X00011579Y00113222D01*
G01X00011534Y00113307D01*
G01X00011508Y00113400D01*
G01X00011499Y00113501D01*
G01X00011499Y00114746D01*
G01X00011510Y00114995D01*
G01X00012497Y00114995D01*
G01X00012601Y00114986D01*
G01X00012695Y00114959D01*
G01X00012780Y00114914D01*
G01X00012855Y00114851D01*
G01X00012916Y00114775D01*
G01X00012960Y00114690D01*
G01X00012987Y00114598D01*
G01X00012996Y00114497D01*
G01X00012996Y00113501D01*
G01X00012996Y00112640D01*
G01X00013049Y00112669D01*
G01X00013202Y00112798D01*
G01X00013330Y00112952D01*
G01X00013422Y00113120D01*
G01X00013476Y00113303D01*
G01X00013495Y00113501D01*
G37*

G36*
G01X-00021779Y00137980D02*
G01X-00022777Y00137980D01*
G01X-00022880Y00137998D01*
G01X-00022962Y00138052D01*
G01X-00023010Y00138133D01*
G01X-00023026Y00138230D01*
G01X-00023010Y00138317D01*
G01X-00022960Y00138399D01*
G01X-00022881Y00138459D01*
G01X-00022777Y00138479D01*
G01X-00021779Y00138479D01*
G01X-00021501Y00138455D01*
G01X-00021253Y00138384D01*
G01X-00021034Y00138265D01*
G01X-00020845Y00138098D01*
G01X-00020708Y00137911D01*
G01X-00020610Y00137705D01*
G01X-00020551Y00137481D01*
G01X-00020531Y00137239D01*
G01X-00020561Y00136949D01*
G01X-00020651Y00136683D01*
G01X-00020718Y00136560D01*
G01X-00020802Y00136442D01*
G01X-00020901Y00136332D01*
G01X-00021016Y00136227D01*
G01X-00020826Y00136039D01*
G01X-00020670Y00135802D01*
G01X-00020610Y00135668D01*
G01X-00020566Y00135531D01*
G01X-00020540Y00135388D01*
G01X-00020531Y00135241D01*
G01X-00020531Y00134743D01*
G01X-00020554Y00134497D01*
G01X-00020623Y00134269D01*
G01X-00020738Y00134058D01*
G01X-00020898Y00133865D01*
G01X-00021091Y00133704D01*
G01X-00021302Y00133589D01*
G01X-00021531Y00133520D01*
G01X-00021779Y00133497D01*
G01X-00022777Y00133497D01*
G01X-00022880Y00133514D01*
G01X-00022962Y00133565D01*
G01X-00023010Y00133651D01*
G01X-00023026Y00133746D01*
G01X-00023010Y00133831D01*
G01X-00022964Y00133914D01*
G01X-00022886Y00133975D01*
G01X-00022777Y00133996D01*
G01X-00021779Y00133996D01*
G01X-00021629Y00134010D01*
G01X-00021491Y00134051D01*
G01X-00021365Y00134119D01*
G01X-00021249Y00134215D01*
G01X-00021154Y00134330D01*
G01X-00021085Y00134456D01*
G01X-00021044Y00134594D01*
G01X-00021030Y00134743D01*
G01X-00021030Y00135241D01*
G01X-00021044Y00135389D01*
G01X-00021084Y00135526D01*
G01X-00021152Y00135652D01*
G01X-00021246Y00135768D01*
G01X-00021360Y00135864D01*
G01X-00021487Y00135933D01*
G01X-00021626Y00135974D01*
G01X-00021779Y00135988D01*
G01X-00022278Y00135988D01*
G01X-00022381Y00136005D01*
G01X-00022463Y00136056D01*
G01X-00022511Y00136142D01*
G01X-00022527Y00136238D01*
G01X-00022511Y00136322D01*
G01X-00022465Y00136405D01*
G01X-00022387Y00136467D01*
G01X-00022278Y00136487D01*
G01X-00021779Y00136487D01*
G01X-00021620Y00136502D01*
G01X-00021477Y00136547D01*
G01X-00021348Y00136621D01*
G01X-00021233Y00136726D01*
G01X-00021154Y00136839D01*
G01X-00021097Y00136964D01*
G01X-00021063Y00137101D01*
G01X-00021052Y00137250D01*
G01X-00021063Y00137395D01*
G01X-00021095Y00137527D01*
G01X-00021150Y00137646D01*
G01X-00021226Y00137752D01*
G01X-00021336Y00137852D01*
G01X-00021464Y00137923D01*
G01X-00021612Y00137966D01*
G01X-00021779Y00137980D01*
G37*
G36*
G01X-00018286Y00137980D02*
G01X-00019284Y00137980D01*
G01X-00019387Y00137998D01*
G01X-00019469Y00138052D01*
G01X-00019517Y00138133D01*
G01X-00019533Y00138230D01*
G01X-00019517Y00138317D01*
G01X-00019467Y00138399D01*
G01X-00019388Y00138459D01*
G01X-00019284Y00138479D01*
G01X-00018286Y00138479D01*
G01X-00018008Y00138455D01*
G01X-00017760Y00138384D01*
G01X-00017541Y00138265D01*
G01X-00017352Y00138098D01*
G01X-00017215Y00137911D01*
G01X-00017117Y00137705D01*
G01X-00017058Y00137481D01*
G01X-00017038Y00137239D01*
G01X-00017068Y00136949D01*
G01X-00017158Y00136683D01*
G01X-00017225Y00136560D01*
G01X-00017309Y00136442D01*
G01X-00017408Y00136332D01*
G01X-00017523Y00136227D01*
G01X-00017333Y00136039D01*
G01X-00017177Y00135802D01*
G01X-00017117Y00135668D01*
G01X-00017073Y00135531D01*
G01X-00017047Y00135388D01*
G01X-00017038Y00135241D01*
G01X-00017038Y00134743D01*
G01X-00017061Y00134497D01*
G01X-00017130Y00134269D01*
G01X-00017245Y00134058D01*
G01X-00017405Y00133865D01*
G01X-00017598Y00133704D01*
G01X-00017809Y00133589D01*
G01X-00018038Y00133520D01*
G01X-00018286Y00133497D01*
G01X-00019284Y00133497D01*
G01X-00019387Y00133514D01*
G01X-00019469Y00133565D01*
G01X-00019517Y00133651D01*
G01X-00019533Y00133746D01*
G01X-00019517Y00133831D01*
G01X-00019471Y00133914D01*
G01X-00019393Y00133975D01*
G01X-00019284Y00133996D01*
G01X-00018286Y00133996D01*
G01X-00018136Y00134010D01*
G01X-00017998Y00134051D01*
G01X-00017872Y00134119D01*
G01X-00017756Y00134215D01*
G01X-00017661Y00134330D01*
G01X-00017592Y00134456D01*
G01X-00017551Y00134594D01*
G01X-00017537Y00134743D01*
G01X-00017537Y00135241D01*
G01X-00017551Y00135389D01*
G01X-00017591Y00135526D01*
G01X-00017659Y00135652D01*
G01X-00017753Y00135768D01*
G01X-00017867Y00135864D01*
G01X-00017994Y00135933D01*
G01X-00018133Y00135974D01*
G01X-00018286Y00135988D01*
G01X-00018785Y00135988D01*
G01X-00018888Y00136005D01*
G01X-00018970Y00136056D01*
G01X-00019018Y00136142D01*
G01X-00019034Y00136238D01*
G01X-00019018Y00136322D01*
G01X-00018972Y00136405D01*
G01X-00018894Y00136467D01*
G01X-00018785Y00136487D01*
G01X-00018286Y00136487D01*
G01X-00018127Y00136502D01*
G01X-00017984Y00136547D01*
G01X-00017855Y00136621D01*
G01X-00017740Y00136726D01*
G01X-00017661Y00136839D01*
G01X-00017604Y00136964D01*
G01X-00017570Y00137101D01*
G01X-00017559Y00137250D01*
G01X-00017570Y00137395D01*
G01X-00017602Y00137527D01*
G01X-00017657Y00137646D01*
G01X-00017733Y00137752D01*
G01X-00017843Y00137852D01*
G01X-00017971Y00137923D01*
G01X-00018119Y00137966D01*
G01X-00018286Y00137980D01*
G37*
G36*
G01X-00010028Y00133746D02*
G01X-00010028Y00136740D01*
G01X-00010045Y00136863D01*
G01X-00010093Y00136954D01*
G01X-00010164Y00137010D01*
G01X-00010249Y00137029D01*
G01X-00010305Y00137020D01*
G01X-00010363Y00136993D01*
G01X-00010421Y00136949D01*
G01X-00010481Y00136886D01*
G01X-00011525Y00135421D01*
G01X-00012569Y00136886D01*
G01X-00012621Y00136949D01*
G01X-00012677Y00136993D01*
G01X-00012737Y00137020D01*
G01X-00012801Y00137029D01*
G01X-00012884Y00137009D01*
G01X-00012961Y00136950D01*
G01X-00013007Y00136859D01*
G01X-00013022Y00136740D01*
G01X-00013022Y00133746D01*
G01X-00013004Y00133640D01*
G01X-00012951Y00133558D01*
G01X-00012872Y00133512D01*
G01X-00012773Y00133497D01*
G01X-00012686Y00133513D01*
G01X-00012603Y00133563D01*
G01X-00012543Y00133642D01*
G01X-00012523Y00133746D01*
G01X-00012523Y00135963D01*
G01X-00011728Y00134848D01*
G01X-00011678Y00134790D01*
G01X-00011628Y00134749D01*
G01X-00011577Y00134724D01*
G01X-00011525Y00134716D01*
G01X-00011476Y00134724D01*
G01X-00011426Y00134749D01*
G01X-00011375Y00134790D01*
G01X-00011322Y00134848D01*
G01X-00010527Y00135963D01*
G01X-00010527Y00133746D01*
G01X-00010510Y00133640D01*
G01X-00010456Y00133558D01*
G01X-00010378Y00133512D01*
G01X-00010278Y00133497D01*
G01X-00010191Y00133513D01*
G01X-00010109Y00133563D01*
G01X-00010049Y00133642D01*
G01X-00010028Y00133746D01*
G37*
G36*
G01X-00008022Y00135129D02*
G01X-00008581Y00134545D01*
G01X-00008581Y00133746D01*
G01X-00008599Y00133640D01*
G01X-00008652Y00133558D01*
G01X-00008731Y00133512D01*
G01X-00008830Y00133497D01*
G01X-00008924Y00133513D01*
G01X-00009005Y00133559D01*
G01X-00009061Y00133637D01*
G01X-00009080Y00133746D01*
G01X-00009080Y00136740D01*
G01X-00009061Y00136836D01*
G01X-00009005Y00136925D01*
G01X-00008924Y00136973D01*
G01X-00008830Y00136990D01*
G01X-00008739Y00136974D01*
G01X-00008658Y00136927D01*
G01X-00008600Y00136849D01*
G01X-00008581Y00136740D01*
G01X-00008581Y00135268D01*
G01X-00006999Y00136929D01*
G01X-00006927Y00136985D01*
G01X-00006838Y00137004D01*
G01X-00006755Y00136985D01*
G01X-00006664Y00136929D01*
G01X-00006608Y00136844D01*
G01X-00006589Y00136740D01*
G01X-00006609Y00136641D01*
G01X-00006671Y00136551D01*
G01X-00007672Y00135496D01*
G01X-00006646Y00133907D01*
G01X-00006603Y00133812D01*
G01X-00006589Y00133736D01*
G01X-00006609Y00133640D01*
G01X-00006671Y00133561D01*
G01X-00006752Y00133505D01*
G01X-00006845Y00133486D01*
G01X-00006940Y00133511D01*
G01X-00007024Y00133586D01*
G01X-00008022Y00135129D01*
G37*
G36*
G01X-00001547Y00135990D02*
G01X-00001547Y00136239D01*
G01X-00001576Y00136541D01*
G01X-00001664Y00136819D01*
G01X-00001803Y00137072D01*
G01X-00001985Y00137299D01*
G01X-00002216Y00137491D01*
G01X-00002469Y00137628D01*
G01X-00002745Y00137710D01*
G01X-00003043Y00137738D01*
G01X-00003293Y00137738D01*
G01X-00003293Y00138237D01*
G01X-00003312Y00138346D01*
G01X-00003370Y00138424D01*
G01X-00003451Y00138471D01*
G01X-00003542Y00138486D01*
G01X-00003636Y00138470D01*
G01X-00003717Y00138422D01*
G01X-00003773Y00138333D01*
G01X-00003792Y00138237D01*
G01X-00003792Y00137738D01*
G01X-00004041Y00137738D01*
G01X-00004340Y00137710D01*
G01X-00004616Y00137627D01*
G01X-00004869Y00137488D01*
G01X-00005100Y00137294D01*
G01X-00005291Y00137061D01*
G01X-00005428Y00136808D01*
G01X-00005511Y00136534D01*
G01X-00005538Y00136239D01*
G01X-00005538Y00135990D01*
G01X-00005511Y00135688D01*
G01X-00005429Y00135410D01*
G01X-00005293Y00135156D01*
G01X-00005102Y00134927D01*
G01X-00004872Y00134736D01*
G01X-00004618Y00134600D01*
G01X-00004341Y00134519D01*
G01X-00004041Y00134491D01*
G01X-00003792Y00134491D01*
G01X-00003792Y00134990D01*
G01X-00003792Y00137239D01*
G01X-00004041Y00137239D01*
G01X-00004238Y00137221D01*
G01X-00004420Y00137166D01*
G01X-00004589Y00137075D01*
G01X-00004743Y00136948D01*
G01X-00004873Y00136795D01*
G01X-00004965Y00136625D01*
G01X-00005021Y00136440D01*
G01X-00005039Y00136240D01*
G01X-00005039Y00135990D01*
G01X-00005021Y00135792D01*
G01X-00004966Y00135608D01*
G01X-00004875Y00135439D01*
G01X-00004747Y00135285D01*
G01X-00004593Y00135156D01*
G01X-00004424Y00135064D01*
G01X-00004240Y00135009D01*
G01X-00004041Y00134990D01*
G01X-00003792Y00134990D01*
G01X-00003792Y00134491D01*
G01X-00003792Y00133746D01*
G01X-00003773Y00133637D01*
G01X-00003717Y00133559D01*
G01X-00003636Y00133513D01*
G01X-00003542Y00133497D01*
G01X-00003443Y00133512D01*
G01X-00003364Y00133557D01*
G01X-00003311Y00133640D01*
G01X-00003293Y00133746D01*
G01X-00003293Y00134491D01*
G01X-00003043Y00134491D01*
G01X-00002743Y00134519D01*
G01X-00002467Y00134603D01*
G01X-00002213Y00134742D01*
G01X-00002046Y00134884D01*
G01X-00002046Y00135990D01*
G01X-00002064Y00135790D01*
G01X-00002119Y00135606D01*
G01X-00002210Y00135437D01*
G01X-00002338Y00135283D01*
G01X-00002491Y00135155D01*
G01X-00002660Y00135063D01*
G01X-00002844Y00135009D01*
G01X-00003043Y00134990D01*
G01X-00003293Y00134990D01*
G01X-00003293Y00137239D01*
G01X-00003043Y00137239D01*
G01X-00002841Y00137220D01*
G01X-00002656Y00137164D01*
G01X-00002487Y00137070D01*
G01X-00002334Y00136939D01*
G01X-00002208Y00136783D01*
G01X-00002118Y00136614D01*
G01X-00002064Y00136433D01*
G01X-00002046Y00136240D01*
G01X-00002046Y00135990D01*
G01X-00002046Y00134884D01*
G01X-00001983Y00134937D01*
G01X-00001792Y00135170D01*
G01X-00001656Y00135423D01*
G01X-00001574Y00135697D01*
G01X-00001547Y00135990D01*
G37*

G36*
G01X00001496Y00133747D02*
G01X00001478Y00133640D01*
G01X00001424Y00133558D01*
G01X00001346Y00133512D01*
G01X00001246Y00133497D01*
G01X00001153Y00133513D01*
G01X00001072Y00133559D01*
G01X00001016Y00133637D01*
G01X00000997Y00133746D01*
G01X00000997Y00137638D01*
G01X00000423Y00137064D01*
G01X00000343Y00137008D01*
G01X00000252Y00136990D01*
G01X00000164Y00137008D01*
G01X00000077Y00137064D01*
G01X00000019Y00137148D01*
G01X-00000001Y00137243D01*
G01X00000018Y00137328D01*
G01X00000074Y00137414D01*
G01X00001072Y00138412D01*
G01X00001175Y00138493D01*
G01X00001231Y00138515D01*
G01X00001293Y00138523D01*
G01X00001359Y00138504D01*
G01X00001435Y00138448D01*
G01X00001481Y00138356D01*
G01X00001496Y00138238D01*
G01X00001496Y00133747D01*
G37*
G36*
G01X00004989Y00134494D02*
G01X00004989Y00135490D01*
G01X00004970Y00135691D01*
G01X00004915Y00135875D01*
G01X00004822Y00136044D01*
G01X00004693Y00136197D01*
G01X00004538Y00136324D01*
G01X00004369Y00136414D01*
G01X00004187Y00136469D01*
G01X00003991Y00136487D01*
G01X00003089Y00136487D01*
G01X00003146Y00136690D01*
G01X00003221Y00136890D01*
G01X00003308Y00137073D01*
G01X00003412Y00137246D01*
G01X00003532Y00137408D01*
G01X00003670Y00137560D01*
G01X00003829Y00137700D01*
G01X00003984Y00137816D01*
G01X00004156Y00137921D01*
G01X00004336Y00138002D01*
G01X00004411Y00138054D01*
G01X00004458Y00138105D01*
G01X00004482Y00138160D01*
G01X00004490Y00138226D01*
G01X00004474Y00138321D01*
G01X00004426Y00138408D01*
G01X00004343Y00138467D01*
G01X00004251Y00138486D01*
G01X00004144Y00138461D01*
G01X00003914Y00138348D01*
G01X00003698Y00138216D01*
G01X00003497Y00138063D01*
G01X00003310Y00137892D01*
G01X00003141Y00137705D01*
G01X00002994Y00137509D01*
G01X00002868Y00137303D01*
G01X00002765Y00137087D01*
G01X00002646Y00136764D01*
G01X00002562Y00136431D01*
G01X00002511Y00136090D01*
G01X00002494Y00135741D01*
G01X00002494Y00134494D01*
G01X00002513Y00134292D01*
G01X00002568Y00134107D01*
G01X00002661Y00133938D01*
G01X00002792Y00133785D01*
G01X00002947Y00133659D01*
G01X00003115Y00133569D01*
G01X00003297Y00133515D01*
G01X00003492Y00133497D01*
G01X00003991Y00133497D01*
G01X00004190Y00133515D01*
G01X00004374Y00133570D01*
G01X00004490Y00133633D01*
G01X00004490Y00134494D01*
G01X00004481Y00134389D01*
G01X00004453Y00134294D01*
G01X00004407Y00134209D01*
G01X00004344Y00134135D01*
G01X00004267Y00134074D01*
G01X00004182Y00134031D01*
G01X00004090Y00134005D01*
G01X00003991Y00133996D01*
G01X00003492Y00133996D01*
G01X00003398Y00134005D01*
G01X00003296Y00134032D01*
G01X00003135Y00134138D01*
G01X00003073Y00134215D01*
G01X00003028Y00134300D01*
G01X00003002Y00134393D01*
G01X00002993Y00134494D01*
G01X00002993Y00135739D01*
G01X00003004Y00135988D01*
G01X00003991Y00135988D01*
G01X00004095Y00135979D01*
G01X00004189Y00135952D01*
G01X00004274Y00135907D01*
G01X00004349Y00135844D01*
G01X00004410Y00135768D01*
G01X00004454Y00135683D01*
G01X00004481Y00135591D01*
G01X00004490Y00135490D01*
G01X00004490Y00134494D01*
G01X00004490Y00133633D01*
G01X00004543Y00133662D01*
G01X00004696Y00133791D01*
G01X00004824Y00133945D01*
G01X00004916Y00134113D01*
G01X00004970Y00134296D01*
G01X00004989Y00134494D01*
G37*
G36*
G01X00011974Y00134495D02*
G01X00011974Y00135493D01*
G01X00011965Y00135621D01*
G01X00011941Y00135746D01*
G01X00011899Y00135867D01*
G01X00011842Y00135985D01*
G01X00011689Y00136190D01*
G01X00011496Y00136344D01*
G01X00011600Y00136499D01*
G01X00011671Y00136658D01*
G01X00011711Y00136821D01*
G01X00011724Y00136990D01*
G01X00011724Y00137488D01*
G01X00011706Y00137688D01*
G01X00011651Y00137872D01*
G01X00011561Y00138040D01*
G01X00011434Y00138194D01*
G01X00011280Y00138322D01*
G01X00011112Y00138413D01*
G01X00010927Y00138468D01*
G01X00010726Y00138486D01*
G01X00009229Y00138486D01*
G01X00009120Y00138471D01*
G01X00009042Y00138424D01*
G01X00008996Y00138346D01*
G01X00008980Y00138237D01*
G01X00008980Y00133746D01*
G01X00008996Y00133637D01*
G01X00009042Y00133559D01*
G01X00009120Y00133513D01*
G01X00009229Y00133497D01*
G01X00010976Y00133497D01*
G01X00011175Y00133515D01*
G01X00011359Y00133571D01*
G01X00011475Y00133633D01*
G01X00011475Y00134496D01*
G01X00011465Y00134390D01*
G01X00011438Y00134295D01*
G01X00011392Y00134210D01*
G01X00011328Y00134135D01*
G01X00011252Y00134074D01*
G01X00011167Y00134031D01*
G01X00011075Y00134005D01*
G01X00010976Y00133996D01*
G01X00009479Y00133996D01*
G01X00009479Y00135995D01*
G01X00010976Y00135995D01*
G01X00011080Y00135986D01*
G01X00011174Y00135959D01*
G01X00011225Y00135932D01*
G01X00011225Y00136990D01*
G01X00011216Y00136884D01*
G01X00011189Y00136789D01*
G01X00011143Y00136704D01*
G01X00011079Y00136630D01*
G01X00011002Y00136569D01*
G01X00010918Y00136525D01*
G01X00010826Y00136499D01*
G01X00010726Y00136491D01*
G01X00009479Y00136487D01*
G01X00009479Y00137987D01*
G01X00010726Y00137987D01*
G01X00010830Y00137978D01*
G01X00010924Y00137951D01*
G01X00011009Y00137906D01*
G01X00011084Y00137843D01*
G01X00011146Y00137767D01*
G01X00011190Y00137682D01*
G01X00011216Y00137589D01*
G01X00011225Y00137488D01*
G01X00011225Y00136990D01*
G01X00011225Y00135932D01*
G01X00011259Y00135914D01*
G01X00011334Y00135851D01*
G01X00011395Y00135774D01*
G01X00011439Y00135690D01*
G01X00011466Y00135597D01*
G01X00011475Y00135495D01*
G01X00011475Y00134496D01*
G01X00011475Y00133633D01*
G01X00011528Y00133662D01*
G01X00011681Y00133791D01*
G01X00011809Y00133945D01*
G01X00011900Y00134114D01*
G01X00011955Y00134297D01*
G01X00011974Y00134495D01*
G37*

G36*
G01X-00050506Y-00069752D02*
G01X-00050506Y-00068005D01*
G01X-00050521Y-00067896D01*
G01X-00050568Y-00067818D01*
G01X-00050646Y-00067772D01*
G01X-00050755Y-00067756D01*
G01X-00055246Y-00067756D01*
G01X-00055355Y-00067775D01*
G01X-00055433Y-00067831D01*
G01X-00055479Y-00067912D01*
G01X-00055495Y-00068005D01*
G01X-00055480Y-00068105D01*
G01X-00055434Y-00068184D01*
G01X-00055352Y-00068237D01*
G01X-00055246Y-00068255D01*
G01X-00053499Y-00068255D01*
G01X-00053499Y-00069114D01*
G01X-00055381Y-00070290D01*
G01X-00055440Y-00070339D01*
G01X-00055474Y-00070386D01*
G01X-00055495Y-00070489D01*
G01X-00055477Y-00070585D01*
G01X-00055424Y-00070671D01*
G01X-00055341Y-00070730D01*
G01X-00055249Y-00070750D01*
G01X-00055167Y-00070728D01*
G01X-00055110Y-00070710D01*
G01X-00053499Y-00069702D01*
G01X-00053499Y-00069752D01*
G01X-00053481Y-00069951D01*
G01X-00053426Y-00070135D01*
G01X-00053334Y-00070304D01*
G01X-00053205Y-00070457D01*
G01X-00053051Y-00070585D01*
G01X-00052882Y-00070676D01*
G01X-00052699Y-00070731D01*
G01X-00052501Y-00070750D01*
G01X-00051504Y-00070750D01*
G01X-00051304Y-00070731D01*
G01X-00051120Y-00070677D01*
G01X-00051005Y-00070615D01*
G01X-00051005Y-00069752D01*
G01X-00051014Y-00069856D01*
G01X-00051041Y-00069950D01*
G01X-00051086Y-00070035D01*
G01X-00051149Y-00070110D01*
G01X-00051225Y-00070171D01*
G01X-00051310Y-00070215D01*
G01X-00051403Y-00070242D01*
G01X-00051504Y-00070251D01*
G01X-00052501Y-00070251D01*
G01X-00052607Y-00070241D01*
G01X-00052702Y-00070214D01*
G01X-00052787Y-00070168D01*
G01X-00052861Y-00070104D01*
G01X-00052922Y-00070028D01*
G01X-00052966Y-00069943D01*
G01X-00052992Y-00069851D01*
G01X-00053000Y-00069752D01*
G01X-00053000Y-00068255D01*
G01X-00051005Y-00068255D01*
G01X-00051005Y-00069752D01*
G01X-00051005Y-00070615D01*
G01X-00050952Y-00070586D01*
G01X-00050798Y-00070459D01*
G01X-00050670Y-00070306D01*
G01X-00050579Y-00070137D01*
G01X-00050524Y-00069952D01*
G01X-00050506Y-00069752D01*
G37*
G36*
G01X-00055245Y-00073245D02*
G01X-00055352Y-00073227D01*
G01X-00055434Y-00073173D01*
G01X-00055480Y-00073095D01*
G01X-00055495Y-00072995D01*
G01X-00055479Y-00072902D01*
G01X-00055433Y-00072821D01*
G01X-00055355Y-00072765D01*
G01X-00055246Y-00072746D01*
G01X-00051354Y-00072746D01*
G01X-00051928Y-00072172D01*
G01X-00051984Y-00072092D01*
G01X-00052002Y-00072001D01*
G01X-00051984Y-00071913D01*
G01X-00051928Y-00071826D01*
G01X-00051844Y-00071768D01*
G01X-00051749Y-00071748D01*
G01X-00051664Y-00071767D01*
G01X-00051578Y-00071823D01*
G01X-00050580Y-00072821D01*
G01X-00050499Y-00072924D01*
G01X-00050477Y-00072980D01*
G01X-00050469Y-00073042D01*
G01X-00050488Y-00073108D01*
G01X-00050544Y-00073184D01*
G01X-00050636Y-00073230D01*
G01X-00050754Y-00073245D01*
G01X-00055245Y-00073245D01*
G37*

G36*
G01X-00041010Y-00062244D02*
G01X-00041010Y-00062743D01*
G01X-00041029Y-00062839D01*
G01X-00041086Y-00062919D01*
G01X-00041168Y-00062974D01*
G01X-00041259Y-00062993D01*
G01X-00041344Y-00062977D01*
G01X-00041427Y-00062930D01*
G01X-00041488Y-00062852D01*
G01X-00041509Y-00062743D01*
G01X-00041509Y-00062244D01*
G01X-00042254Y-00062244D01*
G01X-00042360Y-00062226D01*
G01X-00042443Y-00062173D01*
G01X-00042488Y-00062094D01*
G01X-00042503Y-00061995D01*
G01X-00042487Y-00061901D01*
G01X-00042441Y-00061820D01*
G01X-00042363Y-00061764D01*
G01X-00042254Y-00061745D01*
G01X-00041509Y-00061745D01*
G01X-00041509Y-00060248D01*
G01X-00041496Y-00060135D01*
G01X-00041458Y-00060053D01*
G01X-00041394Y-00060004D01*
G01X-00041306Y-00059988D01*
G01X-00041245Y-00059995D01*
G01X-00041188Y-00060010D01*
G01X-00037696Y-00061007D01*
G01X-00037624Y-00061040D01*
G01X-00037560Y-00061093D01*
G01X-00037535Y-00061139D01*
G01X-00037514Y-00061236D01*
G01X-00037532Y-00061336D01*
G01X-00037585Y-00061417D01*
G01X-00037663Y-00061476D01*
G01X-00037760Y-00061496D01*
G01X-00037835Y-00061485D01*
G01X-00041010Y-00060576D01*
G01X-00041010Y-00061745D01*
G01X-00040261Y-00061745D01*
G01X-00040165Y-00061764D01*
G01X-00040076Y-00061820D01*
G01X-00040028Y-00061901D01*
G01X-00040012Y-00061995D01*
G01X-00040028Y-00062086D01*
G01X-00040074Y-00062167D01*
G01X-00040152Y-00062225D01*
G01X-00040261Y-00062244D01*
G01X-00041010Y-00062244D01*
G37*
G36*
G01X-00038013Y-00064490D02*
G01X-00038262Y-00064490D01*
G01X-00038368Y-00064472D01*
G01X-00038451Y-00064419D01*
G01X-00038496Y-00064340D01*
G01X-00038512Y-00064240D01*
G01X-00038496Y-00064147D01*
G01X-00038449Y-00064066D01*
G01X-00038371Y-00064010D01*
G01X-00038262Y-00063991D01*
G01X-00037763Y-00063991D01*
G01X-00037654Y-00064007D01*
G01X-00037576Y-00064053D01*
G01X-00037529Y-00064131D01*
G01X-00037514Y-00064240D01*
G01X-00037514Y-00066236D01*
G01X-00037527Y-00066347D01*
G01X-00037565Y-00066426D01*
G01X-00037630Y-00066473D01*
G01X-00037720Y-00066489D01*
G01X-00037827Y-00066475D01*
G01X-00042318Y-00065228D01*
G01X-00042388Y-00065202D01*
G01X-00042448Y-00065146D01*
G01X-00042489Y-00065072D01*
G01X-00042503Y-00064992D01*
G01X-00042487Y-00064892D01*
G01X-00042441Y-00064811D01*
G01X-00042365Y-00064757D01*
G01X-00042264Y-00064739D01*
G01X-00042219Y-00064742D01*
G01X-00042189Y-00064750D01*
G01X-00038013Y-00065908D01*
G01X-00038013Y-00064490D01*
G37*
G36*
G01X-00037514Y-00068880D02*
G01X-00037514Y-00068581D01*
G01X-00037534Y-00068361D01*
G01X-00037596Y-00068158D01*
G01X-00037699Y-00067973D01*
G01X-00037843Y-00067804D01*
G01X-00038015Y-00067663D01*
G01X-00038200Y-00067563D01*
G01X-00038399Y-00067503D01*
G01X-00038611Y-00067483D01*
G01X-00041405Y-00067483D01*
G01X-00041628Y-00067503D01*
G01X-00041832Y-00067564D01*
G01X-00042018Y-00067666D01*
G01X-00042186Y-00067809D01*
G01X-00042325Y-00067980D01*
G01X-00042424Y-00068165D01*
G01X-00042483Y-00068365D01*
G01X-00042503Y-00068581D01*
G01X-00042503Y-00068880D01*
G01X-00042483Y-00069101D01*
G01X-00042421Y-00069304D01*
G01X-00042320Y-00069490D01*
G01X-00042177Y-00069659D01*
G01X-00042006Y-00069798D01*
G01X-00041821Y-00069898D01*
G01X-00041621Y-00069958D01*
G01X-00041405Y-00069978D01*
G01X-00038611Y-00069978D01*
G01X-00038390Y-00069957D01*
G01X-00038187Y-00069896D01*
G01X-00038013Y-00069801D01*
G01X-00038013Y-00068880D01*
G01X-00038024Y-00069001D01*
G01X-00038057Y-00069113D01*
G01X-00038112Y-00069214D01*
G01X-00038189Y-00069306D01*
G01X-00038282Y-00069381D01*
G01X-00038383Y-00069435D01*
G01X-00038493Y-00069468D01*
G01X-00038611Y-00069479D01*
G01X-00041405Y-00069479D01*
G01X-00041528Y-00069468D01*
G01X-00041641Y-00069434D01*
G01X-00041742Y-00069378D01*
G01X-00041833Y-00069300D01*
G01X-00041908Y-00069207D01*
G01X-00041961Y-00069106D01*
G01X-00041993Y-00068997D01*
G01X-00042004Y-00068880D01*
G01X-00042004Y-00068581D01*
G01X-00041993Y-00068461D01*
G01X-00041960Y-00068350D01*
G01X-00041905Y-00068248D01*
G01X-00041828Y-00068156D01*
G01X-00041735Y-00068080D01*
G01X-00041634Y-00068026D01*
G01X-00041524Y-00067993D01*
G01X-00041405Y-00067982D01*
G01X-00038611Y-00067982D01*
G01X-00038491Y-00067993D01*
G01X-00038381Y-00068026D01*
G01X-00038279Y-00068081D01*
G01X-00038187Y-00068158D01*
G01X-00038111Y-00068251D01*
G01X-00038056Y-00068352D01*
G01X-00038024Y-00068462D01*
G01X-00038013Y-00068581D01*
G01X-00038013Y-00068880D01*
G01X-00038013Y-00069801D01*
G01X-00038001Y-00069794D01*
G01X-00037833Y-00069651D01*
G01X-00037693Y-00069481D01*
G01X-00037593Y-00069296D01*
G01X-00037534Y-00069095D01*
G01X-00037514Y-00068880D01*
G37*
G36*
G01X-00037514Y-00075966D02*
G01X-00037514Y-00074968D01*
G01X-00037532Y-00074767D01*
G01X-00037586Y-00074582D01*
G01X-00037677Y-00074414D01*
G01X-00037804Y-00074260D01*
G01X-00037957Y-00074133D01*
G01X-00038126Y-00074043D01*
G01X-00038311Y-00073988D01*
G01X-00038512Y-00073970D01*
G01X-00041505Y-00073970D01*
G01X-00041706Y-00073988D01*
G01X-00041890Y-00074044D01*
G01X-00042059Y-00074136D01*
G01X-00042213Y-00074266D01*
G01X-00042340Y-00074421D01*
G01X-00042430Y-00074589D01*
G01X-00042485Y-00074772D01*
G01X-00042503Y-00074968D01*
G01X-00042503Y-00075966D01*
G01X-00042485Y-00076165D01*
G01X-00042429Y-00076349D01*
G01X-00042338Y-00076518D01*
G01X-00042209Y-00076671D01*
G01X-00042055Y-00076799D01*
G01X-00041886Y-00076890D01*
G01X-00041703Y-00076945D01*
G01X-00041505Y-00076964D01*
G01X-00038512Y-00076964D01*
G01X-00038312Y-00076945D01*
G01X-00038128Y-00076891D01*
G01X-00038013Y-00076829D01*
G01X-00038013Y-00075966D01*
G01X-00038022Y-00076070D01*
G01X-00038049Y-00076164D01*
G01X-00038094Y-00076249D01*
G01X-00038157Y-00076324D01*
G01X-00038233Y-00076385D01*
G01X-00038318Y-00076429D01*
G01X-00038411Y-00076456D01*
G01X-00038512Y-00076465D01*
G01X-00041505Y-00076465D01*
G01X-00041610Y-00076455D01*
G01X-00041706Y-00076428D01*
G01X-00041790Y-00076382D01*
G01X-00041865Y-00076318D01*
G01X-00041926Y-00076242D01*
G01X-00041969Y-00076157D01*
G01X-00041995Y-00076065D01*
G01X-00042004Y-00075966D01*
G01X-00042004Y-00074968D01*
G01X-00041995Y-00074874D01*
G01X-00041968Y-00074772D01*
G01X-00041862Y-00074611D01*
G01X-00041784Y-00074549D01*
G01X-00041699Y-00074504D01*
G01X-00041606Y-00074478D01*
G01X-00041505Y-00074469D01*
G01X-00038512Y-00074469D01*
G01X-00038411Y-00074478D01*
G01X-00038317Y-00074504D01*
G01X-00038231Y-00074549D01*
G01X-00038155Y-00074611D01*
G01X-00038093Y-00074688D01*
G01X-00038048Y-00074774D01*
G01X-00038022Y-00074867D01*
G01X-00038013Y-00074968D01*
G01X-00038013Y-00075966D01*
G01X-00038013Y-00076829D01*
G01X-00037960Y-00076800D01*
G01X-00037806Y-00076673D01*
G01X-00037678Y-00076520D01*
G01X-00037587Y-00076351D01*
G01X-00037532Y-00076166D01*
G01X-00037514Y-00075966D01*
G37*
G36*
G01X-00042254Y-00081355D02*
G01X-00039260Y-00081355D01*
G01X-00039137Y-00081338D01*
G01X-00039046Y-00081290D01*
G01X-00038990Y-00081219D01*
G01X-00038971Y-00081134D01*
G01X-00038980Y-00081078D01*
G01X-00039007Y-00081020D01*
G01X-00039051Y-00080962D01*
G01X-00039114Y-00080902D01*
G01X-00040579Y-00079858D01*
G01X-00039114Y-00078814D01*
G01X-00039051Y-00078762D01*
G01X-00039007Y-00078706D01*
G01X-00038980Y-00078646D01*
G01X-00038971Y-00078582D01*
G01X-00038991Y-00078499D01*
G01X-00039050Y-00078422D01*
G01X-00039141Y-00078376D01*
G01X-00039260Y-00078361D01*
G01X-00042254Y-00078361D01*
G01X-00042360Y-00078379D01*
G01X-00042442Y-00078432D01*
G01X-00042488Y-00078511D01*
G01X-00042503Y-00078610D01*
G01X-00042487Y-00078697D01*
G01X-00042437Y-00078780D01*
G01X-00042358Y-00078840D01*
G01X-00042254Y-00078860D01*
G01X-00040037Y-00078860D01*
G01X-00041152Y-00079655D01*
G01X-00041210Y-00079705D01*
G01X-00041251Y-00079755D01*
G01X-00041276Y-00079806D01*
G01X-00041284Y-00079858D01*
G01X-00041276Y-00079907D01*
G01X-00041251Y-00079957D01*
G01X-00041210Y-00080008D01*
G01X-00041152Y-00080061D01*
G01X-00040037Y-00080856D01*
G01X-00042254Y-00080856D01*
G01X-00042360Y-00080873D01*
G01X-00042442Y-00080927D01*
G01X-00042488Y-00081005D01*
G01X-00042503Y-00081105D01*
G01X-00042487Y-00081192D01*
G01X-00042437Y-00081274D01*
G01X-00042358Y-00081334D01*
G01X-00042254Y-00081355D01*
G37*

G36*
G01X-00016249Y-00073750D02*
G01X-00016271Y-00073668D01*
G01X-00016289Y-00073611D01*
G01X-00017297Y-00072000D01*
G01X-00017247Y-00072000D01*
G01X-00017048Y-00071982D01*
G01X-00016864Y-00071927D01*
G01X-00016748Y-00071864D01*
G01X-00016748Y-00071002D01*
G01X-00016758Y-00071108D01*
G01X-00016785Y-00071203D01*
G01X-00016831Y-00071288D01*
G01X-00016895Y-00071362D01*
G01X-00016971Y-00071423D01*
G01X-00017056Y-00071467D01*
G01X-00017148Y-00071493D01*
G01X-00017247Y-00071501D01*
G01X-00018744Y-00071501D01*
G01X-00018744Y-00069506D01*
G01X-00017247Y-00069506D01*
G01X-00017143Y-00069515D01*
G01X-00017049Y-00069542D01*
G01X-00016964Y-00069587D01*
G01X-00016889Y-00069650D01*
G01X-00016828Y-00069726D01*
G01X-00016784Y-00069811D01*
G01X-00016757Y-00069904D01*
G01X-00016748Y-00070005D01*
G01X-00016748Y-00071002D01*
G01X-00016748Y-00071864D01*
G01X-00016695Y-00071835D01*
G01X-00016542Y-00071706D01*
G01X-00016414Y-00071552D01*
G01X-00016323Y-00071383D01*
G01X-00016268Y-00071200D01*
G01X-00016249Y-00071002D01*
G01X-00016249Y-00070005D01*
G01X-00016268Y-00069805D01*
G01X-00016322Y-00069621D01*
G01X-00016413Y-00069453D01*
G01X-00016540Y-00069299D01*
G01X-00016693Y-00069171D01*
G01X-00016862Y-00069080D01*
G01X-00017047Y-00069025D01*
G01X-00017247Y-00069007D01*
G01X-00018994Y-00069007D01*
G01X-00019103Y-00069022D01*
G01X-00019181Y-00069069D01*
G01X-00019227Y-00069147D01*
G01X-00019243Y-00069256D01*
G01X-00019243Y-00073747D01*
G01X-00019224Y-00073856D01*
G01X-00019168Y-00073934D01*
G01X-00019087Y-00073980D01*
G01X-00018994Y-00073996D01*
G01X-00018894Y-00073981D01*
G01X-00018815Y-00073935D01*
G01X-00018762Y-00073853D01*
G01X-00018744Y-00073747D01*
G01X-00018744Y-00072000D01*
G01X-00017885Y-00072000D01*
G01X-00016709Y-00073882D01*
G01X-00016660Y-00073941D01*
G01X-00016613Y-00073975D01*
G01X-00016510Y-00073996D01*
G01X-00016414Y-00073978D01*
G01X-00016328Y-00073925D01*
G01X-00016269Y-00073842D01*
G01X-00016249Y-00073750D01*
G37*
G36*
G01X-00012942Y-00070928D02*
G01X-00014553Y-00073497D01*
G01X-00013006Y-00073497D01*
G01X-00012910Y-00073516D01*
G01X-00012829Y-00073574D01*
G01X-00012775Y-00073655D01*
G01X-00012756Y-00073747D01*
G01X-00012772Y-00073831D01*
G01X-00012819Y-00073914D01*
G01X-00012897Y-00073976D01*
G01X-00013006Y-00073996D01*
G01X-00015002Y-00073996D01*
G01X-00015120Y-00073984D01*
G01X-00015205Y-00073946D01*
G01X-00015256Y-00073884D01*
G01X-00015272Y-00073796D01*
G01X-00015257Y-00073711D01*
G01X-00015212Y-00073611D01*
G01X-00013373Y-00070675D01*
G01X-00013303Y-00070483D01*
G01X-00013280Y-00070300D01*
G01X-00013296Y-00070145D01*
G01X-00013343Y-00070001D01*
G01X-00013420Y-00069867D01*
G01X-00013529Y-00069744D01*
G01X-00013656Y-00069646D01*
G01X-00013803Y-00069570D01*
G01X-00013966Y-00069522D01*
G01X-00014141Y-00069506D01*
G01X-00014326Y-00069531D01*
G01X-00014504Y-00069605D01*
G01X-00014663Y-00069732D01*
G01X-00014792Y-00069891D01*
G01X-00014830Y-00069936D01*
G01X-00014888Y-00069980D01*
G01X-00014998Y-00070005D01*
G01X-00015091Y-00069987D01*
G01X-00015175Y-00069935D01*
G01X-00015235Y-00069857D01*
G01X-00015255Y-00069762D01*
G01X-00015244Y-00069702D01*
G01X-00015212Y-00069620D01*
G01X-00015119Y-00069492D01*
G01X-00015011Y-00069376D01*
G01X-00014887Y-00069273D01*
G01X-00014749Y-00069181D01*
G01X-00014605Y-00069108D01*
G01X-00014460Y-00069053D01*
G01X-00014316Y-00069018D01*
G01X-00014175Y-00069007D01*
G01X-00013894Y-00069031D01*
G01X-00013635Y-00069103D01*
G01X-00013399Y-00069224D01*
G01X-00013186Y-00069393D01*
G01X-00013009Y-00069596D01*
G01X-00012882Y-00069817D01*
G01X-00012807Y-00070057D01*
G01X-00012781Y-00070315D01*
G01X-00012791Y-00070468D01*
G01X-00012821Y-00070621D01*
G01X-00012872Y-00070774D01*
G01X-00012942Y-00070928D01*
G37*

G36*
G01X-00026004Y-00060753D02*
G01X-00026022Y-00060860D01*
G01X-00026076Y-00060942D01*
G01X-00026154Y-00060988D01*
G01X-00026254Y-00061003D01*
G01X-00026347Y-00060987D01*
G01X-00026428Y-00060941D01*
G01X-00026484Y-00060863D01*
G01X-00026503Y-00060754D01*
G01X-00026503Y-00056862D01*
G01X-00027077Y-00057436D01*
G01X-00027157Y-00057492D01*
G01X-00027248Y-00057510D01*
G01X-00027336Y-00057492D01*
G01X-00027423Y-00057436D01*
G01X-00027481Y-00057352D01*
G01X-00027501Y-00057257D01*
G01X-00027482Y-00057172D01*
G01X-00027426Y-00057086D01*
G01X-00026428Y-00056088D01*
G01X-00026325Y-00056007D01*
G01X-00026269Y-00055985D01*
G01X-00026207Y-00055977D01*
G01X-00026141Y-00055996D01*
G01X-00026065Y-00056052D01*
G01X-00026019Y-00056144D01*
G01X-00026004Y-00056262D01*
G01X-00026004Y-00060753D01*
G37*
G36*
G01X-00022511Y-00059905D02*
G01X-00022531Y-00060121D01*
G01X-00022591Y-00060321D01*
G01X-00022691Y-00060506D01*
G01X-00022830Y-00060677D01*
G01X-00022999Y-00060820D01*
G01X-00023010Y-00060826D01*
G01X-00023010Y-00059905D01*
G01X-00023010Y-00057111D01*
G01X-00023021Y-00056993D01*
G01X-00023054Y-00056883D01*
G01X-00023108Y-00056782D01*
G01X-00023183Y-00056689D01*
G01X-00023275Y-00056612D01*
G01X-00023376Y-00056557D01*
G01X-00023488Y-00056524D01*
G01X-00023609Y-00056513D01*
G01X-00023908Y-00056513D01*
G01X-00024027Y-00056524D01*
G01X-00024137Y-00056556D01*
G01X-00024238Y-00056611D01*
G01X-00024331Y-00056687D01*
G01X-00024408Y-00056779D01*
G01X-00024463Y-00056881D01*
G01X-00024496Y-00056991D01*
G01X-00024507Y-00057111D01*
G01X-00024507Y-00059905D01*
G01X-00024496Y-00060024D01*
G01X-00024463Y-00060134D01*
G01X-00024409Y-00060235D01*
G01X-00024333Y-00060328D01*
G01X-00024241Y-00060405D01*
G01X-00024139Y-00060460D01*
G01X-00024028Y-00060493D01*
G01X-00023908Y-00060504D01*
G01X-00023609Y-00060504D01*
G01X-00023492Y-00060493D01*
G01X-00023383Y-00060461D01*
G01X-00023282Y-00060408D01*
G01X-00023189Y-00060333D01*
G01X-00023111Y-00060242D01*
G01X-00023055Y-00060141D01*
G01X-00023021Y-00060028D01*
G01X-00023010Y-00059905D01*
G01X-00023010Y-00060826D01*
G01X-00023185Y-00060921D01*
G01X-00023388Y-00060983D01*
G01X-00023609Y-00061003D01*
G01X-00023908Y-00061003D01*
G01X-00024124Y-00060983D01*
G01X-00024324Y-00060924D01*
G01X-00024509Y-00060825D01*
G01X-00024680Y-00060686D01*
G01X-00024823Y-00060518D01*
G01X-00024925Y-00060332D01*
G01X-00024986Y-00060128D01*
G01X-00025006Y-00059905D01*
G01X-00025006Y-00057111D01*
G01X-00024986Y-00056899D01*
G01X-00024926Y-00056700D01*
G01X-00024826Y-00056515D01*
G01X-00024685Y-00056343D01*
G01X-00024516Y-00056199D01*
G01X-00024331Y-00056096D01*
G01X-00024128Y-00056034D01*
G01X-00023908Y-00056014D01*
G01X-00023609Y-00056014D01*
G01X-00023394Y-00056034D01*
G01X-00023193Y-00056093D01*
G01X-00023008Y-00056193D01*
G01X-00022838Y-00056333D01*
G01X-00022695Y-00056501D01*
G01X-00022593Y-00056687D01*
G01X-00022532Y-00056890D01*
G01X-00022511Y-00057111D01*
G01X-00022511Y-00059905D01*
G37*
G36*
G01X-00017512Y-00059371D02*
G01X-00018071Y-00059955D01*
G01X-00018071Y-00060754D01*
G01X-00018089Y-00060860D01*
G01X-00018142Y-00060942D01*
G01X-00018221Y-00060988D01*
G01X-00018320Y-00061003D01*
G01X-00018414Y-00060987D01*
G01X-00018495Y-00060941D01*
G01X-00018551Y-00060863D01*
G01X-00018570Y-00060754D01*
G01X-00018570Y-00057760D01*
G01X-00018551Y-00057664D01*
G01X-00018495Y-00057575D01*
G01X-00018414Y-00057527D01*
G01X-00018320Y-00057510D01*
G01X-00018229Y-00057526D01*
G01X-00018148Y-00057573D01*
G01X-00018090Y-00057651D01*
G01X-00018071Y-00057760D01*
G01X-00018071Y-00059232D01*
G01X-00016489Y-00057571D01*
G01X-00016417Y-00057515D01*
G01X-00016328Y-00057496D01*
G01X-00016245Y-00057515D01*
G01X-00016154Y-00057571D01*
G01X-00016098Y-00057656D01*
G01X-00016079Y-00057760D01*
G01X-00016099Y-00057859D01*
G01X-00016161Y-00057949D01*
G01X-00017162Y-00059004D01*
G01X-00016136Y-00060593D01*
G01X-00016093Y-00060688D01*
G01X-00016079Y-00060764D01*
G01X-00016099Y-00060860D01*
G01X-00016161Y-00060939D01*
G01X-00016242Y-00060995D01*
G01X-00016335Y-00061014D01*
G01X-00016430Y-00060989D01*
G01X-00016514Y-00060914D01*
G01X-00017512Y-00059371D01*
G37*
G36*
G01X-00012033Y-00060005D02*
G01X-00012052Y-00060203D01*
G01X-00012107Y-00060386D01*
G01X-00012198Y-00060555D01*
G01X-00012326Y-00060709D01*
G01X-00012479Y-00060838D01*
G01X-00012532Y-00060867D01*
G01X-00012532Y-00060005D01*
G01X-00012532Y-00057012D01*
G01X-00012541Y-00056911D01*
G01X-00012568Y-00056818D01*
G01X-00012612Y-00056733D01*
G01X-00012673Y-00056657D01*
G01X-00012748Y-00056594D01*
G01X-00012833Y-00056549D01*
G01X-00012927Y-00056522D01*
G01X-00013031Y-00056513D01*
G01X-00014029Y-00056513D01*
G01X-00014130Y-00056522D01*
G01X-00014223Y-00056548D01*
G01X-00014309Y-00056593D01*
G01X-00014386Y-00056655D01*
G01X-00014448Y-00056731D01*
G01X-00014493Y-00056817D01*
G01X-00014519Y-00056911D01*
G01X-00014528Y-00057012D01*
G01X-00014528Y-00060005D01*
G01X-00014519Y-00060106D01*
G01X-00014493Y-00060199D01*
G01X-00014448Y-00060284D01*
G01X-00014386Y-00060362D01*
G01X-00014225Y-00060468D01*
G01X-00014123Y-00060495D01*
G01X-00014029Y-00060504D01*
G01X-00013031Y-00060504D01*
G01X-00012932Y-00060495D01*
G01X-00012840Y-00060469D01*
G01X-00012755Y-00060426D01*
G01X-00012679Y-00060365D01*
G01X-00012615Y-00060290D01*
G01X-00012569Y-00060206D01*
G01X-00012542Y-00060110D01*
G01X-00012532Y-00060005D01*
G01X-00012532Y-00060867D01*
G01X-00012648Y-00060929D01*
G01X-00012832Y-00060985D01*
G01X-00013031Y-00061003D01*
G01X-00014029Y-00061003D01*
G01X-00014225Y-00060985D01*
G01X-00014408Y-00060930D01*
G01X-00014576Y-00060840D01*
G01X-00014731Y-00060713D01*
G01X-00014861Y-00060559D01*
G01X-00014953Y-00060390D01*
G01X-00015009Y-00060206D01*
G01X-00015027Y-00060005D01*
G01X-00015027Y-00057012D01*
G01X-00015009Y-00056811D01*
G01X-00014954Y-00056626D01*
G01X-00014864Y-00056457D01*
G01X-00014737Y-00056304D01*
G01X-00014583Y-00056177D01*
G01X-00014415Y-00056086D01*
G01X-00014230Y-00056032D01*
G01X-00014029Y-00056014D01*
G01X-00013031Y-00056014D01*
G01X-00012831Y-00056032D01*
G01X-00012646Y-00056087D01*
G01X-00012477Y-00056178D01*
G01X-00012324Y-00056306D01*
G01X-00012197Y-00056460D01*
G01X-00012106Y-00056628D01*
G01X-00012052Y-00056812D01*
G01X-00012033Y-00057012D01*
G01X-00012033Y-00060005D01*
G37*
G36*
G01X-00007642Y-00060754D02*
G01X-00007642Y-00057760D01*
G01X-00007659Y-00057637D01*
G01X-00007707Y-00057546D01*
G01X-00007778Y-00057490D01*
G01X-00007863Y-00057471D01*
G01X-00007919Y-00057480D01*
G01X-00007977Y-00057507D01*
G01X-00008035Y-00057551D01*
G01X-00008095Y-00057614D01*
G01X-00009139Y-00059079D01*
G01X-00010183Y-00057614D01*
G01X-00010235Y-00057551D01*
G01X-00010291Y-00057507D01*
G01X-00010351Y-00057480D01*
G01X-00010415Y-00057471D01*
G01X-00010498Y-00057491D01*
G01X-00010575Y-00057550D01*
G01X-00010621Y-00057641D01*
G01X-00010636Y-00057760D01*
G01X-00010636Y-00060754D01*
G01X-00010618Y-00060860D01*
G01X-00010565Y-00060942D01*
G01X-00010486Y-00060988D01*
G01X-00010387Y-00061003D01*
G01X-00010300Y-00060987D01*
G01X-00010217Y-00060937D01*
G01X-00010157Y-00060858D01*
G01X-00010137Y-00060754D01*
G01X-00010137Y-00058537D01*
G01X-00009342Y-00059652D01*
G01X-00009292Y-00059710D01*
G01X-00009242Y-00059751D01*
G01X-00009191Y-00059776D01*
G01X-00009139Y-00059784D01*
G01X-00009090Y-00059776D01*
G01X-00009040Y-00059751D01*
G01X-00008989Y-00059710D01*
G01X-00008936Y-00059652D01*
G01X-00008141Y-00058537D01*
G01X-00008141Y-00060754D01*
G01X-00008124Y-00060860D01*
G01X-00008070Y-00060942D01*
G01X-00007992Y-00060988D01*
G01X-00007892Y-00061003D01*
G01X-00007805Y-00060987D01*
G01X-00007723Y-00060937D01*
G01X-00007663Y-00060858D01*
G01X-00007642Y-00060754D01*
G37*

G36*
G01X00030495Y-00075494D02*
G01X00030480Y-00075394D01*
G01X00030434Y-00075315D01*
G01X00030352Y-00075262D01*
G01X00030246Y-00075244D01*
G01X00028499Y-00075244D01*
G01X00028499Y-00074385D01*
G01X00030381Y-00073209D01*
G01X00030440Y-00073160D01*
G01X00030474Y-00073113D01*
G01X00030495Y-00073010D01*
G01X00030477Y-00072914D01*
G01X00030424Y-00072828D01*
G01X00030341Y-00072769D01*
G01X00030249Y-00072749D01*
G01X00030167Y-00072771D01*
G01X00030110Y-00072789D01*
G01X00028499Y-00073797D01*
G01X00028499Y-00073747D01*
G01X00028481Y-00073548D01*
G01X00028426Y-00073364D01*
G01X00028334Y-00073195D01*
G01X00028205Y-00073042D01*
G01X00028051Y-00072914D01*
G01X00027882Y-00072823D01*
G01X00027699Y-00072768D01*
G01X00027501Y-00072749D01*
G01X00026504Y-00072749D01*
G01X00026304Y-00072768D01*
G01X00026120Y-00072822D01*
G01X00025952Y-00072913D01*
G01X00025798Y-00073040D01*
G01X00025670Y-00073193D01*
G01X00025579Y-00073362D01*
G01X00025524Y-00073547D01*
G01X00025506Y-00073747D01*
G01X00025506Y-00075494D01*
G01X00025521Y-00075603D01*
G01X00025568Y-00075681D01*
G01X00025646Y-00075727D01*
G01X00025755Y-00075743D01*
G01X00028000Y-00075743D01*
G01X00028000Y-00075244D01*
G01X00028000Y-00073747D01*
G01X00027992Y-00073648D01*
G01X00027966Y-00073556D01*
G01X00027922Y-00073471D01*
G01X00027861Y-00073395D01*
G01X00027787Y-00073331D01*
G01X00027702Y-00073285D01*
G01X00027607Y-00073258D01*
G01X00027501Y-00073248D01*
G01X00026504Y-00073248D01*
G01X00026403Y-00073257D01*
G01X00026310Y-00073284D01*
G01X00026225Y-00073328D01*
G01X00026149Y-00073389D01*
G01X00026086Y-00073464D01*
G01X00026041Y-00073549D01*
G01X00026014Y-00073643D01*
G01X00026005Y-00073747D01*
G01X00026005Y-00075244D01*
G01X00028000Y-00075244D01*
G01X00028000Y-00075743D01*
G01X00030246Y-00075743D01*
G01X00030355Y-00075724D01*
G01X00030433Y-00075668D01*
G01X00030479Y-00075587D01*
G01X00030495Y-00075494D01*
G37*
G36*
G01X00026012Y-00070529D02*
G01X00026012Y-00071527D01*
G01X00025994Y-00071630D01*
G01X00025940Y-00071712D01*
G01X00025859Y-00071760D01*
G01X00025762Y-00071776D01*
G01X00025675Y-00071760D01*
G01X00025593Y-00071710D01*
G01X00025533Y-00071631D01*
G01X00025513Y-00071527D01*
G01X00025513Y-00070529D01*
G01X00025537Y-00070251D01*
G01X00025608Y-00070003D01*
G01X00025727Y-00069784D01*
G01X00025894Y-00069595D01*
G01X00026081Y-00069458D01*
G01X00026287Y-00069360D01*
G01X00026511Y-00069301D01*
G01X00026753Y-00069281D01*
G01X00027043Y-00069311D01*
G01X00027309Y-00069401D01*
G01X00027432Y-00069468D01*
G01X00027550Y-00069552D01*
G01X00027660Y-00069651D01*
G01X00027765Y-00069766D01*
G01X00027953Y-00069576D01*
G01X00028190Y-00069420D01*
G01X00028324Y-00069360D01*
G01X00028461Y-00069316D01*
G01X00028604Y-00069290D01*
G01X00028751Y-00069281D01*
G01X00029249Y-00069281D01*
G01X00029495Y-00069304D01*
G01X00029723Y-00069373D01*
G01X00029934Y-00069488D01*
G01X00030127Y-00069648D01*
G01X00030288Y-00069841D01*
G01X00030403Y-00070052D01*
G01X00030472Y-00070281D01*
G01X00030495Y-00070529D01*
G01X00030495Y-00071527D01*
G01X00030478Y-00071630D01*
G01X00030427Y-00071712D01*
G01X00030341Y-00071760D01*
G01X00030246Y-00071776D01*
G01X00030161Y-00071760D01*
G01X00030078Y-00071714D01*
G01X00030017Y-00071636D01*
G01X00029996Y-00071527D01*
G01X00029996Y-00070529D01*
G01X00029982Y-00070379D01*
G01X00029941Y-00070241D01*
G01X00029873Y-00070115D01*
G01X00029777Y-00069999D01*
G01X00029662Y-00069904D01*
G01X00029536Y-00069835D01*
G01X00029398Y-00069794D01*
G01X00029249Y-00069780D01*
G01X00028751Y-00069780D01*
G01X00028603Y-00069794D01*
G01X00028466Y-00069834D01*
G01X00028340Y-00069902D01*
G01X00028224Y-00069996D01*
G01X00028128Y-00070110D01*
G01X00028059Y-00070237D01*
G01X00028018Y-00070376D01*
G01X00028004Y-00070529D01*
G01X00028004Y-00071028D01*
G01X00027987Y-00071131D01*
G01X00027936Y-00071213D01*
G01X00027850Y-00071261D01*
G01X00027754Y-00071277D01*
G01X00027670Y-00071261D01*
G01X00027587Y-00071215D01*
G01X00027525Y-00071137D01*
G01X00027505Y-00071028D01*
G01X00027505Y-00070529D01*
G01X00027490Y-00070370D01*
G01X00027445Y-00070227D01*
G01X00027371Y-00070098D01*
G01X00027266Y-00069983D01*
G01X00027153Y-00069904D01*
G01X00027028Y-00069847D01*
G01X00026891Y-00069813D01*
G01X00026742Y-00069802D01*
G01X00026597Y-00069813D01*
G01X00026465Y-00069845D01*
G01X00026346Y-00069900D01*
G01X00026240Y-00069976D01*
G01X00026140Y-00070086D01*
G01X00026069Y-00070214D01*
G01X00026026Y-00070362D01*
G01X00026012Y-00070529D01*
G37*

G36*
G01X00017253Y-00082504D02*
G01X00017360Y-00082522D01*
G01X00017442Y-00082576D01*
G01X00017488Y-00082654D01*
G01X00017503Y-00082754D01*
G01X00017487Y-00082847D01*
G01X00017441Y-00082928D01*
G01X00017363Y-00082984D01*
G01X00017254Y-00083003D01*
G01X00013362Y-00083003D01*
G01X00013936Y-00083577D01*
G01X00013992Y-00083657D01*
G01X00014010Y-00083748D01*
G01X00013992Y-00083836D01*
G01X00013936Y-00083923D01*
G01X00013852Y-00083981D01*
G01X00013757Y-00084001D01*
G01X00013672Y-00083982D01*
G01X00013586Y-00083926D01*
G01X00012588Y-00082928D01*
G01X00012507Y-00082825D01*
G01X00012485Y-00082769D01*
G01X00012477Y-00082707D01*
G01X00012496Y-00082641D01*
G01X00012552Y-00082565D01*
G01X00012644Y-00082519D01*
G01X00012762Y-00082504D01*
G01X00017253Y-00082504D01*
G37*
G36*
G01X00017503Y-00080408D02*
G01X00017503Y-00080109D01*
G01X00017483Y-00079888D01*
G01X00017421Y-00079685D01*
G01X00017320Y-00079499D01*
G01X00017177Y-00079330D01*
G01X00017006Y-00079191D01*
G01X00016821Y-00079091D01*
G01X00016621Y-00079031D01*
G01X00016405Y-00079011D01*
G01X00013611Y-00079011D01*
G01X00013390Y-00079032D01*
G01X00013187Y-00079093D01*
G01X00013001Y-00079195D01*
G01X00012833Y-00079338D01*
G01X00012693Y-00079508D01*
G01X00012593Y-00079693D01*
G01X00012534Y-00079894D01*
G01X00012514Y-00080109D01*
G01X00012514Y-00080408D01*
G01X00012534Y-00080628D01*
G01X00012596Y-00080831D01*
G01X00012699Y-00081016D01*
G01X00012843Y-00081185D01*
G01X00013015Y-00081326D01*
G01X00013200Y-00081426D01*
G01X00013399Y-00081486D01*
G01X00013611Y-00081506D01*
G01X00016405Y-00081506D01*
G01X00016628Y-00081486D01*
G01X00016832Y-00081425D01*
G01X00017004Y-00081331D01*
G01X00017004Y-00080408D01*
G01X00016993Y-00080528D01*
G01X00016960Y-00080639D01*
G01X00016905Y-00080741D01*
G01X00016828Y-00080833D01*
G01X00016735Y-00080909D01*
G01X00016634Y-00080963D01*
G01X00016524Y-00080996D01*
G01X00016405Y-00081007D01*
G01X00013611Y-00081007D01*
G01X00013491Y-00080996D01*
G01X00013381Y-00080963D01*
G01X00013279Y-00080908D01*
G01X00013187Y-00080831D01*
G01X00013111Y-00080738D01*
G01X00013056Y-00080637D01*
G01X00013024Y-00080527D01*
G01X00013013Y-00080408D01*
G01X00013013Y-00080109D01*
G01X00013024Y-00079988D01*
G01X00013057Y-00079876D01*
G01X00013112Y-00079775D01*
G01X00013189Y-00079683D01*
G01X00013282Y-00079608D01*
G01X00013383Y-00079554D01*
G01X00013493Y-00079521D01*
G01X00013611Y-00079510D01*
G01X00016405Y-00079510D01*
G01X00016528Y-00079521D01*
G01X00016641Y-00079555D01*
G01X00016742Y-00079611D01*
G01X00016833Y-00079689D01*
G01X00016908Y-00079782D01*
G01X00016961Y-00079883D01*
G01X00016993Y-00079992D01*
G01X00017004Y-00080109D01*
G01X00017004Y-00080408D01*
G01X00017004Y-00081331D01*
G01X00017018Y-00081323D01*
G01X00017186Y-00081180D01*
G01X00017325Y-00081009D01*
G01X00017424Y-00080824D01*
G01X00017483Y-00080624D01*
G01X00017503Y-00080408D01*
G37*
G36*
G01X00015871Y-00074012D02*
G01X00016455Y-00074571D01*
G01X00017254Y-00074571D01*
G01X00017360Y-00074589D01*
G01X00017442Y-00074642D01*
G01X00017488Y-00074721D01*
G01X00017503Y-00074820D01*
G01X00017487Y-00074914D01*
G01X00017441Y-00074995D01*
G01X00017363Y-00075051D01*
G01X00017254Y-00075070D01*
G01X00014260Y-00075070D01*
G01X00014164Y-00075051D01*
G01X00014075Y-00074995D01*
G01X00014027Y-00074914D01*
G01X00014010Y-00074820D01*
G01X00014026Y-00074729D01*
G01X00014073Y-00074648D01*
G01X00014151Y-00074590D01*
G01X00014260Y-00074571D01*
G01X00015732Y-00074571D01*
G01X00014071Y-00072989D01*
G01X00014015Y-00072917D01*
G01X00013996Y-00072828D01*
G01X00014015Y-00072745D01*
G01X00014071Y-00072654D01*
G01X00014156Y-00072598D01*
G01X00014260Y-00072579D01*
G01X00014359Y-00072599D01*
G01X00014449Y-00072661D01*
G01X00015504Y-00073662D01*
G01X00017093Y-00072636D01*
G01X00017188Y-00072593D01*
G01X00017264Y-00072579D01*
G01X00017360Y-00072599D01*
G01X00017439Y-00072661D01*
G01X00017495Y-00072742D01*
G01X00017514Y-00072835D01*
G01X00017489Y-00072930D01*
G01X00017414Y-00073014D01*
G01X00015871Y-00074012D01*
G37*
G36*
G01X00017503Y-00070529D02*
G01X00017503Y-00069531D01*
G01X00017485Y-00069332D01*
G01X00017429Y-00069148D01*
G01X00017338Y-00068979D01*
G01X00017209Y-00068826D01*
G01X00017055Y-00068698D01*
G01X00016886Y-00068607D01*
G01X00016703Y-00068552D01*
G01X00016505Y-00068533D01*
G01X00013512Y-00068533D01*
G01X00013312Y-00068552D01*
G01X00013128Y-00068606D01*
G01X00012960Y-00068697D01*
G01X00012806Y-00068824D01*
G01X00012678Y-00068977D01*
G01X00012587Y-00069146D01*
G01X00012532Y-00069331D01*
G01X00012514Y-00069531D01*
G01X00012514Y-00070529D01*
G01X00012532Y-00070730D01*
G01X00012586Y-00070915D01*
G01X00012677Y-00071083D01*
G01X00012804Y-00071237D01*
G01X00012957Y-00071364D01*
G01X00013126Y-00071454D01*
G01X00013311Y-00071509D01*
G01X00013512Y-00071527D01*
G01X00016505Y-00071527D01*
G01X00016706Y-00071509D01*
G01X00016890Y-00071453D01*
G01X00017004Y-00071391D01*
G01X00017004Y-00070529D01*
G01X00016995Y-00070623D01*
G01X00016968Y-00070725D01*
G01X00016862Y-00070886D01*
G01X00016784Y-00070948D01*
G01X00016699Y-00070993D01*
G01X00016606Y-00071019D01*
G01X00016505Y-00071028D01*
G01X00013512Y-00071028D01*
G01X00013411Y-00071019D01*
G01X00013317Y-00070993D01*
G01X00013231Y-00070948D01*
G01X00013155Y-00070886D01*
G01X00013093Y-00070809D01*
G01X00013048Y-00070723D01*
G01X00013022Y-00070630D01*
G01X00013013Y-00070529D01*
G01X00013013Y-00069531D01*
G01X00013022Y-00069427D01*
G01X00013049Y-00069333D01*
G01X00013094Y-00069248D01*
G01X00013157Y-00069173D01*
G01X00013233Y-00069112D01*
G01X00013318Y-00069068D01*
G01X00013411Y-00069041D01*
G01X00013512Y-00069032D01*
G01X00016505Y-00069032D01*
G01X00016610Y-00069042D01*
G01X00016706Y-00069069D01*
G01X00016790Y-00069115D01*
G01X00016865Y-00069179D01*
G01X00016926Y-00069255D01*
G01X00016969Y-00069340D01*
G01X00016995Y-00069432D01*
G01X00017004Y-00069531D01*
G01X00017004Y-00070529D01*
G01X00017004Y-00071391D01*
G01X00017059Y-00071361D01*
G01X00017213Y-00071231D01*
G01X00017340Y-00071076D01*
G01X00017430Y-00070908D01*
G01X00017485Y-00070725D01*
G01X00017503Y-00070529D01*
G37*
G36*
G01X00017254Y-00064142D02*
G01X00014260Y-00064142D01*
G01X00014137Y-00064159D01*
G01X00014046Y-00064207D01*
G01X00013990Y-00064278D01*
G01X00013971Y-00064363D01*
G01X00013980Y-00064419D01*
G01X00014007Y-00064477D01*
G01X00014051Y-00064535D01*
G01X00014114Y-00064595D01*
G01X00015579Y-00065639D01*
G01X00014114Y-00066683D01*
G01X00014051Y-00066735D01*
G01X00014007Y-00066791D01*
G01X00013980Y-00066851D01*
G01X00013971Y-00066915D01*
G01X00013991Y-00066998D01*
G01X00014050Y-00067075D01*
G01X00014141Y-00067121D01*
G01X00014260Y-00067136D01*
G01X00017254Y-00067136D01*
G01X00017360Y-00067118D01*
G01X00017442Y-00067065D01*
G01X00017488Y-00066986D01*
G01X00017503Y-00066887D01*
G01X00017487Y-00066800D01*
G01X00017437Y-00066717D01*
G01X00017358Y-00066657D01*
G01X00017254Y-00066637D01*
G01X00015037Y-00066637D01*
G01X00016152Y-00065842D01*
G01X00016210Y-00065792D01*
G01X00016251Y-00065742D01*
G01X00016276Y-00065691D01*
G01X00016284Y-00065639D01*
G01X00016276Y-00065590D01*
G01X00016251Y-00065540D01*
G01X00016210Y-00065489D01*
G01X00016152Y-00065436D01*
G01X00015037Y-00064641D01*
G01X00017254Y-00064641D01*
G01X00017360Y-00064624D01*
G01X00017442Y-00064570D01*
G01X00017488Y-00064492D01*
G01X00017503Y-00064392D01*
G01X00017487Y-00064305D01*
G01X00017437Y-00064223D01*
G01X00017358Y-00064163D01*
G01X00017254Y-00064142D01*
G37*

G36*
G01X00026994Y-00003504D02*
G01X00026994Y-00001757D01*
G01X00026979Y-00001648D01*
G01X00026932Y-00001570D01*
G01X00026854Y-00001524D01*
G01X00026745Y-00001508D01*
G01X00022254Y-00001508D01*
G01X00022145Y-00001527D01*
G01X00022067Y-00001583D01*
G01X00022021Y-00001664D01*
G01X00022005Y-00001757D01*
G01X00022020Y-00001857D01*
G01X00022066Y-00001936D01*
G01X00022148Y-00001989D01*
G01X00022254Y-00002007D01*
G01X00024001Y-00002007D01*
G01X00024001Y-00002866D01*
G01X00022119Y-00004042D01*
G01X00022060Y-00004091D01*
G01X00022026Y-00004138D01*
G01X00022005Y-00004241D01*
G01X00022023Y-00004337D01*
G01X00022076Y-00004423D01*
G01X00022159Y-00004482D01*
G01X00022251Y-00004502D01*
G01X00022333Y-00004480D01*
G01X00022390Y-00004462D01*
G01X00024001Y-00003454D01*
G01X00024001Y-00003504D01*
G01X00024019Y-00003703D01*
G01X00024074Y-00003887D01*
G01X00024166Y-00004056D01*
G01X00024295Y-00004209D01*
G01X00024449Y-00004337D01*
G01X00024618Y-00004428D01*
G01X00024801Y-00004483D01*
G01X00024999Y-00004502D01*
G01X00025996Y-00004502D01*
G01X00026196Y-00004483D01*
G01X00026380Y-00004429D01*
G01X00026495Y-00004367D01*
G01X00026495Y-00003504D01*
G01X00026486Y-00003608D01*
G01X00026459Y-00003702D01*
G01X00026414Y-00003787D01*
G01X00026351Y-00003862D01*
G01X00026275Y-00003923D01*
G01X00026190Y-00003967D01*
G01X00026097Y-00003994D01*
G01X00025996Y-00004003D01*
G01X00024999Y-00004003D01*
G01X00024893Y-00003993D01*
G01X00024798Y-00003966D01*
G01X00024713Y-00003920D01*
G01X00024639Y-00003856D01*
G01X00024578Y-00003780D01*
G01X00024534Y-00003695D01*
G01X00024508Y-00003603D01*
G01X00024500Y-00003504D01*
G01X00024500Y-00002007D01*
G01X00026495Y-00002007D01*
G01X00026495Y-00003504D01*
G01X00026495Y-00004367D01*
G01X00026548Y-00004338D01*
G01X00026702Y-00004211D01*
G01X00026830Y-00004058D01*
G01X00026921Y-00003889D01*
G01X00026976Y-00003704D01*
G01X00026994Y-00003504D01*
G37*
G36*
G01X00023498Y-00007745D02*
G01X00023498Y-00008244D01*
G01X00023479Y-00008340D01*
G01X00023422Y-00008420D01*
G01X00023340Y-00008475D01*
G01X00023249Y-00008494D01*
G01X00023164Y-00008478D01*
G01X00023081Y-00008431D01*
G01X00023020Y-00008353D01*
G01X00022999Y-00008244D01*
G01X00022999Y-00007745D01*
G01X00022254Y-00007745D01*
G01X00022148Y-00007727D01*
G01X00022065Y-00007674D01*
G01X00022020Y-00007595D01*
G01X00022005Y-00007496D01*
G01X00022021Y-00007402D01*
G01X00022067Y-00007321D01*
G01X00022145Y-00007265D01*
G01X00022254Y-00007246D01*
G01X00022999Y-00007246D01*
G01X00022999Y-00005749D01*
G01X00023012Y-00005636D01*
G01X00023050Y-00005554D01*
G01X00023114Y-00005505D01*
G01X00023202Y-00005489D01*
G01X00023263Y-00005496D01*
G01X00023320Y-00005511D01*
G01X00026812Y-00006508D01*
G01X00026884Y-00006541D01*
G01X00026948Y-00006594D01*
G01X00026973Y-00006640D01*
G01X00026994Y-00006737D01*
G01X00026976Y-00006837D01*
G01X00026923Y-00006918D01*
G01X00026845Y-00006977D01*
G01X00026748Y-00006997D01*
G01X00026673Y-00006986D01*
G01X00023498Y-00006077D01*
G01X00023498Y-00007246D01*
G01X00024247Y-00007246D01*
G01X00024343Y-00007265D01*
G01X00024432Y-00007321D01*
G01X00024480Y-00007402D01*
G01X00024496Y-00007496D01*
G01X00024480Y-00007587D01*
G01X00024434Y-00007668D01*
G01X00024356Y-00007726D01*
G01X00024247Y-00007745D01*
G01X00023498Y-00007745D01*
G37*

G36*
G01X00035247Y00005004D02*
G01X00035140Y00005022D01*
G01X00035058Y00005076D01*
G01X00035012Y00005154D01*
G01X00034997Y00005254D01*
G01X00035013Y00005347D01*
G01X00035059Y00005428D01*
G01X00035137Y00005484D01*
G01X00035246Y00005503D01*
G01X00039138Y00005503D01*
G01X00038564Y00006077D01*
G01X00038508Y00006157D01*
G01X00038490Y00006248D01*
G01X00038508Y00006336D01*
G01X00038564Y00006423D01*
G01X00038648Y00006481D01*
G01X00038743Y00006501D01*
G01X00038828Y00006482D01*
G01X00038914Y00006426D01*
G01X00039912Y00005428D01*
G01X00039993Y00005325D01*
G01X00040015Y00005269D01*
G01X00040023Y00005207D01*
G01X00040004Y00005141D01*
G01X00039948Y00005065D01*
G01X00039856Y00005019D01*
G01X00039738Y00005004D01*
G01X00035247Y00005004D01*
G37*
G36*
G01X00039986Y00002609D02*
G01X00039986Y00002908D01*
G01X00039966Y00003128D01*
G01X00039904Y00003331D01*
G01X00039801Y00003516D01*
G01X00039657Y00003685D01*
G01X00039485Y00003826D01*
G01X00039300Y00003926D01*
G01X00039101Y00003986D01*
G01X00038889Y00004006D01*
G01X00036095Y00004006D01*
G01X00035872Y00003986D01*
G01X00035668Y00003925D01*
G01X00035482Y00003823D01*
G01X00035314Y00003680D01*
G01X00035175Y00003509D01*
G01X00035076Y00003324D01*
G01X00035017Y00003124D01*
G01X00034997Y00002908D01*
G01X00034997Y00002609D01*
G01X00035017Y00002388D01*
G01X00035079Y00002185D01*
G01X00035180Y00001999D01*
G01X00035323Y00001830D01*
G01X00035494Y00001691D01*
G01X00035679Y00001591D01*
G01X00035879Y00001531D01*
G01X00036095Y00001511D01*
G01X00038889Y00001511D01*
G01X00039110Y00001532D01*
G01X00039313Y00001593D01*
G01X00039487Y00001688D01*
G01X00039487Y00002609D01*
G01X00039476Y00002488D01*
G01X00039443Y00002376D01*
G01X00039388Y00002275D01*
G01X00039311Y00002183D01*
G01X00039218Y00002108D01*
G01X00039117Y00002054D01*
G01X00039007Y00002021D01*
G01X00038889Y00002010D01*
G01X00036095Y00002010D01*
G01X00035972Y00002021D01*
G01X00035859Y00002055D01*
G01X00035758Y00002111D01*
G01X00035667Y00002189D01*
G01X00035592Y00002282D01*
G01X00035539Y00002383D01*
G01X00035507Y00002492D01*
G01X00035496Y00002609D01*
G01X00035496Y00002908D01*
G01X00035507Y00003028D01*
G01X00035540Y00003139D01*
G01X00035595Y00003241D01*
G01X00035672Y00003333D01*
G01X00035765Y00003409D01*
G01X00035866Y00003463D01*
G01X00035976Y00003496D01*
G01X00036095Y00003507D01*
G01X00038889Y00003507D01*
G01X00039009Y00003496D01*
G01X00039119Y00003463D01*
G01X00039221Y00003408D01*
G01X00039313Y00003331D01*
G01X00039389Y00003238D01*
G01X00039444Y00003137D01*
G01X00039476Y00003027D01*
G01X00039487Y00002908D01*
G01X00039487Y00002609D01*
G01X00039487Y00001688D01*
G01X00039499Y00001695D01*
G01X00039667Y00001838D01*
G01X00039807Y00002008D01*
G01X00039907Y00002193D01*
G01X00039966Y00002394D01*
G01X00039986Y00002609D01*
G37*
G36*
G01X00036629Y-00003488D02*
G01X00036045Y-00002929D01*
G01X00035246Y-00002929D01*
G01X00035140Y-00002911D01*
G01X00035058Y-00002858D01*
G01X00035012Y-00002779D01*
G01X00034997Y-00002680D01*
G01X00035013Y-00002586D01*
G01X00035059Y-00002505D01*
G01X00035137Y-00002449D01*
G01X00035246Y-00002430D01*
G01X00038240Y-00002430D01*
G01X00038336Y-00002449D01*
G01X00038425Y-00002505D01*
G01X00038473Y-00002586D01*
G01X00038490Y-00002680D01*
G01X00038474Y-00002771D01*
G01X00038427Y-00002852D01*
G01X00038349Y-00002910D01*
G01X00038240Y-00002929D01*
G01X00036768Y-00002929D01*
G01X00038429Y-00004511D01*
G01X00038485Y-00004583D01*
G01X00038504Y-00004672D01*
G01X00038485Y-00004755D01*
G01X00038429Y-00004846D01*
G01X00038344Y-00004902D01*
G01X00038240Y-00004921D01*
G01X00038141Y-00004901D01*
G01X00038051Y-00004839D01*
G01X00036996Y-00003838D01*
G01X00035407Y-00004864D01*
G01X00035312Y-00004907D01*
G01X00035236Y-00004921D01*
G01X00035140Y-00004901D01*
G01X00035061Y-00004839D01*
G01X00035005Y-00004758D01*
G01X00034986Y-00004665D01*
G01X00035011Y-00004570D01*
G01X00035086Y-00004486D01*
G01X00036629Y-00003488D01*
G37*
G36*
G01X00039986Y-00007969D02*
G01X00039986Y-00006971D01*
G01X00039968Y-00006770D01*
G01X00039914Y-00006585D01*
G01X00039823Y-00006417D01*
G01X00039696Y-00006263D01*
G01X00039543Y-00006136D01*
G01X00039374Y-00006046D01*
G01X00039189Y-00005991D01*
G01X00038988Y-00005973D01*
G01X00035995Y-00005973D01*
G01X00035794Y-00005991D01*
G01X00035610Y-00006047D01*
G01X00035441Y-00006139D01*
G01X00035287Y-00006269D01*
G01X00035160Y-00006424D01*
G01X00035070Y-00006592D01*
G01X00035015Y-00006775D01*
G01X00034997Y-00006971D01*
G01X00034997Y-00007969D01*
G01X00035015Y-00008168D01*
G01X00035071Y-00008352D01*
G01X00035162Y-00008521D01*
G01X00035291Y-00008674D01*
G01X00035445Y-00008802D01*
G01X00035614Y-00008893D01*
G01X00035797Y-00008948D01*
G01X00035995Y-00008967D01*
G01X00038988Y-00008967D01*
G01X00039188Y-00008948D01*
G01X00039372Y-00008894D01*
G01X00039487Y-00008832D01*
G01X00039487Y-00007969D01*
G01X00039478Y-00008073D01*
G01X00039451Y-00008167D01*
G01X00039406Y-00008252D01*
G01X00039343Y-00008327D01*
G01X00039267Y-00008388D01*
G01X00039182Y-00008432D01*
G01X00039089Y-00008459D01*
G01X00038988Y-00008468D01*
G01X00035995Y-00008468D01*
G01X00035890Y-00008458D01*
G01X00035794Y-00008431D01*
G01X00035710Y-00008385D01*
G01X00035635Y-00008321D01*
G01X00035574Y-00008245D01*
G01X00035531Y-00008160D01*
G01X00035505Y-00008068D01*
G01X00035496Y-00007969D01*
G01X00035496Y-00006971D01*
G01X00035505Y-00006877D01*
G01X00035532Y-00006775D01*
G01X00035638Y-00006614D01*
G01X00035716Y-00006552D01*
G01X00035801Y-00006507D01*
G01X00035894Y-00006481D01*
G01X00035995Y-00006472D01*
G01X00038988Y-00006472D01*
G01X00039089Y-00006481D01*
G01X00039183Y-00006507D01*
G01X00039269Y-00006552D01*
G01X00039345Y-00006614D01*
G01X00039407Y-00006691D01*
G01X00039452Y-00006777D01*
G01X00039478Y-00006870D01*
G01X00039487Y-00006971D01*
G01X00039487Y-00007969D01*
G01X00039487Y-00008832D01*
G01X00039540Y-00008803D01*
G01X00039694Y-00008676D01*
G01X00039822Y-00008523D01*
G01X00039913Y-00008354D01*
G01X00039968Y-00008169D01*
G01X00039986Y-00007969D01*
G37*
G36*
G01X00035246Y-00013358D02*
G01X00038240Y-00013358D01*
G01X00038363Y-00013341D01*
G01X00038454Y-00013293D01*
G01X00038510Y-00013222D01*
G01X00038529Y-00013137D01*
G01X00038520Y-00013081D01*
G01X00038493Y-00013023D01*
G01X00038449Y-00012965D01*
G01X00038386Y-00012905D01*
G01X00036921Y-00011861D01*
G01X00038386Y-00010817D01*
G01X00038449Y-00010765D01*
G01X00038493Y-00010709D01*
G01X00038520Y-00010649D01*
G01X00038529Y-00010585D01*
G01X00038509Y-00010502D01*
G01X00038450Y-00010425D01*
G01X00038359Y-00010379D01*
G01X00038240Y-00010364D01*
G01X00035246Y-00010364D01*
G01X00035140Y-00010382D01*
G01X00035058Y-00010435D01*
G01X00035012Y-00010514D01*
G01X00034997Y-00010613D01*
G01X00035013Y-00010700D01*
G01X00035063Y-00010783D01*
G01X00035142Y-00010843D01*
G01X00035246Y-00010863D01*
G01X00037463Y-00010863D01*
G01X00036348Y-00011658D01*
G01X00036290Y-00011708D01*
G01X00036249Y-00011758D01*
G01X00036224Y-00011809D01*
G01X00036216Y-00011861D01*
G01X00036224Y-00011910D01*
G01X00036249Y-00011960D01*
G01X00036290Y-00012011D01*
G01X00036348Y-00012064D01*
G01X00037463Y-00012859D01*
G01X00035246Y-00012859D01*
G01X00035140Y-00012876D01*
G01X00035058Y-00012930D01*
G01X00035012Y-00013008D01*
G01X00034997Y-00013108D01*
G01X00035013Y-00013195D01*
G01X00035063Y-00013277D01*
G01X00035142Y-00013337D01*
G01X00035246Y-00013358D01*
G37*

G36*
G01X00094703Y00071006D02*
G01X00094688Y00071106D01*
G01X00094642Y00071185D01*
G01X00094560Y00071238D01*
G01X00094454Y00071256D01*
G01X00092707Y00071256D01*
G01X00092707Y00072115D01*
G01X00094589Y00073291D01*
G01X00094648Y00073340D01*
G01X00094682Y00073387D01*
G01X00094703Y00073490D01*
G01X00094685Y00073586D01*
G01X00094632Y00073672D01*
G01X00094549Y00073731D01*
G01X00094457Y00073751D01*
G01X00094375Y00073729D01*
G01X00094318Y00073711D01*
G01X00092707Y00072703D01*
G01X00092707Y00072753D01*
G01X00092689Y00072952D01*
G01X00092634Y00073136D01*
G01X00092542Y00073305D01*
G01X00092413Y00073458D01*
G01X00092259Y00073586D01*
G01X00092090Y00073677D01*
G01X00091907Y00073732D01*
G01X00091709Y00073751D01*
G01X00090712Y00073751D01*
G01X00090512Y00073732D01*
G01X00090328Y00073678D01*
G01X00090160Y00073587D01*
G01X00090006Y00073460D01*
G01X00089878Y00073307D01*
G01X00089787Y00073138D01*
G01X00089732Y00072953D01*
G01X00089714Y00072753D01*
G01X00089714Y00071006D01*
G01X00089729Y00070897D01*
G01X00089776Y00070819D01*
G01X00089854Y00070773D01*
G01X00089963Y00070757D01*
G01X00092208Y00070757D01*
G01X00092208Y00071256D01*
G01X00092208Y00072753D01*
G01X00092200Y00072852D01*
G01X00092174Y00072944D01*
G01X00092130Y00073029D01*
G01X00092069Y00073105D01*
G01X00091995Y00073169D01*
G01X00091910Y00073215D01*
G01X00091815Y00073242D01*
G01X00091709Y00073252D01*
G01X00090712Y00073252D01*
G01X00090611Y00073243D01*
G01X00090518Y00073216D01*
G01X00090433Y00073172D01*
G01X00090357Y00073111D01*
G01X00090294Y00073036D01*
G01X00090249Y00072951D01*
G01X00090222Y00072857D01*
G01X00090213Y00072753D01*
G01X00090213Y00071256D01*
G01X00092208Y00071256D01*
G01X00092208Y00070757D01*
G01X00094454Y00070757D01*
G01X00094563Y00070776D01*
G01X00094641Y00070832D01*
G01X00094687Y00070913D01*
G01X00094703Y00071006D01*
G37*
G36*
G01X00090213Y00075248D02*
G01X00091713Y00075248D01*
G01X00091713Y00075996D01*
G01X00091736Y00076242D01*
G01X00091804Y00076471D01*
G01X00091918Y00076682D01*
G01X00092078Y00076875D01*
G01X00092270Y00077036D01*
G01X00092480Y00077151D01*
G01X00092710Y00077221D01*
G01X00092959Y00077244D01*
G01X00093457Y00077244D01*
G01X00093703Y00077221D01*
G01X00093931Y00077152D01*
G01X00094142Y00077037D01*
G01X00094335Y00076877D01*
G01X00094496Y00076684D01*
G01X00094611Y00076473D01*
G01X00094680Y00076244D01*
G01X00094703Y00075996D01*
G01X00094703Y00074998D01*
G01X00094685Y00074895D01*
G01X00094632Y00074813D01*
G01X00094550Y00074765D01*
G01X00094454Y00074749D01*
G01X00094367Y00074765D01*
G01X00094284Y00074815D01*
G01X00094224Y00074894D01*
G01X00094204Y00074998D01*
G01X00094204Y00075996D01*
G01X00094191Y00076144D01*
G01X00094151Y00076281D01*
G01X00094084Y00076408D01*
G01X00093991Y00076524D01*
G01X00093877Y00076620D01*
G01X00093751Y00076689D01*
G01X00093610Y00076731D01*
G01X00093457Y00076745D01*
G01X00092959Y00076745D01*
G01X00092810Y00076731D01*
G01X00092672Y00076691D01*
G01X00092546Y00076623D01*
G01X00092431Y00076529D01*
G01X00092335Y00076415D01*
G01X00092267Y00076288D01*
G01X00092226Y00076148D01*
G01X00092212Y00075996D01*
G01X00092212Y00074998D01*
G01X00092196Y00074889D01*
G01X00092149Y00074811D01*
G01X00092071Y00074765D01*
G01X00091962Y00074749D01*
G01X00089963Y00074749D01*
G01X00089854Y00074765D01*
G01X00089776Y00074811D01*
G01X00089729Y00074889D01*
G01X00089714Y00074998D01*
G01X00089714Y00076994D01*
G01X00089733Y00077090D01*
G01X00089790Y00077171D01*
G01X00089872Y00077225D01*
G01X00089963Y00077244D01*
G01X00090048Y00077228D01*
G01X00090131Y00077181D01*
G01X00090192Y00077103D01*
G01X00090213Y00076994D01*
G01X00090213Y00075248D01*
G37*

G36*
G01X00081461Y00063996D02*
G01X00081568Y00063978D01*
G01X00081650Y00063924D01*
G01X00081696Y00063846D01*
G01X00081711Y00063746D01*
G01X00081695Y00063653D01*
G01X00081649Y00063572D01*
G01X00081571Y00063516D01*
G01X00081462Y00063497D01*
G01X00077570Y00063497D01*
G01X00078144Y00062923D01*
G01X00078200Y00062843D01*
G01X00078218Y00062752D01*
G01X00078200Y00062664D01*
G01X00078144Y00062577D01*
G01X00078060Y00062519D01*
G01X00077965Y00062499D01*
G01X00077880Y00062518D01*
G01X00077794Y00062574D01*
G01X00076796Y00063572D01*
G01X00076715Y00063675D01*
G01X00076693Y00063731D01*
G01X00076685Y00063793D01*
G01X00076704Y00063859D01*
G01X00076760Y00063935D01*
G01X00076852Y00063981D01*
G01X00076970Y00063996D01*
G01X00081461Y00063996D01*
G37*
G36*
G01X00081711Y00066092D02*
G01X00081711Y00066391D01*
G01X00081691Y00066612D01*
G01X00081629Y00066815D01*
G01X00081528Y00067001D01*
G01X00081385Y00067170D01*
G01X00081214Y00067309D01*
G01X00081029Y00067409D01*
G01X00080829Y00067469D01*
G01X00080613Y00067489D01*
G01X00077819Y00067489D01*
G01X00077598Y00067468D01*
G01X00077395Y00067407D01*
G01X00077209Y00067305D01*
G01X00077041Y00067162D01*
G01X00076901Y00066992D01*
G01X00076801Y00066807D01*
G01X00076742Y00066606D01*
G01X00076722Y00066391D01*
G01X00076722Y00066092D01*
G01X00076742Y00065872D01*
G01X00076804Y00065669D01*
G01X00076907Y00065484D01*
G01X00077051Y00065315D01*
G01X00077223Y00065174D01*
G01X00077408Y00065074D01*
G01X00077607Y00065014D01*
G01X00077819Y00064994D01*
G01X00080613Y00064994D01*
G01X00080836Y00065014D01*
G01X00081040Y00065075D01*
G01X00081212Y00065169D01*
G01X00081212Y00066092D01*
G01X00081201Y00065972D01*
G01X00081168Y00065861D01*
G01X00081113Y00065759D01*
G01X00081036Y00065667D01*
G01X00080943Y00065591D01*
G01X00080842Y00065537D01*
G01X00080732Y00065504D01*
G01X00080613Y00065493D01*
G01X00077819Y00065493D01*
G01X00077699Y00065504D01*
G01X00077589Y00065537D01*
G01X00077487Y00065592D01*
G01X00077395Y00065669D01*
G01X00077319Y00065762D01*
G01X00077264Y00065863D01*
G01X00077232Y00065973D01*
G01X00077221Y00066092D01*
G01X00077221Y00066391D01*
G01X00077232Y00066512D01*
G01X00077265Y00066624D01*
G01X00077320Y00066725D01*
G01X00077397Y00066817D01*
G01X00077490Y00066892D01*
G01X00077591Y00066946D01*
G01X00077701Y00066979D01*
G01X00077819Y00066990D01*
G01X00080613Y00066990D01*
G01X00080736Y00066979D01*
G01X00080849Y00066945D01*
G01X00080950Y00066889D01*
G01X00081041Y00066811D01*
G01X00081116Y00066718D01*
G01X00081169Y00066617D01*
G01X00081201Y00066508D01*
G01X00081212Y00066391D01*
G01X00081212Y00066092D01*
G01X00081212Y00065169D01*
G01X00081226Y00065177D01*
G01X00081394Y00065320D01*
G01X00081533Y00065491D01*
G01X00081632Y00065676D01*
G01X00081691Y00065876D01*
G01X00081711Y00066092D01*
G37*
G36*
G01X00080079Y00072488D02*
G01X00080663Y00071929D01*
G01X00081462Y00071929D01*
G01X00081568Y00071911D01*
G01X00081650Y00071858D01*
G01X00081696Y00071779D01*
G01X00081711Y00071680D01*
G01X00081695Y00071586D01*
G01X00081649Y00071505D01*
G01X00081571Y00071449D01*
G01X00081462Y00071430D01*
G01X00078468Y00071430D01*
G01X00078372Y00071449D01*
G01X00078283Y00071505D01*
G01X00078235Y00071586D01*
G01X00078218Y00071680D01*
G01X00078234Y00071771D01*
G01X00078281Y00071852D01*
G01X00078359Y00071910D01*
G01X00078468Y00071929D01*
G01X00079940Y00071929D01*
G01X00078279Y00073511D01*
G01X00078223Y00073583D01*
G01X00078204Y00073672D01*
G01X00078223Y00073755D01*
G01X00078279Y00073846D01*
G01X00078364Y00073902D01*
G01X00078468Y00073921D01*
G01X00078567Y00073901D01*
G01X00078657Y00073839D01*
G01X00079712Y00072838D01*
G01X00081301Y00073864D01*
G01X00081396Y00073907D01*
G01X00081472Y00073921D01*
G01X00081568Y00073901D01*
G01X00081647Y00073839D01*
G01X00081703Y00073758D01*
G01X00081722Y00073665D01*
G01X00081697Y00073570D01*
G01X00081622Y00073486D01*
G01X00080079Y00072488D01*
G37*
G36*
G01X00081711Y00075971D02*
G01X00081711Y00076969D01*
G01X00081693Y00077168D01*
G01X00081637Y00077352D01*
G01X00081546Y00077521D01*
G01X00081417Y00077674D01*
G01X00081263Y00077802D01*
G01X00081094Y00077893D01*
G01X00080911Y00077948D01*
G01X00080713Y00077967D01*
G01X00077720Y00077967D01*
G01X00077520Y00077948D01*
G01X00077336Y00077894D01*
G01X00077168Y00077803D01*
G01X00077014Y00077676D01*
G01X00076886Y00077523D01*
G01X00076795Y00077354D01*
G01X00076740Y00077169D01*
G01X00076722Y00076969D01*
G01X00076722Y00075971D01*
G01X00076740Y00075770D01*
G01X00076794Y00075585D01*
G01X00076885Y00075417D01*
G01X00077012Y00075263D01*
G01X00077165Y00075136D01*
G01X00077334Y00075046D01*
G01X00077519Y00074991D01*
G01X00077720Y00074973D01*
G01X00080713Y00074973D01*
G01X00080914Y00074991D01*
G01X00081098Y00075047D01*
G01X00081212Y00075109D01*
G01X00081212Y00075971D01*
G01X00081203Y00075877D01*
G01X00081176Y00075775D01*
G01X00081070Y00075614D01*
G01X00080992Y00075552D01*
G01X00080907Y00075507D01*
G01X00080814Y00075481D01*
G01X00080713Y00075472D01*
G01X00077720Y00075472D01*
G01X00077619Y00075481D01*
G01X00077525Y00075507D01*
G01X00077439Y00075552D01*
G01X00077363Y00075614D01*
G01X00077301Y00075691D01*
G01X00077256Y00075777D01*
G01X00077230Y00075870D01*
G01X00077221Y00075971D01*
G01X00077221Y00076969D01*
G01X00077230Y00077073D01*
G01X00077257Y00077167D01*
G01X00077302Y00077252D01*
G01X00077365Y00077327D01*
G01X00077441Y00077388D01*
G01X00077526Y00077432D01*
G01X00077619Y00077459D01*
G01X00077720Y00077468D01*
G01X00080713Y00077468D01*
G01X00080818Y00077458D01*
G01X00080914Y00077431D01*
G01X00080998Y00077385D01*
G01X00081073Y00077321D01*
G01X00081134Y00077245D01*
G01X00081177Y00077160D01*
G01X00081203Y00077068D01*
G01X00081212Y00076969D01*
G01X00081212Y00075971D01*
G01X00081212Y00075109D01*
G01X00081267Y00075139D01*
G01X00081421Y00075269D01*
G01X00081548Y00075424D01*
G01X00081638Y00075592D01*
G01X00081693Y00075775D01*
G01X00081711Y00075971D01*
G37*
G36*
G01X00081462Y00082358D02*
G01X00078468Y00082358D01*
G01X00078345Y00082341D01*
G01X00078254Y00082293D01*
G01X00078198Y00082222D01*
G01X00078179Y00082137D01*
G01X00078188Y00082081D01*
G01X00078215Y00082023D01*
G01X00078259Y00081965D01*
G01X00078322Y00081905D01*
G01X00079787Y00080861D01*
G01X00078322Y00079817D01*
G01X00078259Y00079765D01*
G01X00078215Y00079709D01*
G01X00078188Y00079649D01*
G01X00078179Y00079585D01*
G01X00078199Y00079502D01*
G01X00078258Y00079425D01*
G01X00078349Y00079379D01*
G01X00078468Y00079364D01*
G01X00081462Y00079364D01*
G01X00081568Y00079382D01*
G01X00081650Y00079435D01*
G01X00081696Y00079514D01*
G01X00081711Y00079613D01*
G01X00081695Y00079700D01*
G01X00081645Y00079783D01*
G01X00081566Y00079843D01*
G01X00081462Y00079863D01*
G01X00079245Y00079863D01*
G01X00080360Y00080658D01*
G01X00080418Y00080708D01*
G01X00080459Y00080758D01*
G01X00080484Y00080809D01*
G01X00080492Y00080861D01*
G01X00080484Y00080910D01*
G01X00080459Y00080960D01*
G01X00080418Y00081011D01*
G01X00080360Y00081064D01*
G01X00079245Y00081859D01*
G01X00081462Y00081859D01*
G01X00081568Y00081876D01*
G01X00081650Y00081930D01*
G01X00081696Y00082008D01*
G01X00081711Y00082108D01*
G01X00081695Y00082195D01*
G01X00081645Y00082277D01*
G01X00081566Y00082337D01*
G01X00081462Y00082358D01*
G37*

G36*
G01X00045751Y00080250D02*
G01X00045729Y00080332D01*
G01X00045711Y00080389D01*
G01X00044703Y00082000D01*
G01X00044753Y00082000D01*
G01X00044952Y00082018D01*
G01X00045136Y00082073D01*
G01X00045252Y00082136D01*
G01X00045252Y00082998D01*
G01X00045242Y00082892D01*
G01X00045215Y00082797D01*
G01X00045169Y00082712D01*
G01X00045105Y00082638D01*
G01X00045029Y00082577D01*
G01X00044944Y00082533D01*
G01X00044852Y00082507D01*
G01X00044753Y00082499D01*
G01X00043256Y00082499D01*
G01X00043256Y00084494D01*
G01X00044753Y00084494D01*
G01X00044857Y00084485D01*
G01X00044951Y00084458D01*
G01X00045036Y00084413D01*
G01X00045111Y00084350D01*
G01X00045172Y00084274D01*
G01X00045216Y00084189D01*
G01X00045243Y00084096D01*
G01X00045252Y00083995D01*
G01X00045252Y00082998D01*
G01X00045252Y00082136D01*
G01X00045305Y00082165D01*
G01X00045458Y00082294D01*
G01X00045586Y00082448D01*
G01X00045677Y00082617D01*
G01X00045732Y00082800D01*
G01X00045751Y00082998D01*
G01X00045751Y00083995D01*
G01X00045732Y00084195D01*
G01X00045678Y00084379D01*
G01X00045587Y00084547D01*
G01X00045460Y00084701D01*
G01X00045307Y00084829D01*
G01X00045138Y00084920D01*
G01X00044953Y00084975D01*
G01X00044753Y00084993D01*
G01X00043006Y00084993D01*
G01X00042897Y00084978D01*
G01X00042819Y00084931D01*
G01X00042773Y00084853D01*
G01X00042757Y00084744D01*
G01X00042757Y00080253D01*
G01X00042776Y00080144D01*
G01X00042832Y00080066D01*
G01X00042913Y00080020D01*
G01X00043006Y00080004D01*
G01X00043106Y00080019D01*
G01X00043185Y00080065D01*
G01X00043238Y00080147D01*
G01X00043256Y00080253D01*
G01X00043256Y00082000D01*
G01X00044115Y00082000D01*
G01X00045291Y00080118D01*
G01X00045340Y00080059D01*
G01X00045387Y00080025D01*
G01X00045490Y00080004D01*
G01X00045586Y00080022D01*
G01X00045672Y00080075D01*
G01X00045731Y00080158D01*
G01X00045751Y00080250D01*
G37*
G36*
G01X00049244Y00081001D02*
G01X00049244Y00081997D01*
G01X00049225Y00082198D01*
G01X00049170Y00082382D01*
G01X00049077Y00082551D01*
G01X00048948Y00082704D01*
G01X00048793Y00082831D01*
G01X00048624Y00082921D01*
G01X00048442Y00082976D01*
G01X00048246Y00082994D01*
G01X00047344Y00082994D01*
G01X00047401Y00083197D01*
G01X00047476Y00083397D01*
G01X00047563Y00083580D01*
G01X00047667Y00083753D01*
G01X00047787Y00083915D01*
G01X00047925Y00084067D01*
G01X00048084Y00084207D01*
G01X00048239Y00084323D01*
G01X00048411Y00084428D01*
G01X00048591Y00084509D01*
G01X00048666Y00084561D01*
G01X00048713Y00084612D01*
G01X00048737Y00084667D01*
G01X00048745Y00084733D01*
G01X00048729Y00084828D01*
G01X00048681Y00084915D01*
G01X00048598Y00084974D01*
G01X00048506Y00084993D01*
G01X00048399Y00084968D01*
G01X00048169Y00084855D01*
G01X00047953Y00084723D01*
G01X00047752Y00084570D01*
G01X00047565Y00084399D01*
G01X00047396Y00084212D01*
G01X00047249Y00084016D01*
G01X00047123Y00083810D01*
G01X00047020Y00083594D01*
G01X00046901Y00083271D01*
G01X00046817Y00082938D01*
G01X00046766Y00082597D01*
G01X00046749Y00082248D01*
G01X00046749Y00081001D01*
G01X00046768Y00080799D01*
G01X00046823Y00080614D01*
G01X00046916Y00080445D01*
G01X00047047Y00080292D01*
G01X00047202Y00080166D01*
G01X00047370Y00080076D01*
G01X00047552Y00080022D01*
G01X00047747Y00080004D01*
G01X00048246Y00080004D01*
G01X00048445Y00080022D01*
G01X00048629Y00080077D01*
G01X00048745Y00080140D01*
G01X00048745Y00081001D01*
G01X00048736Y00080896D01*
G01X00048708Y00080801D01*
G01X00048662Y00080716D01*
G01X00048599Y00080642D01*
G01X00048522Y00080581D01*
G01X00048437Y00080538D01*
G01X00048345Y00080512D01*
G01X00048246Y00080503D01*
G01X00047747Y00080503D01*
G01X00047653Y00080512D01*
G01X00047551Y00080539D01*
G01X00047390Y00080645D01*
G01X00047328Y00080722D01*
G01X00047283Y00080807D01*
G01X00047257Y00080900D01*
G01X00047248Y00081001D01*
G01X00047248Y00082246D01*
G01X00047259Y00082495D01*
G01X00048246Y00082495D01*
G01X00048350Y00082486D01*
G01X00048444Y00082459D01*
G01X00048529Y00082414D01*
G01X00048604Y00082351D01*
G01X00048665Y00082275D01*
G01X00048709Y00082190D01*
G01X00048736Y00082098D01*
G01X00048745Y00081997D01*
G01X00048745Y00081001D01*
G01X00048745Y00080140D01*
G01X00048798Y00080169D01*
G01X00048951Y00080298D01*
G01X00049079Y00080452D01*
G01X00049171Y00080620D01*
G01X00049225Y00080803D01*
G01X00049244Y00081001D01*
G37*

G36*
G01X00035996Y00093247D02*
G01X00035978Y00093140D01*
G01X00035924Y00093058D01*
G01X00035846Y00093012D01*
G01X00035746Y00092997D01*
G01X00035653Y00093013D01*
G01X00035572Y00093059D01*
G01X00035516Y00093137D01*
G01X00035497Y00093246D01*
G01X00035497Y00097138D01*
G01X00034923Y00096564D01*
G01X00034843Y00096508D01*
G01X00034752Y00096490D01*
G01X00034664Y00096508D01*
G01X00034577Y00096564D01*
G01X00034519Y00096648D01*
G01X00034499Y00096743D01*
G01X00034518Y00096828D01*
G01X00034574Y00096914D01*
G01X00035572Y00097912D01*
G01X00035675Y00097993D01*
G01X00035731Y00098015D01*
G01X00035793Y00098023D01*
G01X00035859Y00098004D01*
G01X00035935Y00097948D01*
G01X00035981Y00097856D01*
G01X00035996Y00097738D01*
G01X00035996Y00093247D01*
G37*
G36*
G01X00039489Y00094095D02*
G01X00039469Y00093879D01*
G01X00039409Y00093679D01*
G01X00039309Y00093494D01*
G01X00039170Y00093323D01*
G01X00039001Y00093180D01*
G01X00038990Y00093174D01*
G01X00038990Y00094095D01*
G01X00038990Y00096889D01*
G01X00038979Y00097007D01*
G01X00038946Y00097117D01*
G01X00038892Y00097218D01*
G01X00038817Y00097311D01*
G01X00038725Y00097388D01*
G01X00038624Y00097443D01*
G01X00038512Y00097476D01*
G01X00038391Y00097487D01*
G01X00038092Y00097487D01*
G01X00037973Y00097476D01*
G01X00037863Y00097444D01*
G01X00037762Y00097389D01*
G01X00037669Y00097313D01*
G01X00037592Y00097221D01*
G01X00037537Y00097119D01*
G01X00037504Y00097009D01*
G01X00037493Y00096889D01*
G01X00037493Y00094095D01*
G01X00037504Y00093976D01*
G01X00037537Y00093866D01*
G01X00037591Y00093765D01*
G01X00037667Y00093672D01*
G01X00037759Y00093595D01*
G01X00037861Y00093540D01*
G01X00037972Y00093507D01*
G01X00038092Y00093496D01*
G01X00038391Y00093496D01*
G01X00038508Y00093507D01*
G01X00038617Y00093539D01*
G01X00038718Y00093592D01*
G01X00038811Y00093667D01*
G01X00038889Y00093758D01*
G01X00038945Y00093859D01*
G01X00038979Y00093972D01*
G01X00038990Y00094095D01*
G01X00038990Y00093174D01*
G01X00038815Y00093079D01*
G01X00038612Y00093017D01*
G01X00038391Y00092997D01*
G01X00038092Y00092997D01*
G01X00037876Y00093017D01*
G01X00037676Y00093076D01*
G01X00037491Y00093175D01*
G01X00037320Y00093314D01*
G01X00037177Y00093482D01*
G01X00037075Y00093668D01*
G01X00037014Y00093872D01*
G01X00036994Y00094095D01*
G01X00036994Y00096889D01*
G01X00037014Y00097101D01*
G01X00037074Y00097300D01*
G01X00037174Y00097485D01*
G01X00037315Y00097657D01*
G01X00037484Y00097801D01*
G01X00037669Y00097904D01*
G01X00037872Y00097966D01*
G01X00038092Y00097986D01*
G01X00038391Y00097986D01*
G01X00038606Y00097966D01*
G01X00038807Y00097907D01*
G01X00038992Y00097807D01*
G01X00039162Y00097667D01*
G01X00039305Y00097499D01*
G01X00039407Y00097313D01*
G01X00039468Y00097110D01*
G01X00039489Y00096889D01*
G01X00039489Y00094095D01*
G37*
G36*
G01X00044488Y00094629D02*
G01X00043929Y00094045D01*
G01X00043929Y00093246D01*
G01X00043911Y00093140D01*
G01X00043858Y00093058D01*
G01X00043779Y00093012D01*
G01X00043680Y00092997D01*
G01X00043586Y00093013D01*
G01X00043505Y00093059D01*
G01X00043449Y00093137D01*
G01X00043430Y00093246D01*
G01X00043430Y00096240D01*
G01X00043449Y00096336D01*
G01X00043505Y00096425D01*
G01X00043586Y00096473D01*
G01X00043680Y00096490D01*
G01X00043771Y00096474D01*
G01X00043852Y00096427D01*
G01X00043910Y00096349D01*
G01X00043929Y00096240D01*
G01X00043929Y00094768D01*
G01X00045511Y00096429D01*
G01X00045583Y00096485D01*
G01X00045672Y00096504D01*
G01X00045755Y00096485D01*
G01X00045846Y00096429D01*
G01X00045902Y00096344D01*
G01X00045921Y00096240D01*
G01X00045901Y00096141D01*
G01X00045839Y00096051D01*
G01X00044838Y00094996D01*
G01X00045864Y00093407D01*
G01X00045907Y00093312D01*
G01X00045921Y00093236D01*
G01X00045901Y00093140D01*
G01X00045839Y00093061D01*
G01X00045758Y00093005D01*
G01X00045665Y00092986D01*
G01X00045570Y00093011D01*
G01X00045486Y00093086D01*
G01X00044488Y00094629D01*
G37*
G36*
G01X00049967Y00093995D02*
G01X00049948Y00093797D01*
G01X00049893Y00093614D01*
G01X00049802Y00093445D01*
G01X00049674Y00093291D01*
G01X00049521Y00093162D01*
G01X00049468Y00093133D01*
G01X00049468Y00093995D01*
G01X00049468Y00096988D01*
G01X00049459Y00097089D01*
G01X00049432Y00097182D01*
G01X00049388Y00097267D01*
G01X00049327Y00097343D01*
G01X00049252Y00097406D01*
G01X00049167Y00097451D01*
G01X00049073Y00097478D01*
G01X00048969Y00097487D01*
G01X00047971Y00097487D01*
G01X00047870Y00097478D01*
G01X00047777Y00097452D01*
G01X00047691Y00097407D01*
G01X00047614Y00097345D01*
G01X00047552Y00097269D01*
G01X00047507Y00097183D01*
G01X00047481Y00097089D01*
G01X00047472Y00096988D01*
G01X00047472Y00093995D01*
G01X00047481Y00093894D01*
G01X00047507Y00093801D01*
G01X00047552Y00093716D01*
G01X00047614Y00093638D01*
G01X00047775Y00093532D01*
G01X00047877Y00093505D01*
G01X00047971Y00093496D01*
G01X00048969Y00093496D01*
G01X00049068Y00093505D01*
G01X00049160Y00093531D01*
G01X00049245Y00093574D01*
G01X00049321Y00093635D01*
G01X00049385Y00093710D01*
G01X00049431Y00093794D01*
G01X00049458Y00093890D01*
G01X00049468Y00093995D01*
G01X00049468Y00093133D01*
G01X00049352Y00093071D01*
G01X00049168Y00093015D01*
G01X00048969Y00092997D01*
G01X00047971Y00092997D01*
G01X00047775Y00093015D01*
G01X00047592Y00093070D01*
G01X00047424Y00093160D01*
G01X00047269Y00093287D01*
G01X00047139Y00093441D01*
G01X00047047Y00093610D01*
G01X00046991Y00093794D01*
G01X00046973Y00093995D01*
G01X00046973Y00096988D01*
G01X00046991Y00097189D01*
G01X00047046Y00097374D01*
G01X00047136Y00097543D01*
G01X00047263Y00097696D01*
G01X00047417Y00097823D01*
G01X00047585Y00097914D01*
G01X00047770Y00097968D01*
G01X00047971Y00097986D01*
G01X00048969Y00097986D01*
G01X00049169Y00097968D01*
G01X00049354Y00097913D01*
G01X00049523Y00097822D01*
G01X00049676Y00097694D01*
G01X00049803Y00097540D01*
G01X00049894Y00097372D01*
G01X00049948Y00097188D01*
G01X00049967Y00096988D01*
G01X00049967Y00093995D01*
G37*
G36*
G01X00054358Y00093246D02*
G01X00054358Y00096240D01*
G01X00054341Y00096363D01*
G01X00054293Y00096454D01*
G01X00054222Y00096510D01*
G01X00054137Y00096529D01*
G01X00054081Y00096520D01*
G01X00054023Y00096493D01*
G01X00053965Y00096449D01*
G01X00053905Y00096386D01*
G01X00052861Y00094921D01*
G01X00051817Y00096386D01*
G01X00051765Y00096449D01*
G01X00051709Y00096493D01*
G01X00051649Y00096520D01*
G01X00051585Y00096529D01*
G01X00051502Y00096509D01*
G01X00051425Y00096450D01*
G01X00051379Y00096359D01*
G01X00051364Y00096240D01*
G01X00051364Y00093246D01*
G01X00051382Y00093140D01*
G01X00051435Y00093058D01*
G01X00051514Y00093012D01*
G01X00051613Y00092997D01*
G01X00051700Y00093013D01*
G01X00051783Y00093063D01*
G01X00051843Y00093142D01*
G01X00051863Y00093246D01*
G01X00051863Y00095463D01*
G01X00052658Y00094348D01*
G01X00052708Y00094290D01*
G01X00052758Y00094249D01*
G01X00052809Y00094224D01*
G01X00052861Y00094216D01*
G01X00052910Y00094224D01*
G01X00052960Y00094249D01*
G01X00053011Y00094290D01*
G01X00053064Y00094348D01*
G01X00053859Y00095463D01*
G01X00053859Y00093246D01*
G01X00053876Y00093140D01*
G01X00053930Y00093058D01*
G01X00054008Y00093012D01*
G01X00054108Y00092997D01*
G01X00054195Y00093013D01*
G01X00054277Y00093063D01*
G01X00054337Y00093142D01*
G01X00054358Y00093246D01*
G37*

G54D10*
G01X-00060300Y-00020965D02*
G01X00011300Y-00020965D01*
G01X00011300Y00032735D01*
G01X-00001400Y00045435D01*
G01X-00060300Y00045435D01*
G01X-00060300Y-00020965D01*

G01X-00118750Y00054000D02*
G01X-00106250Y00054000D01*
G01X-00106250Y00074000D01*
G01X-00118750Y00074000D01*
G01X-00118750Y00054000D01*

G01X00106000Y00064499D02*
G01X00134000Y00064499D01*
G01X00134000Y00090166D01*
G01X00124667Y00099499D01*
G01X00106000Y00099499D01*
G01X00106000Y00064499D01*

G01X00018100Y00033254D02*
G01X00030600Y00033254D01*
G01X00030600Y00053254D01*
G01X00018100Y00053254D01*
G01X00018100Y00033254D01*

G01X-00034240Y00073250D02*
G01X-00014240Y00073250D01*
G01X-00014240Y00085750D01*
G01X-00034240Y00085750D01*
G01X-00034240Y00073250D01*

G01X-00006999Y00101000D02*
G01X00028001Y00101000D01*
G01X00028001Y00129000D01*
G01X00002334Y00129000D01*
G01X-00006999Y00119667D01*
G01X-00006999Y00101000D01*

G01X-00061000Y-00086000D02*
G01X-00045000Y-00086000D01*
G01X-00045000Y-00055000D01*
G01X-00061000Y-00055000D01*
G01X-00061000Y-00086000D01*

G01X-00031500Y-00079500D02*
G01X-00000500Y-00079500D01*
G01X-00000500Y-00063500D01*
G01X-00031500Y-00063500D01*
G01X-00031500Y-00079500D01*

G01X00020000Y-00088000D02*
G01X00036000Y-00088000D01*
G01X00036000Y-00057000D01*
G01X00020000Y-00057000D01*
G01X00020000Y-00088000D01*

G01X00016500Y-00020500D02*
G01X00032500Y-00020500D01*
G01X00032500Y00010500D01*
G01X00016500Y00010500D01*
G01X00016500Y-00020500D01*

G01X00084208Y00058500D02*
G01X00100208Y00058500D01*
G01X00100208Y00089500D01*
G01X00084208Y00089500D01*
G01X00084208Y00058500D01*

G01X00030500Y00074500D02*
G01X00061500Y00074500D01*
G01X00061500Y00090500D01*
G01X00030500Y00090500D01*
G01X00030500Y00074500D01*
G04 End Layers*
M02*