M48
;Drill File Programming the device ESP-07 date: 11.09.2020 14:45:25
;FORMAT=-.-/ABSOLUTE/METRIC/Decimal
FMAT,2
METRIC,TZ
T1C.8
T2C1.
%
G90
G05
M71
T1
X-8.7Y-8.55
X-8.7Y-6.55
X-8.7Y-4.55
X-8.7Y-2.55
X-8.7Y-.55
X-8.7Y1.45
X-8.7Y3.45
X-8.7Y5.45
X5.3Y5.45
X5.3Y3.45
X5.3Y1.45
X5.3Y-.55
X5.3Y-2.55
X5.3Y-4.55
X5.3Y-6.55
X5.3Y-8.55
T2
X-11.6496Y12.6
X-6.55Y12.6
X6.Y12.6
X8.55Y12.6
X11.1Y-3.5
X11.05Y-6.05
X11.Y-8.6
T0
M30
