G04 Created by Delta Design Version 2.6.36104.0403*
G04 Date: 11.09.2020 14:45:25*
G04 Project: Programming the device ESP-07*
G04 File name: SIGNAL_TOP*
G04 File format: RS274X*

G04 Parameters*
%FSAN2X44Y44D3M2*%
%MIA0B0*%
%MOMM*%
%IOA0B0*%
%SFA1B1*%
%IJ*%
%IR0*%
G04 End parameters*
G04 Aperture macros*
G04 Outline: Vertices count = 208 | Vertices | Rotation = 0*
%AMOUTLINE1*4,1,207,-.150000,-1.525000,.150000,-1.525000,.150000,-.988800,.152200,-.988400,.174900,-.984600,.197500,-.980400,.219900,-.975600,.242100,-.970400,.264100,-.964700,.285900,-.958500,.307500,-.951800,.328800,-.944700,.349900,-.937200,.370800,-.929100,.391400,-.920700,.411800,-.911800,.431900,-.902400,.451800,-.892700,.471400,-.882500,.490800,-.871900,.509800,-.860900,.528600,-.849500,.547200,-.837700,.565400,-.825500,.583300,-.813000,.601000,-.800000,.635300,-.773100,.668400,-.744700,.700200,-.714900,.730600,-.683800,.759700,-.651400,.787300,-.617800,.800600,-.600500,.813500,-.583000,.826000,-.565200,.838100,-.547100,.849800,-.528700,.861200,-.510100,.872100,-.491200,.882700,-.472000,.892800,-.452700,.902500,-.433000,.911800,-.413200,.920700,-.393100,.929100,-.372800,.937100,-.352300,.944600,-.331500,.951700,-.310600,.958400,-.289500,.964500,-.268200,.970300,-.246700,.975500,-.225000,.980300,-.203200,.984600,-.181200,.988400,-.159000,.991700,-.136700,.994600,-.114200,.996900,-.091600,.998700,-.068900,1,-.046000,1.000800,-.023000,1.001100,0,1.000800,.023000,1,.046000,.998700,.068900,.996900,.091600,.994600,.114200,.991700,.136700,.988400,.159000,.984600,.181200,.980300,.203200,.975500,.225000,.970300,.246700,.964500,.268200,.958400,.289500,.951700,.310600,.944600,.331500,.937100,.352300,.929100,.372800,.920700,.393100,.911800,.413200,.902500,.433000,.892800,.452700,.882700,.472000,.872100,.491200,.861200,.510100,.849800,.528700,.838100,.547100,.826000,.565200,.813500,.583000,.800600,.600500,.787300,.617800,.759700,.651400,.730600,.683800,.700200,.714900,.668400,.744700,.635300,.773100,.601000,.800000,.583300,.813000,.565400,.825500,.547200,.837700,.528600,.849500,.509800,.860900,.490800,.871900,.471400,.882500,.451800,.892700,.431900,.902400,.411800,.911800,.391400,.920700,.370800,.929100,.349900,.937200,.328800,.944700,.307500,.951800,.285900,.958500,.264100,.964700,.242100,.970400,.219900,.975600,.197500,.980400,.174900,.984600,.152200,.988400,.150000,.988800,.150000,1.525000,-.150000,1.525000,-.150000,.988800,-.152200,.988400,-.172300,.985100,-.192300,.981400,-.212200,.977300,-.231900,.972800,-.251500,.968000,-.270900,.962800,-.309300,.951200,-.347000,.938200,-.383900,.923700,-.420200,.907800,-.455600,.890600,-.490300,.872000,-.524100,.852100,-.557000,.831000,-.589000,.808600,-.620100,.785000,-.650200,.760300,-.679300,.734400,-.707400,.707400,-.734400,.679300,-.760300,.650200,-.785000,.620100,-.808600,.589000,-.831000,.557000,-.852100,.524100,-.872000,.490300,-.890600,.455600,-.907800,.420200,-.923700,.383900,-.938200,.347000,-.951200,.309300,-.962800,.270900,-.968000,.251500,-.972800,.231900,-.977300,.212200,-.981400,.192300,-.985100,.172300,-.988400,.152200,-.988800,.150000,-1.525000,.150000,-1.525000,-.150000,-.988800,-.150000,-.988400,-.152200,-.985100,-.172300,-.981400,-.192300,-.977300,-.212200,-.972800,-.231900,-.968000,-.251500,-.962800,-.270900,-.951200,-.309300,-.938200,-.347000,-.923700,-.383900,-.907800,-.420200,-.890600,-.455600,-.872000,-.490300,-.852100,-.524100,-.831000,-.557000,-.808600,-.589000,-.785000,-.620100,-.760300,-.650200,-.734400,-.679300,-.707400,-.707400,-.679300,-.734400,-.650200,-.760300,-.620100,-.785000,-.589000,-.808600,-.557000,-.831000,-.524100,-.852100,-.490300,-.872000,-.455600,-.890600,-.420200,-.907800,-.383900,-.923700,-.347000,-.938200,-.309300,-.951200,-.270900,-.962800,-.251500,-.968000,-.231900,-.972800,-.212200,-.977300,-.192300,-.981400,-.172300,-.985100,-.152200,-.988400,-.150000,-.988800,-.150000,-1.525000,0*%
G04 Rectangle: Width = 6.832400 | Height = 7.164000 | Rotation = 180*
%AMRECT2*21,1,6.832400,7.164000,0,0,180*%
G04 Rectangle: Width = 2.164000 | Height = .979200 | Rotation = 270*
%AMRECT3*21,1,2.164000,.979200,0,0,270*%
G04 Outline: Vertices count = 21 | Vertices | Rotation = 0*
%AMOUTLINE4*4,1,20,-1.014600,.200000,-1.014600,-.100000,-.489600,-.100000,-.489600,-1.032000,-.150000,-1.032000,-.150000,-1.557000,.150000,-1.557000,.150000,-1.032000,.489600,-1.032000,.489600,-.100000,1.014600,-.100000,1.014600,.200000,.489600,.200000,.489600,1.132000,.150000,1.132000,.150000,1.657000,-.150000,1.657000,-.150000,1.132000,-.489600,1.132000,-.489600,.200000,-1.014600,.200000,0*%
G04 Outline: Vertices count = 243 | Vertices | Rotation = 0*
%AMOUTLINE5*4,1,242,0,-1,.023000,-.999700,.046000,-.998900,.068900,-.997600,.091600,-.995800,.114200,-.993500,.136600,-.990700,.158900,-.987400,.181100,-.983600,.203100,-.979400,.224900,-.974600,.246600,-.969400,.268100,-.963700,.289400,-.957500,.310500,-.950900,.331400,-.943800,.352100,-.936300,.372600,-.928300,.392900,-.919900,.413000,-.911000,.432900,-.901800,.452500,-.892100,.471900,-.882000,.491000,-.871400,.509900,-.860500,.528500,-.849200,.546900,-.837500,.565000,-.825400,.582800,-.812900,.600400,-.800000,.617600,-.786800,.651200,-.759200,.683600,-.730200,.714700,-.699700,.744500,-.668000,.772900,-.634900,.799900,-.600600,.812800,-.583000,.825400,-.565100,.837600,-.546900,.849400,-.528400,.860800,-.509600,.871800,-.490500,.882400,-.471200,.892600,-.451600,.902300,-.431700,.911700,-.411600,.920600,-.391300,.929000,-.370600,.937100,-.349800,.944700,-.328700,.951800,-.307400,.958400,-.285800,.964600,-.264100,.970300,-.242100,.975600,-.219900,.980300,-.197500,.984600,-.174900,.988400,-.152200,.988800,-.150000,1.525000,-.150000,1.525000,.150000,.988800,.150000,.988400,.152200,.984600,.174900,.980400,.197500,.975600,.219900,.970400,.242100,.964700,.264100,.958500,.285900,.951800,.307500,.944700,.328800,.937200,.349900,.929100,.370800,.920700,.391400,.911800,.411800,.902400,.431900,.892700,.451800,.882500,.471400,.871900,.490800,.860900,.509800,.849500,.528600,.837700,.547200,.825500,.565400,.813000,.583300,.800000,.601000,.773100,.635300,.744700,.668400,.714900,.700200,.683800,.730600,.651400,.759700,.617800,.787300,.600500,.800600,.583000,.813500,.565200,.826000,.547100,.838100,.528700,.849800,.510100,.861200,.491200,.872100,.472000,.882700,.452700,.892800,.433000,.902500,.413200,.911800,.393100,.920700,.372800,.929100,.352300,.937100,.331500,.944600,.310600,.951700,.289500,.958400,.268200,.964500,.246700,.970300,.225000,.975500,.203200,.980300,.181200,.984600,.159000,.988400,.136700,.991700,.114200,.994600,.091600,.996900,.068900,.998700,.046000,1,.023000,1.000800,0,1.001100,-.023000,1.000800,-.046000,1,-.068900,.998700,-.091600,.996900,-.114200,.994600,-.136700,.991700,-.159000,.988400,-.181200,.984600,-.203200,.980300,-.225000,.975500,-.246700,.970300,-.268200,.964500,-.289500,.958400,-.310600,.951700,-.331500,.944600,-.352300,.937100,-.372800,.929100,-.393100,.920700,-.413200,.911800,-.433000,.902500,-.452700,.892800,-.472000,.882700,-.491200,.872100,-.510100,.861200,-.528700,.849800,-.547100,.838100,-.565200,.826000,-.583000,.813500,-.600500,.800600,-.617800,.787300,-.651400,.759700,-.683800,.730600,-.714900,.700200,-.744700,.668400,-.773100,.635300,-.800000,.601000,-.813000,.583300,-.825500,.565400,-.837700,.547200,-.849500,.528600,-.860900,.509800,-.871900,.490800,-.882500,.471400,-.892700,.451800,-.902400,.431900,-.911800,.411800,-.920700,.391400,-.929100,.370800,-.937200,.349900,-.944700,.328800,-.951800,.307500,-.958500,.285900,-.964700,.264100,-.970400,.242100,-.975600,.219900,-.980400,.197500,-.984600,.174900,-.988400,.152200,-.988800,.150000,-1.525000,.150000,-1.525000,-.150000,-.988800,-.150000,-.988400,-.152200,-.984600,-.174900,-.980300,-.197500,-.975600,-.219900,-.970300,-.242100,-.964600,-.264100,-.958400,-.285800,-.951800,-.307400,-.944700,-.328700,-.937100,-.349800,-.929000,-.370600,-.920600,-.391300,-.911700,-.411600,-.902300,-.431700,-.892600,-.451600,-.882400,-.471200,-.871800,-.490500,-.860800,-.509600,-.849400,-.528400,-.837600,-.546900,-.825400,-.565100,-.812800,-.583000,-.799900,-.600600,-.772900,-.634900,-.744500,-.668000,-.714700,-.699700,-.683600,-.730200,-.651200,-.759200,-.617600,-.786800,-.600400,-.800000,-.582800,-.812900,-.565000,-.825400,-.546900,-.837500,-.528500,-.849200,-.509900,-.860500,-.491000,-.871400,-.471900,-.882000,-.452500,-.892100,-.432900,-.901800,-.413000,-.911000,-.392900,-.919900,-.372600,-.928300,-.352100,-.936300,-.331400,-.943800,-.310500,-.950900,-.289400,-.957500,-.268100,-.963700,-.246600,-.969400,-.224900,-.974600,-.203100,-.979400,-.181100,-.983600,-.158900,-.987400,-.136600,-.990700,-.114200,-.993500,-.091600,-.995800,-.068900,-.997600,-.046000,-.998900,-.023000,-.999700,0,-1,0*%
G04 Outline: Vertices count = 17 | Vertices | Rotation = 0*
%AMOUTLINE6*4,1,16,-1.264600,.450000,-1.264600,.150000,-.739600,.150000,-.739600,-.384400,.739600,-.384400,.739600,.150000,1.264600,.150000,1.264600,.450000,.739600,.450000,.739600,.984400,.150000,.984400,.150000,1.509400,-.150000,1.509400,-.150000,.984400,-.739600,.984400,-.739600,.450000,-1.264600,.450000,0*%
G04 Rectangle: Width = 1.368800 | Height = 1.479200 | Rotation = 90*
%AMRECT7*21,1,1.368800,1.479200,0,0,90*%
G04 Outline: Vertices count = 21 | Vertices | Rotation = 0*
%AMOUTLINE8*4,1,20,1.699600,-.425000,1.699600,-.125000,1.174600,-.125000,1.174600,.725000,.150000,.725000,.150000,1.250000,-.150000,1.250000,-.150000,.725000,-1.174600,.725000,-1.174600,-.125000,-1.699600,-.125000,-1.699600,-.425000,-1.174600,-.425000,-1.174600,-1.275000,-.150000,-1.275000,-.150000,-1.800000,.150000,-1.800000,.150000,-1.275000,1.174600,-1.275000,1.174600,-.425000,1.699600,-.425000,0*%
G04 Rectangle: Width = 2 | Height = 2.349200 | Rotation = 270*
%AMRECT9*21,1,2,2.349200,0,0,270*%
G04 Outline: Vertices count = 13 | Vertices | Rotation = 0*
%AMOUTLINE10*4,1,12,-1.264600,.450000,-1.264600,.150000,-.739600,.150000,-.739600,-.384400,.739600,-.384400,.739600,.984400,.150000,.984400,.150000,1.509400,-.150000,1.509400,-.150000,.984400,-.739600,.984400,-.739600,.450000,-1.264600,.450000,0*%
G04 Outline: Vertices count = 13 | Vertices | Rotation = 0*
%AMOUTLINE11*4,1,12,.450000,1.264600,.150000,1.264600,.150000,.739600,-.384400,.739600,-.384400,-.739600,.150000,-.739600,.150000,-1.264600,.450000,-1.264600,.450000,-.739600,.984400,-.739600,.984400,.739600,.450000,.739600,.450000,1.264600,0*%
G04 Rectangle: Width = 1.368800 | Height = 1.479200 | Rotation = 0*
%AMRECT12*21,1,1.368800,1.479200,0,0,0*%
G04 Outline: Vertices count = 21 | Vertices | Rotation = 0*
%AMOUTLINE13*4,1,20,.425000,1.699600,.125000,1.699600,.125000,1.174600,-.725000,1.174600,-.725000,.150000,-1.250000,.150000,-1.250000,-.150000,-.725000,-.150000,-.725000,-1.174600,.125000,-1.174600,.125000,-1.699600,.425000,-1.699600,.425000,-1.174600,1.275000,-1.174600,1.275000,-.150000,1.800000,-.150000,1.800000,.150000,1.275000,.150000,1.275000,1.174600,.425000,1.174600,.425000,1.699600,0*%
G04 Rectangle: Width = 2 | Height = 2.349200 | Rotation = 0*
%AMRECT14*21,1,2,2.349200,0,0,0*%
G04 Rectangle: Width = 1.269600 | Height = 1.829200 | Rotation = 90*
%AMRECT15*21,1,1.269600,1.829200,0,0,90*%
G04 Rectangle: Width = 1.269600 | Height = 1.829200 | Rotation = 270*
%AMRECT16*21,1,1.269600,1.829200,0,0,270*%
G04 Rectangle: Width = 1.269600 | Height = 1.829200 | Rotation = 180*
%AMRECT17*21,1,1.269600,1.829200,0,0,180*%
G04 Rectangle: Width = 1.269600 | Height = 1.829200 | Rotation = 0*
%AMRECT18*21,1,1.269600,1.829200,0,0,0*%
G04 Outline: Vertices count = 17 | Vertices | Rotation = 0*
%AMOUTLINE19*4,1,16,.450000,1.439600,.150000,1.439600,.150000,.914600,-.334800,.914600,-.334800,.150000,-.859800,.150000,-.859800,-.150000,-.334800,-.150000,-.334800,-.914600,.150000,-.914600,.150000,-1.439600,.450000,-1.439600,.450000,-.914600,.934800,-.914600,.934800,.914600,.450000,.914600,.450000,1.439600,0*%
G04 Rectangle: Width = 1.900000 | Height = 1.100000 | Rotation = 270*
%AMRECT20*21,1,1.900000,1.100000,0,0,270*%
G04 Outline: Vertices count = 17 | Vertices | Rotation = 0*
%AMOUTLINE21*4,1,16,-.550000,.950000,-.550000,-.950000,-.150000,-.950000,-.150000,-1.475000,.150000,-1.475000,.150000,-.950000,.550000,-.950000,.550000,-.150000,1.075000,-.150000,1.075000,.150000,.550000,.150000,.550000,.950000,.150000,.950000,.150000,1.475000,-.150000,1.475000,-.150000,.950000,-.550000,.950000,0*%
G04 Outline: Vertices count = 17 | Vertices | Rotation = 0*
%AMOUTLINE22*4,1,16,-1.075000,.150000,-1.075000,-.150000,-.550000,-.150000,-.550000,-.950000,-.150000,-.950000,-.150000,-1.475000,.150000,-1.475000,.150000,-.950000,.550000,-.950000,.550000,-.150000,1.075000,-.150000,1.075000,.150000,.550000,.150000,.550000,.950000,-.550000,.950000,-.550000,.150000,-1.075000,.150000,0*%
G04 Outline: Vertices count = 17 | Vertices | Rotation = 0*
%AMOUTLINE23*4,1,16,-1.075000,.150000,-1.075000,-.150000,-.550000,-.150000,-.550000,-.950000,.550000,-.950000,.550000,-.150000,1.075000,-.150000,1.075000,.150000,.550000,.150000,.550000,.950000,.150000,.950000,.150000,1.475000,-.150000,1.475000,-.150000,.950000,-.550000,.950000,-.550000,.150000,-1.075000,.150000,0*%
G04 Rectangle: Width = 1.600000 | Height = 1.600000 | Rotation = 90*
%AMRECT24*21,1,1.600000,1.600000,0,0,90*%
G04 End Aperture macros*
G04 Apertures*
%ADD10C,.800000*%
%ADD11C,2*%
%ADD12OUTLINE1*%
%ADD13RECT2*%
%ADD14RECT3*%
%ADD15OUTLINE4*%
%ADD16OUTLINE5*%
%ADD17OUTLINE6*%
%ADD18RECT7*%
%ADD19OUTLINE8*%
%ADD20RECT9*%
%ADD21OUTLINE10*%
%ADD22OUTLINE11*%
%ADD23RECT12*%
%ADD24OUTLINE13*%
%ADD25RECT14*%
%ADD26RECT15*%
%ADD27RECT16*%
%ADD28RECT17*%
%ADD29RECT18*%
%ADD30OUTLINE19*%
%ADD31RECT20*%
%ADD32OUTLINE21*%
%ADD33OUTLINE22*%
%ADD34OUTLINE23*%
%ADD35RECT24*%
%ADD36C,1.600000*%
G04 End apertures*
G04 Layers*
%LNSIGNAL_TOP*%
%SRX1Y1I0J0*%
G04 Union*
G36*
G75*
G01X-00153749Y-00097500D02*
G01X-00098733Y-00097500D01*
G03X-00098169Y-00096255I-00000001J00000750D01*
G01X-00098176Y-00096248D01*
G02X-00099200Y-00093500I00003163J00002743D01*
G01X-00099200Y-00090500D01*
G03X-00099950Y-00089750I-00000750J00000000D01*
G02X-00106226Y-00087420I-00000495J00008285D01*
G01X-00106702Y-00087250D01*
G01X-00110502Y-00087250D01*
G01X-00111317Y-00087209D01*
G01X-00111448Y-00087200D01*
G01X-00121500Y-00087200D01*
G02X-00125700Y-00083000I00000004J00004204D01*
G01X-00125700Y-00064000D01*
G02X-00124469Y-00061030I00004186J00000005D01*
G01X-00124308Y-00060790D01*
G03X-00124250Y-00060499I-00000712J00000293D01*
G01X-00124250Y-00037500D01*
G03X-00124308Y-00037209I-00000762J-00000001D01*
G01X-00124469Y-00036969D01*
G02X-00125700Y-00034000I00002957J00002966D01*
G01X-00125700Y-00015000D01*
G02X-00121500Y-00010800I00004198J00000002D01*
G01X-00110500Y-00010800D01*
G02X-00106300Y-00015000I00000006J-00004194D01*
G01X-00106300Y-00034000D01*
G02X-00107530Y-00036969I-00004173J-00000011D01*
G01X-00107691Y-00037209D01*
G03X-00107750Y-00037500I00000724J-00000298D01*
G01X-00107750Y-00060499D01*
G03X-00107691Y-00060790I00000791J00000009D01*
G01X-00107530Y-00061030D01*
G02X-00106300Y-00064000I-00002944J-00002959D01*
G01X-00106300Y-00070000D01*
G03X-00105550Y-00070750I00000752J00000002D01*
G02X-00099074Y-00071745I00001590J-00011221D01*
G01X-00099035Y-00071767D01*
G03X-00097998Y-00070785I00000358J00000660D01*
G01X-00098029Y-00070721D01*
G02X-00094760Y-00056085I00011027J00005220D01*
G01X-00094754Y-00056081D01*
G03X-00094754Y-00054918I-00000474J00000581D01*
G01X-00094760Y-00054914D01*
G02X-00094760Y-00036085I00007762J00009414D01*
G01X-00094754Y-00036081D01*
G03X-00094754Y-00034918I-00000474J00000581D01*
G01X-00094760Y-00034914D01*
G02X-00094760Y-00016085I00007762J00009414D01*
G01X-00094754Y-00016081D01*
G03X-00094754Y-00014918I-00000474J00000581D01*
G01X-00094760Y-00014914D01*
G02X-00094760Y00003914I00007763J00009414D01*
G01X-00094754Y00003918D01*
G03X-00094754Y00005081I-00000474J00000582D01*
G01X-00094760Y00005085D01*
G02X-00094760Y00023914I00007762J00009415D01*
G01X-00094754Y00023918D01*
G03X-00094754Y00025081I-00000474J00000582D01*
G01X-00094760Y00025085D01*
G02X-00094760Y00043914I00007762J00009415D01*
G01X-00094754Y00043918D01*
G03X-00094754Y00045081I-00000474J00000582D01*
G01X-00095292Y00045551D01*
G03X-00095800Y00045750I-00000511J-00000557D01*
G01X-00101059Y00045750D01*
G03X-00101672Y00045431I00000004J-00000755D01*
G01X-00101678Y00045423D01*
G02X-00105104Y00043654I-00003418J00002418D01*
G01X-00119896Y00043654D01*
G02X-00124096Y00047854I-00000002J00004198D01*
G01X-00124096Y00061542D01*
G02X-00119896Y00065742I00004204J-00000004D01*
G01X-00114419Y00065742D01*
G01X-00114173Y00065777D01*
G02X-00110826Y00065777I00001673J-00008107D01*
G01X-00110580Y00065742D01*
G01X-00106487Y00065742D01*
G03X-00105780Y00066243I00000000J00000749D01*
G01X-00105766Y00066281D01*
G02X-00103833Y00069333I00007769J-00002783D01*
G01X-00101447Y00071719D01*
G03X-00101447Y00072780I-00000529J00000531D01*
G01X-00101801Y00073134D01*
G02X-00104218Y00078968I00005831J00005833D01*
G01X-00104218Y00133032D01*
G02X-00101801Y00138865I00008261J-00000006D01*
G01X-00088333Y00152333D01*
G02X-00082500Y00154750I00005834J-00005833D01*
G01X00093000Y00154750D01*
G02X00098833Y00152333I-00000006J-00008261D01*
G01X00118087Y00133079D01*
G02X00120504Y00127246I-00005833J-00005834D01*
G01X00120504Y00114254D01*
G03X00121254Y00113504I00000750J00000000D01*
G01X00131746Y00113504D01*
G02X00135946Y00109304I-00000004J-00004204D01*
G01X00135946Y00089304D01*
G02X00131746Y00085104I-00004198J-00000002D01*
G01X00108254Y00085104D01*
G01X00107406Y00085189D01*
G01X00106619Y00085433D01*
G01X00106600Y00085441D01*
G03X00105554Y00084752I-00000295J-00000690D01*
G01X00105554Y00082948D01*
G02X00101354Y00078748I-00004198J-00000002D01*
G01X00083062Y00078748D01*
G02X00078862Y00082948I-00000006J00004194D01*
G01X00078862Y00094500D01*
G03X00078112Y00095250I-00000752J-00000002D01*
G01X00076500Y00095250D01*
G02X00068250Y00103500I-00000006J00008244D01*
G01X00068250Y00117002D01*
G02X00071223Y00123392I00008422J-00000032D01*
G03X00071436Y00124024I-00000527J00000530D01*
G01X00071425Y00124101D01*
G02X00076402Y00136903I00014049J00001907D01*
G01X00076426Y00136923D01*
G03X00075946Y00138250I-00000479J00000577D01*
G01X-00055946Y00138250D01*
G03X-00056426Y00136923I-00000001J-00000750D01*
G01X-00056402Y00136903D01*
G02X-00056936Y00114671I-00009101J-00010904D01*
G01X-00056951Y00114660D01*
G03X-00057250Y00114061I00000452J-00000600D01*
G01X-00057250Y00104225D01*
G03X-00057030Y00103695I00000754J00000002D01*
G01X-00043755Y00090420D01*
G03X-00042794Y00090337I00000530J00000532D01*
G01X-00042775Y00090350D01*
G02X-00039698Y00091096I00002538J-00003749D01*
G03X-00038948Y00091846I00000000J00000750D01*
G01X-00038948Y00106606D01*
G02X-00036531Y00112439I00008261J-00000006D01*
G01X-00028137Y00120833D01*
G02X-00021754Y00123250I00005898J-00005939D01*
G03X-00021004Y00124000I00000000J00000750D01*
G01X-00021004Y00126746D01*
G02X-00016804Y00130946I00004204J-00000004D01*
G01X00003196Y00130946D01*
G02X00007396Y00126746I-00000004J-00004204D01*
G01X00007396Y00103254D01*
G02X00003196Y00099054I-00004198J-00000002D01*
G01X-00016804Y00099054D01*
G02X-00020955Y00102613I-00000002J00004198D01*
G01X-00020955Y00102615D01*
G03X-00022448Y00102507I-00000742J-00000110D01*
G01X-00022448Y00081172D01*
G02X-00022469Y00077795I-00008472J-00001636D01*
G01X-00022498Y00077580D01*
G01X-00022498Y00072104D01*
G02X-00027386Y00067904I-00004272J00000028D01*
G03X-00028136Y00067154I00000001J-00000751D01*
G02X-00037454Y00057836I-00009110J-00000208D01*
G03X-00038204Y00057086I00000001J-00000751D01*
G01X-00038204Y00054710D01*
G02X-00042404Y00050510I-00004194J-00000006D01*
G01X-00052196Y00050510D01*
G02X-00056396Y00054710I-00000002J00004198D01*
G01X-00056396Y00064979D01*
G01X-00056405Y00065110D01*
G01X-00056446Y00065926D01*
G01X-00056446Y00079466D01*
G03X-00056665Y00079996I-00000745J00000003D01*
G01X-00071333Y00094664D01*
G02X-00073750Y00100498I00005831J00005833D01*
G01X-00073750Y00114061D01*
G03X-00074049Y00114660I-00000746J00000002D01*
G01X-00074063Y00114671D01*
G02X-00074597Y00136903I00008565J00011328D01*
G01X-00074573Y00136923D01*
G03X-00075053Y00138250I-00000478J00000577D01*
G01X-00078772Y00138250D01*
G03X-00079302Y00138030I00000004J-00000758D01*
G01X-00087498Y00129834D01*
G03X-00087718Y00129304I00000538J-00000534D01*
G01X-00087718Y00083739D01*
G03X-00086954Y00082989I00000750J-00000001D01*
G01X-00086758Y00082992D01*
G01X-00071742Y00082992D01*
G02X-00065908Y00080575I-00000002J-00008255D01*
G01X-00061666Y00076333D01*
G02X-00059250Y00070500I-00005821J-00005828D01*
G01X-00059250Y00049227D01*
G03X-00059030Y00048697I00000754J00000002D01*
G01X-00053042Y00042709D01*
G03X-00052512Y00042490I00000527J00000526D01*
G01X00009662Y00042490D01*
G01X00010263Y00042447D01*
G01X00011378Y00042124D01*
G01X00011897Y00041846D01*
G03X00013003Y00042226I00000401J00000632D01*
G01X00013008Y00042240D01*
G02X00016954Y00044996I00003950J-00001453D01*
G01X00020704Y00044996D01*
G01X00020902Y00045021D01*
G02X00026113Y00045013I00002581J-00016268D01*
G01X00026273Y00044996D01*
G01X00030432Y00044996D01*
G03X00031145Y00045977I-00000005J00000753D01*
G01X00031136Y00046006D01*
G01X00030848Y00047233D01*
G01X00030750Y00048502D01*
G01X00030750Y00058122D01*
G03X00030530Y00058652I-00000758J-00000004D01*
G01X00027166Y00062016D01*
G02X00024750Y00068416I00005930J00005895D01*
G03X00024052Y00069164I-00000751J-00000001D01*
G01X00024029Y00069166D01*
G02X00020154Y00073354I00000323J00004186D01*
G01X00020154Y00091646D01*
G02X00024354Y00095846I00004198J00000002D01*
G01X00037050Y00095846D01*
G02X00041250Y00091646I-00000004J-00004204D01*
G01X00041250Y00085990D01*
G01X00041329Y00085651D01*
G01X00041599Y00084891D01*
G02X00041351Y00079403I-00007940J-00002391D01*
G01X00041250Y00079020D01*
G01X00041250Y00071577D01*
G03X00041469Y00071047I00000742J-00000004D01*
G01X00044833Y00067683D01*
G02X00047250Y00061850I-00005833J-00005834D01*
G01X00047250Y00052229D01*
G03X00047469Y00051699I00000742J-00000004D01*
G01X00052251Y00046917D01*
G03X00052793Y00046698I00000531J00000534D01*
G01X00053000Y00046700D01*
G02X00060760Y00025085I00000003J-00012199D01*
G01X00060754Y00025081D01*
G03X00060754Y00023918I00000474J-00000581D01*
G01X00060760Y00023914D01*
G02X00060760Y00005085I-00007762J-00009414D01*
G01X00060754Y00005081D01*
G03X00060754Y00003918I00000474J-00000581D01*
G01X00060760Y00003914D01*
G02X00064815Y-00002450I-00007767J-00009423D01*
G01X00065029Y-00002864D01*
G01X00067019Y-00004854D01*
G03X00068300Y-00004324I00000530J00000531D01*
G01X00068300Y-00001304D01*
G02X00069530Y00001665I00004173J00000011D01*
G01X00069692Y00001907D01*
G03X00069750Y00002196I-00000730J00000297D01*
G01X00069750Y00025195D01*
G01X00069749Y00025225D01*
G01X00069748Y00025255D01*
G01X00069744Y00025284D01*
G01X00069740Y00025314D01*
G01X00069735Y00025343D01*
G01X00069728Y00025372D01*
G01X00069721Y00025400D01*
G01X00069712Y00025429D01*
G01X00069703Y00025456D01*
G01X00069692Y00025484D01*
G01X00069530Y00025726D01*
G02X00068300Y00028696I00002944J00002959D01*
G01X00068300Y00047696D01*
G02X00073330Y00051896I00004304J-00000043D01*
G03X00073860Y00052115I00000005J00000740D01*
G01X00078642Y00056897D01*
G03X00078862Y00057427I-00000534J00000532D01*
G01X00078862Y00065050D01*
G02X00083062Y00069250I00004198J00000002D01*
G01X00088717Y00069250D01*
G01X00089008Y00069308D01*
G02X00095326Y00069342I00003200J-00007632D01*
G01X00095698Y00069250D01*
G01X00101354Y00069250D01*
G02X00105554Y00065050I-00000004J-00004204D01*
G01X00105554Y00052354D01*
G02X00101354Y00048154I-00004198J-00000002D01*
G01X00093543Y00048154D01*
G03X00093013Y00047934I00000002J-00000754D01*
G01X00087919Y00042840D01*
G03X00087700Y00042310I00000526J-00000527D01*
G01X00087700Y00028696D01*
G02X00086469Y00025726I-00004186J-00000005D01*
G01X00086307Y00025484D01*
G03X00086250Y00025195I00000718J-00000292D01*
G01X00086250Y00002196D01*
G03X00086307Y00001907I00000715J-00000009D01*
G01X00086469Y00001665D01*
G02X00087700Y-00001304I-00002957J-00002966D01*
G01X00087700Y-00020304D01*
G02X00083500Y-00024504I-00004204J00000004D01*
G01X00072500Y-00024504D01*
G02X00068757Y-00022212I-00000001J00004200D01*
G03X00068087Y-00021800I-00000669J-00000337D01*
G01X00065612Y-00021800D01*
G03X00064882Y-00022721I-00000003J-00000748D01*
G01X00064887Y-00022744D01*
G02X00060760Y-00034914I-00011878J-00002757D01*
G01X00060754Y-00034918D01*
G03X00060754Y-00036081I00000474J-00000582D01*
G01X00060760Y-00036085D01*
G02X00060760Y-00054914I-00007762J-00009415D01*
G01X00060754Y-00054918D01*
G03X00060754Y-00056081I00000474J-00000582D01*
G01X00061292Y-00056551D01*
G03X00061800Y-00056750I00000511J00000557D01*
G01X00080350Y-00056750D01*
G03X00080880Y-00056530I-00000004J00000758D01*
G01X00082744Y-00054666D01*
G02X00088578Y-00052250I00005826J-00005816D01*
G01X00098561Y-00052250D01*
G03X00099160Y-00051951I-00000001J00000751D01*
G01X00099171Y-00051936D01*
G02X00117715Y-00072732I00011329J-00008564D01*
G01X00117675Y-00072756D01*
G03X00117651Y-00074035I00000375J-00000647D01*
G01X00117653Y-00074036D01*
G02X00119919Y-00096160I-00007657J-00011962D01*
G01X00119867Y-00096211D01*
G03X00120389Y-00097500I00000521J-00000539D01*
G01X00144250Y-00097500D01*
G03X00145000Y-00096750I-00000002J00000752D01*
G01X00145249Y00165249D01*
G03X00144499Y00166000I-00000749J00000002D01*
G01X-00153500Y00166000D01*
G03X-00154250Y00165250I00000002J-00000752D01*
G01X-00154499Y-00096749D01*
G03X-00153749Y-00097500I00000749J-00000002D01*
G37*
G04 EndUnion*

G54D10*
G01X-00028298Y-00071500D02*
G01X-00061502Y-00071500D01*
G01X-00087000Y-00046002D01*
G01X-00087000Y-00045500D01*

G01X-00116000Y-00073500D02*
G01X-00116000Y-00024500D01*

G01X-00053000Y-00082796D02*
G01X-00056000Y-00085796D01*
G01X-00086704Y-00085796D01*
G01X-00087000Y-00085500D01*

G01X-00087000Y-00085500D02*
G01X-00091000Y-00081500D01*
G01X-00100504Y-00081500D01*
G01X-00103004Y-00079000D01*
G01X-00110502Y-00079000D01*
G01X-00116000Y-00073502D01*
G01X-00116000Y-00073500D01*

G01X-00053000Y-00082796D02*
G01X-00048999Y-00086797D01*
G01X00026001Y-00086797D01*
G01X00028000Y-00084798D01*

G01X-00053000Y-00058202D02*
G01X-00053000Y-00057502D01*
G01X-00085002Y-00025500D01*
G01X-00087000Y-00025500D01*

G01X00024500Y00007298D02*
G01X00028775Y00011573D01*
G01X00050073Y00011573D01*
G01X00053000Y00014500D01*

G01X00078000Y-00010804D02*
G01X00078000Y00038196D01*

G01X00078000Y00038196D02*
G01X00078000Y00044588D01*
G01X00092208Y00058796D01*
G01X00092208Y00061702D01*

G01X00078000Y-00010804D02*
G01X00075254Y-00013550D01*
G01X00064048Y-00013550D01*
G01X00055998Y-00005500D01*
G01X00053000Y-00005500D01*

G01X00053000Y00034500D02*
G01X00053000Y00034502D01*
G01X00039000Y00048502D01*
G01X00039000Y00061850D01*
G01X00033000Y00067850D01*
G01X00033000Y00081798D01*
G01X00033702Y00082500D01*

G01X-00146000Y-00073500D02*
G01X-00146000Y-00024500D01*

G01X00111000Y-00035000D02*
G01X00108250Y-00032250D01*
G01X00108250Y-00011054D01*
G01X00108000Y-00010804D01*

G01X00108000Y-00010804D02*
G01X00108000Y00038196D01*

G01X00024350Y00049554D02*
G01X00022706Y00051198D01*
G01X00007468Y00051198D01*
G01X-00001700Y00060366D01*
G01X-00001700Y00065030D01*

G01X-00017940Y00079500D02*
G01X-00016248Y00077808D01*
G01X-00010926Y00077808D01*
G01X-00001700Y00068582D01*
G01X-00001700Y00065030D01*

G01X-00001700Y00065030D02*
G01X-00000804Y00065926D01*
G01X-00000804Y00084646D01*
G01X00025054Y00110504D01*
G01X00025054Y00115000D01*

G01X-00112500Y00070300D02*
G01X-00114196Y00071996D01*
G01X-00114196Y00090000D01*

G01X-00114196Y00090000D02*
G01X-00114196Y00123700D01*
G01X-00116496Y00126000D01*

G01X00058296Y00082500D02*
G01X00058948Y00083152D01*
G01X00058948Y00097228D01*
G01X00051757Y00104419D01*
G01X00051757Y00122373D01*

G01X00025054Y00115000D02*
G01X00032427Y00122373D01*
G01X00051757Y00122373D01*

G01X00051757Y00122373D02*
G01X00056373Y00122373D01*
G01X00060000Y00126000D01*

G01X00108000Y00038196D02*
G01X00108004Y00038196D01*
G01X00119000Y00049192D01*
G01X00119000Y00066446D01*
G01X00120000Y00067446D01*

G01X-00146000Y-00024500D02*
G01X-00144500Y-00023000D01*
G01X-00144500Y00069196D01*
G01X-00133848Y00079848D01*

G01X-00133848Y00079848D02*
G01X-00123696Y00090000D01*
G01X-00114196Y00090000D01*

G01X00053000Y00054500D02*
G01X00053000Y00057006D01*
G01X00061296Y00065302D01*
G01X00061296Y00079500D01*
G01X00058296Y00082500D01*

G01X-00133848Y00079848D02*
G01X-00140566Y00086566D01*
G01X-00140566Y00128934D01*
G01X-00111000Y00158500D01*
G01X00110500Y00158500D01*
G01X00141500Y00127500D01*
G01X00141500Y00074500D01*
G01X00137258Y00070258D01*
G01X00122812Y00070258D01*
G01X00120000Y00067446D01*

G01X00120000Y00067446D02*
G01X00112946Y00074500D01*
G01X00077148Y00074500D01*
G01X00073148Y00078500D01*
G01X00062296Y00078500D01*
G01X00058296Y00082500D01*

G01X00028000Y-00060204D02*
G01X00022652Y-00054856D01*
G01X00013350Y-00054856D01*
G01X00009494Y-00051000D01*
G01X-00000500Y-00051000D01*

G01X-00003704Y-00071500D02*
G01X-00000500Y-00068296D01*
G01X-00000500Y-00051000D01*

G01X-00000500Y-00051000D02*
G01X-00000500Y-00021030D01*
G01X-00024500Y00002970D01*

G01X00024500Y-00017296D02*
G01X00020870Y-00017296D01*
G01X00015166Y-00023000D01*
G01X00001470Y-00023000D01*
G01X-00024500Y00002970D01*

G01X00024350Y00036952D02*
G01X00022618Y00036952D01*
G01X00015166Y00029500D01*
G01X00002030Y00029500D01*
G01X-00024500Y00002970D01*

G01X00091500Y00095642D02*
G01X00091500Y00103500D01*

G01X00120000Y00096554D02*
G01X00113054Y00103500D01*
G01X00091500Y00103500D01*

G01X00091500Y00103500D02*
G01X00076500Y00103500D01*
G01X00076500Y00117002D01*
G01X00085498Y00126000D01*
G01X00085500Y00126000D01*

G01X-00112500Y00057698D02*
G01X-00108802Y00054000D01*
G01X-00098000Y00054000D01*

G01X-00098000Y00054000D02*
G01X-00087500Y00054000D01*
G01X-00087000Y00054500D01*

G01X00120000Y00096554D02*
G01X00112254Y00104300D01*
G01X00112254Y00127246D01*
G01X00093000Y00146500D01*
G01X-00082500Y00146500D01*
G01X-00095968Y00133032D01*
G01X-00095968Y00078968D01*
G01X-00089250Y00072250D01*

G01X-00024500Y00002970D02*
G01X-00024970Y00002970D01*
G01X-00067500Y00045500D01*
G01X-00067500Y00070500D01*
G01X-00071742Y00074742D01*
G01X-00086758Y00074742D01*
G01X-00089250Y00072250D01*

G01X-00089250Y00072250D02*
G01X-00098000Y00063500D01*
G01X-00098000Y00054000D01*

G01X00053000Y-00085500D02*
G01X00053250Y-00085750D01*
G01X00109750Y-00085750D01*
G01X00110000Y-00086000D01*

G01X00053000Y-00065500D02*
G01X00053500Y-00065000D01*
G01X00084078Y-00065000D01*
G01X00088578Y-00060500D01*
G01X00110500Y-00060500D01*

G01X-00047300Y00065030D02*
G01X-00046244Y00066086D01*
G01X-00036900Y00066086D01*
G01X-00036386Y00066600D01*
G01X-00036386Y00073656D01*
G01X-00030542Y00079500D01*

G01X-00030542Y00079500D02*
G01X-00030698Y00079656D01*
G01X-00030698Y00106606D01*
G01X-00022304Y00115000D01*
G01X-00004054Y00115000D01*

G01X-00065500Y00126000D02*
G01X-00065500Y00100498D01*
G01X-00048196Y00083194D01*
G01X-00048196Y00065926D01*
G01X-00047300Y00065030D01*

G54D11*
G01X-00065500Y00126000D03*

G54D12*
G01X-00116496Y00126000D03*

G54D11*
G01X00085500Y00126000D03*

G54D12*
G01X00060000Y00126000D03*

G54D13*
G01X-00024500Y00002470D03*

G54D14*
G01X-00047300Y00065530D03*

G54D15*
G01X-00001700Y00065030D03*

G54D11*
G01X00110000Y-00086000D03*

G01X00110500Y-00060500D03*

G54D16*
G01X00111000Y-00035000D03*

G54D17*
G01X-00112500Y00070300D03*

G54D18*
G01X-00112500Y00054698D03*

G54D19*
G01X00120000Y00067446D03*

G54D20*
G01X00120000Y00099304D03*

G54D21*
G01X00024350Y00049554D03*

G54D18*
G01X00024350Y00033952D03*

G54D22*
G01X-00017940Y00079500D03*

G54D23*
G01X-00033542Y00079500D03*

G54D24*
G01X00025054Y00115000D03*

G54D25*
G01X-00006804Y00115000D03*

G54D26*
G01X-00053000Y-00085796D03*

G54D27*
G01X-00053000Y-00055202D03*

G54D28*
G01X-00000704Y-00071500D03*

G54D29*
G01X-00031298Y-00071500D03*

G54D27*
G01X00028000Y-00057204D03*

G54D26*
G01X00028000Y-00087798D03*

G01X00024500Y-00020296D03*

G54D27*
G01X00024500Y00010298D03*

G01X00092208Y00089296D03*

G54D26*
G01X00092208Y00058702D03*

G54D30*
G01X00058296Y00082500D03*

G54D29*
G01X00030702Y00082500D03*

G54D31*
G01X-00116000Y-00024500D03*

G54D32*
G01X-00146000Y-00024500D03*

G01X-00146000Y-00073500D03*

G54D31*
G01X-00116000Y-00073500D03*

G54D33*
G01X00108000Y00038196D03*

G54D31*
G01X00078000Y00038196D03*

G01X00078000Y-00010804D03*

G54D34*
G01X00108000Y-00010804D03*

G54D35*
G01X00053000Y-00085500D03*

G54D36*
G01X00053000Y00054500D03*

G01X00053000Y00034500D03*

G01X00053000Y00014500D03*

G01X00053000Y-00005500D03*

G01X00053000Y-00025500D03*

G01X00053000Y-00045500D03*

G01X00053000Y-00065500D03*

G54D35*
G01X-00087000Y-00085500D03*

G54D36*
G01X-00087000Y00054500D03*

G01X-00087000Y00034500D03*

G01X-00087000Y00014500D03*

G01X-00087000Y-00005500D03*

G01X-00087000Y-00025500D03*

G01X-00087000Y-00045500D03*

G01X-00087000Y-00065500D03*
G04 End Layers*
M02*