G04 Created by Delta Design Version 2.6.36104.0403*
G04 Date: 11.09.2020 14:45:25*
G04 Project: Programming the device ESP-07*
G04 File name: SILK_TOP*
G04 File format: RS274X*

G04 Parameters*
%FSAN2X44Y44D3M2*%
%MIA0B0*%
%MOMM*%
%IOA0B0*%
%SFA1B1*%
%IJ*%
%IR0*%
G04 End parameters*
G04 Aperture macros*

G04 End Aperture macros*
G04 Apertures*
%ADD10C,.200000*%
G04 End apertures*
G04 Layers*
%LNSILK_TOP*%
%SRX1Y1I0J0*%
G36*
G01X-00053242Y00144451D02*
G01X-00051955Y00146386D01*
G01X-00051866Y00146472D01*
G01X-00051813Y00146493D01*
G01X-00051752Y00146493D01*
G01X-00051659Y00146475D01*
G01X-00051570Y00146419D01*
G01X-00051512Y00146335D01*
G01X-00051492Y00146241D01*
G01X-00051503Y00146174D01*
G01X-00051535Y00146102D01*
G01X-00052939Y00143999D01*
G01X-00051535Y00141895D01*
G01X-00051503Y00141821D01*
G01X-00051492Y00141753D01*
G01X-00051511Y00141662D01*
G01X-00051569Y00141581D01*
G01X-00051654Y00141523D01*
G01X-00051756Y00141504D01*
G01X-00051864Y00141532D01*
G01X-00051955Y00141618D01*
G01X-00053242Y00143546D01*
G01X-00054528Y00141618D01*
G01X-00054567Y00141572D01*
G01X-00054625Y00141529D01*
G01X-00054735Y00141504D01*
G01X-00054818Y00141523D01*
G01X-00054910Y00141579D01*
G01X-00054971Y00141661D01*
G01X-00054992Y00141757D01*
G01X-00054981Y00141823D01*
G01X-00054949Y00141895D01*
G01X-00053545Y00143999D01*
G01X-00054956Y00146102D01*
G01X-00054992Y00146177D01*
G01X-00054992Y00146244D01*
G01X-00054972Y00146335D01*
G01X-00054915Y00146417D01*
G01X-00054830Y00146474D01*
G01X-00054728Y00146493D01*
G01X-00054619Y00146465D01*
G01X-00054528Y00146379D01*
G01X-00053242Y00144451D01*
G37*
G36*
G01X-00047503Y00144498D02*
G01X-00047503Y00145495D01*
G01X-00047522Y00145695D01*
G01X-00047576Y00145879D01*
G01X-00047667Y00146047D01*
G01X-00047794Y00146201D01*
G01X-00047947Y00146329D01*
G01X-00048116Y00146420D01*
G01X-00048301Y00146475D01*
G01X-00048501Y00146493D01*
G01X-00050248Y00146493D01*
G01X-00050357Y00146478D01*
G01X-00050435Y00146431D01*
G01X-00050481Y00146353D01*
G01X-00050497Y00146244D01*
G01X-00050497Y00141753D01*
G01X-00050478Y00141644D01*
G01X-00050422Y00141566D01*
G01X-00050341Y00141520D01*
G01X-00050248Y00141504D01*
G01X-00050148Y00141519D01*
G01X-00050069Y00141565D01*
G01X-00050016Y00141647D01*
G01X-00049998Y00141753D01*
G01X-00049998Y00143500D01*
G01X-00048501Y00143500D01*
G01X-00048302Y00143518D01*
G01X-00048118Y00143573D01*
G01X-00048002Y00143636D01*
G01X-00048002Y00144498D01*
G01X-00048012Y00144392D01*
G01X-00048039Y00144297D01*
G01X-00048085Y00144212D01*
G01X-00048149Y00144138D01*
G01X-00048225Y00144077D01*
G01X-00048310Y00144033D01*
G01X-00048402Y00144007D01*
G01X-00048501Y00143999D01*
G01X-00049998Y00143999D01*
G01X-00049998Y00145994D01*
G01X-00048501Y00145994D01*
G01X-00048397Y00145985D01*
G01X-00048303Y00145958D01*
G01X-00048218Y00145913D01*
G01X-00048143Y00145850D01*
G01X-00048082Y00145774D01*
G01X-00048038Y00145689D01*
G01X-00048011Y00145596D01*
G01X-00048002Y00145495D01*
G01X-00048002Y00144498D01*
G01X-00048002Y00143636D01*
G01X-00047949Y00143665D01*
G01X-00047796Y00143794D01*
G01X-00047668Y00143948D01*
G01X-00047577Y00144117D01*
G01X-00047522Y00144300D01*
G01X-00047503Y00144498D01*
G37*
G36*
G01X-00044011Y00142501D02*
G01X-00044011Y00143497D01*
G01X-00044030Y00143698D01*
G01X-00044085Y00143882D01*
G01X-00044178Y00144051D01*
G01X-00044307Y00144204D01*
G01X-00044462Y00144331D01*
G01X-00044631Y00144421D01*
G01X-00044813Y00144476D01*
G01X-00045009Y00144494D01*
G01X-00045911Y00144494D01*
G01X-00045854Y00144697D01*
G01X-00045779Y00144897D01*
G01X-00045692Y00145080D01*
G01X-00045588Y00145253D01*
G01X-00045468Y00145415D01*
G01X-00045330Y00145567D01*
G01X-00045171Y00145707D01*
G01X-00045016Y00145823D01*
G01X-00044844Y00145928D01*
G01X-00044664Y00146009D01*
G01X-00044589Y00146061D01*
G01X-00044542Y00146112D01*
G01X-00044518Y00146167D01*
G01X-00044510Y00146233D01*
G01X-00044526Y00146328D01*
G01X-00044574Y00146415D01*
G01X-00044657Y00146474D01*
G01X-00044749Y00146493D01*
G01X-00044856Y00146468D01*
G01X-00045086Y00146355D01*
G01X-00045302Y00146223D01*
G01X-00045503Y00146070D01*
G01X-00045690Y00145899D01*
G01X-00045859Y00145712D01*
G01X-00046006Y00145516D01*
G01X-00046132Y00145310D01*
G01X-00046235Y00145094D01*
G01X-00046354Y00144771D01*
G01X-00046438Y00144438D01*
G01X-00046489Y00144097D01*
G01X-00046506Y00143748D01*
G01X-00046506Y00142501D01*
G01X-00046487Y00142299D01*
G01X-00046432Y00142114D01*
G01X-00046339Y00141945D01*
G01X-00046208Y00141792D01*
G01X-00046053Y00141666D01*
G01X-00045885Y00141576D01*
G01X-00045703Y00141522D01*
G01X-00045508Y00141504D01*
G01X-00045009Y00141504D01*
G01X-00044810Y00141522D01*
G01X-00044626Y00141577D01*
G01X-00044510Y00141640D01*
G01X-00044510Y00142501D01*
G01X-00044519Y00142396D01*
G01X-00044547Y00142301D01*
G01X-00044593Y00142216D01*
G01X-00044656Y00142142D01*
G01X-00044733Y00142081D01*
G01X-00044818Y00142038D01*
G01X-00044910Y00142012D01*
G01X-00045009Y00142003D01*
G01X-00045508Y00142003D01*
G01X-00045602Y00142012D01*
G01X-00045704Y00142039D01*
G01X-00045865Y00142145D01*
G01X-00045927Y00142222D01*
G01X-00045972Y00142307D01*
G01X-00045998Y00142400D01*
G01X-00046007Y00142501D01*
G01X-00046007Y00143746D01*
G01X-00045996Y00143995D01*
G01X-00045009Y00143995D01*
G01X-00044905Y00143986D01*
G01X-00044811Y00143959D01*
G01X-00044726Y00143914D01*
G01X-00044651Y00143851D01*
G01X-00044590Y00143775D01*
G01X-00044546Y00143690D01*
G01X-00044519Y00143598D01*
G01X-00044510Y00143497D01*
G01X-00044510Y00142501D01*
G01X-00044510Y00141640D01*
G01X-00044457Y00141669D01*
G01X-00044304Y00141798D01*
G01X-00044176Y00141952D01*
G01X-00044084Y00142120D01*
G01X-00044030Y00142303D01*
G01X-00044011Y00142501D01*
G37*

G36*
G01X-00104238Y00144451D02*
G01X-00102951Y00146386D01*
G01X-00102862Y00146472D01*
G01X-00102809Y00146493D01*
G01X-00102748Y00146493D01*
G01X-00102655Y00146475D01*
G01X-00102566Y00146419D01*
G01X-00102508Y00146335D01*
G01X-00102488Y00146241D01*
G01X-00102499Y00146174D01*
G01X-00102531Y00146102D01*
G01X-00103935Y00143999D01*
G01X-00102531Y00141895D01*
G01X-00102499Y00141821D01*
G01X-00102488Y00141753D01*
G01X-00102507Y00141662D01*
G01X-00102565Y00141581D01*
G01X-00102650Y00141523D01*
G01X-00102752Y00141504D01*
G01X-00102860Y00141532D01*
G01X-00102951Y00141618D01*
G01X-00104238Y00143546D01*
G01X-00105524Y00141618D01*
G01X-00105563Y00141572D01*
G01X-00105621Y00141529D01*
G01X-00105731Y00141504D01*
G01X-00105814Y00141523D01*
G01X-00105906Y00141579D01*
G01X-00105967Y00141661D01*
G01X-00105988Y00141757D01*
G01X-00105977Y00141823D01*
G01X-00105945Y00141895D01*
G01X-00104541Y00143999D01*
G01X-00105952Y00146102D01*
G01X-00105988Y00146177D01*
G01X-00105988Y00146244D01*
G01X-00105968Y00146335D01*
G01X-00105911Y00146417D01*
G01X-00105826Y00146474D01*
G01X-00105724Y00146493D01*
G01X-00105615Y00146465D01*
G01X-00105524Y00146379D01*
G01X-00104238Y00144451D01*
G37*
G36*
G01X-00098499Y00144498D02*
G01X-00098499Y00145495D01*
G01X-00098518Y00145695D01*
G01X-00098572Y00145879D01*
G01X-00098663Y00146047D01*
G01X-00098790Y00146201D01*
G01X-00098943Y00146329D01*
G01X-00099112Y00146420D01*
G01X-00099297Y00146475D01*
G01X-00099497Y00146493D01*
G01X-00101244Y00146493D01*
G01X-00101353Y00146478D01*
G01X-00101431Y00146431D01*
G01X-00101477Y00146353D01*
G01X-00101493Y00146244D01*
G01X-00101493Y00141753D01*
G01X-00101474Y00141644D01*
G01X-00101418Y00141566D01*
G01X-00101337Y00141520D01*
G01X-00101244Y00141504D01*
G01X-00101144Y00141519D01*
G01X-00101065Y00141565D01*
G01X-00101012Y00141647D01*
G01X-00100994Y00141753D01*
G01X-00100994Y00143500D01*
G01X-00099497Y00143500D01*
G01X-00099298Y00143518D01*
G01X-00099114Y00143573D01*
G01X-00098998Y00143636D01*
G01X-00098998Y00144498D01*
G01X-00099008Y00144392D01*
G01X-00099035Y00144297D01*
G01X-00099081Y00144212D01*
G01X-00099145Y00144138D01*
G01X-00099221Y00144077D01*
G01X-00099306Y00144033D01*
G01X-00099398Y00144007D01*
G01X-00099497Y00143999D01*
G01X-00100994Y00143999D01*
G01X-00100994Y00145994D01*
G01X-00099497Y00145994D01*
G01X-00099393Y00145985D01*
G01X-00099299Y00145958D01*
G01X-00099214Y00145913D01*
G01X-00099139Y00145850D01*
G01X-00099078Y00145774D01*
G01X-00099034Y00145689D01*
G01X-00099007Y00145596D01*
G01X-00098998Y00145495D01*
G01X-00098998Y00144498D01*
G01X-00098998Y00143636D01*
G01X-00098945Y00143665D01*
G01X-00098792Y00143794D01*
G01X-00098664Y00143948D01*
G01X-00098573Y00144117D01*
G01X-00098518Y00144300D01*
G01X-00098499Y00144498D01*
G37*
G36*
G01X-00097003Y00145994D02*
G01X-00097003Y00145745D01*
G01X-00097021Y00145639D01*
G01X-00097074Y00145556D01*
G01X-00097153Y00145511D01*
G01X-00097253Y00145495D01*
G01X-00097346Y00145511D01*
G01X-00097427Y00145558D01*
G01X-00097483Y00145636D01*
G01X-00097502Y00145745D01*
G01X-00097502Y00146244D01*
G01X-00097486Y00146353D01*
G01X-00097440Y00146431D01*
G01X-00097362Y00146478D01*
G01X-00097253Y00146493D01*
G01X-00095257Y00146493D01*
G01X-00095146Y00146480D01*
G01X-00095067Y00146442D01*
G01X-00095020Y00146377D01*
G01X-00095004Y00146287D01*
G01X-00095018Y00146180D01*
G01X-00096265Y00141689D01*
G01X-00096291Y00141619D01*
G01X-00096347Y00141559D01*
G01X-00096421Y00141518D01*
G01X-00096501Y00141504D01*
G01X-00096601Y00141520D01*
G01X-00096682Y00141566D01*
G01X-00096736Y00141642D01*
G01X-00096754Y00141743D01*
G01X-00096751Y00141788D01*
G01X-00096743Y00141818D01*
G01X-00095585Y00145994D01*
G01X-00097003Y00145994D01*
G37*

G36*
G01X00097508Y00144451D02*
G01X00098795Y00146386D01*
G01X00098884Y00146472D01*
G01X00098937Y00146493D01*
G01X00098998Y00146493D01*
G01X00099091Y00146475D01*
G01X00099180Y00146419D01*
G01X00099238Y00146335D01*
G01X00099258Y00146241D01*
G01X00099247Y00146174D01*
G01X00099215Y00146102D01*
G01X00097811Y00143999D01*
G01X00099215Y00141895D01*
G01X00099247Y00141821D01*
G01X00099258Y00141753D01*
G01X00099239Y00141662D01*
G01X00099181Y00141581D01*
G01X00099096Y00141523D01*
G01X00098994Y00141504D01*
G01X00098886Y00141532D01*
G01X00098795Y00141618D01*
G01X00097508Y00143546D01*
G01X00096222Y00141618D01*
G01X00096183Y00141572D01*
G01X00096125Y00141529D01*
G01X00096015Y00141504D01*
G01X00095932Y00141523D01*
G01X00095840Y00141579D01*
G01X00095779Y00141661D01*
G01X00095758Y00141757D01*
G01X00095769Y00141823D01*
G01X00095801Y00141895D01*
G01X00097205Y00143999D01*
G01X00095794Y00146102D01*
G01X00095758Y00146177D01*
G01X00095758Y00146244D01*
G01X00095778Y00146335D01*
G01X00095835Y00146417D01*
G01X00095920Y00146474D01*
G01X00096022Y00146493D01*
G01X00096131Y00146465D01*
G01X00096222Y00146379D01*
G01X00097508Y00144451D01*
G37*
G36*
G01X00103247Y00144498D02*
G01X00103247Y00145495D01*
G01X00103228Y00145695D01*
G01X00103174Y00145879D01*
G01X00103083Y00146047D01*
G01X00102956Y00146201D01*
G01X00102803Y00146329D01*
G01X00102634Y00146420D01*
G01X00102449Y00146475D01*
G01X00102249Y00146493D01*
G01X00100502Y00146493D01*
G01X00100393Y00146478D01*
G01X00100315Y00146431D01*
G01X00100269Y00146353D01*
G01X00100253Y00146244D01*
G01X00100253Y00141753D01*
G01X00100272Y00141644D01*
G01X00100328Y00141566D01*
G01X00100409Y00141520D01*
G01X00100502Y00141504D01*
G01X00100602Y00141519D01*
G01X00100681Y00141565D01*
G01X00100734Y00141647D01*
G01X00100752Y00141753D01*
G01X00100752Y00143500D01*
G01X00102249Y00143500D01*
G01X00102448Y00143518D01*
G01X00102632Y00143573D01*
G01X00102748Y00143636D01*
G01X00102748Y00144498D01*
G01X00102738Y00144392D01*
G01X00102711Y00144297D01*
G01X00102665Y00144212D01*
G01X00102601Y00144138D01*
G01X00102525Y00144077D01*
G01X00102440Y00144033D01*
G01X00102348Y00144007D01*
G01X00102249Y00143999D01*
G01X00100752Y00143999D01*
G01X00100752Y00145994D01*
G01X00102249Y00145994D01*
G01X00102353Y00145985D01*
G01X00102447Y00145958D01*
G01X00102532Y00145913D01*
G01X00102607Y00145850D01*
G01X00102668Y00145774D01*
G01X00102712Y00145689D01*
G01X00102739Y00145596D01*
G01X00102748Y00145495D01*
G01X00102748Y00144498D01*
G01X00102748Y00143636D01*
G01X00102801Y00143665D01*
G01X00102954Y00143794D01*
G01X00103082Y00143948D01*
G01X00103173Y00144117D01*
G01X00103228Y00144300D01*
G01X00103247Y00144498D01*
G37*
G36*
G01X00106489Y00142997D02*
G01X00106988Y00142997D01*
G01X00107084Y00142978D01*
G01X00107164Y00142921D01*
G01X00107219Y00142839D01*
G01X00107238Y00142748D01*
G01X00107222Y00142663D01*
G01X00107175Y00142580D01*
G01X00107097Y00142519D01*
G01X00106988Y00142498D01*
G01X00106489Y00142498D01*
G01X00106489Y00141753D01*
G01X00106471Y00141647D01*
G01X00106418Y00141564D01*
G01X00106339Y00141519D01*
G01X00106240Y00141504D01*
G01X00106146Y00141520D01*
G01X00106065Y00141566D01*
G01X00106009Y00141644D01*
G01X00105990Y00141753D01*
G01X00105990Y00142498D01*
G01X00104493Y00142498D01*
G01X00104380Y00142511D01*
G01X00104298Y00142549D01*
G01X00104249Y00142613D01*
G01X00104233Y00142701D01*
G01X00104240Y00142762D01*
G01X00104255Y00142819D01*
G01X00105252Y00146311D01*
G01X00105285Y00146383D01*
G01X00105338Y00146447D01*
G01X00105384Y00146472D01*
G01X00105481Y00146493D01*
G01X00105581Y00146475D01*
G01X00105662Y00146422D01*
G01X00105721Y00146344D01*
G01X00105741Y00146247D01*
G01X00105730Y00146172D01*
G01X00104821Y00142997D01*
G01X00105990Y00142997D01*
G01X00105990Y00143746D01*
G01X00106009Y00143842D01*
G01X00106065Y00143931D01*
G01X00106146Y00143979D01*
G01X00106240Y00143995D01*
G01X00106331Y00143979D01*
G01X00106412Y00143933D01*
G01X00106470Y00143855D01*
G01X00106489Y00143746D01*
G01X00106489Y00142997D01*
G37*

G36*
G01X00072258Y00144451D02*
G01X00073545Y00146386D01*
G01X00073634Y00146472D01*
G01X00073687Y00146493D01*
G01X00073748Y00146493D01*
G01X00073841Y00146475D01*
G01X00073930Y00146419D01*
G01X00073988Y00146335D01*
G01X00074008Y00146241D01*
G01X00073997Y00146174D01*
G01X00073965Y00146102D01*
G01X00072561Y00143999D01*
G01X00073965Y00141895D01*
G01X00073997Y00141821D01*
G01X00074008Y00141753D01*
G01X00073989Y00141662D01*
G01X00073931Y00141581D01*
G01X00073846Y00141523D01*
G01X00073744Y00141504D01*
G01X00073636Y00141532D01*
G01X00073545Y00141618D01*
G01X00072258Y00143546D01*
G01X00070972Y00141618D01*
G01X00070933Y00141572D01*
G01X00070875Y00141529D01*
G01X00070765Y00141504D01*
G01X00070682Y00141523D01*
G01X00070590Y00141579D01*
G01X00070529Y00141661D01*
G01X00070508Y00141757D01*
G01X00070519Y00141823D01*
G01X00070551Y00141895D01*
G01X00071955Y00143999D01*
G01X00070544Y00146102D01*
G01X00070508Y00146177D01*
G01X00070508Y00146244D01*
G01X00070528Y00146335D01*
G01X00070585Y00146417D01*
G01X00070670Y00146474D01*
G01X00070772Y00146493D01*
G01X00070881Y00146465D01*
G01X00070972Y00146379D01*
G01X00072258Y00144451D01*
G37*
G36*
G01X00077997Y00144498D02*
G01X00077997Y00145495D01*
G01X00077978Y00145695D01*
G01X00077924Y00145879D01*
G01X00077833Y00146047D01*
G01X00077706Y00146201D01*
G01X00077553Y00146329D01*
G01X00077384Y00146420D01*
G01X00077199Y00146475D01*
G01X00076999Y00146493D01*
G01X00075252Y00146493D01*
G01X00075143Y00146478D01*
G01X00075065Y00146431D01*
G01X00075019Y00146353D01*
G01X00075003Y00146244D01*
G01X00075003Y00141753D01*
G01X00075022Y00141644D01*
G01X00075078Y00141566D01*
G01X00075159Y00141520D01*
G01X00075252Y00141504D01*
G01X00075352Y00141519D01*
G01X00075431Y00141565D01*
G01X00075484Y00141647D01*
G01X00075502Y00141753D01*
G01X00075502Y00143500D01*
G01X00076999Y00143500D01*
G01X00077198Y00143518D01*
G01X00077382Y00143573D01*
G01X00077498Y00143636D01*
G01X00077498Y00144498D01*
G01X00077488Y00144392D01*
G01X00077461Y00144297D01*
G01X00077415Y00144212D01*
G01X00077351Y00144138D01*
G01X00077275Y00144077D01*
G01X00077190Y00144033D01*
G01X00077098Y00144007D01*
G01X00076999Y00143999D01*
G01X00075502Y00143999D01*
G01X00075502Y00145994D01*
G01X00076999Y00145994D01*
G01X00077103Y00145985D01*
G01X00077197Y00145958D01*
G01X00077282Y00145913D01*
G01X00077357Y00145850D01*
G01X00077418Y00145774D01*
G01X00077462Y00145689D01*
G01X00077489Y00145596D01*
G01X00077498Y00145495D01*
G01X00077498Y00144498D01*
G01X00077498Y00143636D01*
G01X00077551Y00143665D01*
G01X00077704Y00143794D01*
G01X00077832Y00143948D01*
G01X00077923Y00144117D01*
G01X00077978Y00144300D01*
G01X00077997Y00144498D01*
G37*
G36*
G01X00079493Y00145994D02*
G01X00079493Y00144494D01*
G01X00080241Y00144494D01*
G01X00080487Y00144471D01*
G01X00080716Y00144403D01*
G01X00080927Y00144289D01*
G01X00081120Y00144129D01*
G01X00081281Y00143937D01*
G01X00081396Y00143727D01*
G01X00081466Y00143497D01*
G01X00081489Y00143248D01*
G01X00081489Y00142750D01*
G01X00081466Y00142504D01*
G01X00081397Y00142276D01*
G01X00081282Y00142065D01*
G01X00081122Y00141872D01*
G01X00080929Y00141711D01*
G01X00080718Y00141596D01*
G01X00080489Y00141527D01*
G01X00080241Y00141504D01*
G01X00079243Y00141504D01*
G01X00079140Y00141522D01*
G01X00079058Y00141575D01*
G01X00079010Y00141657D01*
G01X00078994Y00141753D01*
G01X00079010Y00141840D01*
G01X00079060Y00141923D01*
G01X00079139Y00141983D01*
G01X00079243Y00142003D01*
G01X00080241Y00142003D01*
G01X00080389Y00142016D01*
G01X00080526Y00142056D01*
G01X00080653Y00142123D01*
G01X00080769Y00142216D01*
G01X00080865Y00142330D01*
G01X00080934Y00142456D01*
G01X00080976Y00142597D01*
G01X00080990Y00142750D01*
G01X00080990Y00143248D01*
G01X00080976Y00143397D01*
G01X00080936Y00143535D01*
G01X00080868Y00143661D01*
G01X00080774Y00143776D01*
G01X00080660Y00143872D01*
G01X00080533Y00143940D01*
G01X00080393Y00143981D01*
G01X00080241Y00143995D01*
G01X00079243Y00143995D01*
G01X00079134Y00144011D01*
G01X00079056Y00144058D01*
G01X00079010Y00144136D01*
G01X00078994Y00144245D01*
G01X00078994Y00146244D01*
G01X00079010Y00146353D01*
G01X00079056Y00146431D01*
G01X00079134Y00146478D01*
G01X00079243Y00146493D01*
G01X00081239Y00146493D01*
G01X00081335Y00146474D01*
G01X00081416Y00146417D01*
G01X00081470Y00146335D01*
G01X00081489Y00146244D01*
G01X00081473Y00146159D01*
G01X00081426Y00146076D01*
G01X00081348Y00146015D01*
G01X00081239Y00145994D01*
G01X00079493Y00145994D01*
G37*

G36*
G01X00027994Y00029493D02*
G01X00027994Y00031240D01*
G01X00027979Y00031349D01*
G01X00027932Y00031427D01*
G01X00027854Y00031473D01*
G01X00027745Y00031489D01*
G01X00023254Y00031489D01*
G01X00023145Y00031473D01*
G01X00023067Y00031427D01*
G01X00023021Y00031349D01*
G01X00023005Y00031240D01*
G01X00023005Y00029493D01*
G01X00023023Y00029294D01*
G01X00023079Y00029110D01*
G01X00023170Y00028941D01*
G01X00023299Y00028788D01*
G01X00023453Y00028660D01*
G01X00023622Y00028569D01*
G01X00023805Y00028514D01*
G01X00024003Y00028495D01*
G01X00026996Y00028495D01*
G01X00027196Y00028514D01*
G01X00027380Y00028568D01*
G01X00027495Y00028630D01*
G01X00027495Y00029493D01*
G01X00027486Y00029389D01*
G01X00027459Y00029295D01*
G01X00027414Y00029210D01*
G01X00027351Y00029135D01*
G01X00027275Y00029074D01*
G01X00027190Y00029030D01*
G01X00027097Y00029003D01*
G01X00026996Y00028994D01*
G01X00024003Y00028994D01*
G01X00023898Y00029004D01*
G01X00023802Y00029031D01*
G01X00023718Y00029077D01*
G01X00023643Y00029141D01*
G01X00023582Y00029217D01*
G01X00023539Y00029302D01*
G01X00023513Y00029394D01*
G01X00023504Y00029493D01*
G01X00023504Y00030990D01*
G01X00027495Y00030990D01*
G01X00027495Y00029493D01*
G01X00027495Y00028630D01*
G01X00027548Y00028659D01*
G01X00027702Y00028786D01*
G01X00027830Y00028939D01*
G01X00027921Y00029108D01*
G01X00027976Y00029293D01*
G01X00027994Y00029493D01*
G37*
G36*
G01X00028044Y00025715D02*
G01X00028031Y00025790D01*
G01X00027991Y00025854D01*
G01X00027924Y00025908D01*
G01X00027830Y00025950D01*
G01X00023337Y00027451D01*
G01X00023248Y00027469D01*
G01X00023151Y00027448D01*
G01X00023076Y00027387D01*
G01X00023023Y00027306D01*
G01X00023005Y00027212D01*
G01X00023021Y00027135D01*
G01X00023048Y00027077D01*
G01X00023105Y00027021D01*
G01X00023177Y00026984D01*
G01X00024256Y00026624D01*
G01X00024256Y00024814D01*
G01X00023177Y00024454D01*
G01X00023079Y00024398D01*
G01X00023030Y00024338D01*
G01X00023005Y00024226D01*
G01X00023022Y00024134D01*
G01X00023073Y00024051D01*
G01X00023156Y00023989D01*
G01X00023248Y00023969D01*
G01X00023337Y00023987D01*
G01X00026964Y00025192D01*
G01X00026964Y00025715D01*
G01X00024766Y00024981D01*
G01X00024766Y00026453D01*
G01X00026964Y00025715D01*
G01X00026964Y00025192D01*
G01X00027830Y00025480D01*
G01X00027924Y00025523D01*
G01X00027991Y00025576D01*
G01X00028031Y00025640D01*
G01X00028044Y00025715D01*
G37*
G36*
G01X00023255Y00021510D02*
G01X00023148Y00021528D01*
G01X00023066Y00021582D01*
G01X00023020Y00021660D01*
G01X00023005Y00021760D01*
G01X00023021Y00021853D01*
G01X00023067Y00021934D01*
G01X00023145Y00021990D01*
G01X00023254Y00022009D01*
G01X00027146Y00022009D01*
G01X00026572Y00022583D01*
G01X00026516Y00022663D01*
G01X00026498Y00022754D01*
G01X00026516Y00022842D01*
G01X00026572Y00022929D01*
G01X00026656Y00022987D01*
G01X00026751Y00023007D01*
G01X00026836Y00022988D01*
G01X00026922Y00022932D01*
G01X00027920Y00021934D01*
G01X00028001Y00021831D01*
G01X00028023Y00021775D01*
G01X00028031Y00021713D01*
G01X00028012Y00021647D01*
G01X00027956Y00021571D01*
G01X00027864Y00021525D01*
G01X00027746Y00021510D01*
G01X00023255Y00021510D01*
G37*

G36*
G01X00122757Y-00067549D02*
G01X00124044Y-00065614D01*
G01X00124133Y-00065528D01*
G01X00124186Y-00065507D01*
G01X00124247Y-00065507D01*
G01X00124340Y-00065525D01*
G01X00124429Y-00065581D01*
G01X00124487Y-00065665D01*
G01X00124507Y-00065759D01*
G01X00124496Y-00065826D01*
G01X00124464Y-00065898D01*
G01X00123060Y-00068001D01*
G01X00124464Y-00070105D01*
G01X00124496Y-00070179D01*
G01X00124507Y-00070247D01*
G01X00124488Y-00070338D01*
G01X00124430Y-00070419D01*
G01X00124345Y-00070477D01*
G01X00124243Y-00070496D01*
G01X00124135Y-00070468D01*
G01X00124044Y-00070382D01*
G01X00122757Y-00068454D01*
G01X00121471Y-00070382D01*
G01X00121432Y-00070428D01*
G01X00121374Y-00070471D01*
G01X00121264Y-00070496D01*
G01X00121181Y-00070477D01*
G01X00121089Y-00070421D01*
G01X00121028Y-00070339D01*
G01X00121007Y-00070243D01*
G01X00121018Y-00070177D01*
G01X00121050Y-00070105D01*
G01X00122454Y-00068001D01*
G01X00121043Y-00065898D01*
G01X00121007Y-00065823D01*
G01X00121007Y-00065756D01*
G01X00121027Y-00065665D01*
G01X00121084Y-00065583D01*
G01X00121169Y-00065526D01*
G01X00121271Y-00065507D01*
G01X00121380Y-00065535D01*
G01X00121471Y-00065621D01*
G01X00122757Y-00067549D01*
G37*
G36*
G01X00128496Y-00067502D02*
G01X00128496Y-00066505D01*
G01X00128477Y-00066305D01*
G01X00128423Y-00066121D01*
G01X00128332Y-00065953D01*
G01X00128205Y-00065799D01*
G01X00128052Y-00065671D01*
G01X00127883Y-00065580D01*
G01X00127698Y-00065525D01*
G01X00127498Y-00065507D01*
G01X00125751Y-00065507D01*
G01X00125642Y-00065522D01*
G01X00125564Y-00065569D01*
G01X00125518Y-00065647D01*
G01X00125502Y-00065756D01*
G01X00125502Y-00070247D01*
G01X00125521Y-00070356D01*
G01X00125577Y-00070434D01*
G01X00125658Y-00070480D01*
G01X00125751Y-00070496D01*
G01X00125851Y-00070481D01*
G01X00125930Y-00070435D01*
G01X00125983Y-00070353D01*
G01X00126001Y-00070247D01*
G01X00126001Y-00068500D01*
G01X00127498Y-00068500D01*
G01X00127697Y-00068482D01*
G01X00127881Y-00068427D01*
G01X00127997Y-00068364D01*
G01X00127997Y-00067502D01*
G01X00127987Y-00067608D01*
G01X00127960Y-00067703D01*
G01X00127914Y-00067788D01*
G01X00127850Y-00067862D01*
G01X00127774Y-00067923D01*
G01X00127689Y-00067967D01*
G01X00127597Y-00067993D01*
G01X00127498Y-00068001D01*
G01X00126001Y-00068001D01*
G01X00126001Y-00066006D01*
G01X00127498Y-00066006D01*
G01X00127602Y-00066015D01*
G01X00127696Y-00066042D01*
G01X00127781Y-00066087D01*
G01X00127856Y-00066150D01*
G01X00127917Y-00066226D01*
G01X00127961Y-00066311D01*
G01X00127988Y-00066404D01*
G01X00127997Y-00066505D01*
G01X00127997Y-00067502D01*
G01X00127997Y-00068364D01*
G01X00128050Y-00068335D01*
G01X00128203Y-00068206D01*
G01X00128331Y-00068052D01*
G01X00128422Y-00067883D01*
G01X00128477Y-00067700D01*
G01X00128496Y-00067502D01*
G37*
G36*
G01X00130990Y-00070246D02*
G01X00130972Y-00070353D01*
G01X00130918Y-00070435D01*
G01X00130840Y-00070481D01*
G01X00130740Y-00070496D01*
G01X00130647Y-00070480D01*
G01X00130566Y-00070434D01*
G01X00130510Y-00070356D01*
G01X00130491Y-00070247D01*
G01X00130491Y-00066355D01*
G01X00129917Y-00066929D01*
G01X00129837Y-00066985D01*
G01X00129746Y-00067003D01*
G01X00129658Y-00066985D01*
G01X00129571Y-00066929D01*
G01X00129513Y-00066845D01*
G01X00129493Y-00066750D01*
G01X00129512Y-00066665D01*
G01X00129568Y-00066579D01*
G01X00130566Y-00065581D01*
G01X00130669Y-00065500D01*
G01X00130725Y-00065478D01*
G01X00130787Y-00065470D01*
G01X00130853Y-00065489D01*
G01X00130929Y-00065545D01*
G01X00130975Y-00065637D01*
G01X00130990Y-00065755D01*
G01X00130990Y-00070246D01*
G37*

G36*
G01X00122758Y-00042049D02*
G01X00124045Y-00040114D01*
G01X00124134Y-00040028D01*
G01X00124187Y-00040007D01*
G01X00124248Y-00040007D01*
G01X00124341Y-00040025D01*
G01X00124430Y-00040081D01*
G01X00124488Y-00040165D01*
G01X00124508Y-00040259D01*
G01X00124497Y-00040326D01*
G01X00124465Y-00040398D01*
G01X00123061Y-00042501D01*
G01X00124465Y-00044605D01*
G01X00124497Y-00044679D01*
G01X00124508Y-00044747D01*
G01X00124489Y-00044838D01*
G01X00124431Y-00044919D01*
G01X00124346Y-00044977D01*
G01X00124244Y-00044996D01*
G01X00124136Y-00044968D01*
G01X00124045Y-00044882D01*
G01X00122758Y-00042954D01*
G01X00121472Y-00044882D01*
G01X00121433Y-00044928D01*
G01X00121375Y-00044971D01*
G01X00121265Y-00044996D01*
G01X00121182Y-00044977D01*
G01X00121090Y-00044921D01*
G01X00121029Y-00044839D01*
G01X00121008Y-00044743D01*
G01X00121019Y-00044677D01*
G01X00121051Y-00044605D01*
G01X00122455Y-00042501D01*
G01X00121044Y-00040398D01*
G01X00121008Y-00040323D01*
G01X00121008Y-00040256D01*
G01X00121028Y-00040165D01*
G01X00121085Y-00040083D01*
G01X00121170Y-00040026D01*
G01X00121272Y-00040007D01*
G01X00121381Y-00040035D01*
G01X00121472Y-00040121D01*
G01X00122758Y-00042049D01*
G37*
G36*
G01X00128497Y-00042002D02*
G01X00128497Y-00041005D01*
G01X00128478Y-00040805D01*
G01X00128424Y-00040621D01*
G01X00128333Y-00040453D01*
G01X00128206Y-00040299D01*
G01X00128053Y-00040171D01*
G01X00127884Y-00040080D01*
G01X00127699Y-00040025D01*
G01X00127499Y-00040007D01*
G01X00125752Y-00040007D01*
G01X00125643Y-00040022D01*
G01X00125565Y-00040069D01*
G01X00125519Y-00040147D01*
G01X00125503Y-00040256D01*
G01X00125503Y-00044747D01*
G01X00125522Y-00044856D01*
G01X00125578Y-00044934D01*
G01X00125659Y-00044980D01*
G01X00125752Y-00044996D01*
G01X00125852Y-00044981D01*
G01X00125931Y-00044935D01*
G01X00125984Y-00044853D01*
G01X00126002Y-00044747D01*
G01X00126002Y-00043000D01*
G01X00127499Y-00043000D01*
G01X00127698Y-00042982D01*
G01X00127882Y-00042927D01*
G01X00127998Y-00042864D01*
G01X00127998Y-00042002D01*
G01X00127988Y-00042108D01*
G01X00127961Y-00042203D01*
G01X00127915Y-00042288D01*
G01X00127851Y-00042362D01*
G01X00127775Y-00042423D01*
G01X00127690Y-00042467D01*
G01X00127598Y-00042493D01*
G01X00127499Y-00042501D01*
G01X00126002Y-00042501D01*
G01X00126002Y-00040506D01*
G01X00127499Y-00040506D01*
G01X00127603Y-00040515D01*
G01X00127697Y-00040542D01*
G01X00127782Y-00040587D01*
G01X00127857Y-00040650D01*
G01X00127918Y-00040726D01*
G01X00127962Y-00040811D01*
G01X00127989Y-00040904D01*
G01X00127998Y-00041005D01*
G01X00127998Y-00042002D01*
G01X00127998Y-00042864D01*
G01X00128051Y-00042835D01*
G01X00128204Y-00042706D01*
G01X00128332Y-00042552D01*
G01X00128423Y-00042383D01*
G01X00128478Y-00042200D01*
G01X00128497Y-00042002D01*
G37*
G36*
G01X00131803Y-00041928D02*
G01X00130192Y-00044497D01*
G01X00131739Y-00044497D01*
G01X00131835Y-00044516D01*
G01X00131916Y-00044574D01*
G01X00131970Y-00044655D01*
G01X00131989Y-00044747D01*
G01X00131973Y-00044831D01*
G01X00131926Y-00044914D01*
G01X00131848Y-00044976D01*
G01X00131739Y-00044996D01*
G01X00129743Y-00044996D01*
G01X00129625Y-00044984D01*
G01X00129540Y-00044946D01*
G01X00129489Y-00044884D01*
G01X00129473Y-00044796D01*
G01X00129488Y-00044711D01*
G01X00129533Y-00044611D01*
G01X00131372Y-00041675D01*
G01X00131442Y-00041483D01*
G01X00131465Y-00041300D01*
G01X00131449Y-00041145D01*
G01X00131402Y-00041001D01*
G01X00131325Y-00040867D01*
G01X00131216Y-00040744D01*
G01X00131089Y-00040646D01*
G01X00130942Y-00040570D01*
G01X00130779Y-00040522D01*
G01X00130604Y-00040506D01*
G01X00130419Y-00040531D01*
G01X00130241Y-00040605D01*
G01X00130082Y-00040732D01*
G01X00129953Y-00040891D01*
G01X00129915Y-00040936D01*
G01X00129857Y-00040980D01*
G01X00129747Y-00041005D01*
G01X00129654Y-00040987D01*
G01X00129570Y-00040935D01*
G01X00129510Y-00040857D01*
G01X00129490Y-00040762D01*
G01X00129501Y-00040702D01*
G01X00129533Y-00040620D01*
G01X00129626Y-00040492D01*
G01X00129734Y-00040376D01*
G01X00129858Y-00040273D01*
G01X00129996Y-00040181D01*
G01X00130140Y-00040108D01*
G01X00130285Y-00040053D01*
G01X00130429Y-00040018D01*
G01X00130570Y-00040007D01*
G01X00130851Y-00040031D01*
G01X00131110Y-00040103D01*
G01X00131346Y-00040224D01*
G01X00131559Y-00040393D01*
G01X00131736Y-00040596D01*
G01X00131863Y-00040817D01*
G01X00131938Y-00041057D01*
G01X00131964Y-00041315D01*
G01X00131954Y-00041468D01*
G01X00131924Y-00041621D01*
G01X00131873Y-00041774D01*
G01X00131803Y-00041928D01*
G37*

G36*
G01X00123258Y-00016549D02*
G01X00124545Y-00014614D01*
G01X00124634Y-00014528D01*
G01X00124687Y-00014507D01*
G01X00124748Y-00014507D01*
G01X00124841Y-00014525D01*
G01X00124930Y-00014581D01*
G01X00124988Y-00014665D01*
G01X00125008Y-00014759D01*
G01X00124997Y-00014826D01*
G01X00124965Y-00014898D01*
G01X00123561Y-00017001D01*
G01X00124965Y-00019105D01*
G01X00124997Y-00019179D01*
G01X00125008Y-00019247D01*
G01X00124989Y-00019338D01*
G01X00124931Y-00019419D01*
G01X00124846Y-00019477D01*
G01X00124744Y-00019496D01*
G01X00124636Y-00019468D01*
G01X00124545Y-00019382D01*
G01X00123258Y-00017454D01*
G01X00121972Y-00019382D01*
G01X00121933Y-00019428D01*
G01X00121875Y-00019471D01*
G01X00121765Y-00019496D01*
G01X00121682Y-00019477D01*
G01X00121590Y-00019421D01*
G01X00121529Y-00019339D01*
G01X00121508Y-00019243D01*
G01X00121519Y-00019177D01*
G01X00121551Y-00019105D01*
G01X00122955Y-00017001D01*
G01X00121544Y-00014898D01*
G01X00121508Y-00014823D01*
G01X00121508Y-00014756D01*
G01X00121528Y-00014665D01*
G01X00121585Y-00014583D01*
G01X00121670Y-00014526D01*
G01X00121772Y-00014507D01*
G01X00121881Y-00014535D01*
G01X00121972Y-00014621D01*
G01X00123258Y-00016549D01*
G37*
G36*
G01X00128997Y-00016502D02*
G01X00128997Y-00015505D01*
G01X00128978Y-00015305D01*
G01X00128924Y-00015121D01*
G01X00128833Y-00014953D01*
G01X00128706Y-00014799D01*
G01X00128553Y-00014671D01*
G01X00128384Y-00014580D01*
G01X00128199Y-00014525D01*
G01X00127999Y-00014507D01*
G01X00126252Y-00014507D01*
G01X00126143Y-00014522D01*
G01X00126065Y-00014569D01*
G01X00126019Y-00014647D01*
G01X00126003Y-00014756D01*
G01X00126003Y-00019247D01*
G01X00126022Y-00019356D01*
G01X00126078Y-00019434D01*
G01X00126159Y-00019480D01*
G01X00126252Y-00019496D01*
G01X00126352Y-00019481D01*
G01X00126431Y-00019435D01*
G01X00126484Y-00019353D01*
G01X00126502Y-00019247D01*
G01X00126502Y-00017500D01*
G01X00127999Y-00017500D01*
G01X00128198Y-00017482D01*
G01X00128382Y-00017427D01*
G01X00128498Y-00017364D01*
G01X00128498Y-00016502D01*
G01X00128488Y-00016608D01*
G01X00128461Y-00016703D01*
G01X00128415Y-00016788D01*
G01X00128351Y-00016862D01*
G01X00128275Y-00016923D01*
G01X00128190Y-00016967D01*
G01X00128098Y-00016993D01*
G01X00127999Y-00017001D01*
G01X00126502Y-00017001D01*
G01X00126502Y-00015006D01*
G01X00127999Y-00015006D01*
G01X00128103Y-00015015D01*
G01X00128197Y-00015042D01*
G01X00128282Y-00015087D01*
G01X00128357Y-00015150D01*
G01X00128418Y-00015226D01*
G01X00128462Y-00015311D01*
G01X00128489Y-00015404D01*
G01X00128498Y-00015505D01*
G01X00128498Y-00016502D01*
G01X00128498Y-00017364D01*
G01X00128551Y-00017335D01*
G01X00128704Y-00017206D01*
G01X00128832Y-00017052D01*
G01X00128923Y-00016883D01*
G01X00128978Y-00016700D01*
G01X00128997Y-00016502D01*
G37*
G36*
G01X00131216Y-00015013D02*
G01X00130218Y-00015013D01*
G01X00130115Y-00014995D01*
G01X00130033Y-00014941D01*
G01X00129985Y-00014860D01*
G01X00129969Y-00014763D01*
G01X00129985Y-00014676D01*
G01X00130035Y-00014594D01*
G01X00130114Y-00014534D01*
G01X00130218Y-00014514D01*
G01X00131216Y-00014514D01*
G01X00131494Y-00014538D01*
G01X00131742Y-00014609D01*
G01X00131961Y-00014728D01*
G01X00132150Y-00014895D01*
G01X00132287Y-00015082D01*
G01X00132385Y-00015288D01*
G01X00132444Y-00015512D01*
G01X00132464Y-00015754D01*
G01X00132434Y-00016044D01*
G01X00132344Y-00016310D01*
G01X00132277Y-00016433D01*
G01X00132193Y-00016551D01*
G01X00132094Y-00016661D01*
G01X00131979Y-00016766D01*
G01X00132169Y-00016954D01*
G01X00132325Y-00017191D01*
G01X00132385Y-00017325D01*
G01X00132429Y-00017462D01*
G01X00132455Y-00017605D01*
G01X00132464Y-00017752D01*
G01X00132464Y-00018250D01*
G01X00132441Y-00018496D01*
G01X00132372Y-00018724D01*
G01X00132257Y-00018935D01*
G01X00132097Y-00019128D01*
G01X00131904Y-00019289D01*
G01X00131693Y-00019404D01*
G01X00131464Y-00019473D01*
G01X00131216Y-00019496D01*
G01X00130218Y-00019496D01*
G01X00130115Y-00019479D01*
G01X00130033Y-00019428D01*
G01X00129985Y-00019342D01*
G01X00129969Y-00019247D01*
G01X00129985Y-00019162D01*
G01X00130031Y-00019079D01*
G01X00130109Y-00019018D01*
G01X00130218Y-00018997D01*
G01X00131216Y-00018997D01*
G01X00131366Y-00018983D01*
G01X00131504Y-00018942D01*
G01X00131630Y-00018874D01*
G01X00131746Y-00018778D01*
G01X00131841Y-00018663D01*
G01X00131910Y-00018537D01*
G01X00131951Y-00018399D01*
G01X00131965Y-00018250D01*
G01X00131965Y-00017752D01*
G01X00131951Y-00017604D01*
G01X00131911Y-00017467D01*
G01X00131843Y-00017341D01*
G01X00131749Y-00017225D01*
G01X00131635Y-00017129D01*
G01X00131508Y-00017060D01*
G01X00131369Y-00017019D01*
G01X00131216Y-00017005D01*
G01X00130717Y-00017005D01*
G01X00130614Y-00016988D01*
G01X00130532Y-00016937D01*
G01X00130484Y-00016851D01*
G01X00130468Y-00016755D01*
G01X00130484Y-00016671D01*
G01X00130530Y-00016588D01*
G01X00130608Y-00016526D01*
G01X00130717Y-00016506D01*
G01X00131216Y-00016506D01*
G01X00131375Y-00016491D01*
G01X00131518Y-00016446D01*
G01X00131647Y-00016372D01*
G01X00131762Y-00016267D01*
G01X00131841Y-00016154D01*
G01X00131898Y-00016029D01*
G01X00131932Y-00015892D01*
G01X00131943Y-00015743D01*
G01X00131932Y-00015598D01*
G01X00131900Y-00015466D01*
G01X00131845Y-00015347D01*
G01X00131769Y-00015241D01*
G01X00131659Y-00015141D01*
G01X00131531Y-00015070D01*
G01X00131383Y-00015027D01*
G01X00131216Y-00015013D01*
G37*

G36*
G01X-00110004Y00063252D02*
G01X-00110004Y00062005D01*
G01X-00110022Y00061809D01*
G01X-00110077Y00061626D01*
G01X-00110167Y00061458D01*
G01X-00110294Y00061303D01*
G01X-00110448Y00061173D01*
G01X-00110617Y00061081D01*
G01X-00110801Y00061025D01*
G01X-00111002Y00061007D01*
G01X-00113995Y00061007D01*
G01X-00114196Y00061025D01*
G01X-00114381Y00061080D01*
G01X-00114550Y00061170D01*
G01X-00114703Y00061297D01*
G01X-00114830Y00061451D01*
G01X-00114921Y00061619D01*
G01X-00114975Y00061804D01*
G01X-00114993Y00062005D01*
G01X-00114993Y00063252D01*
G01X-00114974Y00063348D01*
G01X-00114917Y00063429D01*
G01X-00114835Y00063483D01*
G01X-00114744Y00063502D01*
G01X-00114659Y00063486D01*
G01X-00114576Y00063439D01*
G01X-00114515Y00063361D01*
G01X-00114494Y00063252D01*
G01X-00114494Y00062005D01*
G01X-00114485Y00061904D01*
G01X-00114459Y00061811D01*
G01X-00114414Y00061725D01*
G01X-00114352Y00061648D01*
G01X-00114276Y00061586D01*
G01X-00114190Y00061541D01*
G01X-00114096Y00061515D01*
G01X-00113995Y00061506D01*
G01X-00111002Y00061506D01*
G01X-00110901Y00061515D01*
G01X-00110808Y00061541D01*
G01X-00110723Y00061586D01*
G01X-00110645Y00061648D01*
G01X-00110539Y00061809D01*
G01X-00110512Y00061911D01*
G01X-00110503Y00062005D01*
G01X-00110503Y00063252D01*
G01X-00110484Y00063348D01*
G01X-00110426Y00063429D01*
G01X-00110345Y00063483D01*
G01X-00110253Y00063502D01*
G01X-00110169Y00063486D01*
G01X-00110086Y00063439D01*
G01X-00110024Y00063361D01*
G01X-00110004Y00063252D01*
G37*
G36*
G01X-00113072Y00066809D02*
G01X-00110503Y00065198D01*
G01X-00110503Y00066745D01*
G01X-00110484Y00066841D01*
G01X-00110426Y00066922D01*
G01X-00110345Y00066976D01*
G01X-00110253Y00066995D01*
G01X-00110169Y00066979D01*
G01X-00110086Y00066932D01*
G01X-00110024Y00066854D01*
G01X-00110004Y00066745D01*
G01X-00110004Y00064749D01*
G01X-00110016Y00064631D01*
G01X-00110054Y00064546D01*
G01X-00110116Y00064495D01*
G01X-00110204Y00064479D01*
G01X-00110289Y00064494D01*
G01X-00110389Y00064539D01*
G01X-00113325Y00066378D01*
G01X-00113517Y00066448D01*
G01X-00113700Y00066471D01*
G01X-00113855Y00066455D01*
G01X-00113999Y00066408D01*
G01X-00114133Y00066331D01*
G01X-00114256Y00066222D01*
G01X-00114354Y00066095D01*
G01X-00114430Y00065948D01*
G01X-00114478Y00065785D01*
G01X-00114494Y00065610D01*
G01X-00114469Y00065425D01*
G01X-00114395Y00065247D01*
G01X-00114268Y00065088D01*
G01X-00114109Y00064959D01*
G01X-00114064Y00064921D01*
G01X-00114020Y00064863D01*
G01X-00113995Y00064753D01*
G01X-00114013Y00064660D01*
G01X-00114065Y00064576D01*
G01X-00114143Y00064516D01*
G01X-00114238Y00064496D01*
G01X-00114298Y00064507D01*
G01X-00114380Y00064539D01*
G01X-00114508Y00064632D01*
G01X-00114624Y00064740D01*
G01X-00114727Y00064864D01*
G01X-00114819Y00065002D01*
G01X-00114892Y00065146D01*
G01X-00114947Y00065291D01*
G01X-00114982Y00065435D01*
G01X-00114993Y00065576D01*
G01X-00114969Y00065857D01*
G01X-00114897Y00066116D01*
G01X-00114776Y00066352D01*
G01X-00114607Y00066565D01*
G01X-00114404Y00066742D01*
G01X-00114183Y00066869D01*
G01X-00113943Y00066944D01*
G01X-00113685Y00066970D01*
G01X-00113532Y00066960D01*
G01X-00113379Y00066930D01*
G01X-00113226Y00066879D01*
G01X-00113072Y00066809D01*
G37*

G36*
G01X00026845Y00042256D02*
G01X00026845Y00041009D01*
G01X00026827Y00040813D01*
G01X00026772Y00040630D01*
G01X00026682Y00040462D01*
G01X00026555Y00040307D01*
G01X00026401Y00040177D01*
G01X00026232Y00040085D01*
G01X00026048Y00040029D01*
G01X00025847Y00040011D01*
G01X00022854Y00040011D01*
G01X00022653Y00040029D01*
G01X00022468Y00040084D01*
G01X00022299Y00040174D01*
G01X00022146Y00040301D01*
G01X00022019Y00040455D01*
G01X00021928Y00040623D01*
G01X00021874Y00040808D01*
G01X00021856Y00041009D01*
G01X00021856Y00042256D01*
G01X00021875Y00042352D01*
G01X00021932Y00042433D01*
G01X00022014Y00042487D01*
G01X00022105Y00042506D01*
G01X00022190Y00042490D01*
G01X00022273Y00042443D01*
G01X00022334Y00042365D01*
G01X00022355Y00042256D01*
G01X00022355Y00041009D01*
G01X00022364Y00040908D01*
G01X00022390Y00040815D01*
G01X00022435Y00040729D01*
G01X00022497Y00040652D01*
G01X00022573Y00040590D01*
G01X00022659Y00040545D01*
G01X00022753Y00040519D01*
G01X00022854Y00040510D01*
G01X00025847Y00040510D01*
G01X00025948Y00040519D01*
G01X00026041Y00040545D01*
G01X00026126Y00040590D01*
G01X00026204Y00040652D01*
G01X00026310Y00040813D01*
G01X00026337Y00040915D01*
G01X00026346Y00041009D01*
G01X00026346Y00042256D01*
G01X00026365Y00042352D01*
G01X00026423Y00042433D01*
G01X00026504Y00042487D01*
G01X00026596Y00042506D01*
G01X00026680Y00042490D01*
G01X00026763Y00042443D01*
G01X00026825Y00042365D01*
G01X00026845Y00042256D01*
G37*
G36*
G01X00025352Y00045749D02*
G01X00025352Y00046248D01*
G01X00025371Y00046344D01*
G01X00025428Y00046424D01*
G01X00025510Y00046479D01*
G01X00025601Y00046498D01*
G01X00025686Y00046482D01*
G01X00025769Y00046435D01*
G01X00025830Y00046357D01*
G01X00025851Y00046248D01*
G01X00025851Y00045749D01*
G01X00026596Y00045749D01*
G01X00026702Y00045731D01*
G01X00026785Y00045678D01*
G01X00026830Y00045599D01*
G01X00026845Y00045500D01*
G01X00026829Y00045406D01*
G01X00026783Y00045325D01*
G01X00026705Y00045269D01*
G01X00026596Y00045250D01*
G01X00025851Y00045250D01*
G01X00025851Y00043753D01*
G01X00025838Y00043640D01*
G01X00025800Y00043558D01*
G01X00025736Y00043509D01*
G01X00025648Y00043493D01*
G01X00025587Y00043500D01*
G01X00025530Y00043515D01*
G01X00022038Y00044512D01*
G01X00021966Y00044545D01*
G01X00021902Y00044598D01*
G01X00021877Y00044644D01*
G01X00021856Y00044741D01*
G01X00021874Y00044841D01*
G01X00021927Y00044922D01*
G01X00022005Y00044981D01*
G01X00022102Y00045001D01*
G01X00022177Y00044990D01*
G01X00025352Y00044081D01*
G01X00025352Y00045250D01*
G01X00024603Y00045250D01*
G01X00024507Y00045269D01*
G01X00024418Y00045325D01*
G01X00024370Y00045406D01*
G01X00024354Y00045500D01*
G01X00024370Y00045591D01*
G01X00024416Y00045672D01*
G01X00024494Y00045730D01*
G01X00024603Y00045749D01*
G01X00025352Y00045749D01*
G37*

G36*
G01X-00024988Y00077004D02*
G01X-00026235Y00077004D01*
G01X-00026431Y00077022D01*
G01X-00026614Y00077077D01*
G01X-00026782Y00077167D01*
G01X-00026937Y00077294D01*
G01X-00027067Y00077448D01*
G01X-00027159Y00077617D01*
G01X-00027215Y00077801D01*
G01X-00027233Y00078002D01*
G01X-00027233Y00080995D01*
G01X-00027215Y00081196D01*
G01X-00027160Y00081381D01*
G01X-00027070Y00081550D01*
G01X-00026943Y00081703D01*
G01X-00026789Y00081830D01*
G01X-00026621Y00081921D01*
G01X-00026436Y00081975D01*
G01X-00026235Y00081993D01*
G01X-00024988Y00081993D01*
G01X-00024892Y00081974D01*
G01X-00024811Y00081917D01*
G01X-00024757Y00081835D01*
G01X-00024738Y00081744D01*
G01X-00024754Y00081659D01*
G01X-00024801Y00081576D01*
G01X-00024879Y00081515D01*
G01X-00024988Y00081494D01*
G01X-00026235Y00081494D01*
G01X-00026336Y00081485D01*
G01X-00026429Y00081459D01*
G01X-00026515Y00081414D01*
G01X-00026592Y00081352D01*
G01X-00026654Y00081276D01*
G01X-00026699Y00081190D01*
G01X-00026725Y00081096D01*
G01X-00026734Y00080995D01*
G01X-00026734Y00078002D01*
G01X-00026725Y00077901D01*
G01X-00026699Y00077808D01*
G01X-00026654Y00077723D01*
G01X-00026592Y00077645D01*
G01X-00026431Y00077539D01*
G01X-00026329Y00077512D01*
G01X-00026235Y00077503D01*
G01X-00024988Y00077503D01*
G01X-00024892Y00077484D01*
G01X-00024811Y00077426D01*
G01X-00024757Y00077345D01*
G01X-00024738Y00077253D01*
G01X-00024754Y00077169D01*
G01X-00024801Y00077086D01*
G01X-00024879Y00077024D01*
G01X-00024988Y00077004D01*
G37*
G36*
G01X-00023241Y00081494D02*
G01X-00023241Y00079994D01*
G01X-00022493Y00079994D01*
G01X-00022247Y00079971D01*
G01X-00022018Y00079903D01*
G01X-00021807Y00079789D01*
G01X-00021614Y00079629D01*
G01X-00021453Y00079437D01*
G01X-00021338Y00079227D01*
G01X-00021268Y00078997D01*
G01X-00021245Y00078748D01*
G01X-00021245Y00078250D01*
G01X-00021268Y00078004D01*
G01X-00021337Y00077776D01*
G01X-00021452Y00077565D01*
G01X-00021612Y00077372D01*
G01X-00021805Y00077211D01*
G01X-00022016Y00077096D01*
G01X-00022245Y00077027D01*
G01X-00022493Y00077004D01*
G01X-00023491Y00077004D01*
G01X-00023594Y00077022D01*
G01X-00023676Y00077075D01*
G01X-00023724Y00077157D01*
G01X-00023740Y00077253D01*
G01X-00023724Y00077340D01*
G01X-00023674Y00077423D01*
G01X-00023595Y00077483D01*
G01X-00023491Y00077503D01*
G01X-00022493Y00077503D01*
G01X-00022345Y00077516D01*
G01X-00022208Y00077556D01*
G01X-00022081Y00077623D01*
G01X-00021965Y00077716D01*
G01X-00021869Y00077830D01*
G01X-00021800Y00077956D01*
G01X-00021758Y00078097D01*
G01X-00021744Y00078250D01*
G01X-00021744Y00078748D01*
G01X-00021758Y00078897D01*
G01X-00021798Y00079035D01*
G01X-00021866Y00079161D01*
G01X-00021960Y00079276D01*
G01X-00022074Y00079372D01*
G01X-00022201Y00079440D01*
G01X-00022341Y00079481D01*
G01X-00022493Y00079495D01*
G01X-00023491Y00079495D01*
G01X-00023600Y00079511D01*
G01X-00023678Y00079558D01*
G01X-00023724Y00079636D01*
G01X-00023740Y00079745D01*
G01X-00023740Y00081744D01*
G01X-00023724Y00081853D01*
G01X-00023678Y00081931D01*
G01X-00023600Y00081978D01*
G01X-00023491Y00081993D01*
G01X-00021495Y00081993D01*
G01X-00021399Y00081974D01*
G01X-00021318Y00081917D01*
G01X-00021264Y00081835D01*
G01X-00021245Y00081744D01*
G01X-00021261Y00081659D01*
G01X-00021308Y00081576D01*
G01X-00021386Y00081515D01*
G01X-00021495Y00081494D01*
G01X-00023241Y00081494D01*
G37*

G36*
G01X-00050506Y-00069752D02*
G01X-00050506Y-00068005D01*
G01X-00050521Y-00067896D01*
G01X-00050568Y-00067818D01*
G01X-00050646Y-00067772D01*
G01X-00050755Y-00067756D01*
G01X-00055246Y-00067756D01*
G01X-00055355Y-00067775D01*
G01X-00055433Y-00067831D01*
G01X-00055479Y-00067912D01*
G01X-00055495Y-00068005D01*
G01X-00055480Y-00068105D01*
G01X-00055434Y-00068184D01*
G01X-00055352Y-00068237D01*
G01X-00055246Y-00068255D01*
G01X-00053499Y-00068255D01*
G01X-00053499Y-00069114D01*
G01X-00055381Y-00070290D01*
G01X-00055440Y-00070339D01*
G01X-00055474Y-00070386D01*
G01X-00055495Y-00070489D01*
G01X-00055477Y-00070585D01*
G01X-00055424Y-00070671D01*
G01X-00055341Y-00070730D01*
G01X-00055249Y-00070750D01*
G01X-00055167Y-00070728D01*
G01X-00055110Y-00070710D01*
G01X-00053499Y-00069702D01*
G01X-00053499Y-00069752D01*
G01X-00053481Y-00069951D01*
G01X-00053426Y-00070135D01*
G01X-00053334Y-00070304D01*
G01X-00053205Y-00070457D01*
G01X-00053051Y-00070585D01*
G01X-00052882Y-00070676D01*
G01X-00052699Y-00070731D01*
G01X-00052501Y-00070750D01*
G01X-00051504Y-00070750D01*
G01X-00051304Y-00070731D01*
G01X-00051120Y-00070677D01*
G01X-00051005Y-00070615D01*
G01X-00051005Y-00069752D01*
G01X-00051014Y-00069856D01*
G01X-00051041Y-00069950D01*
G01X-00051086Y-00070035D01*
G01X-00051149Y-00070110D01*
G01X-00051225Y-00070171D01*
G01X-00051310Y-00070215D01*
G01X-00051403Y-00070242D01*
G01X-00051504Y-00070251D01*
G01X-00052501Y-00070251D01*
G01X-00052607Y-00070241D01*
G01X-00052702Y-00070214D01*
G01X-00052787Y-00070168D01*
G01X-00052861Y-00070104D01*
G01X-00052922Y-00070028D01*
G01X-00052966Y-00069943D01*
G01X-00052992Y-00069851D01*
G01X-00053000Y-00069752D01*
G01X-00053000Y-00068255D01*
G01X-00051005Y-00068255D01*
G01X-00051005Y-00069752D01*
G01X-00051005Y-00070615D01*
G01X-00050952Y-00070586D01*
G01X-00050798Y-00070459D01*
G01X-00050670Y-00070306D01*
G01X-00050579Y-00070137D01*
G01X-00050524Y-00069952D01*
G01X-00050506Y-00069752D01*
G37*
G36*
G01X-00055245Y-00073245D02*
G01X-00055352Y-00073227D01*
G01X-00055434Y-00073173D01*
G01X-00055480Y-00073095D01*
G01X-00055495Y-00072995D01*
G01X-00055479Y-00072902D01*
G01X-00055433Y-00072821D01*
G01X-00055355Y-00072765D01*
G01X-00055246Y-00072746D01*
G01X-00051354Y-00072746D01*
G01X-00051928Y-00072172D01*
G01X-00051984Y-00072092D01*
G01X-00052002Y-00072001D01*
G01X-00051984Y-00071913D01*
G01X-00051928Y-00071826D01*
G01X-00051844Y-00071768D01*
G01X-00051749Y-00071748D01*
G01X-00051664Y-00071767D01*
G01X-00051578Y-00071823D01*
G01X-00050580Y-00072821D01*
G01X-00050499Y-00072924D01*
G01X-00050477Y-00072980D01*
G01X-00050469Y-00073042D01*
G01X-00050488Y-00073108D01*
G01X-00050544Y-00073184D01*
G01X-00050636Y-00073230D01*
G01X-00050754Y-00073245D01*
G01X-00055245Y-00073245D01*
G37*

G36*
G01X-00016249Y-00073750D02*
G01X-00016271Y-00073668D01*
G01X-00016289Y-00073611D01*
G01X-00017297Y-00072000D01*
G01X-00017247Y-00072000D01*
G01X-00017048Y-00071982D01*
G01X-00016864Y-00071927D01*
G01X-00016748Y-00071864D01*
G01X-00016748Y-00071002D01*
G01X-00016758Y-00071108D01*
G01X-00016785Y-00071203D01*
G01X-00016831Y-00071288D01*
G01X-00016895Y-00071362D01*
G01X-00016971Y-00071423D01*
G01X-00017056Y-00071467D01*
G01X-00017148Y-00071493D01*
G01X-00017247Y-00071501D01*
G01X-00018744Y-00071501D01*
G01X-00018744Y-00069506D01*
G01X-00017247Y-00069506D01*
G01X-00017143Y-00069515D01*
G01X-00017049Y-00069542D01*
G01X-00016964Y-00069587D01*
G01X-00016889Y-00069650D01*
G01X-00016828Y-00069726D01*
G01X-00016784Y-00069811D01*
G01X-00016757Y-00069904D01*
G01X-00016748Y-00070005D01*
G01X-00016748Y-00071002D01*
G01X-00016748Y-00071864D01*
G01X-00016695Y-00071835D01*
G01X-00016542Y-00071706D01*
G01X-00016414Y-00071552D01*
G01X-00016323Y-00071383D01*
G01X-00016268Y-00071200D01*
G01X-00016249Y-00071002D01*
G01X-00016249Y-00070005D01*
G01X-00016268Y-00069805D01*
G01X-00016322Y-00069621D01*
G01X-00016413Y-00069453D01*
G01X-00016540Y-00069299D01*
G01X-00016693Y-00069171D01*
G01X-00016862Y-00069080D01*
G01X-00017047Y-00069025D01*
G01X-00017247Y-00069007D01*
G01X-00018994Y-00069007D01*
G01X-00019103Y-00069022D01*
G01X-00019181Y-00069069D01*
G01X-00019227Y-00069147D01*
G01X-00019243Y-00069256D01*
G01X-00019243Y-00073747D01*
G01X-00019224Y-00073856D01*
G01X-00019168Y-00073934D01*
G01X-00019087Y-00073980D01*
G01X-00018994Y-00073996D01*
G01X-00018894Y-00073981D01*
G01X-00018815Y-00073935D01*
G01X-00018762Y-00073853D01*
G01X-00018744Y-00073747D01*
G01X-00018744Y-00072000D01*
G01X-00017885Y-00072000D01*
G01X-00016709Y-00073882D01*
G01X-00016660Y-00073941D01*
G01X-00016613Y-00073975D01*
G01X-00016510Y-00073996D01*
G01X-00016414Y-00073978D01*
G01X-00016328Y-00073925D01*
G01X-00016269Y-00073842D01*
G01X-00016249Y-00073750D01*
G37*
G36*
G01X-00012942Y-00070928D02*
G01X-00014553Y-00073497D01*
G01X-00013006Y-00073497D01*
G01X-00012910Y-00073516D01*
G01X-00012829Y-00073574D01*
G01X-00012775Y-00073655D01*
G01X-00012756Y-00073747D01*
G01X-00012772Y-00073831D01*
G01X-00012819Y-00073914D01*
G01X-00012897Y-00073976D01*
G01X-00013006Y-00073996D01*
G01X-00015002Y-00073996D01*
G01X-00015120Y-00073984D01*
G01X-00015205Y-00073946D01*
G01X-00015256Y-00073884D01*
G01X-00015272Y-00073796D01*
G01X-00015257Y-00073711D01*
G01X-00015212Y-00073611D01*
G01X-00013373Y-00070675D01*
G01X-00013303Y-00070483D01*
G01X-00013280Y-00070300D01*
G01X-00013296Y-00070145D01*
G01X-00013343Y-00070001D01*
G01X-00013420Y-00069867D01*
G01X-00013529Y-00069744D01*
G01X-00013656Y-00069646D01*
G01X-00013803Y-00069570D01*
G01X-00013966Y-00069522D01*
G01X-00014141Y-00069506D01*
G01X-00014326Y-00069531D01*
G01X-00014504Y-00069605D01*
G01X-00014663Y-00069732D01*
G01X-00014792Y-00069891D01*
G01X-00014830Y-00069936D01*
G01X-00014888Y-00069980D01*
G01X-00014998Y-00070005D01*
G01X-00015091Y-00069987D01*
G01X-00015175Y-00069935D01*
G01X-00015235Y-00069857D01*
G01X-00015255Y-00069762D01*
G01X-00015244Y-00069702D01*
G01X-00015212Y-00069620D01*
G01X-00015119Y-00069492D01*
G01X-00015011Y-00069376D01*
G01X-00014887Y-00069273D01*
G01X-00014749Y-00069181D01*
G01X-00014605Y-00069108D01*
G01X-00014460Y-00069053D01*
G01X-00014316Y-00069018D01*
G01X-00014175Y-00069007D01*
G01X-00013894Y-00069031D01*
G01X-00013635Y-00069103D01*
G01X-00013399Y-00069224D01*
G01X-00013186Y-00069393D01*
G01X-00013009Y-00069596D01*
G01X-00012882Y-00069817D01*
G01X-00012807Y-00070057D01*
G01X-00012781Y-00070315D01*
G01X-00012791Y-00070468D01*
G01X-00012821Y-00070621D01*
G01X-00012872Y-00070774D01*
G01X-00012942Y-00070928D01*
G37*

G36*
G01X00030495Y-00075494D02*
G01X00030480Y-00075394D01*
G01X00030434Y-00075315D01*
G01X00030352Y-00075262D01*
G01X00030246Y-00075244D01*
G01X00028499Y-00075244D01*
G01X00028499Y-00074385D01*
G01X00030381Y-00073209D01*
G01X00030440Y-00073160D01*
G01X00030474Y-00073113D01*
G01X00030495Y-00073010D01*
G01X00030477Y-00072914D01*
G01X00030424Y-00072828D01*
G01X00030341Y-00072769D01*
G01X00030249Y-00072749D01*
G01X00030167Y-00072771D01*
G01X00030110Y-00072789D01*
G01X00028499Y-00073797D01*
G01X00028499Y-00073747D01*
G01X00028481Y-00073548D01*
G01X00028426Y-00073364D01*
G01X00028334Y-00073195D01*
G01X00028205Y-00073042D01*
G01X00028051Y-00072914D01*
G01X00027882Y-00072823D01*
G01X00027699Y-00072768D01*
G01X00027501Y-00072749D01*
G01X00026504Y-00072749D01*
G01X00026304Y-00072768D01*
G01X00026120Y-00072822D01*
G01X00025952Y-00072913D01*
G01X00025798Y-00073040D01*
G01X00025670Y-00073193D01*
G01X00025579Y-00073362D01*
G01X00025524Y-00073547D01*
G01X00025506Y-00073747D01*
G01X00025506Y-00075494D01*
G01X00025521Y-00075603D01*
G01X00025568Y-00075681D01*
G01X00025646Y-00075727D01*
G01X00025755Y-00075743D01*
G01X00028000Y-00075743D01*
G01X00028000Y-00075244D01*
G01X00028000Y-00073747D01*
G01X00027992Y-00073648D01*
G01X00027966Y-00073556D01*
G01X00027922Y-00073471D01*
G01X00027861Y-00073395D01*
G01X00027787Y-00073331D01*
G01X00027702Y-00073285D01*
G01X00027607Y-00073258D01*
G01X00027501Y-00073248D01*
G01X00026504Y-00073248D01*
G01X00026403Y-00073257D01*
G01X00026310Y-00073284D01*
G01X00026225Y-00073328D01*
G01X00026149Y-00073389D01*
G01X00026086Y-00073464D01*
G01X00026041Y-00073549D01*
G01X00026014Y-00073643D01*
G01X00026005Y-00073747D01*
G01X00026005Y-00075244D01*
G01X00028000Y-00075244D01*
G01X00028000Y-00075743D01*
G01X00030246Y-00075743D01*
G01X00030355Y-00075724D01*
G01X00030433Y-00075668D01*
G01X00030479Y-00075587D01*
G01X00030495Y-00075494D01*
G37*
G36*
G01X00026012Y-00070529D02*
G01X00026012Y-00071527D01*
G01X00025994Y-00071630D01*
G01X00025940Y-00071712D01*
G01X00025859Y-00071760D01*
G01X00025762Y-00071776D01*
G01X00025675Y-00071760D01*
G01X00025593Y-00071710D01*
G01X00025533Y-00071631D01*
G01X00025513Y-00071527D01*
G01X00025513Y-00070529D01*
G01X00025537Y-00070251D01*
G01X00025608Y-00070003D01*
G01X00025727Y-00069784D01*
G01X00025894Y-00069595D01*
G01X00026081Y-00069458D01*
G01X00026287Y-00069360D01*
G01X00026511Y-00069301D01*
G01X00026753Y-00069281D01*
G01X00027043Y-00069311D01*
G01X00027309Y-00069401D01*
G01X00027432Y-00069468D01*
G01X00027550Y-00069552D01*
G01X00027660Y-00069651D01*
G01X00027765Y-00069766D01*
G01X00027953Y-00069576D01*
G01X00028190Y-00069420D01*
G01X00028324Y-00069360D01*
G01X00028461Y-00069316D01*
G01X00028604Y-00069290D01*
G01X00028751Y-00069281D01*
G01X00029249Y-00069281D01*
G01X00029495Y-00069304D01*
G01X00029723Y-00069373D01*
G01X00029934Y-00069488D01*
G01X00030127Y-00069648D01*
G01X00030288Y-00069841D01*
G01X00030403Y-00070052D01*
G01X00030472Y-00070281D01*
G01X00030495Y-00070529D01*
G01X00030495Y-00071527D01*
G01X00030478Y-00071630D01*
G01X00030427Y-00071712D01*
G01X00030341Y-00071760D01*
G01X00030246Y-00071776D01*
G01X00030161Y-00071760D01*
G01X00030078Y-00071714D01*
G01X00030017Y-00071636D01*
G01X00029996Y-00071527D01*
G01X00029996Y-00070529D01*
G01X00029982Y-00070379D01*
G01X00029941Y-00070241D01*
G01X00029873Y-00070115D01*
G01X00029777Y-00069999D01*
G01X00029662Y-00069904D01*
G01X00029536Y-00069835D01*
G01X00029398Y-00069794D01*
G01X00029249Y-00069780D01*
G01X00028751Y-00069780D01*
G01X00028603Y-00069794D01*
G01X00028466Y-00069834D01*
G01X00028340Y-00069902D01*
G01X00028224Y-00069996D01*
G01X00028128Y-00070110D01*
G01X00028059Y-00070237D01*
G01X00028018Y-00070376D01*
G01X00028004Y-00070529D01*
G01X00028004Y-00071028D01*
G01X00027987Y-00071131D01*
G01X00027936Y-00071213D01*
G01X00027850Y-00071261D01*
G01X00027754Y-00071277D01*
G01X00027670Y-00071261D01*
G01X00027587Y-00071215D01*
G01X00027525Y-00071137D01*
G01X00027505Y-00071028D01*
G01X00027505Y-00070529D01*
G01X00027490Y-00070370D01*
G01X00027445Y-00070227D01*
G01X00027371Y-00070098D01*
G01X00027266Y-00069983D01*
G01X00027153Y-00069904D01*
G01X00027028Y-00069847D01*
G01X00026891Y-00069813D01*
G01X00026742Y-00069802D01*
G01X00026597Y-00069813D01*
G01X00026465Y-00069845D01*
G01X00026346Y-00069900D01*
G01X00026240Y-00069976D01*
G01X00026140Y-00070086D01*
G01X00026069Y-00070214D01*
G01X00026026Y-00070362D01*
G01X00026012Y-00070529D01*
G37*

G36*
G01X00026994Y-00003504D02*
G01X00026994Y-00001757D01*
G01X00026979Y-00001648D01*
G01X00026932Y-00001570D01*
G01X00026854Y-00001524D01*
G01X00026745Y-00001508D01*
G01X00022254Y-00001508D01*
G01X00022145Y-00001527D01*
G01X00022067Y-00001583D01*
G01X00022021Y-00001664D01*
G01X00022005Y-00001757D01*
G01X00022020Y-00001857D01*
G01X00022066Y-00001936D01*
G01X00022148Y-00001989D01*
G01X00022254Y-00002007D01*
G01X00024001Y-00002007D01*
G01X00024001Y-00002866D01*
G01X00022119Y-00004042D01*
G01X00022060Y-00004091D01*
G01X00022026Y-00004138D01*
G01X00022005Y-00004241D01*
G01X00022023Y-00004337D01*
G01X00022076Y-00004423D01*
G01X00022159Y-00004482D01*
G01X00022251Y-00004502D01*
G01X00022333Y-00004480D01*
G01X00022390Y-00004462D01*
G01X00024001Y-00003454D01*
G01X00024001Y-00003504D01*
G01X00024019Y-00003703D01*
G01X00024074Y-00003887D01*
G01X00024166Y-00004056D01*
G01X00024295Y-00004209D01*
G01X00024449Y-00004337D01*
G01X00024618Y-00004428D01*
G01X00024801Y-00004483D01*
G01X00024999Y-00004502D01*
G01X00025996Y-00004502D01*
G01X00026196Y-00004483D01*
G01X00026380Y-00004429D01*
G01X00026495Y-00004367D01*
G01X00026495Y-00003504D01*
G01X00026486Y-00003608D01*
G01X00026459Y-00003702D01*
G01X00026414Y-00003787D01*
G01X00026351Y-00003862D01*
G01X00026275Y-00003923D01*
G01X00026190Y-00003967D01*
G01X00026097Y-00003994D01*
G01X00025996Y-00004003D01*
G01X00024999Y-00004003D01*
G01X00024893Y-00003993D01*
G01X00024798Y-00003966D01*
G01X00024713Y-00003920D01*
G01X00024639Y-00003856D01*
G01X00024578Y-00003780D01*
G01X00024534Y-00003695D01*
G01X00024508Y-00003603D01*
G01X00024500Y-00003504D01*
G01X00024500Y-00002007D01*
G01X00026495Y-00002007D01*
G01X00026495Y-00003504D01*
G01X00026495Y-00004367D01*
G01X00026548Y-00004338D01*
G01X00026702Y-00004211D01*
G01X00026830Y-00004058D01*
G01X00026921Y-00003889D01*
G01X00026976Y-00003704D01*
G01X00026994Y-00003504D01*
G37*
G36*
G01X00023498Y-00007745D02*
G01X00023498Y-00008244D01*
G01X00023479Y-00008340D01*
G01X00023422Y-00008420D01*
G01X00023340Y-00008475D01*
G01X00023249Y-00008494D01*
G01X00023164Y-00008478D01*
G01X00023081Y-00008431D01*
G01X00023020Y-00008353D01*
G01X00022999Y-00008244D01*
G01X00022999Y-00007745D01*
G01X00022254Y-00007745D01*
G01X00022148Y-00007727D01*
G01X00022065Y-00007674D01*
G01X00022020Y-00007595D01*
G01X00022005Y-00007496D01*
G01X00022021Y-00007402D01*
G01X00022067Y-00007321D01*
G01X00022145Y-00007265D01*
G01X00022254Y-00007246D01*
G01X00022999Y-00007246D01*
G01X00022999Y-00005749D01*
G01X00023012Y-00005636D01*
G01X00023050Y-00005554D01*
G01X00023114Y-00005505D01*
G01X00023202Y-00005489D01*
G01X00023263Y-00005496D01*
G01X00023320Y-00005511D01*
G01X00026812Y-00006508D01*
G01X00026884Y-00006541D01*
G01X00026948Y-00006594D01*
G01X00026973Y-00006640D01*
G01X00026994Y-00006737D01*
G01X00026976Y-00006837D01*
G01X00026923Y-00006918D01*
G01X00026845Y-00006977D01*
G01X00026748Y-00006997D01*
G01X00026673Y-00006986D01*
G01X00023498Y-00006077D01*
G01X00023498Y-00007246D01*
G01X00024247Y-00007246D01*
G01X00024343Y-00007265D01*
G01X00024432Y-00007321D01*
G01X00024480Y-00007402D01*
G01X00024496Y-00007496D01*
G01X00024480Y-00007587D01*
G01X00024434Y-00007668D01*
G01X00024356Y-00007726D01*
G01X00024247Y-00007745D01*
G01X00023498Y-00007745D01*
G37*

G36*
G01X00094703Y00071006D02*
G01X00094688Y00071106D01*
G01X00094642Y00071185D01*
G01X00094560Y00071238D01*
G01X00094454Y00071256D01*
G01X00092707Y00071256D01*
G01X00092707Y00072115D01*
G01X00094589Y00073291D01*
G01X00094648Y00073340D01*
G01X00094682Y00073387D01*
G01X00094703Y00073490D01*
G01X00094685Y00073586D01*
G01X00094632Y00073672D01*
G01X00094549Y00073731D01*
G01X00094457Y00073751D01*
G01X00094375Y00073729D01*
G01X00094318Y00073711D01*
G01X00092707Y00072703D01*
G01X00092707Y00072753D01*
G01X00092689Y00072952D01*
G01X00092634Y00073136D01*
G01X00092542Y00073305D01*
G01X00092413Y00073458D01*
G01X00092259Y00073586D01*
G01X00092090Y00073677D01*
G01X00091907Y00073732D01*
G01X00091709Y00073751D01*
G01X00090712Y00073751D01*
G01X00090512Y00073732D01*
G01X00090328Y00073678D01*
G01X00090160Y00073587D01*
G01X00090006Y00073460D01*
G01X00089878Y00073307D01*
G01X00089787Y00073138D01*
G01X00089732Y00072953D01*
G01X00089714Y00072753D01*
G01X00089714Y00071006D01*
G01X00089729Y00070897D01*
G01X00089776Y00070819D01*
G01X00089854Y00070773D01*
G01X00089963Y00070757D01*
G01X00092208Y00070757D01*
G01X00092208Y00071256D01*
G01X00092208Y00072753D01*
G01X00092200Y00072852D01*
G01X00092174Y00072944D01*
G01X00092130Y00073029D01*
G01X00092069Y00073105D01*
G01X00091995Y00073169D01*
G01X00091910Y00073215D01*
G01X00091815Y00073242D01*
G01X00091709Y00073252D01*
G01X00090712Y00073252D01*
G01X00090611Y00073243D01*
G01X00090518Y00073216D01*
G01X00090433Y00073172D01*
G01X00090357Y00073111D01*
G01X00090294Y00073036D01*
G01X00090249Y00072951D01*
G01X00090222Y00072857D01*
G01X00090213Y00072753D01*
G01X00090213Y00071256D01*
G01X00092208Y00071256D01*
G01X00092208Y00070757D01*
G01X00094454Y00070757D01*
G01X00094563Y00070776D01*
G01X00094641Y00070832D01*
G01X00094687Y00070913D01*
G01X00094703Y00071006D01*
G37*
G36*
G01X00090213Y00075248D02*
G01X00091713Y00075248D01*
G01X00091713Y00075996D01*
G01X00091736Y00076242D01*
G01X00091804Y00076471D01*
G01X00091918Y00076682D01*
G01X00092078Y00076875D01*
G01X00092270Y00077036D01*
G01X00092480Y00077151D01*
G01X00092710Y00077221D01*
G01X00092959Y00077244D01*
G01X00093457Y00077244D01*
G01X00093703Y00077221D01*
G01X00093931Y00077152D01*
G01X00094142Y00077037D01*
G01X00094335Y00076877D01*
G01X00094496Y00076684D01*
G01X00094611Y00076473D01*
G01X00094680Y00076244D01*
G01X00094703Y00075996D01*
G01X00094703Y00074998D01*
G01X00094685Y00074895D01*
G01X00094632Y00074813D01*
G01X00094550Y00074765D01*
G01X00094454Y00074749D01*
G01X00094367Y00074765D01*
G01X00094284Y00074815D01*
G01X00094224Y00074894D01*
G01X00094204Y00074998D01*
G01X00094204Y00075996D01*
G01X00094191Y00076144D01*
G01X00094151Y00076281D01*
G01X00094084Y00076408D01*
G01X00093991Y00076524D01*
G01X00093877Y00076620D01*
G01X00093751Y00076689D01*
G01X00093610Y00076731D01*
G01X00093457Y00076745D01*
G01X00092959Y00076745D01*
G01X00092810Y00076731D01*
G01X00092672Y00076691D01*
G01X00092546Y00076623D01*
G01X00092431Y00076529D01*
G01X00092335Y00076415D01*
G01X00092267Y00076288D01*
G01X00092226Y00076148D01*
G01X00092212Y00075996D01*
G01X00092212Y00074998D01*
G01X00092196Y00074889D01*
G01X00092149Y00074811D01*
G01X00092071Y00074765D01*
G01X00091962Y00074749D01*
G01X00089963Y00074749D01*
G01X00089854Y00074765D01*
G01X00089776Y00074811D01*
G01X00089729Y00074889D01*
G01X00089714Y00074998D01*
G01X00089714Y00076994D01*
G01X00089733Y00077090D01*
G01X00089790Y00077171D01*
G01X00089872Y00077225D01*
G01X00089963Y00077244D01*
G01X00090048Y00077228D01*
G01X00090131Y00077181D01*
G01X00090192Y00077103D01*
G01X00090213Y00076994D01*
G01X00090213Y00075248D01*
G37*

G36*
G01X00045751Y00080250D02*
G01X00045729Y00080332D01*
G01X00045711Y00080389D01*
G01X00044703Y00082000D01*
G01X00044753Y00082000D01*
G01X00044952Y00082018D01*
G01X00045136Y00082073D01*
G01X00045252Y00082136D01*
G01X00045252Y00082998D01*
G01X00045242Y00082892D01*
G01X00045215Y00082797D01*
G01X00045169Y00082712D01*
G01X00045105Y00082638D01*
G01X00045029Y00082577D01*
G01X00044944Y00082533D01*
G01X00044852Y00082507D01*
G01X00044753Y00082499D01*
G01X00043256Y00082499D01*
G01X00043256Y00084494D01*
G01X00044753Y00084494D01*
G01X00044857Y00084485D01*
G01X00044951Y00084458D01*
G01X00045036Y00084413D01*
G01X00045111Y00084350D01*
G01X00045172Y00084274D01*
G01X00045216Y00084189D01*
G01X00045243Y00084096D01*
G01X00045252Y00083995D01*
G01X00045252Y00082998D01*
G01X00045252Y00082136D01*
G01X00045305Y00082165D01*
G01X00045458Y00082294D01*
G01X00045586Y00082448D01*
G01X00045677Y00082617D01*
G01X00045732Y00082800D01*
G01X00045751Y00082998D01*
G01X00045751Y00083995D01*
G01X00045732Y00084195D01*
G01X00045678Y00084379D01*
G01X00045587Y00084547D01*
G01X00045460Y00084701D01*
G01X00045307Y00084829D01*
G01X00045138Y00084920D01*
G01X00044953Y00084975D01*
G01X00044753Y00084993D01*
G01X00043006Y00084993D01*
G01X00042897Y00084978D01*
G01X00042819Y00084931D01*
G01X00042773Y00084853D01*
G01X00042757Y00084744D01*
G01X00042757Y00080253D01*
G01X00042776Y00080144D01*
G01X00042832Y00080066D01*
G01X00042913Y00080020D01*
G01X00043006Y00080004D01*
G01X00043106Y00080019D01*
G01X00043185Y00080065D01*
G01X00043238Y00080147D01*
G01X00043256Y00080253D01*
G01X00043256Y00082000D01*
G01X00044115Y00082000D01*
G01X00045291Y00080118D01*
G01X00045340Y00080059D01*
G01X00045387Y00080025D01*
G01X00045490Y00080004D01*
G01X00045586Y00080022D01*
G01X00045672Y00080075D01*
G01X00045731Y00080158D01*
G01X00045751Y00080250D01*
G37*
G36*
G01X00049244Y00081001D02*
G01X00049244Y00081997D01*
G01X00049225Y00082198D01*
G01X00049170Y00082382D01*
G01X00049077Y00082551D01*
G01X00048948Y00082704D01*
G01X00048793Y00082831D01*
G01X00048624Y00082921D01*
G01X00048442Y00082976D01*
G01X00048246Y00082994D01*
G01X00047344Y00082994D01*
G01X00047401Y00083197D01*
G01X00047476Y00083397D01*
G01X00047563Y00083580D01*
G01X00047667Y00083753D01*
G01X00047787Y00083915D01*
G01X00047925Y00084067D01*
G01X00048084Y00084207D01*
G01X00048239Y00084323D01*
G01X00048411Y00084428D01*
G01X00048591Y00084509D01*
G01X00048666Y00084561D01*
G01X00048713Y00084612D01*
G01X00048737Y00084667D01*
G01X00048745Y00084733D01*
G01X00048729Y00084828D01*
G01X00048681Y00084915D01*
G01X00048598Y00084974D01*
G01X00048506Y00084993D01*
G01X00048399Y00084968D01*
G01X00048169Y00084855D01*
G01X00047953Y00084723D01*
G01X00047752Y00084570D01*
G01X00047565Y00084399D01*
G01X00047396Y00084212D01*
G01X00047249Y00084016D01*
G01X00047123Y00083810D01*
G01X00047020Y00083594D01*
G01X00046901Y00083271D01*
G01X00046817Y00082938D01*
G01X00046766Y00082597D01*
G01X00046749Y00082248D01*
G01X00046749Y00081001D01*
G01X00046768Y00080799D01*
G01X00046823Y00080614D01*
G01X00046916Y00080445D01*
G01X00047047Y00080292D01*
G01X00047202Y00080166D01*
G01X00047370Y00080076D01*
G01X00047552Y00080022D01*
G01X00047747Y00080004D01*
G01X00048246Y00080004D01*
G01X00048445Y00080022D01*
G01X00048629Y00080077D01*
G01X00048745Y00080140D01*
G01X00048745Y00081001D01*
G01X00048736Y00080896D01*
G01X00048708Y00080801D01*
G01X00048662Y00080716D01*
G01X00048599Y00080642D01*
G01X00048522Y00080581D01*
G01X00048437Y00080538D01*
G01X00048345Y00080512D01*
G01X00048246Y00080503D01*
G01X00047747Y00080503D01*
G01X00047653Y00080512D01*
G01X00047551Y00080539D01*
G01X00047390Y00080645D01*
G01X00047328Y00080722D01*
G01X00047283Y00080807D01*
G01X00047257Y00080900D01*
G01X00047248Y00081001D01*
G01X00047248Y00082246D01*
G01X00047259Y00082495D01*
G01X00048246Y00082495D01*
G01X00048350Y00082486D01*
G01X00048444Y00082459D01*
G01X00048529Y00082414D01*
G01X00048604Y00082351D01*
G01X00048665Y00082275D01*
G01X00048709Y00082190D01*
G01X00048736Y00082098D01*
G01X00048745Y00081997D01*
G01X00048745Y00081001D01*
G01X00048745Y00080140D01*
G01X00048798Y00080169D01*
G01X00048951Y00080298D01*
G01X00049079Y00080452D01*
G01X00049171Y00080620D01*
G01X00049225Y00080803D01*
G01X00049244Y00081001D01*
G37*

G36*
G01X-00128926Y-00047100D02*
G01X-00129019Y-00047179D01*
G01X-00129126Y-00047207D01*
G01X-00129212Y-00047188D01*
G01X-00129299Y-00047131D01*
G01X-00129364Y-00047049D01*
G01X-00129386Y-00046958D01*
G01X-00129373Y-00046881D01*
G01X-00129336Y-00046808D01*
G01X-00129186Y-00046562D01*
G01X-00129079Y-00046304D01*
G01X-00129015Y-00046034D01*
G01X-00128994Y-00045753D01*
G01X-00129004Y-00045576D01*
G01X-00129033Y-00045406D01*
G01X-00129082Y-00045241D01*
G01X-00129151Y-00045083D01*
G01X-00129239Y-00044958D01*
G01X-00129354Y-00044855D01*
G01X-00129475Y-00044794D01*
G01X-00129537Y-00044778D01*
G01X-00129614Y-00044773D01*
G01X-00129697Y-00044782D01*
G01X-00129771Y-00044810D01*
G01X-00129836Y-00044855D01*
G01X-00129892Y-00044919D01*
G01X-00131261Y-00046769D01*
G01X-00131345Y-00046874D01*
G01X-00131446Y-00046970D01*
G01X-00131564Y-00047056D01*
G01X-00131697Y-00047132D01*
G01X-00131839Y-00047195D01*
G01X-00131983Y-00047239D01*
G01X-00132127Y-00047266D01*
G01X-00132273Y-00047275D01*
G01X-00132425Y-00047267D01*
G01X-00132570Y-00047242D01*
G01X-00132710Y-00047202D01*
G01X-00132843Y-00047145D01*
G01X-00132966Y-00047071D01*
G01X-00133074Y-00046979D01*
G01X-00133169Y-00046869D01*
G01X-00133249Y-00046740D01*
G01X-00133356Y-00046494D01*
G01X-00133456Y-00046220D01*
G01X-00133504Y-00045961D01*
G01X-00133520Y-00045718D01*
G01X-00133492Y-00045378D01*
G01X-00133409Y-00045051D01*
G01X-00133348Y-00044881D01*
G01X-00133279Y-00044736D01*
G01X-00133191Y-00044584D01*
G01X-00133071Y-00044395D01*
G01X-00132983Y-00044310D01*
G01X-00132868Y-00044281D01*
G01X-00132768Y-00044299D01*
G01X-00132684Y-00044351D01*
G01X-00132627Y-00044429D01*
G01X-00132608Y-00044524D01*
G01X-00132618Y-00044590D01*
G01X-00132651Y-00044663D01*
G01X-00132805Y-00044929D01*
G01X-00132922Y-00045194D01*
G01X-00132996Y-00045459D01*
G01X-00133021Y-00045728D01*
G01X-00133008Y-00045919D01*
G01X-00132968Y-00046114D01*
G01X-00132903Y-00046313D01*
G01X-00132811Y-00046516D01*
G01X-00132726Y-00046624D01*
G01X-00132600Y-00046712D01*
G01X-00132447Y-00046769D01*
G01X-00132286Y-00046790D01*
G01X-00132115Y-00046772D01*
G01X-00131937Y-00046715D01*
G01X-00131805Y-00046625D01*
G01X-00131673Y-00046491D01*
G01X-00130303Y-00044638D01*
G01X-00130175Y-00044499D01*
G01X-00130005Y-00044390D01*
G01X-00129812Y-00044319D01*
G01X-00129611Y-00044296D01*
G01X-00129480Y-00044304D01*
G01X-00129352Y-00044328D01*
G01X-00129228Y-00044368D01*
G01X-00129108Y-00044424D01*
G01X-00128995Y-00044499D01*
G01X-00128892Y-00044596D01*
G01X-00128797Y-00044715D01*
G01X-00128713Y-00044855D01*
G01X-00128622Y-00045064D01*
G01X-00128557Y-00045284D01*
G01X-00128519Y-00045515D01*
G01X-00128506Y-00045757D01*
G01X-00128532Y-00046110D01*
G01X-00128613Y-00046457D01*
G01X-00128744Y-00046790D01*
G01X-00128926Y-00047100D01*
G37*
G36*
G01X-00128506Y-00049998D02*
G01X-00128506Y-00048501D01*
G01X-00128521Y-00048392D01*
G01X-00128568Y-00048314D01*
G01X-00128646Y-00048268D01*
G01X-00128755Y-00048252D01*
G01X-00133246Y-00048252D01*
G01X-00133355Y-00048268D01*
G01X-00133433Y-00048314D01*
G01X-00133479Y-00048392D01*
G01X-00133495Y-00048501D01*
G01X-00133495Y-00050248D01*
G01X-00133477Y-00050447D01*
G01X-00133421Y-00050631D01*
G01X-00133330Y-00050800D01*
G01X-00133201Y-00050953D01*
G01X-00133047Y-00051081D01*
G01X-00132878Y-00051172D01*
G01X-00132695Y-00051227D01*
G01X-00132497Y-00051246D01*
G01X-00131499Y-00051246D01*
G01X-00131371Y-00051237D01*
G01X-00131246Y-00051213D01*
G01X-00131125Y-00051171D01*
G01X-00131007Y-00051114D01*
G01X-00130997Y-00051107D01*
G01X-00130997Y-00050248D01*
G01X-00131006Y-00050352D01*
G01X-00131033Y-00050446D01*
G01X-00131078Y-00050531D01*
G01X-00131141Y-00050606D01*
G01X-00131218Y-00050667D01*
G01X-00131302Y-00050711D01*
G01X-00131395Y-00050738D01*
G01X-00131497Y-00050747D01*
G01X-00132496Y-00050747D01*
G01X-00132602Y-00050737D01*
G01X-00132697Y-00050710D01*
G01X-00132782Y-00050664D01*
G01X-00132857Y-00050600D01*
G01X-00132918Y-00050524D01*
G01X-00132961Y-00050439D01*
G01X-00132987Y-00050347D01*
G01X-00132996Y-00050248D01*
G01X-00132996Y-00048751D01*
G01X-00130997Y-00048751D01*
G01X-00130997Y-00050248D01*
G01X-00130997Y-00051107D01*
G01X-00130802Y-00050961D01*
G01X-00130648Y-00050768D01*
G01X-00130493Y-00050872D01*
G01X-00130334Y-00050943D01*
G01X-00130171Y-00050983D01*
G01X-00130002Y-00050996D01*
G01X-00129504Y-00050996D01*
G01X-00129304Y-00050978D01*
G01X-00129120Y-00050923D01*
G01X-00129005Y-00050861D01*
G01X-00129005Y-00049998D01*
G01X-00129014Y-00050102D01*
G01X-00129041Y-00050196D01*
G01X-00129086Y-00050281D01*
G01X-00129149Y-00050356D01*
G01X-00129225Y-00050418D01*
G01X-00129310Y-00050462D01*
G01X-00129403Y-00050488D01*
G01X-00129504Y-00050497D01*
G01X-00130002Y-00050497D01*
G01X-00130108Y-00050488D01*
G01X-00130203Y-00050461D01*
G01X-00130288Y-00050415D01*
G01X-00130362Y-00050351D01*
G01X-00130423Y-00050274D01*
G01X-00130467Y-00050190D01*
G01X-00130493Y-00050098D01*
G01X-00130501Y-00049998D01*
G01X-00130505Y-00048751D01*
G01X-00129005Y-00048751D01*
G01X-00129005Y-00049998D01*
G01X-00129005Y-00050861D01*
G01X-00128952Y-00050833D01*
G01X-00128798Y-00050706D01*
G01X-00128670Y-00050552D01*
G01X-00128579Y-00050384D01*
G01X-00128524Y-00050199D01*
G01X-00128506Y-00049998D01*
G37*
G36*
G01X-00133245Y-00053740D02*
G01X-00133352Y-00053722D01*
G01X-00133434Y-00053668D01*
G01X-00133480Y-00053590D01*
G01X-00133495Y-00053490D01*
G01X-00133479Y-00053397D01*
G01X-00133433Y-00053316D01*
G01X-00133355Y-00053260D01*
G01X-00133246Y-00053241D01*
G01X-00129354Y-00053241D01*
G01X-00129928Y-00052667D01*
G01X-00129984Y-00052587D01*
G01X-00130002Y-00052496D01*
G01X-00129984Y-00052408D01*
G01X-00129928Y-00052321D01*
G01X-00129844Y-00052263D01*
G01X-00129749Y-00052243D01*
G01X-00129664Y-00052262D01*
G01X-00129578Y-00052318D01*
G01X-00128580Y-00053316D01*
G01X-00128499Y-00053419D01*
G01X-00128477Y-00053475D01*
G01X-00128469Y-00053537D01*
G01X-00128488Y-00053603D01*
G01X-00128544Y-00053679D01*
G01X-00128636Y-00053725D01*
G01X-00128754Y-00053740D01*
G01X-00133245Y-00053740D01*
G37*

G36*
G01X00095074Y00016095D02*
G01X00094981Y00016016D01*
G01X00094874Y00015988D01*
G01X00094788Y00016007D01*
G01X00094701Y00016064D01*
G01X00094636Y00016146D01*
G01X00094614Y00016237D01*
G01X00094627Y00016314D01*
G01X00094664Y00016387D01*
G01X00094814Y00016633D01*
G01X00094921Y00016891D01*
G01X00094985Y00017161D01*
G01X00095006Y00017442D01*
G01X00094996Y00017619D01*
G01X00094967Y00017789D01*
G01X00094918Y00017954D01*
G01X00094849Y00018112D01*
G01X00094761Y00018237D01*
G01X00094646Y00018340D01*
G01X00094525Y00018401D01*
G01X00094463Y00018417D01*
G01X00094386Y00018422D01*
G01X00094303Y00018413D01*
G01X00094229Y00018385D01*
G01X00094164Y00018340D01*
G01X00094108Y00018276D01*
G01X00092739Y00016426D01*
G01X00092655Y00016321D01*
G01X00092554Y00016225D01*
G01X00092436Y00016139D01*
G01X00092303Y00016063D01*
G01X00092161Y00016000D01*
G01X00092017Y00015956D01*
G01X00091873Y00015929D01*
G01X00091727Y00015920D01*
G01X00091575Y00015928D01*
G01X00091430Y00015953D01*
G01X00091290Y00015993D01*
G01X00091157Y00016050D01*
G01X00091034Y00016124D01*
G01X00090926Y00016216D01*
G01X00090831Y00016326D01*
G01X00090751Y00016455D01*
G01X00090644Y00016701D01*
G01X00090544Y00016975D01*
G01X00090496Y00017234D01*
G01X00090480Y00017477D01*
G01X00090508Y00017817D01*
G01X00090591Y00018144D01*
G01X00090652Y00018314D01*
G01X00090721Y00018459D01*
G01X00090809Y00018611D01*
G01X00090929Y00018800D01*
G01X00091017Y00018885D01*
G01X00091132Y00018914D01*
G01X00091232Y00018896D01*
G01X00091316Y00018844D01*
G01X00091373Y00018766D01*
G01X00091392Y00018671D01*
G01X00091382Y00018605D01*
G01X00091349Y00018532D01*
G01X00091195Y00018266D01*
G01X00091078Y00018001D01*
G01X00091004Y00017736D01*
G01X00090979Y00017467D01*
G01X00090992Y00017276D01*
G01X00091032Y00017081D01*
G01X00091097Y00016882D01*
G01X00091189Y00016679D01*
G01X00091274Y00016571D01*
G01X00091400Y00016483D01*
G01X00091553Y00016426D01*
G01X00091714Y00016405D01*
G01X00091885Y00016423D01*
G01X00092063Y00016480D01*
G01X00092195Y00016570D01*
G01X00092327Y00016704D01*
G01X00093697Y00018557D01*
G01X00093825Y00018696D01*
G01X00093995Y00018805D01*
G01X00094188Y00018876D01*
G01X00094389Y00018899D01*
G01X00094520Y00018891D01*
G01X00094648Y00018867D01*
G01X00094772Y00018827D01*
G01X00094892Y00018771D01*
G01X00095005Y00018696D01*
G01X00095108Y00018599D01*
G01X00095203Y00018480D01*
G01X00095287Y00018340D01*
G01X00095378Y00018131D01*
G01X00095443Y00017911D01*
G01X00095481Y00017680D01*
G01X00095494Y00017438D01*
G01X00095468Y00017085D01*
G01X00095387Y00016738D01*
G01X00095256Y00016405D01*
G01X00095074Y00016095D01*
G37*
G36*
G01X00095494Y00013197D02*
G01X00095494Y00014694D01*
G01X00095479Y00014803D01*
G01X00095432Y00014881D01*
G01X00095354Y00014927D01*
G01X00095245Y00014943D01*
G01X00090754Y00014943D01*
G01X00090645Y00014927D01*
G01X00090567Y00014881D01*
G01X00090521Y00014803D01*
G01X00090505Y00014694D01*
G01X00090505Y00012947D01*
G01X00090523Y00012748D01*
G01X00090579Y00012564D01*
G01X00090670Y00012395D01*
G01X00090799Y00012242D01*
G01X00090953Y00012114D01*
G01X00091122Y00012023D01*
G01X00091305Y00011968D01*
G01X00091503Y00011949D01*
G01X00092501Y00011949D01*
G01X00092629Y00011958D01*
G01X00092754Y00011982D01*
G01X00092875Y00012024D01*
G01X00092993Y00012081D01*
G01X00093003Y00012088D01*
G01X00093003Y00012947D01*
G01X00092994Y00012843D01*
G01X00092967Y00012749D01*
G01X00092922Y00012664D01*
G01X00092859Y00012589D01*
G01X00092782Y00012528D01*
G01X00092698Y00012484D01*
G01X00092605Y00012457D01*
G01X00092503Y00012448D01*
G01X00091504Y00012448D01*
G01X00091398Y00012458D01*
G01X00091303Y00012485D01*
G01X00091218Y00012531D01*
G01X00091143Y00012595D01*
G01X00091082Y00012671D01*
G01X00091039Y00012756D01*
G01X00091013Y00012848D01*
G01X00091004Y00012947D01*
G01X00091004Y00014444D01*
G01X00093003Y00014444D01*
G01X00093003Y00012947D01*
G01X00093003Y00012088D01*
G01X00093198Y00012234D01*
G01X00093352Y00012427D01*
G01X00093507Y00012323D01*
G01X00093666Y00012252D01*
G01X00093829Y00012212D01*
G01X00093998Y00012199D01*
G01X00094496Y00012199D01*
G01X00094696Y00012217D01*
G01X00094880Y00012272D01*
G01X00094995Y00012334D01*
G01X00094995Y00013197D01*
G01X00094986Y00013093D01*
G01X00094959Y00012999D01*
G01X00094914Y00012914D01*
G01X00094851Y00012839D01*
G01X00094775Y00012777D01*
G01X00094690Y00012733D01*
G01X00094597Y00012707D01*
G01X00094496Y00012698D01*
G01X00093998Y00012698D01*
G01X00093892Y00012707D01*
G01X00093797Y00012734D01*
G01X00093712Y00012780D01*
G01X00093638Y00012844D01*
G01X00093577Y00012921D01*
G01X00093533Y00013005D01*
G01X00093507Y00013097D01*
G01X00093499Y00013197D01*
G01X00093495Y00014444D01*
G01X00094995Y00014444D01*
G01X00094995Y00013197D01*
G01X00094995Y00012334D01*
G01X00095048Y00012362D01*
G01X00095202Y00012489D01*
G01X00095330Y00012643D01*
G01X00095421Y00012811D01*
G01X00095476Y00012996D01*
G01X00095494Y00013197D01*
G37*
G36*
G01X00093573Y00008643D02*
G01X00091004Y00010254D01*
G01X00091004Y00008707D01*
G01X00090985Y00008611D01*
G01X00090927Y00008530D01*
G01X00090846Y00008476D01*
G01X00090754Y00008457D01*
G01X00090670Y00008473D01*
G01X00090587Y00008520D01*
G01X00090525Y00008598D01*
G01X00090505Y00008707D01*
G01X00090505Y00010703D01*
G01X00090517Y00010821D01*
G01X00090555Y00010906D01*
G01X00090617Y00010957D01*
G01X00090705Y00010973D01*
G01X00090790Y00010958D01*
G01X00090890Y00010913D01*
G01X00093826Y00009074D01*
G01X00094018Y00009004D01*
G01X00094201Y00008981D01*
G01X00094356Y00008997D01*
G01X00094500Y00009044D01*
G01X00094634Y00009121D01*
G01X00094757Y00009230D01*
G01X00094855Y00009357D01*
G01X00094931Y00009504D01*
G01X00094979Y00009667D01*
G01X00094995Y00009842D01*
G01X00094970Y00010027D01*
G01X00094896Y00010205D01*
G01X00094769Y00010364D01*
G01X00094610Y00010493D01*
G01X00094565Y00010531D01*
G01X00094521Y00010589D01*
G01X00094496Y00010699D01*
G01X00094514Y00010792D01*
G01X00094566Y00010876D01*
G01X00094644Y00010936D01*
G01X00094739Y00010956D01*
G01X00094799Y00010945D01*
G01X00094881Y00010913D01*
G01X00095009Y00010820D01*
G01X00095125Y00010712D01*
G01X00095228Y00010588D01*
G01X00095320Y00010450D01*
G01X00095393Y00010306D01*
G01X00095448Y00010161D01*
G01X00095483Y00010017D01*
G01X00095494Y00009876D01*
G01X00095470Y00009595D01*
G01X00095398Y00009336D01*
G01X00095277Y00009100D01*
G01X00095108Y00008887D01*
G01X00094905Y00008710D01*
G01X00094684Y00008583D01*
G01X00094444Y00008508D01*
G01X00094186Y00008482D01*
G01X00094033Y00008492D01*
G01X00093880Y00008522D01*
G01X00093727Y00008573D01*
G01X00093573Y00008643D01*
G37*

G36*
G01X00035048Y-00018742D02*
G01X00033113Y-00017455D01*
G01X00033027Y-00017366D01*
G01X00033006Y-00017313D01*
G01X00033006Y-00017252D01*
G01X00033024Y-00017159D01*
G01X00033080Y-00017070D01*
G01X00033164Y-00017012D01*
G01X00033258Y-00016992D01*
G01X00033325Y-00017003D01*
G01X00033397Y-00017035D01*
G01X00035500Y-00018439D01*
G01X00037604Y-00017035D01*
G01X00037678Y-00017003D01*
G01X00037746Y-00016992D01*
G01X00037837Y-00017011D01*
G01X00037918Y-00017069D01*
G01X00037976Y-00017154D01*
G01X00037995Y-00017256D01*
G01X00037967Y-00017364D01*
G01X00037881Y-00017455D01*
G01X00035953Y-00018742D01*
G01X00037881Y-00020028D01*
G01X00037927Y-00020067D01*
G01X00037970Y-00020125D01*
G01X00037995Y-00020235D01*
G01X00037976Y-00020318D01*
G01X00037920Y-00020410D01*
G01X00037838Y-00020471D01*
G01X00037742Y-00020492D01*
G01X00037676Y-00020481D01*
G01X00037604Y-00020449D01*
G01X00035500Y-00019045D01*
G01X00033397Y-00020456D01*
G01X00033322Y-00020492D01*
G01X00033255Y-00020492D01*
G01X00033164Y-00020472D01*
G01X00033082Y-00020415D01*
G01X00033025Y-00020330D01*
G01X00033006Y-00020228D01*
G01X00033034Y-00020119D01*
G01X00033120Y-00020028D01*
G01X00035048Y-00018742D01*
G37*
G36*
G01X00033426Y-00013157D02*
G01X00033519Y-00013078D01*
G01X00033626Y-00013050D01*
G01X00033712Y-00013069D01*
G01X00033799Y-00013126D01*
G01X00033864Y-00013208D01*
G01X00033886Y-00013299D01*
G01X00033873Y-00013376D01*
G01X00033836Y-00013449D01*
G01X00033686Y-00013695D01*
G01X00033579Y-00013953D01*
G01X00033515Y-00014223D01*
G01X00033494Y-00014504D01*
G01X00033504Y-00014681D01*
G01X00033533Y-00014851D01*
G01X00033582Y-00015016D01*
G01X00033651Y-00015174D01*
G01X00033739Y-00015299D01*
G01X00033854Y-00015402D01*
G01X00033975Y-00015463D01*
G01X00034037Y-00015479D01*
G01X00034114Y-00015484D01*
G01X00034197Y-00015475D01*
G01X00034271Y-00015447D01*
G01X00034336Y-00015402D01*
G01X00034392Y-00015338D01*
G01X00035761Y-00013488D01*
G01X00035845Y-00013383D01*
G01X00035946Y-00013287D01*
G01X00036064Y-00013201D01*
G01X00036197Y-00013125D01*
G01X00036339Y-00013062D01*
G01X00036483Y-00013018D01*
G01X00036627Y-00012991D01*
G01X00036773Y-00012982D01*
G01X00036925Y-00012990D01*
G01X00037070Y-00013015D01*
G01X00037210Y-00013055D01*
G01X00037343Y-00013112D01*
G01X00037466Y-00013186D01*
G01X00037574Y-00013278D01*
G01X00037669Y-00013388D01*
G01X00037749Y-00013517D01*
G01X00037856Y-00013763D01*
G01X00037956Y-00014037D01*
G01X00038004Y-00014296D01*
G01X00038020Y-00014539D01*
G01X00037992Y-00014879D01*
G01X00037909Y-00015206D01*
G01X00037848Y-00015376D01*
G01X00037779Y-00015521D01*
G01X00037691Y-00015673D01*
G01X00037571Y-00015862D01*
G01X00037483Y-00015947D01*
G01X00037368Y-00015976D01*
G01X00037268Y-00015958D01*
G01X00037184Y-00015906D01*
G01X00037127Y-00015828D01*
G01X00037108Y-00015733D01*
G01X00037118Y-00015667D01*
G01X00037151Y-00015594D01*
G01X00037305Y-00015328D01*
G01X00037422Y-00015063D01*
G01X00037496Y-00014798D01*
G01X00037521Y-00014529D01*
G01X00037508Y-00014338D01*
G01X00037468Y-00014143D01*
G01X00037403Y-00013944D01*
G01X00037311Y-00013741D01*
G01X00037226Y-00013633D01*
G01X00037100Y-00013545D01*
G01X00036947Y-00013488D01*
G01X00036786Y-00013467D01*
G01X00036615Y-00013485D01*
G01X00036437Y-00013542D01*
G01X00036305Y-00013632D01*
G01X00036173Y-00013766D01*
G01X00034803Y-00015619D01*
G01X00034675Y-00015758D01*
G01X00034505Y-00015867D01*
G01X00034312Y-00015938D01*
G01X00034111Y-00015961D01*
G01X00033980Y-00015953D01*
G01X00033852Y-00015929D01*
G01X00033728Y-00015889D01*
G01X00033608Y-00015833D01*
G01X00033495Y-00015758D01*
G01X00033392Y-00015661D01*
G01X00033297Y-00015542D01*
G01X00033213Y-00015402D01*
G01X00033122Y-00015193D01*
G01X00033057Y-00014973D01*
G01X00033019Y-00014742D01*
G01X00033006Y-00014500D01*
G01X00033032Y-00014147D01*
G01X00033113Y-00013800D01*
G01X00033244Y-00013467D01*
G01X00033426Y-00013157D01*
G37*
G36*
G01X00034927Y-00009697D02*
G01X00037496Y-00011308D01*
G01X00037496Y-00009761D01*
G01X00037515Y-00009665D01*
G01X00037573Y-00009584D01*
G01X00037654Y-00009530D01*
G01X00037746Y-00009511D01*
G01X00037830Y-00009527D01*
G01X00037913Y-00009574D01*
G01X00037975Y-00009652D01*
G01X00037995Y-00009761D01*
G01X00037995Y-00011757D01*
G01X00037983Y-00011875D01*
G01X00037945Y-00011960D01*
G01X00037883Y-00012011D01*
G01X00037795Y-00012027D01*
G01X00037710Y-00012012D01*
G01X00037610Y-00011967D01*
G01X00034674Y-00010128D01*
G01X00034482Y-00010058D01*
G01X00034299Y-00010035D01*
G01X00034144Y-00010051D01*
G01X00034000Y-00010098D01*
G01X00033866Y-00010175D01*
G01X00033743Y-00010284D01*
G01X00033645Y-00010411D01*
G01X00033569Y-00010558D01*
G01X00033521Y-00010721D01*
G01X00033505Y-00010896D01*
G01X00033530Y-00011081D01*
G01X00033604Y-00011259D01*
G01X00033731Y-00011418D01*
G01X00033890Y-00011547D01*
G01X00033935Y-00011585D01*
G01X00033979Y-00011643D01*
G01X00034004Y-00011753D01*
G01X00033986Y-00011846D01*
G01X00033934Y-00011930D01*
G01X00033856Y-00011990D01*
G01X00033761Y-00012010D01*
G01X00033701Y-00011999D01*
G01X00033619Y-00011967D01*
G01X00033491Y-00011874D01*
G01X00033375Y-00011766D01*
G01X00033272Y-00011642D01*
G01X00033180Y-00011504D01*
G01X00033107Y-00011360D01*
G01X00033052Y-00011215D01*
G01X00033017Y-00011071D01*
G01X00033006Y-00010930D01*
G01X00033030Y-00010649D01*
G01X00033102Y-00010390D01*
G01X00033223Y-00010154D01*
G01X00033392Y-00009941D01*
G01X00033595Y-00009764D01*
G01X00033816Y-00009637D01*
G01X00034056Y-00009562D01*
G01X00034314Y-00009536D01*
G01X00034467Y-00009546D01*
G01X00034620Y-00009576D01*
G01X00034773Y-00009627D01*
G01X00034927Y-00009697D01*
G37*

G36*
G01X-00104952Y-00018243D02*
G01X-00106887Y-00016956D01*
G01X-00106973Y-00016867D01*
G01X-00106994Y-00016814D01*
G01X-00106994Y-00016753D01*
G01X-00106976Y-00016660D01*
G01X-00106920Y-00016571D01*
G01X-00106836Y-00016513D01*
G01X-00106742Y-00016493D01*
G01X-00106675Y-00016504D01*
G01X-00106603Y-00016536D01*
G01X-00104500Y-00017940D01*
G01X-00102396Y-00016536D01*
G01X-00102322Y-00016504D01*
G01X-00102254Y-00016493D01*
G01X-00102163Y-00016512D01*
G01X-00102082Y-00016570D01*
G01X-00102024Y-00016655D01*
G01X-00102005Y-00016757D01*
G01X-00102033Y-00016865D01*
G01X-00102119Y-00016956D01*
G01X-00104047Y-00018243D01*
G01X-00102119Y-00019529D01*
G01X-00102073Y-00019568D01*
G01X-00102030Y-00019626D01*
G01X-00102005Y-00019736D01*
G01X-00102024Y-00019819D01*
G01X-00102080Y-00019911D01*
G01X-00102162Y-00019972D01*
G01X-00102258Y-00019993D01*
G01X-00102324Y-00019982D01*
G01X-00102396Y-00019950D01*
G01X-00104500Y-00018546D01*
G01X-00106603Y-00019957D01*
G01X-00106678Y-00019993D01*
G01X-00106745Y-00019993D01*
G01X-00106836Y-00019973D01*
G01X-00106918Y-00019916D01*
G01X-00106975Y-00019831D01*
G01X-00106994Y-00019729D01*
G01X-00106966Y-00019620D01*
G01X-00106880Y-00019529D01*
G01X-00104952Y-00018243D01*
G37*
G36*
G01X-00106574Y-00012658D02*
G01X-00106481Y-00012579D01*
G01X-00106374Y-00012551D01*
G01X-00106288Y-00012570D01*
G01X-00106201Y-00012627D01*
G01X-00106136Y-00012709D01*
G01X-00106114Y-00012800D01*
G01X-00106127Y-00012877D01*
G01X-00106164Y-00012950D01*
G01X-00106314Y-00013196D01*
G01X-00106421Y-00013454D01*
G01X-00106485Y-00013724D01*
G01X-00106506Y-00014005D01*
G01X-00106496Y-00014182D01*
G01X-00106467Y-00014352D01*
G01X-00106418Y-00014517D01*
G01X-00106349Y-00014675D01*
G01X-00106261Y-00014800D01*
G01X-00106146Y-00014903D01*
G01X-00106025Y-00014964D01*
G01X-00105963Y-00014980D01*
G01X-00105886Y-00014985D01*
G01X-00105803Y-00014976D01*
G01X-00105729Y-00014948D01*
G01X-00105664Y-00014903D01*
G01X-00105608Y-00014839D01*
G01X-00104239Y-00012989D01*
G01X-00104155Y-00012884D01*
G01X-00104054Y-00012788D01*
G01X-00103936Y-00012702D01*
G01X-00103803Y-00012626D01*
G01X-00103661Y-00012563D01*
G01X-00103517Y-00012519D01*
G01X-00103373Y-00012492D01*
G01X-00103227Y-00012483D01*
G01X-00103075Y-00012491D01*
G01X-00102930Y-00012516D01*
G01X-00102790Y-00012556D01*
G01X-00102657Y-00012613D01*
G01X-00102534Y-00012687D01*
G01X-00102426Y-00012779D01*
G01X-00102331Y-00012889D01*
G01X-00102251Y-00013018D01*
G01X-00102144Y-00013264D01*
G01X-00102044Y-00013538D01*
G01X-00101996Y-00013797D01*
G01X-00101980Y-00014040D01*
G01X-00102008Y-00014380D01*
G01X-00102091Y-00014707D01*
G01X-00102152Y-00014877D01*
G01X-00102221Y-00015022D01*
G01X-00102309Y-00015174D01*
G01X-00102429Y-00015363D01*
G01X-00102517Y-00015448D01*
G01X-00102632Y-00015477D01*
G01X-00102732Y-00015459D01*
G01X-00102816Y-00015407D01*
G01X-00102873Y-00015329D01*
G01X-00102892Y-00015234D01*
G01X-00102882Y-00015168D01*
G01X-00102849Y-00015095D01*
G01X-00102695Y-00014829D01*
G01X-00102578Y-00014564D01*
G01X-00102504Y-00014299D01*
G01X-00102479Y-00014030D01*
G01X-00102492Y-00013839D01*
G01X-00102532Y-00013644D01*
G01X-00102597Y-00013445D01*
G01X-00102689Y-00013242D01*
G01X-00102774Y-00013134D01*
G01X-00102900Y-00013046D01*
G01X-00103053Y-00012989D01*
G01X-00103214Y-00012968D01*
G01X-00103385Y-00012986D01*
G01X-00103563Y-00013043D01*
G01X-00103695Y-00013133D01*
G01X-00103827Y-00013267D01*
G01X-00105197Y-00015120D01*
G01X-00105325Y-00015259D01*
G01X-00105495Y-00015368D01*
G01X-00105688Y-00015439D01*
G01X-00105889Y-00015462D01*
G01X-00106020Y-00015454D01*
G01X-00106148Y-00015430D01*
G01X-00106272Y-00015390D01*
G01X-00106392Y-00015334D01*
G01X-00106505Y-00015259D01*
G01X-00106608Y-00015162D01*
G01X-00106703Y-00015043D01*
G01X-00106787Y-00014903D01*
G01X-00106878Y-00014694D01*
G01X-00106943Y-00014474D01*
G01X-00106981Y-00014243D01*
G01X-00106994Y-00014001D01*
G01X-00106968Y-00013648D01*
G01X-00106887Y-00013301D01*
G01X-00106756Y-00012968D01*
G01X-00106574Y-00012658D01*
G37*
G36*
G01X-00102255Y-00010010D02*
G01X-00102148Y-00010028D01*
G01X-00102066Y-00010082D01*
G01X-00102020Y-00010160D01*
G01X-00102005Y-00010260D01*
G01X-00102021Y-00010353D01*
G01X-00102067Y-00010434D01*
G01X-00102145Y-00010490D01*
G01X-00102254Y-00010509D01*
G01X-00106146Y-00010509D01*
G01X-00105572Y-00011083D01*
G01X-00105516Y-00011163D01*
G01X-00105498Y-00011254D01*
G01X-00105516Y-00011342D01*
G01X-00105572Y-00011429D01*
G01X-00105656Y-00011487D01*
G01X-00105751Y-00011507D01*
G01X-00105836Y-00011488D01*
G01X-00105922Y-00011432D01*
G01X-00106920Y-00010434D01*
G01X-00107001Y-00010331D01*
G01X-00107023Y-00010275D01*
G01X-00107031Y-00010213D01*
G01X-00107012Y-00010147D01*
G01X-00106956Y-00010071D01*
G01X-00106864Y-00010025D01*
G01X-00106746Y-00010010D01*
G01X-00102255Y-00010010D01*
G37*

G36*
G75*
G01X-00001700Y00077550D02*
G03X-00003700Y00079550I00000000J00002000D01*
G03X-00001700Y00077550I00002001J00000001D01*
G37*
G36*
G75*
G01X00120000Y00118703D02*
G03X00118000Y00120703I00000000J00002000D01*
G03X00120000Y00118703I00002001J00000001D01*
G37*
G36*
G75*
G01X-00028203Y00113000D02*
G03X-00030203Y00115000I00000000J00002000D01*
G03X-00028203Y00113000I00002001J00000001D01*
G37*

G54D10*
G01X00011862Y-00020965D02*
G01X00011862Y00045435D01*
G01X-00060862Y00045435D01*
G01X-00060862Y-00020965D01*

G01X00005396Y00075350D02*
G01X00005396Y00045435D01*

G01X-00102904Y00054000D02*
G01X-00102904Y00074000D01*

G01X-00122096Y00054000D02*
G01X-00122096Y00074000D01*

G01X00103800Y00064499D02*
G01X00103800Y00116503D01*
G01X00136200Y00116503D01*
G01X00136200Y00064499D01*

G01X00033946Y00033254D02*
G01X00033946Y00053254D01*

G01X00014754Y00033254D02*
G01X00014754Y00053254D01*

G01X-00034240Y00069904D02*
G01X-00014240Y00069904D01*

G01X-00034240Y00089096D02*
G01X-00014240Y00089096D01*

G01X00028001Y00098800D02*
G01X-00024003Y00098800D01*
G01X-00024003Y00131200D01*
G01X00028001Y00131200D01*

G01X-00064346Y-00055000D02*
G01X-00064346Y-00086000D01*

G01X-00041654Y-00055000D02*
G01X-00041654Y-00086000D01*

G01X-00031500Y-00082846D02*
G01X-00000500Y-00082846D01*

G01X-00031500Y-00060154D02*
G01X-00000500Y-00060154D01*

G01X00039346Y-00088000D02*
G01X00039346Y-00057000D01*

G01X00016654Y-00088000D02*
G01X00016654Y-00057000D01*

G01X00013154Y00010500D02*
G01X00013154Y-00020500D01*

G01X00035846Y00010500D02*
G01X00035846Y-00020500D01*

G01X00103554Y00058500D02*
G01X00103554Y00089500D01*

G01X00080862Y00058500D02*
G01X00080862Y00089500D01*

G01X00030500Y00071154D02*
G01X00061500Y00071154D01*

G01X00030500Y00093846D02*
G01X00061500Y00093846D01*
G04 End Layers*
M02*