G04 Created by Delta Design Version 2.6.36104.0403*
G04 Date: 11.09.2020 14:45:25*
G04 Project: Programming the device ESP-07*
G04 File name: SOLDERPASTE_TOP*
G04 File format: RS274X*

G04 Parameters*
%FSAN2X44Y44D3M2*%
%MIA0B0*%
%MOMM*%
%IOA0B0*%
%SFA1B1*%
%IJ*%
%IR0*%
G04 End parameters*
G04 Aperture macros*
G04 Rectangle: Width = 6.832400 | Height = 7.164000 | Rotation = 180*
%AMRECT1*21,1,6.832400,7.164000,0,0,180*%
G04 Rectangle: Width = 2.164000 | Height = .979200 | Rotation = 270*
%AMRECT2*21,1,2.164000,.979200,0,0,270*%
G04 Rectangle: Width = 1.368800 | Height = 1.479200 | Rotation = 270*
%AMRECT3*21,1,1.368800,1.479200,0,0,270*%
G04 Rectangle: Width = 1.368800 | Height = 1.479200 | Rotation = 90*
%AMRECT4*21,1,1.368800,1.479200,0,0,90*%
G04 Rectangle: Width = 2 | Height = 2.349200 | Rotation = 90*
%AMRECT5*21,1,2,2.349200,0,0,90*%
G04 Rectangle: Width = 2 | Height = 2.349200 | Rotation = 270*
%AMRECT6*21,1,2,2.349200,0,0,270*%
G04 Rectangle: Width = 1.368800 | Height = 1.479200 | Rotation = 180*
%AMRECT7*21,1,1.368800,1.479200,0,0,180*%
G04 Rectangle: Width = 1.368800 | Height = 1.479200 | Rotation = 0*
%AMRECT8*21,1,1.368800,1.479200,0,0,0*%
G04 Rectangle: Width = 2 | Height = 2.349200 | Rotation = 180*
%AMRECT9*21,1,2,2.349200,0,0,180*%
G04 Rectangle: Width = 2 | Height = 2.349200 | Rotation = 0*
%AMRECT10*21,1,2,2.349200,0,0,0*%
G04 Rectangle: Width = 1.269600 | Height = 1.829200 | Rotation = 90*
%AMRECT11*21,1,1.269600,1.829200,0,0,90*%
G04 Rectangle: Width = 1.269600 | Height = 1.829200 | Rotation = 270*
%AMRECT12*21,1,1.269600,1.829200,0,0,270*%
G04 Rectangle: Width = 1.269600 | Height = 1.829200 | Rotation = 180*
%AMRECT13*21,1,1.269600,1.829200,0,0,180*%
G04 Rectangle: Width = 1.269600 | Height = 1.829200 | Rotation = 0*
%AMRECT14*21,1,1.269600,1.829200,0,0,0*%
G04 Rectangle: Width = 1.920000 | Height = 1.120000 | Rotation = 270*
%AMRECT15*21,1,1.920000,1.120000,0,0,270*%
G04 Rectangle: Width = 1.620000 | Height = 1.620000 | Rotation = 90*
%AMRECT16*21,1,1.620000,1.620000,0,0,90*%
G04 End Aperture macros*
G04 Apertures*
%ADD10C,2.020000*%
%ADD11RECT1*%
%ADD12RECT2*%
%ADD13RECT3*%
%ADD14RECT4*%
%ADD15RECT5*%
%ADD16RECT6*%
%ADD17RECT7*%
%ADD18RECT8*%
%ADD19RECT9*%
%ADD20RECT10*%
%ADD21RECT11*%
%ADD22RECT12*%
%ADD23RECT13*%
%ADD24RECT14*%
%ADD25RECT15*%
%ADD26RECT16*%
%ADD27C,1.620000*%
G04 End apertures*
G04 Layers*
%LNSOLDERPASTE_TOP*%
%SRX1Y1I0J0*%
G54D10*
G01X-00065500Y00126000D03*

G01X-00116496Y00126000D03*

G01X00085500Y00126000D03*

G01X00060000Y00126000D03*

G54D11*
G01X-00024500Y00002470D03*

G54D12*
G01X-00047300Y00065530D03*

G01X-00001700Y00065530D03*

G54D10*
G01X00110000Y-00086000D03*

G01X00110500Y-00060500D03*

G01X00111000Y-00035000D03*

G54D13*
G01X-00112500Y00073300D03*

G54D14*
G01X-00112500Y00054698D03*

G54D15*
G01X00120000Y00064696D03*

G54D16*
G01X00120000Y00099304D03*

G54D13*
G01X00024350Y00052554D03*

G54D14*
G01X00024350Y00033952D03*

G54D17*
G01X-00014940Y00079500D03*

G54D18*
G01X-00033542Y00079500D03*

G54D19*
G01X00027804Y00115000D03*

G54D20*
G01X-00006804Y00115000D03*

G54D21*
G01X-00053000Y-00085796D03*

G54D22*
G01X-00053000Y-00055202D03*

G54D23*
G01X-00000704Y-00071500D03*

G54D24*
G01X-00031298Y-00071500D03*

G54D22*
G01X00028000Y-00057204D03*

G54D21*
G01X00028000Y-00087798D03*

G01X00024500Y-00020296D03*

G54D22*
G01X00024500Y00010298D03*

G01X00092208Y00089296D03*

G54D21*
G01X00092208Y00058702D03*

G54D23*
G01X00061296Y00082500D03*

G54D24*
G01X00030702Y00082500D03*

G54D25*
G01X-00116000Y-00024500D03*

G01X-00146000Y-00024500D03*

G01X-00146000Y-00073500D03*

G01X-00116000Y-00073500D03*

G01X00108000Y00038196D03*

G01X00078000Y00038196D03*

G01X00078000Y-00010804D03*

G01X00108000Y-00010804D03*

G54D26*
G01X00053000Y-00085500D03*

G54D27*
G01X00053000Y00054500D03*

G01X00053000Y00034500D03*

G01X00053000Y00014500D03*

G01X00053000Y-00005500D03*

G01X00053000Y-00025500D03*

G01X00053000Y-00045500D03*

G01X00053000Y-00065500D03*

G54D26*
G01X-00087000Y-00085500D03*

G54D27*
G01X-00087000Y00054500D03*

G01X-00087000Y00034500D03*

G01X-00087000Y00014500D03*

G01X-00087000Y-00005500D03*

G01X-00087000Y-00025500D03*

G01X-00087000Y-00045500D03*

G01X-00087000Y-00065500D03*
G04 End Layers*
M02*